<svg width="459" height="456" viewBox="0 0 459 456" fill="none" xmlns="http://www.w3.org/2000/svg">
<path d="M459 215.773C459 347.652 338.548 456 218.096 456C97.645 456 0 386.491 0 254.612C0 122.733 111.9 0 232.351 0C292.448 0 339.018 30.301 380.599 67.6088C422.359 105.077 459 149.692 459 215.773Z" fill="#334768"/>
<path d="M132.535 330.896C135.467 311.659 149.144 243.546 196.286 243.546C199.013 243.546 201.877 243.77 204.776 244.235C219.649 247.438 229.041 257.737 228.692 270.464C228.138 290.977 202.502 318.774 132.535 330.896" fill="white"/>
<path d="M202.276 315.878C226.072 302.049 236.018 285.309 236.417 270.67C236.868 254.05 225.048 240.721 206.285 236.708L206.077 236.673C202.762 236.157 199.464 235.881 196.287 235.881C171.102 235.881 154.526 251.794 143.695 270.877C157.529 238.189 181.065 206.586 220.31 206.586C224.389 206.586 228.641 206.931 232.928 207.602C255.406 212.442 269.569 228.045 269.031 247.386C268.441 268.862 249.504 295.711 202.276 315.878" fill="white"/>
<path d="M328.531 210.647C327.646 242.853 298.625 283.325 225.777 312.861C230.618 310.141 235.31 307.169 239.835 303.957C263.095 287.407 276.215 267.394 276.755 247.589C277.397 224.358 260.786 205.706 234.456 200.073L234.247 200.039C229.509 199.298 224.822 198.919 220.308 198.919C183.738 198.919 154.318 223.771 135.258 270.787C137.69 263.209 140.465 255.425 143.608 247.675C169.783 183.126 207.899 150.387 256.916 150.387C262.887 150.387 269.083 150.888 275.347 151.868C308.449 158.981 329.33 182.043 328.531 210.647" fill="white"/>
</svg>
