<svg xmlns="http://www.w3.org/2000/svg" xmlns:xlink="http://www.w3.org/1999/xlink" viewBox="0 0 110 35.94"><defs><style>.cls-1{fill:none;}.cls-2{}.cls-3{}.cls-4{fill:#001a70;}.cls-5{fill:#0083ca;}.cls-6{fill:#6c8cc7;}</style><clipPath id="clip-path" transform="translate(-5 -12.03)"><rect class="cls-1" width="120" height="60"/></clipPath><clipPath id="clip-path-2" transform="translate(-5 -12.03)"><rect class="cls-1" x="5" y="12.03" width="110" height="35.94"/></clipPath></defs><g id="Layer_2" data-name="Layer 2"><g id="Layer_1-2" data-name="Layer 1"><g id="Logo_Color_Horizontal" data-name="Logo Color Horizontal"><g class="cls-2"><g class="cls-3"><path class="cls-4" d="M51.14,35.73V35.5l2.75-.94c1.85-.63,2.86-1.39,2.86-3.3,0-1.55-1.21-2.6-3.18-2.6-2.39,0-4,1.31-4.24,3.1l-.47,3.42a6.57,6.57,0,0,0-.06.81c0,1.61,1.05,2.61,3.34,2.61h3.14l.3-2H52.43c-.87,0-1.29-.28-1.29-.84m.5-3.81c.12-.88.75-1.25,1.73-1.25.64,0,1.17.23,1.17.77s-.18.82-.83,1l-2.25.78Z" transform="translate(-5 -12.03)"/><polygon class="cls-4" points="56.95 12.92 53.17 12.92 52.87 14.95 54.3 14.95 52.98 24.54 51.32 24.54 51.03 26.57 56.67 26.57 56.97 24.54 55.33 24.54 56.95 12.92"/><polygon class="cls-4" points="85.78 12.65 83.44 12.65 83.08 15.2 85.42 15.2 85.78 12.65"/><polygon class="cls-4" points="85.23 16.63 81.43 16.63 81.13 18.65 82.58 18.65 81.77 24.54 80.11 24.54 79.82 26.57 85.48 26.57 85.78 24.54 84.11 24.54 85.23 16.63"/><path class="cls-4" d="M96.15,28.66h0c-2.24,0-4,1-4,3,0,2.88,4,2.52,4,4,0,.83-.83.93-1.54.93h-3l-.29,2H94.3c2.62,0,4.17-1.31,4.17-3.26,0-3-4-2.71-4-4,0-.44.46-.7,1.45-.7h2.66l.29-2Z" transform="translate(-5 -12.03)"/><path class="cls-4" d="M75.52,28.65h0c-2.24,0-4.05,1-4.05,3,0,2.88,4,2.53,4,4,0,.83-.83.93-1.54.93h-3l-.3,2h3.09c2.62,0,4.18-1.31,4.18-3.26,0-3-4-2.71-4-4,0-.44.46-.7,1.45-.7H78l.29-2Z" transform="translate(-5 -12.03)"/><path class="cls-4" d="M112.25,28.66h0c-2.24,0-4,1-4,3,0,2.88,4,2.52,4,4,0,.83-.83.93-1.55.93h-3l-.29,2h3.09c2.62,0,4.17-1.31,4.17-3.26,0-3-4-2.71-4-4,0-.44.45-.7,1.45-.7h2.66l.29-2Z" transform="translate(-5 -12.03)"/><polygon class="cls-4" points="101.12 16.63 98.12 22.91 96.89 16.63 94.4 16.63 96.51 25.99 94.42 30.15 96.78 30.15 103.61 16.63 101.12 16.63"/><path class="cls-4" d="M68.9,28.66l-.2.77a2.75,2.75,0,0,0-2-.78A3.64,3.64,0,0,0,63,31.88l-.49,3.5a5.11,5.11,0,0,0,0,.53,2.59,2.59,0,0,0,2.82,2.69,3.18,3.18,0,0,0,2.21-.82l0,.82h2.1L71,28.66Zm-.72,3.46-.47,3.34a1.55,1.55,0,0,1-1.63,1.11c-.74,0-1.26-.36-1.26-1a6,6,0,0,1,.08-.8l.46-3A1.46,1.46,0,0,1,67,30.67c.72,0,1.25.37,1.25,1a4.23,4.23,0,0,1,0,.48" transform="translate(-5 -12.03)"/><path class="cls-4" d="M82,36a5.9,5.9,0,0,1,.06-.59l.67-4.77h1.86l.3-2H83.07l.3-2.17H81l-.3,2.17H78.93l-.29,2h1.8l-.69,5a7.39,7.39,0,0,0-.08.83c0,1.43.83,2.11,2.86,2.11h1.6l.27-2H83.19c-.94,0-1.15-.16-1.15-.54" transform="translate(-5 -12.03)"/><path class="cls-5" d="M5,48c.58-3.83,3.28-17.39,12.59-17.39a9.77,9.77,0,0,1,1.68.14c2.94.63,4.8,2.68,4.73,5.22C23.89,40,18.82,45.56,5,48" transform="translate(-5 -12.03)"/><path class="cls-6" d="M18.78,45c4.7-2.75,6.66-6.09,6.74-9,.09-3.31-2.24-6-5.95-6.76h0a13,13,0,0,0-1.94-.16c-5,0-8.25,3.17-10.39,7,2.74-6.51,7.39-12.8,15.14-12.8a16.38,16.38,0,0,1,2.49.2c4.44,1,7.24,4.07,7.14,7.92C31.85,35.62,28.11,41,18.78,45" transform="translate(-5 -12.03)"/><path class="cls-4" d="M43.72,24c-.18,6.41-5.91,14.47-20.3,20.35a31.48,31.48,0,0,0,2.78-1.77c4.59-3.3,7.18-7.28,7.29-11.23.13-4.62-3.15-8.34-8.36-9.46h0a17.39,17.39,0,0,0-2.75-.23c-7.22,0-13,4.95-16.8,14.31.48-1.51,1-3.06,1.65-4.6C12.36,18.55,19.89,12,29.57,12a22.81,22.81,0,0,1,3.64.3c6.54,1.41,10.67,6,10.51,11.7" transform="translate(-5 -12.03)"/></g></g></g></g></g></svg>
