<?xml version="1.0" encoding="UTF-8"?><svg xmlns="http://www.w3.org/2000/svg" viewBox="0 0 532.22 627.08"><defs><style>.cls-1,.cls-2{fill:#22a472;}.cls-3,.cls-4{fill:#f7f1ed;}.cls-4,.cls-2{mix-blend-mode:multiply;}.cls-5{isolation:isolate;}.cls-6{fill:#fffbf9;}.cls-7{fill:#fff;}.cls-8{fill:#cbff8b;}.cls-9{fill:#303b54;}.cls-2{opacity:.5;}</style></defs><g class="cls-5"><g id="Lager_2"><g id="Lager_1-2"><path class="cls-6" d="M470.6,425.65c-1.42-.86-2.16-2.51-1.85-4.14,6.1-32.93,38.55-50.48,54.26-57.15-30.87-21.71-68.45-23.5-111.72-5.31-27.2,11.43-48.39,27.67-55.4,33.38,1.22,2.29,1.87,3.85,1.95,4.06.16.38.25.79.28,1.19.07.09.14.17.2.24,2,1.97,22.04,22.26,22.04,47.45,0,22.93-8.96,38.76-18.46,45.16.23,5.53-.5,11.42-3.2,16.68-3.81,7.42-10.75,12.23-20.62,14.29-2.46.51-4.87.76-7.18.76-.42,0-.82-.02-1.23-.04,1.72,7.97,3.84,20.89,3.78,35.92,34.02,3.53,63.97-5.14,89.08-25.8,21.25-17.48,35.24-39.92,46.13-59.56,5.12-9.23,9.98-19.66,14.67-29.74,5.84-12.51,11.02-23.64,15.87-30.73-12.2,3.98-23.94,12.99-24.07,13.09-1.32,1.02-3.12,1.12-4.53.25ZM394.91,525.63c-12.79,10.83-30.14,17.94-50.17,20.56-.18.02-.35.03-.53.03-1.97,0-3.69-1.47-3.96-3.48-.28-2.19,1.26-4.2,3.45-4.49,18.5-2.41,34.42-8.89,46.04-18.72,13.39-11.34,20.96-27.33,20.25-42.78-.39-8.56-3.38-29.03-22.66-34.37-2.13-.59-3.38-2.8-2.79-4.92.59-2.13,2.8-3.38,4.93-2.79,16.87,4.67,27.54,20.27,28.52,41.71.81,17.91-7.81,36.32-23.08,49.25ZM456.03,483.71c-.67,1.49-2.13,2.38-3.66,2.38-.54,0-1.09-.11-1.62-.34-2.02-.9-2.93-3.26-2.04-5.28.17-.38,16.59-38.93-10.26-77.79-17.46-25.27-44.82-19.92-45.1-19.86-2.17.45-4.28-.94-4.73-3.11-.45-2.16.94-4.28,3.1-4.73,1.33-.27,32.87-6.44,53.32,23.16,29.46,42.65,11.75,83.84,10.99,85.57Z"/><path class="cls-1" d="M346.79,392.74c-26.77-3.58-39.48,3.19-52.87,10.32-5.34,2.85-10.86,5.78-17.55,8.19-2.92-5.09-6.36-9.88-11.3-13.47,25.85-3.61,48.81-10.24,68.89-18.36,5.81,3.59,10.09,9.01,12.83,13.32Z"/><path class="cls-8" d="M234.66,401.54c0,5.86-4.77,10.62-10.62,10.62s-10.62-4.76-10.62-10.62c0-.38.02-.76.06-1.14l21.1-.12c.05.42.08.84.08,1.26Z"/><path class="cls-1" d="M276.62,428.64c-2.44-.28-5.14-.35-8.14-.22-1.38.06-2.76.14-4.15.23-5.31.33-10.33.64-14.94-.66-5.58-1.57-11.07-6.45-13.74-11.92,4.27-3.41,7.01-8.65,7.01-14.53,0-.37-.03-.73-.05-1.1,6.23-.81,12.86.46,17.23,3.43,4.67,3.18,7.82,8.03,10.75,13.44.16.48.4.91.7,1.29.55,1.05,1.1,2.11,1.66,3.18,1.17,2.27,2.37,4.59,3.67,6.86Z"/><path class="cls-1" d="M213.27,416.7c-2.56,5.42-7.38,9.79-12.71,11.29-4.6,1.3-9.62.99-14.93.66-1.39-.09-2.78-.17-4.16-.23-3-.13-5.69-.05-8.14.22,1.31-2.27,2.5-4.59,3.68-6.86,3.69-7.13,7.18-13.87,13.11-17.91,3.88-2.64,8.82-3.73,15.34-3.36-.02.34-.04.69-.04,1.03,0,6.25,3.11,11.78,7.85,15.16Z"/><path class="cls-1" d="M183.91,398.52c-4.44,3.51-7.61,8.01-10.35,12.76-6.72-2.41-12.26-5.36-17.62-8.22-13.59-7.23-26.48-14.1-54.1-10.15,1.89-3.83,5.2-8.72,10.73-12.17,20.77,8.1,44.55,14.56,71.34,17.78Z"/><path class="cls-6" d="M372.36,445.37c0,18.67-6.25,30.09-11.71,35.73-1.36-6.28-3.33-10.82-3.51-11.22-.89-2.02-3.25-2.93-5.27-2.04-2.02.89-2.93,3.25-2.05,5.27.08.18,7.96,18.41,1.75,30.46-2.69,5.23-7.64,8.54-15.12,10.1-14.09,2.93-21.15-5.65-24.1-11.03-5.46-9.93-6.18-25.71.38-38.19,0,0,0-.01.01-.01,1.53-2.92,3.47-5.67,5.85-8.11,5.85-6.01,11.44-10.35,15.93-13.83,1.65-1.28,3.2-2.48,4.59-3.63,1.7-1.41,1.94-3.93.53-5.63-1.41-1.71-3.93-1.95-5.63-.54-1.29,1.07-2.8,2.24-4.39,3.47-4.69,3.64-10.53,8.17-16.77,14.58-.72.75-1.4,1.52-2.06,2.3-.89-3.36-1.87-6.92-2.71-9.95-.73-2.62-1.34-4.85-1.68-6.16-.54-2.14-2.72-3.43-4.86-2.88-2.14.55-3.43,2.73-2.89,4.86.35,1.35.98,3.62,1.72,6.31,1.51,5.47,3.52,12.75,4.47,17.05-7.05,14.7-5.96,32.46.5,44.22,3.83,6.97,9.26,11.75,15.76,14.09,2.17,9.01,6.15,29.79,3.45,52.96-.31.01-.61,0-.93.01-8.72.27-15.53,2.78-15.82,2.88-2.07.77-3.11,3.07-2.35,5.14.77,2.07,3.08,3.12,5.14,2.36.06-.02,6.04-2.2,13.5-2.39,9.45-.25,16.81,2.69,21.88,8.73,5.81,6.91,7.68,14.13,5.11,19.79-2.48,5.49-8.74,8.74-17.16,8.92-9.16.2-15.59.01-21.82-.18-7.73-.24-15.04-.46-26.14.19-8.23.48-14.71-1.27-18.73-5.06-4.17-3.94-5.04-9.35-5.04-13.2,0-16.06-4.53-40.38-19.47-51.75,7.5-1.26,15.54-3.28,24.04-6.29,2.08-.74,3.17-3.03,2.44-5.11-.74-2.08-3.03-3.17-5.11-2.43-24.58,8.71-44.9,8.31-57.61,6.44-13.73-2.01-21.82-6.13-21.98-6.22-1.96-1.02-4.37-.27-5.4,1.69-1.03,1.95-.27,4.37,1.68,5.4.69.36,8.98,4.6,23.06,6.87-14.58,11.51-19.03,35.5-19.03,51.4,0,3.85-.87,9.26-5.04,13.2-4.02,3.79-10.49,5.54-18.73,5.06-11.1-.65-18.41-.43-26.15-.19-6.22.19-12.65.38-21.81.18-8.42-.18-14.68-3.43-17.17-8.92-2.56-5.66-.69-12.88,5.12-19.79,5.07-6.04,12.45-8.99,21.88-8.73,7.45.19,13.42,2.36,13.5,2.39,2.07.77,4.37-.28,5.14-2.35s-.28-4.38-2.35-5.15c-.29-.1-7.1-2.61-15.83-2.88-.3-.01-.6-.01-.9-.01-1.77-15.84-.33-33.7,4.28-53.15,6.27-2.41,11.53-7.11,15.26-13.9,6.46-11.76,7.55-29.52.5-44.21.95-4.31,2.96-11.59,4.47-17.06.74-2.69,1.37-4.96,1.72-6.31.54-2.13-.75-4.31-2.89-4.86s-4.32.74-4.87,2.88c-.33,1.31-.95,3.53-1.67,6.16-.84,3.02-1.82,6.59-2.71,9.95-.66-.78-1.34-1.55-2.06-2.3-6.24-6.41-12.08-10.94-16.77-14.57-1.59-1.24-3.1-2.41-4.39-3.48-1.7-1.41-4.23-1.17-5.63.54-1.41,1.7-1.17,4.22.53,5.63,1.39,1.15,2.94,2.35,4.59,3.63,4.49,3.48,10.08,7.82,15.93,13.83,2.38,2.44,4.31,5.19,5.85,8.11h.01c6.56,12.49,5.84,28.28.38,38.21-2.95,5.37-10,13.96-24.1,11.02-7.48-1.56-12.43-4.87-15.12-10.1-2.26-4.38-2.65-9.57-2.24-14.42,0-.03.01-.06.01-.1.74-8.41,3.89-15.75,3.97-15.94.89-2.02-.02-4.38-2.04-5.27-2.02-.89-4.38.02-5.27,2.04-.18.41-2.21,5.08-3.57,11.51-5.74-6.15-11.66-18.25-11.66-36.02,0-22.01,18.69-40.79,19.68-41.77.18-.15,1.04-.89,2.45-1.8,29.2-5.44,41.2.94,55.07,8.33,5.32,2.83,10.82,5.75,17.57,8.26-1.69,3.28-3.31,6.38-5.18,9.27-1.39,2.15-1.35,4.88.12,6.97,1.17,1.68,3.06,2.63,5.04,2.63.47,0,.94-.05,1.41-.16,2.72-.63,5.99-.85,10-.69,1.33.06,2.66.14,3.99.22,5.75.36,11.69.73,17.6-.94,7.71-2.17,14.41-8.21,17.91-15.85,1.1.2,2.23.32,3.4.32,1.53,0,3.02-.21,4.45-.56,3.68,7.46,11.01,13.91,18.73,16.09,5.91,1.67,11.86,1.3,17.6.94,1.34-.08,2.67-.16,4-.22,4-.16,7.27.06,10,.69.47.11.94.16,1.41.16,1.98,0,3.86-.95,5.04-2.63,1.46-2.09,1.51-4.82.12-6.97-1.88-2.89-3.5-6.01-5.2-9.3,6.71-2.51,12.19-5.41,17.49-8.23,13.58-7.23,25.36-13.5,53.24-8.66.69.92,1.29,1.62,1.51,1.87.06.07.14.15.21.22.2.19,19.72,19.31,19.72,41.81Z"/><path class="cls-1" d="M113.79,564.06c-47.91-3.91-71.95,4.81-85.04,9.57-9.35,3.4-10.39,3.3-11.99,1.26-6.75-8.65,8.09-46.25,21.35-66.21,8.79-13.23,22.09-36.22,29.94-49.99,2.64,15.93,9.83,27.06,17.39,32.24-.18,5.41.57,11.15,3.21,16.28,3.81,7.42,10.75,12.23,20.62,14.29,2.46.51,4.86.76,7.18.76.57,0,1.12-.02,1.68-.05-3.26,14.88-4.72,28.89-4.34,41.85Z"/><path class="cls-3" d="M384.83,198.23c-9.06-12.82-16.65-25.64-22.64-35.78-3.03-5.13-5.64-9.56-7.87-12.99-10.59-16.36-22.13-30.29-31.41-40.46,51.15-37.51,69.44-77.94,75.15-94.58,11.21,24.48,34.77,95.18-13.23,183.81Z"/><path class="cls-3" d="M120.33,109c-9.28,10.18-20.82,24.1-31.41,40.46-2.21,3.42-4.81,7.82-7.83,12.92-6,10.16-13.6,23.01-22.69,35.86C10.4,109.61,33.96,38.92,45.17,14.42c5.71,16.64,23.99,57.08,75.16,94.58Z"/><path class="cls-6" d="M415.81,302.5c.19.11,4.55,2.49,11.32,3.71-17.74,19.79-80.16,79.87-187.51,86.04h-1.97s0,.01-.01.01l-27.33.16-3.08.02c-35.98-1.65-67-9.34-93.08-19.65-.26-.14-.53-.25-.81-.33-52.79-21.07-85.16-52.78-97.23-66.25,6.77-1.22,11.13-3.6,11.32-3.71,1.12-.61,1.87-1.73,2.04-2.99.16-1.26-.29-2.53-1.21-3.41-16.67-15.86-19.84-30.59-20.25-37.96-.08-1.47.64-2.79,1.86-3.37,19.86-9.53,36.72-27.22,50.49-45.62.73-.51,1.24-1.22,1.5-2.03,10.64-14.48,19.36-29.23,26.12-40.67,2.97-5.03,5.53-9.36,7.65-12.64,21.46-33.15,47.78-56.78,48.04-57.01,1.65-1.47,1.79-4,.32-5.65-1.47-1.65-3.99-1.79-5.64-.32-.47.41-5.37,4.81-12.52,12.28-32.52-23.68-51.1-48.66-61.02-65.66-7.48-12.81-11.27-23.08-12.96-28.43,12.96,3.69,46.74,16.39,110.08,58.84,5.21,3.5,11.33,5.21,17.26,4.83,9.02-.59,14.65-5.84,15.44-14.42.49-5.2.27-9.95-.65-14.2,4.1,3.54,9.04,9.6,13.7,19.98.76,1.68,2.57,2.63,4.39,2.28,1.82-.34,3.16-1.89,3.25-3.73.01-.11.57-10.54,5.34-21.51,6.16-14.17,16.21-22.62,29.81-25.14-3.25,10.9-6.25,31.84,10.18,49.55,22.03,23.75,22.73,40.1,15.96,67.76-.52,2.15.79,4.31,2.94,4.84,2.15.52,4.31-.79,4.84-2.94,6.03-24.68,6.42-42.52-8.1-63.16,15.29-10.41,79.08-52.95,115.09-63-1.68,5.35-5.47,15.62-12.96,28.44-9.92,17-28.5,41.99-61.01,65.67-7.15-7.47-12.05-11.87-12.51-12.28-1.65-1.47-4.18-1.33-5.65.32-1.47,1.65-1.32,4.18.33,5.65.26.23,26.57,23.86,48.03,57.01,2.13,3.29,4.71,7.65,7.7,12.71,6.74,11.41,15.45,26.14,26.05,40.59.26.81.78,1.53,1.52,2.04,13.76,18.41,30.62,36.09,50.47,45.62,1.21.58,1.95,1.9,1.86,3.36-.4,7.38-3.57,22.12-20.22,37.98-.92.87-1.37,2.14-1.21,3.4.16,1.26.92,2.37,2.03,2.99Z"/><path class="cls-3" d="M113.2,496.72c-10.21-3.06-18.3-12.27-20.03-22.79-5.23-.88-9.82-4.15-13.28-8.17-3.46-4.02-5.94-8.77-8.39-13.48,2.09,10.15,4.32,20.64,10.38,29.05,1.81,2.51,3.94,4.81,5.33,7.57,1.68,3.35,2.16,7.16,3.41,10.7,4.08,11.55,17.36,19.02,29.35,16.52,8.88-1.85,17.65-9.78,19.47-18.89,1.57-7.83-5.97-1.79-9.73-.65-5.34,1.62-11.16,1.75-16.52.15Z"/><path class="cls-3" d="M333.25,496.72c10.21-3.06,18.3-12.27,20.03-22.79,5.23-.88,9.82-4.15,13.28-8.17,3.46-4.02,5.94-8.77,8.39-13.48-2.09,10.15-4.32,20.64-10.38,29.05-1.81,2.51-3.94,4.81-5.33,7.57-1.68,3.35-2.16,7.16-3.41,10.7-4.08,11.55-17.36,19.02-29.35,16.52-8.88-1.85-17.65-9.78-19.47-18.89-1.57-7.83,5.97-1.79,9.73-.65,5.34,1.62,11.16,1.75,16.52.15Z"/><path class="cls-3" d="M110.88,335.43c33.88,26,74.75,44.89,117.46,45.31,39.09.38,77.29-14.86,108.81-37.98,31.52-23.12,56.84-53.77,78.4-86.37,3.06-4.62,6.83-9.78,12.36-10.16,6.94-.49,12.01,7.53,11.22,14.44-.79,6.92-5.47,12.68-9.94,18.01-4.48,5.33-9.15,11.09-9.93,18.01,3.71-3.99,10.99,1.12,10.71,6.57-.28,5.45-4.77,9.61-8.97,13.09-17.31,14.35-35.26,28.03-54.61,39.46-55.84,32.98-123.09,46.19-187.25,36.79-64.16-9.4-124.8-41.36-168.82-88.97,4.95-2.77,9.91-5.53,14.86-8.3-7.28-7.57-14.81-15.58-17.69-25.68-2-7.03-1.37-21.28,7.33-23.92,8.96-2.72,16.73,9.95,21.43,15.43,14.64,17.08,29.63,33.91,45.9,49.47,9.15,8.75,18.7,17.1,28.75,24.81Z"/><path class="cls-4" d="M91.06,98.16c.72,12.15-3.33,25.13-12.92,32.63-6.75,5.28-15.7,7.37-24.23,6.5-8.52-.87-16.62-4.55-23.47-9.7,5.74,26.11,15.06,51.44,27.63,75.04,9.38-5.88,13.03-17.44,17.4-27.6,11.26-26.21,31.01-47.69,50.39-68.62-1.69,1.83-28.54-23.58-31.13-25.91-2.24-2.02-14.11-12.1-11.93-8.83,1.57,2.36,6.16,14.04,6.55,15.67.87,3.56,1.47,7.18,1.69,10.84Z"/><path class="cls-4" d="M351.89,98.16c-.72,12.15,3.33,25.13,12.92,32.63,6.75,5.28,15.7,7.37,24.23,6.5,8.52-.87,16.62-4.55,23.47-9.7-5.74,26.11-15.06,51.44-27.63,75.04-9.38-5.88-13.03-17.44-17.4-27.6-11.26-26.21-31.01-47.69-50.39-68.62,1.69,1.83,28.54-23.58,31.13-25.91,2.24-2.02,14.11-12.1,11.93-8.83-1.57,2.36-6.16,14.04-6.55,15.67-.87,3.56-1.47,7.18-1.69,10.84Z"/><path class="cls-3" d="M403.36,505.4c6.86-10.97,11.07-24.05,9.32-36.87-1.75-12.82-10.25-25.08-22.56-29.07-3.92-1.27-8.18-1.74-11.71-3.88-8.4-5.11-9.14-17.07-15.24-24.78-3.19-4.03-7.92-6.97-9.87-11.73-2.23-5.43-.07-11.86,3.83-16.24,4.91-5.5,12.24-8.4,19.57-9.23,7.33-.83,14.74.24,21.99,1.57,11.12,2.04,22.47,4.9,31.48,11.73,10.97,8.33,17.08,21.52,21.27,34.64,6.47,20.26,9.35,41.99,5.62,62.93-3.74,20.94-14.51,41.02-31.61,53.68-10.72,7.94-23.43,12.72-36.19,16.62-12.58,3.84-25.41,6.91-38.44,8.65-6.37.85-13.41,1.23-18.63-2.51-6.32-4.52-5.83-14.93,1.59-17.41,8.12-2.72,17.86-1.54,26.38-4.42,17.61-5.96,33.31-17.86,43.2-33.68Z"/><path class="cls-3" d="M165.2,414.94c-3.42,20.94-6.84,42.38-3.11,63.27,3.74,20.89,16.07,41.5,35.8,49.31,12.23,4.84,25.62,3.84,38.34,1.53,26.8-4.87,37.61-18.28,43.03-31.19,10.78-25.69,14.92-59.2,5.51-85.93-4.54-.29-7.12,4.12-6.81,8.21.34,4.46,3.2,8.27,5.94,11.8-7.64,1.21-15.35,2.42-23.07,1.96s-15.56-2.75-21.42-7.79c-3.18-2.74-5.71-6.22-9.13-8.66-3.41-2.45-8.27-3.66-11.76-1.33-3.9,8.39-12.65,13.7-21.67,15.75-9.02,2.05-18.41,1.32-27.63.58,1.43-5.32,2.87-10.65,4.3-15.97-2.96-.59-5.36-.95-8.33-1.53Z"/><path class="cls-2" d="M92.62,549.45c-10.84,6.44-23.5,8.91-35.61,12.43s-24.49,8.64-32.19,18.64c28.53-13.1,61.22-16.96,92.02-10.88-.12-14.49,1.7-29,5.39-43.02.53-2.03,1.08-4.3.05-6.13-1.61-2.85-7.42-3.29-9.78-1.09-2.37,2.21-1.8,7.47-2.91,10.56-2.96,8.25-9.54,15.05-16.98,19.48Z"/><path class="cls-1" d="M193.49,569.57c-.45,1.46-.71,3.27.39,4.34.86.84,2.21.84,3.41.8,19.04-.69,38.09-1.39,57.13-2.08-.37.01-4.99-7.7-5.69-8.54-2.21-2.62-4.71-5-7.42-7.09-5.53-4.26-11.95-7.31-18.76-8.88-13.34-3.08-25.38,9.37-29.05,21.45Z"/><path class="cls-2" d="M193.49,569.57c-.45,1.46-.71,3.27.39,4.34.86.84,2.21.84,3.41.8,19.04-.69,38.09-1.39,57.13-2.08-.37.01-4.99-7.7-5.69-8.54-2.21-2.62-4.71-5-7.42-7.09-5.53-4.26-11.95-7.31-18.76-8.88-13.34-3.08-25.38,9.37-29.05,21.45Z"/><path class="cls-2" d="M81.67,500.85c-2.95-4.73-4.94-10.05-8.34-14.48-3.43-4.48-8.25-7.87-13.63-9.59-1.36-.44-2.85-.83-3.76-1.93-1.72-2.08-.39-5.21,1.13-7.44,3.55-5.21,7.94-9.84,12.96-13.65,2.7,12.86,10.71,23.83,16.64,35.56,1.86,3.68,3.52,7.45,5.2,11.21,3.17,7.06,6.76,12.26,12.26,17.59-8.98-1.54-17.8-9.8-22.46-17.26Z"/><path class="cls-2" d="M198.34,419.47c-4.73,1.89-9.9,2.34-14.84,3.58s-9.98,3.54-12.62,7.9c5.63-.69,11.33,0,16.99.45,5.66.44,11.47.61,16.88-1.09s10.43-5.6,12.1-11.02c.46-1.5.65-3.17,0-4.6-1.17-2.59-6.5-6.27-8.97-3.8-1.46,1.46-2.14,3.53-3.73,4.99-1.69,1.54-3.7,2.74-5.82,3.58Z"/><path class="cls-2" d="M250.15,419.47c4.73,1.89,9.9,2.34,14.84,3.58s9.98,3.54,12.62,7.9c-5.63-.69-11.33,0-16.99.45-5.66.44-11.47.61-16.88-1.09-5.41-1.7-10.43-5.6-12.1-11.02-.46-1.5-.65-3.17,0-4.6,1.17-2.59,6.5-6.27,8.97-3.8,1.46,1.46,2.14,3.53,3.73,4.99,1.69,1.54,3.7,2.74,5.82,3.58Z"/><path class="cls-2" d="M127.71,396.31c-3.42.17-7.07-.09-9.88-2.05s-4.31-6.12-2.39-8.96c1.36-2.02,4.21-3.23,4.37-5.67.13-2.04-1.97-3.69-4.01-3.76s-3.95.98-5.63,2.15c-4.16,2.88-7.73,6.62-10.42,10.92-.71,1.14-1.39,2.42-1.25,3.76.27,2.62,3.35,3.93,5.98,4.13,6.12.47,12.27-2.03,18.31-.98"/><path class="cls-2" d="M318.47,396.31c3.42.17,7.07-.09,9.88-2.05,2.81-1.97,4.31-6.12,2.39-8.96-1.36-2.02-4.21-3.23-4.37-5.67-.13-2.04,1.97-3.69,4.01-3.76,2.04-.08,3.95.98,5.63,2.15,4.16,2.88,7.73,6.62,10.42,10.92.71,1.14,1.39,2.42,1.25,3.76-.27,2.62-3.35,3.93-5.98,4.13-6.12.47-12.27-2.03-18.31-.98"/><path class="cls-9" d="M187.3,192.77c-.81,0-1.63-.25-2.34-.76-.11-.08-11.27-8.09-26.43-15.56-8.92-4.4-25.14,1.28-30.64,3.84-2,.93-4.38.07-5.31-1.94-.93-2-.07-4.38,1.93-5.31.95-.44,23.36-10.76,37.56-3.76,15.79,7.79,27.1,15.91,27.57,16.25,1.79,1.29,2.19,3.79.9,5.58-.78,1.08-2.01,1.66-3.25,1.66Z"/><path class="cls-9" d="M260.9,192.77c-1.24,0-2.46-.58-3.25-1.66-1.29-1.79-.89-4.29.9-5.58.47-.34,11.78-8.46,27.57-16.25,14.2-7,36.62,3.32,37.56,3.76,2,.94,2.87,3.32,1.93,5.32-.94,2-3.31,2.87-5.32,1.93-5.5-2.56-21.72-8.23-30.64-3.84-15.19,7.5-26.31,15.48-26.42,15.56-.71.51-1.53.76-2.34.76Z"/><circle class="cls-9" cx="143.86" cy="245.3" r="30.21"/><circle class="cls-7" cx="153.03" cy="232.82" r="6.3"/><circle class="cls-7" cx="161.1" cy="246.8" r="3.96"/><circle class="cls-9" cx="304.2" cy="245.3" r="30.21"/><circle class="cls-7" cx="313.11" cy="232.82" r="6.3"/><circle class="cls-7" cx="321.17" cy="246.8" r="3.96"/><path class="cls-9" d="M227.36,337.98c-2.37,1.46-5.34,1.46-7.71,0-7.47-4.6-21.56-17.05-18.9-24.27,3.29-8.91,14.82-8.66,22.75-8.66s19.46-.25,22.75,8.66c2.67,7.22-11.42,19.67-18.9,24.27Z"/><path class="cls-9" d="M241.26,271.34c-.49,0-.98-.09-1.46-.28-18.34-7.18-30.67-.53-31.18-.24-1.93,1.07-4.36.39-5.44-1.53s-.42-4.34,1.49-5.43c.64-.37,15.98-8.89,38.05-.25,2.06.81,3.07,3.13,2.27,5.18-.62,1.58-2.13,2.54-3.73,2.54Z"/><path class="cls-9" d="M275.32,341.13c-5.47-8.89-15.04-8.96-19.33-7.76-2.11.59-3.33,2.77-2.76,4.89.56,2.07,2.66,3.3,4.73,2.85-24.57,20.93-54.97,12.27-56.4,11.84-2.12-.64-4.35.56-4.98,2.68s.56,4.35,2.68,4.98c.71.21,8.45,2.46,19.32,2.46,13.78,0,32.59-3.62,48.54-19.54.49.5.96,1.09,1.39,1.79.75,1.23,2.07,1.9,3.41,1.9.71,0,1.44-.19,2.09-.59,1.88-1.16,2.47-3.62,1.31-5.5Z"/><path class="cls-7" d="M236.72,316.36c-.13,0-.27-.02-.41-.05-13.33-3.64-24.8-.06-24.91-.02-.81.26-1.68-.19-1.94-1-.26-.81.18-1.68,1-1.94.5-.16,12.42-3.91,26.67-.02.82.23,1.31,1.07,1.08,1.9-.19.69-.81,1.14-1.49,1.14Z"/><path class="cls-9" d="M456.03,483.71c-.67,1.49-2.13,2.38-3.66,2.38-.54,0-1.09-.11-1.62-.34-2.02-.9-2.93-3.26-2.04-5.28.17-.38,16.59-38.93-10.26-77.79-17.46-25.27-44.82-19.92-45.1-19.86-2.17.45-4.28-.94-4.73-3.11-.45-2.16.94-4.28,3.1-4.73,1.33-.27,32.87-6.44,53.32,23.16,29.46,42.65,11.75,83.84,10.99,85.57Z"/><path class="cls-9" d="M394.91,525.63c-12.79,10.83-30.14,17.94-50.17,20.56-.18.02-.35.03-.53.03-1.97,0-3.69-1.47-3.96-3.48-.28-2.19,1.26-4.2,3.45-4.49,18.5-2.41,34.42-8.89,46.04-18.72,13.39-11.34,20.96-27.33,20.25-42.78-.39-8.56-3.38-29.03-22.66-34.37-2.13-.59-3.38-2.8-2.79-4.92.59-2.13,2.8-3.38,4.93-2.79,16.87,4.67,27.54,20.27,28.52,41.71.81,17.91-7.81,36.32-23.08,49.25Z"/><path class="cls-9" d="M529.4,359.11c-33.19-24.3-75.17-26.84-121.4-7.35-27.38,11.54-48.37,27.34-56.38,33.82-2.33-3.24-5.34-6.75-9.04-9.79,49.92-22.12,80.37-52.75,91.35-65.17,1.79-2.03,2.32-4.87,1.4-7.41-.91-2.5-3.11-4.3-5.73-4.69-1.78-.27-3.37-.64-4.74-1.03,14.87-16.12,17.91-31.06,18.34-38.9.27-4.71-2.24-9.03-6.39-11.02-18.09-8.68-33.77-24.97-46.78-42.19,58.33-104.43,20.06-186.1,11.73-201.51-1.56-2.87-4.84-4.39-7.99-3.7-37.19,8.17-106.75,54.79-122.36,65.48-1.52-1.83-3.14-3.68-4.89-5.58-13.73-14.8-11.15-32.55-8.38-41.82.8-2.67.16-5.52-1.71-7.6-1.87-2.08-4.61-3.03-7.35-2.53-16.28,2.98-28.68,13.36-35.86,30.03-1.82,4.22-3.08,8.32-3.95,11.91-5.48-8.66-11.01-13.26-15.13-15.7-2.31-1.36-5.25-1.11-7.3.63-2.07,1.76-2.77,4.52-1.79,7.04,1.13,2.9,2.32,7.94,1.62,15.5-.31,3.32-1.5,6.76-8,7.19-4.18.26-8.53-.97-12.29-3.49C147.98,48.89,85.19,8.04,49.54.17c-3.19-.7-6.51.81-8.06,3.69-8.34,15.41-46.61,97.07,11.72,201.51-13.01,17.22-28.69,33.5-46.79,42.18-4.14,1.99-6.65,6.32-6.39,11.03.43,7.84,3.48,22.78,18.36,38.9-1.37.39-2.96.76-4.74,1.03-2.62.39-4.82,2.2-5.73,4.7-.92,2.54-.39,5.36,1.39,7.38,11.28,12.78,42.81,44.44,94.63,66.62-7.44,6.46-10.58,14.66-11.66,18.2-1.82,1.23-2.91,2.2-3.11,2.39-.89.85-21.56,21.05-22.15,46.47-3.37,6.01-23.7,42.12-35.57,59.98-9.42,14.19-32.88,60.32-20.98,75.56,2.6,3.32,5.43,4.53,8.66,4.53,3.57,0,7.62-1.47,12.36-3.19,12.62-4.58,35.87-13.02,82.81-9.02.06.68.13,1.35.2,2.02-7.98,1.39-14.65,5.11-19.59,10.98-7.87,9.37-10.16,19.66-6.27,28.24,3.75,8.28,12.82,13.37,24.27,13.62,2.81.06,5.35.09,7.72.09,5.54,0,10.08-.14,14.52-.27,7.88-.24,14.69-.45,25.43.18,10.49.61,19.03-1.9,24.69-7.24,4.94-4.66,7.55-11.23,7.55-19.01,0-.93.08-11.36,3.01-22.45,6.2.55,20,1.61,33.69,1.61,7.76,0,15.47-.35,21.75-1.31,2.86,10.98,2.93,21.23,2.93,22.15,0,7.78,2.61,14.35,7.55,19.01,5.66,5.35,14.19,7.85,24.69,7.24,10.74-.63,17.55-.42,25.43-.18,4.44.13,8.97.27,14.52.27,2.37,0,4.91-.03,7.71-.09,11.46-.25,20.53-5.34,24.28-13.62,3.89-8.58,1.6-18.87-6.27-28.24-4.93-5.87-11.6-9.57-19.57-10.97.31-2.7.54-5.38.69-8.01,5.02.51,9.97.77,14.83.77,29.92,0,56.61-9.52,79.56-28.4,22.29-18.33,36.79-41.56,48.05-61.86,5.25-9.48,10.17-20.03,14.93-30.24,6.61-14.18,12.85-27.57,17.79-32.91,1.84-1.99,2.18-4.92.86-7.29-1.31-2.35-3.95-3.59-6.57-3.08-8.27,1.61-16.69,5.83-22.88,9.53,5.22-12.19,17.82-29.43,48.18-41.7,2.29-.93,3.89-3.02,4.2-5.46.31-2.47-.76-4.93-2.77-6.41ZM346.79,392.74c-26.77-3.58-39.48,3.19-52.87,10.32-5.34,2.85-10.86,5.78-17.55,8.19-2.92-5.09-6.36-9.88-11.3-13.47,25.85-3.61,48.81-10.24,68.89-18.36,5.81,3.59,10.09,9.01,12.83,13.32ZM242.61,400.44c6.23-.81,12.86.46,17.23,3.43,4.67,3.18,7.82,8.03,10.75,13.44.16.48.4.91.7,1.29.55,1.05,1.1,2.11,1.66,3.18,1.17,2.27,2.37,4.59,3.67,6.86-2.44-.28-5.14-.35-8.14-.22-1.38.06-2.76.14-4.15.23-5.31.33-10.33.64-14.94-.66-5.58-1.57-11.07-6.45-13.74-11.92,4.27-3.41,7.01-8.65,7.01-14.53,0-.37-.03-.73-.05-1.1ZM398.06,14.42c11.21,24.48,34.77,95.18-13.23,183.81-9.06-12.82-16.65-25.64-22.64-35.78-3.03-5.13-5.64-9.56-7.87-12.99-10.59-16.36-22.13-30.29-31.41-40.46,51.15-37.51,69.44-77.94,75.15-94.58ZM45.17,14.42c5.71,16.64,23.99,57.08,75.16,94.58-9.28,10.18-20.82,24.1-31.41,40.46-2.21,3.42-4.81,7.82-7.83,12.92-6,10.16-13.6,23.01-22.69,35.86C10.4,109.61,33.96,38.92,45.17,14.42ZM16.11,306.21c6.77-1.22,11.13-3.6,11.32-3.71,1.12-.61,1.87-1.73,2.04-2.99.16-1.26-.29-2.53-1.21-3.41-16.67-15.86-19.84-30.59-20.25-37.96-.08-1.47.64-2.79,1.86-3.37,19.86-9.53,36.72-27.22,50.49-45.62.73-.51,1.24-1.22,1.5-2.03,10.64-14.48,19.36-29.23,26.12-40.67,2.97-5.03,5.53-9.36,7.65-12.64,21.46-33.15,47.78-56.78,48.04-57.01,1.65-1.47,1.79-4,.32-5.65-1.47-1.65-3.99-1.79-5.64-.32-.47.41-5.37,4.81-12.52,12.28-32.52-23.68-51.1-48.66-61.02-65.66-7.48-12.81-11.27-23.08-12.96-28.43,12.96,3.69,46.74,16.39,110.08,58.84,5.21,3.5,11.33,5.21,17.26,4.83,9.02-.59,14.65-5.84,15.44-14.42.49-5.2.27-9.95-.65-14.2,4.1,3.54,9.04,9.6,13.7,19.98.76,1.68,2.57,2.63,4.39,2.28,1.82-.34,3.16-1.89,3.25-3.73.01-.11.57-10.54,5.34-21.51,6.16-14.17,16.21-22.62,29.81-25.14-3.25,10.9-6.25,31.84,10.18,49.55,22.03,23.75,22.73,40.1,15.96,67.76-.52,2.15.79,4.31,2.94,4.84,2.15.52,4.31-.79,4.84-2.94,6.03-24.68,6.42-42.52-8.1-63.16,15.29-10.41,79.08-52.95,115.09-63-1.68,5.35-5.47,15.62-12.96,28.44-9.92,17-28.5,41.99-61.01,65.67-7.15-7.47-12.05-11.87-12.51-12.28-1.65-1.47-4.18-1.33-5.65.32-1.47,1.65-1.32,4.18.33,5.65.26.23,26.57,23.86,48.03,57.01,2.13,3.29,4.71,7.65,7.7,12.71,6.74,11.41,15.45,26.14,26.05,40.59.26.81.78,1.53,1.52,2.04,13.76,18.41,30.62,36.09,50.47,45.62,1.21.58,1.95,1.9,1.86,3.36-.4,7.38-3.57,22.12-20.22,37.98-.92.87-1.37,2.14-1.21,3.4.16,1.26.92,2.37,2.03,2.99.19.11,4.55,2.49,11.32,3.71-17.74,19.79-80.16,79.87-187.51,86.04h-1.97s0,.01-.01.01l-27.33.16-3.08.02c-35.98-1.65-67-9.34-93.08-19.65-.26-.14-.53-.25-.81-.33-52.79-21.07-85.16-52.78-97.23-66.25ZM234.66,401.54c0,5.86-4.77,10.62-10.62,10.62s-10.62-4.76-10.62-10.62c0-.38.02-.76.06-1.14l21.1-.12c.05.42.08.84.08,1.26ZM213.27,416.7c-2.56,5.42-7.38,9.79-12.71,11.29-4.6,1.3-9.62.99-14.93.66-1.39-.09-2.78-.17-4.16-.23-3-.13-5.69-.05-8.14.22,1.31-2.27,2.5-4.59,3.68-6.86,3.69-7.13,7.18-13.87,13.11-17.91,3.88-2.64,8.82-3.73,15.34-3.36-.02.34-.04.69-.04,1.03,0,6.25,3.11,11.78,7.85,15.16ZM112.57,380.74c20.77,8.1,44.55,14.56,71.34,17.78-4.44,3.51-7.61,8.01-10.35,12.76-6.72-2.41-12.26-5.36-17.62-8.22-13.59-7.23-26.48-14.1-54.1-10.15,1.89-3.83,5.2-8.72,10.73-12.17ZM113.79,564.06c-47.91-3.91-71.95,4.81-85.04,9.57-9.35,3.4-10.39,3.3-11.99,1.26-6.75-8.65,8.09-46.25,21.35-66.21,8.79-13.23,22.09-36.22,29.94-49.99,2.64,15.93,9.83,27.06,17.39,32.24-.18,5.41.57,11.15,3.21,16.28,3.81,7.42,10.75,12.23,20.62,14.29,2.46.51,4.86.76,7.18.76.57,0,1.12-.02,1.68-.05-3.26,14.88-4.72,28.89-4.34,41.85ZM198.4,570.48c4.1-10.12,11.22-19.03,23.57-19.72.77,0,1.56,0,2.35-.02,12.95.38,20.29,9.66,24.44,20.13-15.34,2.09-39.82.47-50.36-.39ZM345.97,590.29c5.81,6.91,7.68,14.13,5.11,19.79-2.48,5.49-8.74,8.74-17.16,8.92-9.16.2-15.59.01-21.82-.18-7.73-.24-15.04-.46-26.14.19-8.23.48-14.71-1.27-18.73-5.06-4.17-3.94-5.04-9.35-5.04-13.2,0-16.06-4.53-40.38-19.47-51.75,7.5-1.26,15.54-3.28,24.04-6.29,2.08-.74,3.17-3.03,2.44-5.11-.74-2.08-3.03-3.17-5.11-2.43-24.58,8.71-44.9,8.31-57.61,6.44-13.73-2.01-21.82-6.13-21.98-6.22-1.96-1.02-4.37-.27-5.4,1.69-1.03,1.95-.27,4.37,1.68,5.4.69.36,8.98,4.6,23.06,6.87-14.58,11.51-19.03,35.5-19.03,51.4,0,3.85-.87,9.26-5.04,13.2-4.02,3.79-10.49,5.54-18.73,5.06-11.1-.65-18.41-.43-26.15-.19-6.22.19-12.65.38-21.81.18-8.42-.18-14.68-3.43-17.17-8.92-2.56-5.66-.69-12.88,5.12-19.79,5.07-6.04,12.45-8.99,21.88-8.73,7.45.19,13.42,2.36,13.5,2.39,2.07.77,4.37-.28,5.14-2.35s-.28-4.38-2.35-5.15c-.29-.1-7.1-2.61-15.83-2.88-.3-.01-.6-.01-.9-.01-1.77-15.84-.33-33.7,4.28-53.15,6.27-2.41,11.53-7.11,15.26-13.9,6.46-11.76,7.55-29.52.5-44.21.95-4.31,2.96-11.59,4.47-17.06.74-2.69,1.37-4.96,1.72-6.31.54-2.13-.75-4.31-2.89-4.86s-4.32.74-4.87,2.88c-.33,1.31-.95,3.53-1.67,6.16-.84,3.02-1.82,6.59-2.71,9.95-.66-.78-1.34-1.55-2.06-2.3-6.24-6.41-12.08-10.94-16.77-14.57-1.59-1.24-3.1-2.41-4.39-3.48-1.7-1.41-4.23-1.17-5.63.54-1.41,1.7-1.17,4.22.53,5.63,1.39,1.15,2.94,2.35,4.59,3.63,4.49,3.48,10.08,7.82,15.93,13.83,2.38,2.44,4.31,5.19,5.85,8.11h.01c6.56,12.49,5.84,28.28.38,38.21-2.95,5.37-10,13.96-24.1,11.02-7.48-1.56-12.43-4.87-15.12-10.1-2.26-4.38-2.65-9.57-2.24-14.42,0-.03.01-.06.01-.1.74-8.41,3.89-15.75,3.97-15.94.89-2.02-.02-4.38-2.04-5.27-2.02-.89-4.38.02-5.27,2.04-.18.41-2.21,5.08-3.57,11.51-5.74-6.15-11.66-18.25-11.66-36.02,0-22.01,18.69-40.79,19.68-41.77.18-.15,1.04-.89,2.45-1.8,29.2-5.44,41.2.94,55.07,8.33,5.32,2.83,10.82,5.75,17.57,8.26-1.69,3.28-3.31,6.38-5.18,9.27-1.39,2.15-1.35,4.88.12,6.97,1.17,1.68,3.06,2.63,5.04,2.63.47,0,.94-.05,1.41-.16,2.72-.63,5.99-.85,10-.69,1.33.06,2.66.14,3.99.22,5.75.36,11.69.73,17.6-.94,7.71-2.17,14.41-8.21,17.91-15.85,1.1.2,2.23.32,3.4.32,1.53,0,3.02-.21,4.45-.56,3.68,7.46,11.01,13.91,18.73,16.09,5.91,1.67,11.86,1.3,17.6.94,1.34-.08,2.67-.16,4-.22,4-.16,7.27.06,10,.69.47.11.94.16,1.41.16,1.98,0,3.86-.95,5.04-2.63,1.46-2.09,1.51-4.82.12-6.97-1.88-2.89-3.5-6.01-5.2-9.3,6.71-2.51,12.19-5.41,17.49-8.23,13.58-7.23,25.36-13.5,53.24-8.66.69.92,1.29,1.62,1.51,1.87.06.07.14.15.21.22.2.19,19.72,19.31,19.72,41.81,0,18.67-6.25,30.09-11.71,35.73-1.36-6.28-3.33-10.82-3.51-11.22-.89-2.02-3.25-2.93-5.27-2.04-2.02.89-2.93,3.25-2.05,5.27.08.18,7.96,18.41,1.75,30.46-2.69,5.23-7.64,8.54-15.12,10.1-14.09,2.93-21.15-5.65-24.1-11.03-5.46-9.93-6.18-25.71.38-38.19,0,0,0-.01.01-.01,1.53-2.92,3.47-5.67,5.85-8.11,5.85-6.01,11.44-10.35,15.93-13.83,1.65-1.28,3.2-2.48,4.59-3.63,1.7-1.41,1.94-3.93.53-5.63-1.41-1.71-3.93-1.95-5.63-.54-1.29,1.07-2.8,2.24-4.39,3.47-4.69,3.64-10.53,8.17-16.77,14.58-.72.75-1.4,1.52-2.06,2.3-.89-3.36-1.87-6.92-2.71-9.95-.73-2.62-1.34-4.85-1.68-6.16-.54-2.14-2.72-3.43-4.86-2.88-2.14.55-3.43,2.73-2.89,4.86.35,1.35.98,3.62,1.72,6.31,1.51,5.47,3.52,12.75,4.47,17.05-7.05,14.7-5.96,32.46.5,44.22,3.83,6.97,9.26,11.75,15.76,14.09,2.17,9.01,6.15,29.79,3.45,52.96-.31.01-.61,0-.93.01-8.72.27-15.53,2.78-15.82,2.88-2.07.77-3.11,3.07-2.35,5.14.77,2.07,3.08,3.12,5.14,2.36.06-.02,6.04-2.2,13.5-2.39,9.45-.25,16.81,2.69,21.88,8.73ZM468.75,421.51c-.31,1.63.43,3.28,1.85,4.14,1.41.87,3.21.77,4.53-.25.13-.1,11.87-9.11,24.07-13.09-4.85,7.09-10.03,18.22-15.87,30.73-4.69,10.08-9.55,20.51-14.67,29.74-10.89,19.64-24.88,42.08-46.13,59.56-25.11,20.66-55.06,29.33-89.08,25.8.06-15.03-2.06-27.95-3.78-35.92.41.02.81.04,1.23.04,2.31,0,4.72-.25,7.18-.76,9.87-2.06,16.81-6.87,20.62-14.29,2.7-5.26,3.43-11.15,3.2-16.68,9.5-6.4,18.46-22.23,18.46-45.16,0-25.19-20.04-45.48-22.04-47.45-.06-.07-.13-.15-.2-.24-.03-.4-.12-.81-.28-1.19-.08-.21-.73-1.77-1.95-4.06,7.01-5.71,28.2-21.95,55.4-33.38,43.27-18.19,80.85-16.4,111.72,5.31-15.71,6.67-48.16,24.22-54.26,57.15Z"/></g></g></g></svg>