<?xml version="1.0" encoding="UTF-8"?><svg xmlns="http://www.w3.org/2000/svg" viewBox="0 0 670.22 185.88"><defs><style>.cls-1,.cls-2{fill:#22a472;}.cls-3,.cls-4{fill:#f7f1ed;}.cls-4,.cls-2{mix-blend-mode:multiply;}.cls-5{isolation:isolate;}.cls-6{fill:#fffbf9;}.cls-7{fill:#fff;}.cls-8{fill:#cbff8b;}.cls-9{fill:#303b54;}.cls-2{opacity:.5;}</style></defs><g class="cls-5"><g id="Lager_2"><g id="Lager_1-2"><path class="cls-1" d="M327.54,63.67h-14.76c-2.45,0-4.63,1.43-5.3,3.46l-21.32,58.34c-.5,1.36-2.51,1.04-2.56-.4l-2.15-57.75c-.19-2.25-1.78-3.65-4.16-3.65h-15.51c-2.35,0-4.43,1.35-5.3,3.45l-22.6,58.34c-.52,1.35-2.53.99-2.55-.46l-.88-57.62c0-2.22-1.67-3.71-4.16-3.71h-13.87c-1.04,0-2.11.51-2.93,1.4-.87.93-1.31,2.12-1.22,3.26l5.81,86.45c0,1.67,1,2.67,2.67,2.67h20.73c1.92,0,2.75-1.35,3.2-2.37l23.96-60.54,2.68,60.25c0,1.67,1,2.67,2.67,2.67h20.73c1.92,0,2.75-1.35,3.21-2.38l36.25-86.52c.5-1.3.4-2.66-.28-3.65-.54-.79-1.37-1.22-2.34-1.22Z"/><path class="cls-1" d="M528.61,63.67h-15.21c-1.21,0-2.85.42-3.82,1.59l-27.26,30.54c-.79.79-1.55.86-1.98.37-.18-.21-.26-.5-.22-.77l10.58-60.23c.34-1.62.16-2.88-.55-3.76-.7-.86-1.86-1.29-3.44-1.29h-11.93c-3.07,0-4.97,1.6-5.64,4.78l-20.73,117.53c-.25,1.58,0,2.83.75,3.7.75.88,1.94,1.32,3.55,1.32h11.93c3.04,0,4.84-1.61,5.34-4.77l4.92-27.17c.15-1.03,1.62-1.91,2.4-.75l20.28,31.02c.71,1.06,1.96,1.67,3.44,1.67h14.32c2.72,0,5.2-2.48,5.2-5.2,0-1.02-.18-1.43-.56-2.18l-25.35-39.64,36.29-39.24c1.03-1.03,1.56-2.36,1.56-3.95,0-1.72-1.35-3.56-3.86-3.56Z"/><path class="cls-1" d="M666.25,69.92c-3.44-4.08-8.92-6.24-15.85-6.24h-16.7c-1.24,0-2.3.36-3.1,1.02l-8.96,6.27c-.48.36-.95.42-1.31.18-.3-.2-.46-.57-.38-.94l.3-1.52c.27-1.7.04-2.95-.69-3.81-.69-.81-1.78-1.21-3.31-1.21h-11.93c-3.15,0-5.15,1.7-5.64,4.78l-14.91,83.98c-.25,1.58,0,2.83.75,3.7.75.88,1.94,1.32,3.55,1.32h11.93c3.04,0,4.84-1.61,5.34-4.78l11.93-67.7c.23-1.27.67-1.64,1.97-1.64h24.16c1.64,0,2.92.47,3.69,1.37.79.93,1.07,2.33.81,4.04l-11.33,63.69c-.25,1.58,0,2.82.75,3.7.75.88,1.94,1.32,3.55,1.32h11.93c3.04,0,4.84-1.61,5.34-4.78l11.63-65.48c1.23-7.12.01-13.1-3.51-17.27Z"/><path class="cls-1" d="M344.46,128.54l25.88-8.71c17.46-5.93,27.15-12.99,27.74-30.77.48-14.47-10.5-24.27-28.86-24.27-22.27,0-37.54,12.22-40.5,28.9l-5.53,31.88c-.42,2.52-.7,5.06-.81,7.61-.5,15,9.03,24.27,30.37,24.27h25.9c2,0,3.72-1.44,4.07-3.41l1.9-10.65c.45-2.53-1.48-4.86-4.05-4.85-6.07,0-16.56.02-24.39.02s-11.96-2.59-11.79-7.78l.07-2.23ZM350.2,95.18c1.38-8.16,7.42-11.69,16.52-11.69,5.95,0,10.89,2.23,10.73,7.22s-1.93,7.61-8.12,9.65l-19.1,6.5c-.96.33-1.91-.49-1.74-1.48l1.72-10.21Z"/><path class="cls-1" d="M442.48,31.58h-26.57c-1.99,0-3.7,1.42-4.06,3.38l-1.92,10.44c-.47,2.54,1.48,4.88,4.06,4.88h6.7c.84,0,1.47.76,1.33,1.58l-14.62,83.46c-.35,1.98-2.06,3.42-4.07,3.42h-8.37c-1.99,0-3.7,1.42-4.06,3.38l-1.92,10.44c-.47,2.54,1.48,4.88,4.06,4.88h43.75c1.99,0,3.7-1.42,4.06-3.38l1.92-10.44c.47-2.54-1.48-4.88-4.06-4.88h-5.33c-2.57,0-4.51-2.32-4.07-4.85l17.23-97.46c.45-2.53-1.5-4.85-4.07-4.85Z"/><path class="cls-1" d="M579.31,28.44h-13.38c-2,0-3.72,1.44-4.07,3.41l-2.7,15.32c-.45,2.53,1.5,4.85,4.07,4.85h13.38c2,0,3.72-1.44,4.07-3.41l2.7-15.32c.45-2.53-1.5-4.85-4.07-4.85Z"/><path class="cls-1" d="M545.95,65.3c-1.99,0-3.7,1.42-4.06,3.39l-1.93,10.54c-.46,2.54,1.48,4.87,4.06,4.87h6.91c.84,0,1.47.76,1.33,1.58l-8.63,49.55c-.34,1.98-2.06,3.42-4.07,3.42h-8.4c-1.99,0-3.7,1.43-4.06,3.39l-1.92,10.54c-.46,2.54,1.48,4.87,4.06,4.87h44.19c1.99,0,3.7-1.42,4.06-3.39l1.93-10.54c.46-2.54-1.48-4.87-4.06-4.87h-5.62c-2.57,0-4.51-2.32-4.07-4.85l11.23-63.65c.45-2.53-1.5-4.85-4.07-4.85h-26.88Z"/><path class="cls-1" d="M147.42,166.96c-11.38-1.52-16.78,1.36-22.47,4.39-2.27,1.21-4.62,2.46-7.46,3.48-1.24-2.16-2.71-4.2-4.81-5.73,10.99-1.53,20.76-4.35,29.29-7.8,2.47,1.52,4.29,3.83,5.45,5.66Z"/><path class="cls-1" d="M117.59,182.21c-1.04-.11-2.18-.14-3.46-.09-.59.02-1.17.06-1.76.09-2.26.14-4.4.28-6.35-.28-2.38-.67-4.71-2.74-5.84-5.07,1.81-1.45,2.98-3.68,2.98-6.17,0-.16,0-.31-.02-.47,2.65-.34,5.47.19,7.33,1.46,1.99,1.35,3.32,3.41,4.57,5.71.07.2.17.38.29.54.24.45.47.9.71,1.36.5.96,1.01,1.95,1.56,2.91Z"/><path class="cls-1" d="M90.66,177.14c-1.08,2.3-3.13,4.16-5.4,4.8-1.96.55-4.09.42-6.35.28-.59-.03-1.18-.07-1.76-.09-1.28-.06-2.42-.03-3.46.09.55-.96,1.06-1.95,1.56-2.91,1.57-3.04,3.05-5.9,5.58-7.61,1.65-1.12,3.75-1.59,6.52-1.43-.01.14-.02.29-.02.44,0,2.66,1.32,5.01,3.34,6.44Z"/><path class="cls-1" d="M78.17,169.41c-1.88,1.49-3.23,3.4-4.4,5.42-2.86-1.03-5.22-2.28-7.49-3.49-5.77-3.07-11.25-5.99-22.98-4.32.81-1.63,2.21-3.71,4.54-5.17,8.83,3.44,18.94,6.19,30.33,7.56Z"/><path class="cls-2" d="M84.71,178.32c-2.01.8-4.21.99-6.31,1.52-2.1.53-4.24,1.51-5.36,3.36,2.39-.29,4.82,0,7.22.19,2.4.19,4.88.26,7.18-.46,2.3-.72,4.43-2.38,5.14-4.68.2-.64.28-1.35,0-1.96-.5-1.1-2.76-2.67-3.81-1.62-.62.62-.91,1.5-1.59,2.12-.72.66-1.57,1.16-2.47,1.52Z"/><path class="cls-2" d="M106.74,178.32c2.01.8,4.21.99,6.31,1.52s4.24,1.51,5.36,3.36c-2.39-.29-4.82,0-7.22.19-2.4.19-4.88.26-7.18-.46s-4.43-2.38-5.14-4.68c-.2-.64-.28-1.35,0-1.96.5-1.1,2.76-2.67,3.81-1.62.62.62.91,1.5,1.59,2.12.72.66,1.57,1.16,2.47,1.52Z"/><path class="cls-2" d="M54.69,168.47c-1.45.07-3.01-.04-4.2-.87-1.19-.84-1.83-2.6-1.02-3.81.58-.86,1.79-1.38,1.86-2.41.06-.87-.84-1.57-1.7-1.6s-1.68.42-2.39.91c-1.77,1.23-3.29,2.82-4.43,4.64-.3.49-.59,1.03-.53,1.6.11,1.12,1.42,1.67,2.54,1.76,2.6.2,5.21-.86,7.78-.42l2.09.2Z"/><path class="cls-2" d="M135.78,168.47c1.45.07,3.01-.04,4.2-.87s1.83-2.6,1.02-3.81c-.58-.86-1.79-1.38-1.86-2.41-.06-.87.84-1.57,1.7-1.6s1.68.42,2.39.91c1.77,1.23,3.29,2.82,4.43,4.64.3.49.59,1.03.53,1.6-.11,1.12-1.42,1.67-2.54,1.76-2.6.2-5.21-.86-7.78-.42l-2.09.2Z"/><path class="cls-8" d="M99.75,170.7c0,2.49-2.02,4.51-4.51,4.51s-4.51-2.03-4.51-4.51c0-.16.01-.32.03-.48l8.97-.05c.02.17.03.35.03.54Z"/><path class="cls-3" d="M163.59,84.27c-3.85-5.45-7.08-10.9-9.62-15.21-1.29-2.18-2.4-4.06-3.35-5.52-4.5-6.95-9.41-12.87-13.35-17.2,21.74-15.94,29.52-33.13,31.95-40.21,4.76,10.41,14.78,40.46-5.62,78.14Z"/><path class="cls-3" d="M51.15,46.34c-3.94,4.33-8.85,10.24-13.35,17.2-.94,1.45-2.05,3.32-3.33,5.49-2.55,4.32-5.79,9.79-9.65,15.24C4.42,46.6,14.44,16.55,19.2,6.13c2.42,7.07,10.2,24.26,31.95,40.21Z"/><path class="cls-6" d="M176.41,125.88c-.4.37-.59.91-.51,1.45.07.54.39,1.01.86,1.27.08.04,1.93,1.06,4.81,1.57-7.55,8.42-34.08,33.96-79.71,36.58h-.83s0,0,0,0l-11.61.07h-1.33c-15.29-.69-28.48-3.96-39.56-8.34-.11-.06-.23-.11-.35-.14-22.44-8.96-36.2-22.44-41.33-28.16,2.88-.51,4.73-1.53,4.81-1.57.48-.26.79-.74.86-1.27.07-.54-.12-1.08-.51-1.45-7.09-6.75-8.43-13-8.6-16.14-.03-.62.27-1.19.79-1.43,1.92-.92,3.78-2.02,5.57-3.27,6.07-4.22,11.37-10.08,15.89-16.12.31-.22.53-.52.64-.86,4.52-6.16,8.23-12.43,11.1-17.29,1.26-2.13,2.35-3.98,3.25-5.37,9.12-14.09,20.31-24.13,20.42-24.23.7-.62.76-1.7.14-2.4-.62-.7-1.7-.77-2.4-.14-.2.18-2.28,2.05-5.32,5.22-13.82-10.07-21.72-20.69-25.94-27.92-3.18-5.45-4.8-9.81-5.51-12.08,5.51,1.57,19.87,6.97,46.79,25.01,2.22,1.48,4.82,2.21,7.34,2.05,3.83-.25,6.22-2.48,6.56-6.13.2-2.21.11-4.23-.28-6.03,1.74,1.5,3.84,4.08,5.82,8.49.32.72,1.09,1.12,1.87.97.77-.14,1.34-.8,1.38-1.59,0-.04.24-4.48,2.27-9.14,2.62-6.02,6.89-9.62,12.67-10.69-1.38,4.63-2.66,13.54,4.33,21.06,9.36,10.1,9.66,17.05,6.78,28.8-.22.91.34,1.83,1.25,2.05.91.23,1.83-.34,2.05-1.25,2.57-10.5,2.73-18.08-3.44-26.85,6.5-4.43,33.62-22.51,48.92-26.78-.71,2.27-2.33,6.64-5.51,12.09-4.22,7.23-12.12,17.85-25.94,27.91-3.04-3.18-5.12-5.04-5.32-5.22-.7-.62-1.78-.56-2.4.14-.62.7-.57,1.77.14,2.4.11.1,11.3,10.15,20.42,24.23.91,1.4,2,3.26,3.27,5.4,2.87,4.85,6.57,11.12,11.08,17.26.11.34.32.64.63.85,4.74,6.33,10.33,12.46,16.77,16.72,1.52,1,3.09,1.9,4.7,2.68.52.25.83.81.79,1.43-.11,2.04-.72,5.41-3.09,9.36-.7,1.17-1.55,2.39-2.58,3.64-.85,1.02-1.82,2.07-2.93,3.13Z"/><path class="cls-4" d="M176.41,125.88c-.4.37-.59.91-.51,1.45.07.54.39,1.01.86,1.27.08.04,1.93,1.06,4.81,1.57-7.55,8.42-34.08,33.96-79.71,36.58h-.83s0,0,0,0l-11.61.07h-1.33c-46.55-2.12-73.56-28.08-81.24-36.65,2.88-.51,4.73-1.53,4.81-1.57.48-.26.79-.74.86-1.27.07-.54-.12-1.08-.51-1.45-7.09-6.75-8.43-13-8.6-16.14-.03-.62.27-1.19.79-1.43,1.92-.92,3.78-2.02,5.57-3.27,2.32,1.39,4.28,4.4,5.64,5.99,6.22,7.26,12.6,14.41,19.51,21.03,3.89,3.72,7.95,7.27,12.22,10.55,14.4,11.05,31.78,19.08,49.93,19.26,16.61.16,32.86-6.32,46.25-16.14,13.4-9.83,24.16-22.86,33.33-36.72.8-1.22,1.73-2.51,2.87-3.37,1.52,1,3.09,1.9,4.7,2.68.52.25.83.81.79,1.43-.11,2.04-.72,5.41-3.09,9.36-.95,1.15-1.88,2.35-2.58,3.64-.85,1.02-1.82,2.07-2.93,3.13Z"/><path class="cls-4" d="M38.71,41.73c.31,5.16-1.42,10.68-5.49,13.87-2.87,2.24-6.68,3.13-10.3,2.76s-7.06-1.93-9.98-4.12c2.44,11.1,6.4,21.87,11.75,31.9,3.99-2.5,5.54-7.41,7.4-11.73,4.79-11.14,13.18-20.27,21.42-29.17-.72.78-12.13-10.02-13.23-11.01-.95-.86-6-5.14-5.07-3.75.67,1,2.62,5.97,2.79,6.66.37,1.51.63,3.05.72,4.61Z"/><path class="cls-4" d="M149.59,41.73c-.31,5.16,1.42,10.68,5.49,13.87,2.87,2.24,6.68,3.13,10.3,2.76,3.62-.37,7.06-1.93,9.98-4.12-2.44,11.1-6.4,21.87-11.75,31.9-3.99-2.5-5.54-7.41-7.4-11.73-4.79-11.14-13.18-20.27-21.42-29.17.72.78,12.13-10.02,13.23-11.01.95-.86,6-5.14,5.07-3.75-.67,1-2.62,5.97-2.79,6.66-.37,1.51-.63,3.05-.72,4.61Z"/><path class="cls-9" d="M79.62,81.94c-.34,0-.69-.1-.99-.32-.05-.03-4.79-3.44-11.23-6.62-3.81-1.88-10.69.54-13.02,1.63-.85.4-1.86.03-2.26-.82-.4-.85-.03-1.86.82-2.26.4-.19,9.93-4.58,15.97-1.6,6.71,3.31,11.52,6.76,11.72,6.91.76.55.93,1.61.38,2.37-.33.46-.85.71-1.38.71Z"/><path class="cls-9" d="M110.91,81.94c-.53,0-1.05-.24-1.38-.71-.55-.76-.38-1.82.38-2.37.2-.15,5.01-3.6,11.72-6.91,6.04-2.98,15.56,1.41,15.97,1.6.85.4,1.22,1.41.82,2.26s-1.41,1.22-2.26.82c-2.34-1.09-9.23-3.5-13.02-1.63-6.44,3.18-11.19,6.58-11.23,6.62-.3.22-.65.32-.99.32Z"/><circle class="cls-9" cx="61.15" cy="104.27" r="12.84"/><circle class="cls-7" cx="65.05" cy="98.97" r="2.68"/><circle class="cls-7" cx="68.48" cy="104.91" r="1.68"/><circle class="cls-9" cx="129.31" cy="104.27" r="12.84"/><circle class="cls-7" cx="133.1" cy="98.97" r="2.68"/><circle class="cls-7" cx="136.53" cy="104.91" r="1.68"/><path class="cls-9" d="M96.65,143.67c-1.01.62-2.27.62-3.28,0-3.18-1.96-9.17-7.25-8.03-10.32,1.4-3.79,6.3-3.68,9.67-3.68s8.27-.11,9.67,3.68c1.13,3.07-4.86,8.36-8.03,10.32Z"/><path class="cls-9" d="M102.56,115.35c-.21,0-.42-.04-.62-.12-7.8-3.05-13.04-.22-13.26-.1-.82.45-1.85.17-2.31-.65-.46-.81-.18-1.84.63-2.31.27-.16,6.79-3.78,16.17-.11.87.34,1.31,1.33.96,2.2-.26.67-.9,1.08-1.58,1.08Z"/><path class="cls-9" d="M92.92,154.34c-4.62,0-7.91-.96-8.21-1.05-.9-.27-1.41-1.22-1.14-2.12.27-.9,1.22-1.41,2.12-1.14.61.18,15.13,4.34,25.84-6.79.65-.68,1.73-.7,2.4-.05.68.65.7,1.73.05,2.4-6.87,7.13-15.08,8.73-21.06,8.73Z"/><path class="cls-9" d="M115.59,147.6c-.57,0-1.13-.29-1.45-.81-1.52-2.48-4.13-1.88-4.42-1.8-.9.24-1.83-.3-2.08-1.2-.24-.9.28-1.83,1.17-2.08,1.83-.51,5.89-.48,8.22,3.3.49.8.24,1.85-.56,2.34-.28.17-.59.25-.89.25Z"/><path class="cls-7" d="M100.63,134.48c-.06,0-.12,0-.17-.02-5.67-1.55-10.54-.02-10.59,0-.35.11-.72-.08-.83-.42-.11-.34.08-.71.42-.83.21-.07,5.28-1.66,11.34,0,.35.1.56.46.46.81-.08.29-.34.48-.63.48Z"/><path class="cls-9" d="M188.4,109.92c.11-2-.96-3.84-2.72-4.68-7.69-3.69-14.36-10.61-19.89-17.93,24.79-44.39,8.53-79.11,4.98-85.66-.66-1.22-2.05-1.87-3.39-1.58-15.81,3.47-45.38,23.29-52.02,27.84-.64-.78-1.33-1.57-2.08-2.37-5.84-6.29-4.74-13.84-3.56-17.78.34-1.14.06-2.34-.73-3.23-.79-.88-1.96-1.28-3.12-1.07-6.92,1.26-12.2,5.68-15.24,12.77-.77,1.79-1.31,3.54-1.68,5.06-2.33-3.68-4.68-5.64-6.43-6.67-.98-.58-2.23-.48-3.1.27-.88.74-1.18,1.92-.76,2.99.48,1.23.99,3.38.69,6.59-.13,1.41-.64,2.87-3.4,3.05-1.78.11-3.63-.41-5.22-1.48C62.9,20.78,36.21,3.42,21.05.08c-1.36-.3-2.76.34-3.43,1.56-3.54,6.55-19.81,41.27,4.99,85.66-5.53,7.32-12.2,14.24-19.89,17.93-1.76.84-2.83,2.68-2.72,4.69.18,3.33,1.48,9.68,7.8,16.53-.58.17-1.26.33-2.02.44-1.11.17-2.04.94-2.43,2-.39,1.08-.17,2.28.59,3.13,4.8,5.44,18.19,18.9,40.22,28.32-4.05,3.52-5.1,8.24-5.15,8.48-.11.56.05,1.14.45,1.54.4.41.97.59,1.53.48,12.61-2.4,17.74.33,23.68,3.49,2.26,1.2,4.6,2.44,7.47,3.52-.72,1.39-1.41,2.71-2.21,3.94-.59.91-.57,2.07.06,2.96.5.71,1.3,1.12,2.14,1.12.2,0,.4-.02.6-.07,1.16-.27,2.55-.37,4.25-.29.56.02,1.13.06,1.7.09,2.44.15,4.97.31,7.48-.4,3.28-.93,6.12-3.49,7.61-6.74.47.09.95.14,1.45.14.65,0,1.29-.09,1.9-.24,1.56,3.17,4.68,5.91,7.96,6.84,2.51.71,5.04.55,7.48.4.57-.03,1.13-.07,1.7-.09,1.7-.07,3.09.03,4.25.29.2.05.4.07.6.07.85,0,1.65-.41,2.15-1.12.62-.89.64-2.05.05-2.96-.8-1.23-1.49-2.55-2.21-3.95,2.85-1.07,5.18-2.3,7.43-3.5,5.94-3.16,11.07-5.89,23.68-3.49.61.12,1.24-.11,1.63-.59.4-.48.49-1.14.26-1.72-.1-.25-2.17-5.25-6.49-8.8,21.22-9.4,34.16-22.42,38.83-27.7.76-.86.99-2.07.6-3.15-.39-1.06-1.32-1.83-2.43-2-.21-.03-.42-.07-.62-.11-.51-.1-.98-.21-1.4-.33.15-.17.3-.33.45-.5,5.93-6.66,7.17-12.79,7.35-16.04ZM169.21,6.13c4.76,10.41,14.78,40.46-5.62,78.14-3.85-5.45-7.08-10.9-9.62-15.21-1.29-2.18-2.4-4.06-3.35-5.52-4.5-6.95-9.41-12.87-13.35-17.2,21.74-15.94,29.52-33.13,31.95-40.21ZM19.2,6.13c2.42,7.07,10.2,24.26,31.95,40.21-3.94,4.33-8.85,10.24-13.35,17.2-.94,1.45-2.05,3.32-3.33,5.49-2.55,4.32-5.79,9.79-9.65,15.24C4.42,46.6,14.44,16.55,19.2,6.13ZM66.28,171.34c-5.77-3.07-11.25-5.99-22.98-4.32.81-1.63,2.21-3.71,4.54-5.17,8.83,3.44,18.94,6.19,30.33,7.56-1.88,1.49-3.23,3.4-4.4,5.42-2.86-1.03-5.22-2.28-7.49-3.49ZM85.26,181.94c-1.96.55-4.09.42-6.35.28-.59-.03-1.18-.07-1.76-.09-1.28-.06-2.42-.03-3.46.09.55-.96,1.06-1.95,1.56-2.91,1.57-3.04,3.05-5.9,5.58-7.61,1.65-1.12,3.75-1.59,6.52-1.43-.01.14-.02.29-.02.44,0,2.66,1.32,5.01,3.34,6.44-1.08,2.3-3.13,4.16-5.4,4.8ZM95.23,175.21c-2.49,0-4.51-2.03-4.51-4.51,0-.16.01-.32.03-.48l8.97-.05c.02.17.03.35.03.54,0,2.49-2.02,4.51-4.51,4.51ZM114.13,182.12c-.59.02-1.17.06-1.76.09-2.26.14-4.4.28-6.35-.28-2.38-.67-4.71-2.74-5.84-5.07,1.81-1.45,2.98-3.68,2.98-6.17,0-.16,0-.31-.02-.47,2.65-.34,5.47.19,7.33,1.46,1.99,1.35,3.32,3.41,4.57,5.71.07.2.17.38.29.54.24.45.47.9.71,1.36.5.96,1.01,1.95,1.56,2.91-1.04-.11-2.18-.14-3.46-.09ZM147.42,166.96c-11.38-1.52-16.78,1.36-22.47,4.39-2.27,1.21-4.62,2.46-7.46,3.48-1.24-2.16-2.71-4.2-4.81-5.73,10.99-1.53,20.76-4.35,29.29-7.8,2.47,1.52,4.29,3.83,5.45,5.66ZM175.9,127.32c.07.54.39,1.01.86,1.27.08.04,1.93,1.06,4.81,1.57-7.55,8.42-34.08,33.96-79.71,36.58h-.83s0,0,0,0l-11.61.07h-1.33c-15.29-.69-28.48-3.96-39.56-8.34-.11-.06-.23-.11-.35-.14-22.44-8.96-36.2-22.44-41.33-28.16,2.88-.51,4.73-1.53,4.81-1.57.48-.26.79-.74.86-1.27.07-.54-.12-1.08-.51-1.45-7.09-6.75-8.43-13-8.6-16.14-.03-.62.27-1.19.79-1.43,1.92-.92,3.78-2.02,5.57-3.27,6.07-4.22,11.37-10.08,15.89-16.12.31-.22.53-.52.64-.86,4.52-6.16,8.23-12.43,11.1-17.29,1.26-2.13,2.35-3.98,3.25-5.37,9.12-14.09,20.31-24.13,20.42-24.23.7-.62.76-1.7.14-2.4-.62-.7-1.7-.77-2.4-.14-.2.18-2.28,2.05-5.32,5.22-13.82-10.07-21.72-20.69-25.94-27.92-3.18-5.45-4.8-9.81-5.51-12.08,5.51,1.57,19.87,6.97,46.79,25.01,2.22,1.48,4.82,2.21,7.34,2.05,3.83-.25,6.22-2.48,6.56-6.13.2-2.21.11-4.23-.28-6.03,1.74,1.5,3.84,4.08,5.82,8.49.32.72,1.09,1.12,1.87.97.77-.14,1.34-.8,1.38-1.59,0-.04.24-4.48,2.27-9.14,2.62-6.02,6.89-9.62,12.67-10.69-1.38,4.63-2.66,13.54,4.33,21.06,9.36,10.1,9.66,17.05,6.78,28.8-.22.91.34,1.83,1.25,2.05.91.23,1.83-.34,2.05-1.25,2.57-10.5,2.73-18.08-3.44-26.85,6.5-4.43,33.62-22.51,48.92-26.78-.71,2.27-2.33,6.64-5.51,12.09-4.22,7.23-12.12,17.85-25.94,27.91-3.04-3.18-5.12-5.04-5.32-5.22-.7-.62-1.78-.56-2.4.14-.62.7-.57,1.77.14,2.4.11.1,11.3,10.15,20.42,24.23.91,1.4,2,3.26,3.27,5.4,2.87,4.85,6.57,11.12,11.08,17.26.11.34.32.64.63.85,4.74,6.33,10.33,12.46,16.77,16.72,1.52,1,3.09,1.9,4.7,2.68.52.25.83.81.79,1.43-.11,2.04-.72,5.41-3.09,9.36-.7,1.17-1.55,2.39-2.58,3.64-.85,1.02-1.82,2.07-2.93,3.13-.4.37-.59.91-.51,1.45Z"/></g></g></g></svg>