<?xml version="1.0" encoding="UTF-8" standalone="no"?>
<svg
   xmlns:dc="http://purl.org/dc/elements/1.1/"
   xmlns:cc="http://creativecommons.org/ns#"
   xmlns:rdf="http://www.w3.org/1999/02/22-rdf-syntax-ns#"
   xmlns:svg="http://www.w3.org/2000/svg"
   xmlns="http://www.w3.org/2000/svg"
   xmlns:sodipodi="http://sodipodi.sourceforge.net/DTD/sodipodi-0.dtd"
   xmlns:inkscape="http://www.inkscape.org/namespaces/inkscape"
   role="img"
   viewBox="48.91 -1.09 450.07963 454.9997"
   version="1.1"
   id="svg12"
   sodipodi:docname="falco.svg"
   width="450.07962"
   height="454.99969"
   inkscape:version="0.92.5 (2060ec1f9f, 2020-04-08)">
  <metadata
     id="metadata16">
    <rdf:RDF>
      <cc:Work
         rdf:about="">
        <dc:format>image/svg+xml</dc:format>
        <dc:type
           rdf:resource="http://purl.org/dc/dcmitype/StillImage" />
        <dc:title></dc:title>
      </cc:Work>
    </rdf:RDF>
  </metadata>
  <sodipodi:namedview
     pagecolor="#ffffff"
     bordercolor="#666666"
     borderopacity="1"
     objecttolerance="10"
     gridtolerance="10"
     guidetolerance="10"
     inkscape:pageopacity="0"
     inkscape:pageshadow="2"
     inkscape:window-width="3696"
     inkscape:window-height="2018"
     id="namedview14"
     showgrid="false"
     fit-margin-top="-100"
     fit-margin-left="0"
     fit-margin-right="0"
     fit-margin-bottom="0"
     inkscape:zoom="0.4092391"
     inkscape:cx="-667.31651"
     inkscape:cy="277.74988"
     inkscape:window-x="144"
     inkscape:window-y="68"
     inkscape:window-maximized="1"
     inkscape:current-layer="svg12" />
  <defs
     id="defs4">
    <style
       id="style2">.cls-2{fill:#00b4c8}</style>
  </defs>
  <path
     d="m 185.09663,386.99987 a 89.682,89.682 0 0 0 -13.023,0.965 40.633,40.633 0 0 0 -11.9,3.536 21.616,21.616 0 0 0 -8.521,7.237 20.21,20.21 0 0 0 -3.215,11.737 31.384,31.384 0 0 0 1.219,9.165 17.022,17.022 0 0 0 7.46,9.96 q 8.682,5.31 23.477,5.307 18.004,0 27.333,-1.93 v -43.083 a 75.905,75.905 0 0 0 -9.323,-1.93 86.893,86.893 0 0 0 -13.507,-0.965 z"
     id="path6"
     inkscape:connector-curvature="0"
     style="fill:none" />
  <path
     d="m 438.28863,91.75487 q -59.153,58.926 -118.375,117.786 l -185.346,185.346 -0.455,-0.454 c -10.614,10.65 -21.158,21.371 -31.393,32.377 -5.392997,5.8 -7.383997,13.173 -1.166,19.87 6.506,7.012 14.346,6.588 21.53,1.266 5.376,-3.982 10.062,-8.948 14.822,-13.705 q 150.23,-150.18 300.194,-300.633 l 60.89,-10.613 c -9.937,-10.087 -51.278,-40.626 -60.7,-31.24 z"
     class="cls-2"
     id="path8"
     inkscape:connector-curvature="0"
     style="fill:#00b4c8" />
  <path
     d="m 467.27663,181.34687 a 12.923,12.923 0 0 0 -9.082,-12.55 c -9.699,-3.506 -16.357,2.168 -22.599,8.406 q -122.238,122.188 -244.443,244.409 c -7.21,7.214 -14.657,15.812 -5.816,25.346 9.758,10.524 18.9,2.988 26.64,-4.743 q 123.57,-123.452 247.065,-246.983 c 3.915,-3.915 7.825,-7.863 8.236,-13.885 z m -162.923,-9.911 17.142,-17.141 c -1.391,-4.326 -4.908,-8.414 -8.611,-12.12 Q 195.31663,24.54187 77.661634,-93.004126 c -4.387,-4.384 -9.075,-8.341004 -15.87,-8.073004 -5.329,0.275 -9.597,2.553004 -11.62,7.553004 -3.576,8.834 0.995,15.298 6.89,21.195 Q 174.64663,45.28687 292.24563,162.88587 c 3.707,3.706 7.796,7.18 12.108,8.55 z m 154.131,108.506 c 7.257,-7.343 13.7,-16.123 3.918,-25.36 -8.782,-8.293 -17.17,-2.51 -24.072,4.354 -31.334,31.157 -62.48,62.504 -93.819,93.655 -10.96,10.893 -10.454,21.057 0.401,31.721 18.385,18.067 36.744,36.174 54.585,54.771 10.004,10.428 20.93,16.95 35.042,14.194 3.259,0.21 5.737,0.691 8.15,0.466 10.303,-0.957 23.307,-0.281 23.634,-14.478 0.335,-14.644 -12.332,-14.708 -22.943,-14.312 -10.777,0.402 -18.684,-4.032 -25.845,-11.565 -10.991,-11.561 -21.99,-23.19 -33.87,-33.808 -10.513,-9.4 -9.018,-16.292 0.55,-25.497 25.204,-24.25 49.677,-49.261 74.27,-74.14 z m -209.337,-75.967 c 3.818,3.802 8.394,7.687 13.347,9.321 l 17.063,-17.063 c -2.163,-6.188 -7.316,-10.32 -11.784,-14.798 q -72.062,-72.226 -144.255,-144.32 c -9.966,-9.96 -19.873,-19.993 -30.149996,-29.63 -6.04,-5.667 -13.213,-7.12400004 -19.652,-0.742 -6.13,6.073 -5.69,13.22 -0.859,20.024 a 66.122,66.122 0 0 0 7.223,8.303 q 84.459996,84.526 169.066996,168.905 z m -64.009,20.518 c 9.1,9.076 18.153,18.214 27.585,26.935 a 17.673,17.673 0 0 0 7.408,4.233 l 17.85,-17.85 c -1.172,-4.601 -4.226,-8.242 -7.63,-11.65 q -54.495,-54.594 -109.11,-109.066 a 33.321,33.321 0 0 0 -10.425,-7.263 c -5.97,-2.449 -12.125996,-2.054 -16.871996,3.173 -4.793,5.279 -4.73,11.353 -1.011,16.908 a 96.1,96.1 0 0 0 11.721996,14.029 q 40.113,40.402 80.483,80.551 z"
     class="cls-2"
     id="path10"
     inkscape:connector-curvature="0"
     style="fill:#00b4c8" />
</svg>
