<?xml version="1.0" encoding="UTF-8" standalone="no"?>
<svg
   xmlns:dc="http://purl.org/dc/elements/1.1/"
   xmlns:cc="http://creativecommons.org/ns#"
   xmlns:rdf="http://www.w3.org/1999/02/22-rdf-syntax-ns#"
   xmlns:svg="http://www.w3.org/2000/svg"
   xmlns="http://www.w3.org/2000/svg"
   xmlns:sodipodi="http://sodipodi.sourceforge.net/DTD/sodipodi-0.dtd"
   xmlns:inkscape="http://www.inkscape.org/namespaces/inkscape"
   role="img"
   viewBox="16.37 -1.63 378.77904 419.1"
   version="1.1"
   id="svg12"
   sodipodi:docname="opa-icon-color.svg"
   width="378.77905"
   height="419.10001"
   inkscape:version="0.92.5 (2060ec1f9f, 2020-04-08)">
  <metadata
     id="metadata18">
    <rdf:RDF>
      <cc:Work
         rdf:about="">
        <dc:format>image/svg+xml</dc:format>
        <dc:type
           rdf:resource="http://purl.org/dc/dcmitype/StillImage" />
        <dc:title></dc:title>
      </cc:Work>
    </rdf:RDF>
  </metadata>
  <defs
     id="defs16" />
  <sodipodi:namedview
     pagecolor="#ffffff"
     bordercolor="#666666"
     borderopacity="1"
     objecttolerance="10"
     gridtolerance="10"
     guidetolerance="10"
     inkscape:pageopacity="0"
     inkscape:pageshadow="2"
     inkscape:window-width="3696"
     inkscape:window-height="2018"
     id="namedview14"
     showgrid="false"
     fit-margin-top="0"
     fit-margin-left="0"
     fit-margin-right="0"
     fit-margin-bottom="0"
     inkscape:zoom="0.54158251"
     inkscape:cx="189.26579"
     inkscape:cy="209.55"
     inkscape:window-x="144"
     inkscape:window-y="68"
     inkscape:window-maximized="1"
     inkscape:current-layer="svg12" />
  <style
     id="style2">svg {enable-background:new 0 0 432 434}</style>
  <path
     d="m 62.510784,206.17 c 7.5,-26.7 20.9,-50.1 38.399996,-68.8 -5.899996,-4.4 -29.299996,-22.6 -30.399996,-36.9 -1.7,-23.4 21.7,-102.1 21.7,-102.1 0,0 -70.7,86.1 -75.6,120.9 -3.9,27.3 40.8,81.5 45.5,87 v -0.1 z m 287.699996,-1.4 v 0.2 c 0,0.1 0.1,0.2 0.1,0.3 7.8,-9.4 48.3,-59.9 44.6,-86 -4.9,-34.8 -75.6,-120.9 -75.6,-120.9 0,0 23.4,78.7 21.7,102.1 -1,13.7 -22.3,30.8 -29.4,36.2 17.5,18.4 31,41.6 38.6,68.1 z"
     id="path4"
     inkscape:connector-curvature="0"
     style="fill:#bfbfbf" />
  <path
     d="m 350.21078,204.87 v -0.2 c -7.6,-26.4 -21.1,-49.6 -38.6,-68.1 -27.5,-29 -64.9,-46.4 -105.2,-46.4 v 93 h 0.1 c 9.9,0.1 17.9,8.2 17.9,18.1 0,1.2 -0.1,2.3 -0.3,3.4 -1.6,8.3 -8.8,14.6 -17.6,14.7 h -0.3 v 34.5 l -0.2,163.4 h 3.5 c 0,0 38,-55 58.5,-70.7 24,-18.4 82.2,-41.2 82.2,-41.2 v -99.4 l 0.3,-0.1 c -0.1,-0.2 -0.1,-0.5 -0.2,-0.7 0,-0.1 0,-0.2 -0.1,-0.3 z"
     id="path6"
     inkscape:connector-curvature="0"
     style="fill:#566366" />
  <path
     d="m 206.21078,253.97 v -34.5 c -8.3,-0.1 -15.2,-5.7 -17.3,-13.3 -0.4,-1.5 -0.7,-3.1 -0.7,-4.8 0,-10 8.1,-18.1 18.1,-18.1 h 0.1 v -92.7 c -40.5,0 -78,17.5 -105.5,46.8 -17.499996,18.6 -30.899996,42.1 -38.399996,68.8 h -0.3 v 100.7 c 0,0 58.199996,22.8 82.199996,41.2 19.9,15.3 58.3,69.4 58.3,69.4 h 3.6 v -0.1 h -0.2 z"
     id="path8"
     inkscape:connector-curvature="0"
     style="fill:#7d9199" />
  <path
     d="m 188.21078,201.37 c 0,1.7 0.2,3.3 0.7,4.8 2.1,7.6 9,13.2 17.3,13.3 h 0.3 c 8.7,-0.1 16,-6.4 17.6,-14.7 0.2,-1.1 0.3,-2.2 0.3,-3.4 0,-9.9 -8,-18 -17.9,-18.1 h -0.2 c -10,0 -18.1,8.1 -18.1,18.1 z"
     id="path10"
     inkscape:connector-curvature="0"
     style="fill:#ffffff" />
</svg>
