<?xml version="1.0" encoding="UTF-8" standalone="no"?>
<svg
   xmlns:dc="http://purl.org/dc/elements/1.1/"
   xmlns:cc="http://creativecommons.org/ns#"
   xmlns:rdf="http://www.w3.org/1999/02/22-rdf-syntax-ns#"
   xmlns:svg="http://www.w3.org/2000/svg"
   xmlns="http://www.w3.org/2000/svg"
   xmlns:sodipodi="http://sodipodi.sourceforge.net/DTD/sodipodi-0.dtd"
   xmlns:inkscape="http://www.inkscape.org/namespaces/inkscape"
   role="img"
   viewBox="-3.94 -1.44 421.81821 416.01307"
   version="1.1"
   id="svg4"
   sodipodi:docname="prometheus-icon-color.svg"
   width="421.81821"
   height="416.01306"
   inkscape:version="0.92.5 (2060ec1f9f, 2020-04-08)">
  <metadata
     id="metadata10">
    <rdf:RDF>
      <cc:Work
         rdf:about="">
        <dc:format>image/svg+xml</dc:format>
        <dc:type
           rdf:resource="http://purl.org/dc/dcmitype/StillImage" />
        <dc:title></dc:title>
      </cc:Work>
    </rdf:RDF>
  </metadata>
  <defs
     id="defs8" />
  <sodipodi:namedview
     pagecolor="#ffffff"
     bordercolor="#666666"
     borderopacity="1"
     objecttolerance="10"
     gridtolerance="10"
     guidetolerance="10"
     inkscape:pageopacity="0"
     inkscape:pageshadow="2"
     inkscape:window-width="1163"
     inkscape:window-height="530"
     id="namedview6"
     showgrid="false"
     fit-margin-top="0"
     fit-margin-left="0"
     fit-margin-right="0"
     fit-margin-bottom="0"
     inkscape:zoom="0.54519833"
     inkscape:cx="210.76905"
     inkscape:cy="208.08606"
     inkscape:window-x="144"
     inkscape:window-y="68"
     inkscape:window-maximized="0"
     inkscape:current-layer="svg4" />
  <path
     d="m 207.38505,-1.4399953 c 115.684,0.024 210.638,93.7840003 210.493,207.8439953 -0.148,115.793 -94.713,208.252 -212.912,208.169 C 89.409053,414.492 -4.0209474,320.635 -3.9399474,204.713 -3.8609474,91.359005 91.292053,-1.4639953 207.38505,-1.4399953 Z m -63.947,73.0010003 c 2.652,12.978 0.076,25.082 -3.846,36.987995 -2.716,8.244 -6.47,16.183 -8.711,24.539 -3.694,13.769 -7.885,27.619 -9.422,41.701 -2.21,20.25 5.795,38.086 19.493,55.822 L 77.986053,217.432 c 0.11,1.978 -0.007,2.727 0.21,3.361 5.968,17.43 16.471,32.115 28.242997,45.957 1.246,1.465 4.082,2.217 6.182,2.221 62.782,0.115 125.565,0.109 188.347,0.028 1.948,-0.003 4.546,-0.369 5.741,-1.618 13.456,-14.063 23.746,-30.079 30.179,-50.257 l -66.658,12.976 c 4.397,-8.567 9.417,-16.1 12.302,-24.377 9.869,-28.315 5.779,-55.69 -8.387,-81.509 -11.368,-20.72 -21.854,-41.348995 -16.183,-66.319995 -12.005,11.786 -16.615,26.79 -19.541,42.252995 -2.882,15.23 -4.58,30.684 -6.811,46.136 -0.317,-0.467 -0.728,-0.811 -0.792,-1.212 -0.258,-1.621 -0.499,-3.255 -0.587,-4.893 -1.355,-25.31 -6.328,-49.695995 -16.823,-72.986995 -6.178,-13.71 -12.99,-27.727 -6.622,-44.081 -4.31,2.259 -8.205,4.505 -10.997,7.711 -8.333,9.569 -11.779,21.062 -12.666,33.645 -0.757,10.75 -1.796,21.552 -3.801,32.123 -2.107,11.108995 -5.448,21.997995 -12.956,32.208995 -3.033,-21.81 -3.37,-43.379995 -22.928,-57.236995 z M 305.31505,288.084 h -196.914 v 34.007 h 196.914 z m -157.871,51.575 c -0.163,28.317 28.851,49.414 64.709,47.883 29.716,-1.269 56.016,-24.51 53.755,-47.883 z"
     id="path2"
     inkscape:connector-curvature="0"
     style="fill:#e75225" />
</svg>
