<?xml version="1.0" encoding="UTF-8" standalone="no"?>
<svg
   xmlns:dc="http://purl.org/dc/elements/1.1/"
   xmlns:cc="http://creativecommons.org/ns#"
   xmlns:rdf="http://www.w3.org/1999/02/22-rdf-syntax-ns#"
   xmlns:svg="http://www.w3.org/2000/svg"
   xmlns="http://www.w3.org/2000/svg"
   xmlns:sodipodi="http://sodipodi.sourceforge.net/DTD/sodipodi-0.dtd"
   xmlns:inkscape="http://www.inkscape.org/namespaces/inkscape"
   id="svg3881"
   viewBox="0 0 757.9826 731.38239"
   version="1.1"
   sodipodi:docname="cert-manager.svg"
   width="757.9826"
   height="731.38239"
   inkscape:version="0.92.5 (2060ec1f9f, 2020-04-08)">
  <metadata
     id="metadata101">
    <rdf:RDF>
      <cc:Work
         rdf:about="">
        <dc:format>image/svg+xml</dc:format>
        <dc:type
           rdf:resource="http://purl.org/dc/dcmitype/StillImage" />
        <dc:title></dc:title>
      </cc:Work>
    </rdf:RDF>
  </metadata>
  <sodipodi:namedview
     pagecolor="#ffffff"
     bordercolor="#666666"
     borderopacity="1"
     objecttolerance="10"
     gridtolerance="10"
     guidetolerance="10"
     inkscape:pageopacity="0"
     inkscape:pageshadow="2"
     inkscape:window-width="3696"
     inkscape:window-height="2018"
     id="namedview99"
     showgrid="false"
     fit-margin-top="0"
     fit-margin-left="0"
     fit-margin-right="0"
     fit-margin-bottom="0"
     inkscape:zoom="0.2979798"
     inkscape:cx="376.23507"
     inkscape:cy="366.03153"
     inkscape:window-x="144"
     inkscape:window-y="68"
     inkscape:window-maximized="1"
     inkscape:current-layer="svg3881" />
  <defs
     id="defs14">
    <style
       id="style2">.cls-1,.cls-2{fill:none;}.cls-2{clip-path:url(#clip-path);}.cls-3{clip-path:url(#clip-path-2);}.cls-4{fill:#fff;}.cls-5{fill:#326ce5;}.cls-6{mask:url(#mask);}.cls-7{fill:#fdfdfe;}</style>
    <clipPath
       id="clip-path">
      <polygon
         class="cls-1"
         points="-511.547,-72.522 -512.547,-71.522 -512.547,-72.522 "
         id="polygon4"
         style="fill:none" />
    </clipPath>
    <clipPath
       id="clip-path-2">
      <polygon
         class="cls-2"
         points="-515.547,-74.522 -514.547,-75.522 -514.547,-74.522 "
         clip-path="url(#clip-path)"
         id="polygon7"
         style="fill:none" />
    </clipPath>
    <mask
       id="mask"
       x="95.45997"
       y="220.56415"
       width="1145.07974"
       height="588.06611"
       maskUnits="userSpaceOnUse">
      <g
         id="mask-2"
         data-name="mask">
        <g
           id="g3823">
          <path
             id="path3819"
             d="m 946.5066,220.56415 c -162.388,0 -294.033,131.64507 -294.033,294.03307 0,162.388 131.645,294.03305 294.03305,294.03305 162.38805,0 294.03315,-131.66566 294.03315,-294.033 0,-162.36734 -131.6452,-294.03312 -294.0332,-294.03312 z m -0.0722,562.49 c -148.31081,0 -268.35373,-120.10486 -268.3847,-268.41564 -0.031,-148.31078 120.36263,-268.75601 268.7663,-268.48788 148.4037,0.26813 268.2816,120.39361 268.1372,268.65286 -0.1444,148.25925 -120.2286,268.29192 -268.5188,268.25063 z"
             inkscape:connector-curvature="0" />
        </g>
      </g>
    </mask>
  </defs>
  <g
     id="Text"
     transform="translate(-19.76493,-30.649168)">
    <g
       class="cls-3"
       clip-path="url(#clip-path-2)"
       id="g33">
      <g
         id="g3878">
        <g
           id="Text_and_detail"
           data-name="Text and detail">
          <path
             id="Circle"
             class="cls-4"
             d="m 382.15266,82.87846 c -172.4,0 -312.16,139.76 -312.16,312.16 0,172.4 139.76,312.16 312.16,312.16 172.4,0 312.16,-139.72 312.16,-312.16 0,-172.44 -139.76,-312.16 -312.16,-312.16 z m -0.08,597.15994 c -157.44,0 -284.89,-127.51 -284.92,-284.95 0,-157.61 127.78,-285.3 285.33,-285 157.55005,0.3 284.80994,127.8 284.67005,285.22 -0.14013,157.42 -127.64013,284.77999 -285.08007,284.73 z"
             inkscape:connector-curvature="0"
             style="fill:#ffffff" />
          <g
             id="LETTERS">
            <path
               id="path3851"
               class="cls-4"
               d="m 238.15266,536.47846 c -1,-3.45 -5.75,-6.88 -9.44,-6.42 -5.24,0.67 -10.46,1.54 -16.76,2.48 2.32,-6.15 4.28,-11.4 6.28,-16.65 1.73,-4.56 -2,-6.77 -4.34,-9.21 -2.34,-2.44 -4.17,0.64 -5.76,1.9 -8.47,6.71 -16.68,13.75 -25.23,20.35 -4.06,3.13 -1,4.95 0.64,7.2 1.64,2.25 3.31,4.78 6.66,1.83 3.86,-3.39 7.94,-6.54 12,-9.83 0.15,0.38 0.29,0.56 0.25,0.68 -0.8,2.32 -1.67,4.62 -2.45,6.95 -1.63,4.92 1.52,8.51 6.69,7.7 2.15,-0.34 4.34,-1 6.9,0.1 -4.16,3.41 -7.77,6.61 -11.63,9.46 -3.17,2.34 -1.65,4.25 0.26,6 1.91,1.75 2.71,6.31 6.8,3 q 13.79,-11.12 27.49,-22.31 c 0.93998,-0.77004 2.15001,-1.49001 1.64,-3.23 z"
               inkscape:connector-curvature="0"
               style="fill:#ffffff" />
            <path
               id="path3853"
               class="cls-4"
               d="m 405.30262,200.08845 c 6.54,2.7 9.13,1.46 10.48,-5.3 0.3,-1.47 0.57,-2.93 0.93,-4.38 0.29,-1.18 0,-3.17 1.81,-2.92 1.81,0.25 4.13,-0.12 4.79,2.58 0.66,2.7 1.48,5.09 2.22,7.63 2.08,7 3.51,8.09 10.64,8.46 2.68,0.14 3.28,-0.77 2.57,-3.16 -1.12,-3.81 -2.09,-7.67 -3.28,-11.46 -0.55,-1.73 -1,-2.75 1.37,-3.74 5.78,-2.44 7.34,-7.68 7.75,-13.07 0,-6.66 -4,-11.53 -11.48,-13.53 -6.08,-1.62 -12.32,-2.63 -18.48,-4 -2.3,-0.5 -3.45,0.43 -3.88,2.63 -2.36,12 -4.76,24.08 -7.09,36.14 -0.31,1.63 -0.54,3.22 1.65,4.12 z m 17.54,-31 c 5.05,-0.51 9.92,2.41 9.87,5.4 -0.05,2.99 -1.8,4.44 -5.19,4.53 -2.09,-1.76 -6.94,1.1 -7.65,-3.37 -0.3,-1.89 -1,-6.11 2.97,-6.52 z"
               inkscape:connector-curvature="0"
               style="fill:#ffffff" />
            <path
               id="path3855"
               class="cls-4"
               d="m 339.45264,591.29847 c -2.84,-0.93 -5.74,-2.1 -6.74,2.62 -1.09,5.19 -2.75,10.25 -4.47,16.5 -2.63,-7.82 -5.07,-14.52 -7.1,-21.34 -1.33,-4.46 -5.15,-4.42 -8.37,-5 -3.55,-0.58 -2.91,3 -3.47,5 -3,10.36 -5.58,20.86 -8.8,31.16 -1.58,5.08 2.17,4.62 4.67,5.49 2.66,0.91 5.47,2 6.48,-2.4 1.21,-5.27 2.82,-10.45 4.45,-16.34 0.67,1.54 1.13,2.42 1.44,3.34 2,6 4.09,11.93 6,17.94 1.37,4.44 5.37,4.17 8.56,4.61 3.19,0.44 2.53,-3 3.06,-4.81 3,-10.38 5.53,-20.89 8.8,-31.17 1.49,-4.98 -1.96,-4.76 -4.51,-5.6 z"
               inkscape:connector-curvature="0"
               style="fill:#ffffff" />
            <path
               id="path3857"
               class="cls-4"
               d="m 580.31263,528.04847 c -3.28,-0.47 -6.51,-1.44 -9.80005,-1.75 -2.71,-0.25 -3.39,-1.19 -3.48,-4 -0.22,-7 -6.55005,-12.74 -13.43994,-12.82 -4.73,-0.13 -8.35,2.24 -11.25,5.56 -3.61,4.13 -6.71,8.7 -10.33,12.82 -2.46,2.81 -2.15,4.55 0.78,6.76 8.76,6.62 17.44995,13.35 25.93994,20.3 3,2.4 4.51,2.15 6.72,-0.86 4,-5.45 4.16,-5.32 -1.23,-9.5 -1.18005,-0.92 -2.42,-1.78 -3.5,-2.81 -0.83,-0.79 -2.89,-1.11 -1.73,-2.91 0.93994,-1.45 1.75,-3.35 4.16,-2.86 2.41,0.49 5,0.56 7.32995,1.41 5.37,2 8.71,-0.09 11.63,-4.54 1.93005,-2.89 2.03,-4.26 -1.8,-4.8 z m -30,5.43 c -0.75,0.06 -6.13,-4.56 -6.08,-5.23 0.13,-1.76 6.28,-7.65 8,-7.65 2.31006,0.46 4,1.61 4.18994,4.15 0.11003,1.55 -4.96993,8.63002 -6.10994,8.72999 z"
               inkscape:connector-curvature="0"
               style="fill:#ffffff" />
            <path
               id="path3859"
               class="cls-4"
               d="m 331.71265,201.07847 c 0.35,2 1,3.6 3.49,3.21 9,-1.56 18.06,-2.91 27,-4.77 4.72,-1 1.47,-4.56 1.52,-7 0.05,-2.61 -1.37,-3.4 -3.93,-2.9 -4.89,0.95 -9.85,1.6 -14.74,2.57 -2.54,0.5 -3.21,-0.66 -3.45,-2.83 -0.21,-1.93 -0.49,-3.43 2.3,-3.74 4.13,-0.44 8.17,-1.61 12.3,-2.05 4.47,-0.48 3.65,-3.29 3.17,-6.13 -0.48,-2.84 -1.08,-5.17 -5,-4.09 -3.67,1 -7.56,1.16 -11.26,2.09 -2.6,0.66 -3.87,0.5 -4.41,-2.54 -0.59,-3.28 1.23,-3.55 3.55,-3.9 4.11,-0.61 8.2,-1.4 12.31,-2 2.63,-0.4 4.65,-1.13 3.59,-4.44 -0.85,-2.66 0.36,-6.86 -5.13,-5.72 -7.81,1.63 -15.68,3 -23.58,4 -3.78,0.48 -4.3,2.17 -3.74,5.31 q 3.045,17.505 6.01,34.93 z"
               inkscape:connector-curvature="0"
               style="fill:#ffffff" />
            <path
               id="path3861"
               class="cls-4"
               d="m 465.13264,596.01844 a 88.49049,88.49049 0 0 1 -8.92,3.07 c -2.51,0.8 -4.32,1.82 -2.82,5 1.19,2.46 0.87,6.55 5.62,4.65 0.87,-0.35 1.8,-1.17 2.65,-0.11 0.85,1.06 0.29,2.32 -0.13,3.32 -1.22,2.87 -3.78,4.1 -6.65,4.6 a 6.21878,6.21878 0 0 1 -6.67,-3.37 32.7898,32.7898 0 0 1 -4,-11.2 c -0.93,-5.83 4.62,-10.93 9.91,-8.38 4.36,2.1 7.64,0.42 11.34,-0.66 2.53,-0.74 2.54,-2.25 1.08,-4.09 -3.38,-4.26 -8,-5.61 -13.24,-5.83 a 22.67985,22.67985 0 0 0 -15,5.6 c -5,4.48 -7,10.16 -5,16.65 2.53,8.49 4,18 14.56,20.8 8.1,2.13 15.24,-0.38 21,-6.12 6.23,-6.24 4.72,-13.51 2,-20.92 -1.19,-3.16 -2.35,-4.5 -5.73,-3.01 z"
               inkscape:connector-curvature="0"
               style="fill:#ffffff" />
            <path
               id="path3863"
               class="cls-4"
               d="m 527.1526,577.12849 c -3.66,2.86 -7.64,5.31 -11.31006,8.17 -2,1.56 -3,1.07 -4.29,-0.81 -1.29,-1.88 -1.69,-3 0.46,-4.41 3.32995,-2.19 6.52,-4.59 9.76,-6.91 1.06006,-0.76 2.34,-1.38 2.22,-3.22 a 13.53972,13.53972 0 0 0 -4.18994,-5.8 c -1.86,-1.31 -3.30005,0.69 -4.75,1.69 -3,2.08 -6.14,4 -8.94,6.34 -2.33,1.94 -3,0.17 -4.15,-1.21 -1.38,-1.61 -1.4,-2.61 0.53,-3.87 3.75,-2.45 7.22,-5.33 10.99994,-7.71 3.1,-1.94 2.43994,-3.82 0.62,-6.06 -1.61,-2 -2.59,-5 -6.15,-2.3 -6.52,4.86 -13.22,9.49 -19.89,14.17 -2.1,1.47 -2.19,2.93 -0.72,5 6.9,9.57 13.71,19.2 20.54,28.83 1.24,1.74 2.45,2.43 4.49994,0.94 q 10.26,-7.5 20.68994,-14.75 c 3.27,-2.27 1.29,-4.16 -0.11,-6.21 -1.4,-2.05 -2.73,-4.31 -5.82,-1.88 z"
               inkscape:connector-curvature="0"
               style="fill:#ffffff" />
            <path
               id="path3865"
               class="cls-4"
               d="m 268.85267,560.89845 c -1.4,-1 -2.88,-0.53 -4.14,0.45 q -15.18007,11.8 -30.33,23.64 c -1.33,1 -2.32,2.47 -0.4,3.54 3.54,2 6.78,7 11.49,1.72 a 1.59,1.59 0 0 1 2.18,-0.47 c 3.76,2.46 7.55,4.87 11.3,7.33 1,0.68 0.67,1.74 0.55,2.72 -0.53,4.29 2.44,9.12 6.71,9.35 4.46,0.23 2.36,-4.48 3.76,-6.69 a 3.001,3.001 0 0 0 0.34,-0.94 c 2.6,-10.65 5.2,-21.31 8,-32.85 -1.12,-4.32 -6.07,-5.22 -9.46,-7.8 z m -6.4,26.72 c -7.81,-4.59 -7.81,-4.59 -1.47,-9.65 1.28,-1 2.6,-2 4.48,-3.44 a 56.33068,56.33068 0 0 1 -3.01003,13.08997 z"
               inkscape:connector-curvature="0"
               style="fill:#ffffff" />
            <path
               id="path3867"
               class="cls-4"
               d="m 255.94263,223.82847 c 5,6.94 12.68,9 20.82,6 8.46,-3.06 15,-11.32 14.66,-18.87 a 20.55043,20.55043 0 0 0 -1.24,-5.29 2.11,2.11 0 0 0 -2.13,-1.73 c -2.9,0 -8.23,5.19 -8.27,8.3 -0.05,4.19 -2.73,6.29 -6.08,7.63 -3.17,1.26 -6,0 -7.87,-2.63 a 73.14334,73.14334 0 0 1 -5.94,-9.75 c -1.4,-2.87 -1.14,-6 1.47,-8.23 2.61,-2.23 5.84,-3.74 9.55,-1.71 2.6,1.43 9.61,-1 11.1,-3.53 1,-1.62 -0.28,-2.53 -1.09,-3.43 a 13.88,13.88 0 0 0 -10.8,-4.68 c -13.38,0.05 -23.81,10.35 -22.4,21.61 0.8,6.34 4.73,11.34 8.22,16.31 z"
               inkscape:connector-curvature="0"
               style="fill:#ffffff" />
            <path
               id="path3869"
               class="cls-4"
               d="m 398.01264,603.60847 c -3.39,-8.82 -5.72,-10 -14.79,-8 a 3.8801,3.8801 0 0 0 -3.27,2.63 q -5.7,18.24 -11.36,36.54 c -0.33,1.07 -0.81,2.33 0.47,3.17 2.73,1.8 9.9,-0.72 11.13,-3.89 0.51,-1.32 0.52,-2.93 2.71,-2.89 4,0.08 8,0 12,-0.19 1.42,-0.06 2.3,0.48 2.55,1.76 0.77,4 3.17,5.18 6.48,4.32 6.77,-0.17 6.8,-0.19 4.58,-6 q -5.24,-13.7601 -10.5,-27.45 z m -10.56,18.07 c -3,0 -3.44,-0.84 -2.54,-3.39 1.09,-3.12 2,-6.3 3.27,-10.36 1.33,3.4 2.31,5.85 3.24,8.31 2.08,5.57 2.03,5.38 -3.97,5.44 z"
               inkscape:connector-curvature="0"
               style="fill:#ffffff" />
            <path
               id="path3871"
               class="cls-4"
               d="m 485.89265,229.15846 c 2.34,1.28 4.57,4.69 7.27,0.18 3.57,-6 7.44,-11.79 11.16,-17.68 4.48,-7.08 4.6,-7.29 11.80005,-2.76 3.82995,2.42 4.84,-0.19 6.44995,-2.52 1.72,-2.5 2.4,-4.41 -1,-6.41 q -12,-7.15 -23.55,-14.92 c -3.27,-2.18 -4.89,-1.6 -7,1.64 -2.34,3.57 -1.86,5.47 1.76,7.39 2.1,1.11 4.45,2.13 5.9,4.21 -0.74,1.19 -1.34,2.19 -2,3.17 -4.53,7.16 -8.93,14.4 -13.62,21.45 -2.52,3.88 0.39,4.91 2.83,6.25 z"
               inkscape:connector-curvature="0"
               style="fill:#ffffff" />
          </g>
          <g
             id="New_Anchor"
             data-name="New Anchor">
            <path
               id="path3874"
               class="cls-4"
               d="m 495.34266,446.89845 c -2.57,-10.54 -5.11,-20.92 -7.68,-31.42 a 3.2,3.2 0 0 0 -5.33,-1.56 l -24.72,23.66 a 3.06,3.06 0 0 0 1.26,5.14 c 0.92,0.26 1.82,0.51 2.74,0.7 2,0.43 1.8,1.1 0.87,2.51 a 65.58921,65.58921 0 0 1 -20,19.58 l -0.2,0.12 a 86.78041,86.78041 0 0 1 -21.7,7 159.35362,159.35362 0 0 1 -23.53,2.72 1.84,1.84 0 0 1 -1.89929,-1.77875 q -10e-4,-0.0456 -7.3e-4,-0.0913 v -110.38 a 1.08,1.08 0 0 1 1.08,-1.08 v 0 c 1,0 2.22,0.2 5.15,0.17 5.76,-0.06 11.76,-0.06 17.54,-0.4 1.88,-0.11 2.93,-0.05 4.13,0.85 a 12.35,12.35 0 0 0 16.71,-1.29 12.52,12.52 0 0 0 0.11,-16.76 12.3,12.3 0 0 0 -16.66,-1.58 4.07008,4.07008 0 0 1 -2.53,1.08 q -12.0801,-0.06 -24.14,0 a 1.90009,1.90009 0 0 1 -1.39,-0.37 v -12.62 a 1.79987,1.79987 0 0 1 0.42,-1.18 6.41962,6.41962 0 0 1 2,-1.41 c 13,-6.6 19.74,-17.44 19.75,-31.87 0,-22.83 -22.27,-39.44 -44.29,-33.46 -17.46,4.74 -28.8,22.08 -25.51,39.77 2.42,13 10.07,22.1 22.51,26.92 a 6.58893,6.58893 0 0 1 1.33,0.66 1.8,1.8 0 0 1 0.71,1.47 v 10.32 a 1.78,1.78 0 0 1 -1.77991,1.78012 l -0.0201,-1.2e-4 c -8.65,-0.1 -17.31,-0.06 -26,0 a 5.53,5.53 0 0 1 -3.31,-1.12 12.24,12.24 0 0 0 -16.62,1.7 12.37,12.37 0 0 0 16.73,18.07 5.08,5.08 0 0 1 3.3,-1.08 c 8.39,0 16.79,0.12 25.18,0 a 3.19,3.19 0 0 1 2.17,0.46 1,1 0 0 1 0.31,0.76 v 109.81 a 1.85,1.85 0 0 1 -1.85388,1.84613 q -0.0731,-2e-4 -0.14612,-0.006 a 192.44321,192.44321 0 0 1 -30.22,-5 92.78849,92.78849 0 0 1 -17.68,-6.21 1.5603,1.5603 0 0 1 -0.28,-0.16 66.87033,66.87033 0 0 1 -19.54,-21.38 1.38,1.38 0 0 1 1,-2.16 l 2.65,-0.54 a 3.08,3.08 0 0 0 1.6,-5.08 l -23.26,-25.35 a 3,3 0 0 0 -5.13,1.14 c -3.44,10.89 -6.79,21.53 -10.19,32.32 a 3.35,3.35 0 0 0 3.94,4.28 l 1.8,-0.41 a 5.12,5.12 0 0 1 5.69,2.64 c 13.38,26 33.5,44.81 60.12,56.7 10.4,4.65 14.52,6 23.5,7.37 a 1.77963,1.77963 0 0 1 1,0.51 l 13.67,13.55 a 4.91,4.91 0 0 0 6.85,0 l 13.28,-13 a 1.88009,1.88009 0 0 1 1.12,-0.52 c 13.3,-1.25 19.23,-4.54 33.54,-11.09 22.15,-10.13 39.74,-27.76 51.06,-49.32 1,-1.92 1.88,-2.15 3.58,-1.58 0.65,0.22 1.31,0.43 2,0.63 a 4.12,4.12 0 0 0 5.21,-4.98 z m -114.1,-131.83 a 17.72,17.72 0 0 1 -17.0863,-18.33182 q 0.003,-0.0791 0.006,-0.15817 c 0.48,-10.46 9.18,-18.18 19,-17.43 10.34,0.8 17.46,9.11 16.94,18.69 -0.56,10.42 -9.1,17.96 -18.86,17.23 z"
               inkscape:connector-curvature="0"
               style="fill:#ffffff" />
          </g>
        </g>
      </g>
    </g>
  </g>
  <g
     id="Background_wavy_outline"
     data-name="Background wavy outline"
     transform="translate(-19.76493,-30.649168)">
    <g
       id="path3838">
      <path
         class="cls-5"
         d="m 777.74751,396.3365 c 0,39.89055 -24.43136,75.42907 -36.09539,111.38006 -12.10741,37.302 -13.65436,80.32774 -36.25011,111.38007 -22.82261,31.36171 -63.41444,46.02679 -94.77621,68.84939 -31.05234,22.59569 -57.42267,56.80386 -94.71428,68.92159 -35.99228,11.68462 -77.27507,-0.11342 -117.1553,-0.11342 -39.88023,0 -81.16308,11.798 -117.145,0.11342 -37.302,-12.11773 -63.67226,-46.32584 -94.7246,-68.92159 -31.36171,-22.8226 -71.9536,-37.48761 -94.77621,-68.84939 C 69.51472,588.05463 67.96778,545.02888 55.8603,507.71656 44.17571,471.72428 19.76493,436.18582 19.76493,396.3365 c 0,-39.84932 24.43142,-75.42907 36.09539,-111.38007 12.10741,-37.302 13.65436,-80.32773 36.25011,-111.38007 22.82261,-31.35142 63.41444,-46.02678 94.77621,-68.83907 31.05234,-22.59572 57.42261,-56.81414 94.7246,-68.92157 35.982,-11.6846 77.26475,0.10313 117.145,0.10313 39.88025,0 81.16308,-11.78773 117.145,-0.10313 37.30206,12.10743 63.67226,46.32585 94.7246,68.92157 31.36177,22.81229 71.9536,37.48765 94.77621,68.83907 22.59575,31.05234 24.1427,74.07808 36.25011,111.38007 11.66399,35.951 36.09535,71.49983 36.09535,111.38007 z"
         id="path36"
         inkscape:connector-curvature="0"
         style="fill:#326ce5" />
    </g>
  </g>
  <g
     id="Waves"
     transform="translate(-19.76493,-30.649168)">
    <g
       class="cls-6"
       mask="url(#mask)"
       id="g50">
      <g
         id="g3847">
        <g
           id="path3841">
          <path
             class="cls-4"
             d="m 708.0293,377.02659 c -22.21484,0 -33.49121,-5.31543 -44.39746,-10.45606 -11.09472,-5.22949 -21.57519,-10.16943 -43.11816,-10.16943 -21.54492,0 -32.02637,4.94043 -43.124,10.17041 -10.90625,5.14014 -22.1836,10.45508 -44.39161,10.45508 -22.209,0 -33.48339,-5.31494 -44.38671,-10.45508 -11.09473,-5.23047 -21.5752,-10.17041 -43.11915,-10.17041 -21.543,0 -32.0205,4.93994 -43.11328,10.16943 -10.90332,5.14063 -22.17773,10.45606 -44.39209,10.45606 -22.21484,0 -33.48925,-5.31543 -44.39257,-10.45606 -11.0928,-5.22953 -21.56985,-10.16943 -43.11327,-10.16943 -21.54443,0 -32.02636,4.94043 -43.124,10.17041 -10.90625,5.14014 -22.1831,10.45508 -44.3916,10.45508 -22.2085,0 -33.48291,-5.31494 -44.38672,-10.45508 C 127.48389,361.341 117.0044,356.4011 95.46,356.4011 v -3 c 22.21582,0 33.49267,5.31592 44.398,10.457 11.09326,5.229 21.5708,10.16846 43.10742,10.16846 21.53662,0 32.01709,-4.93945 43.1123,-10.16846 10.90821,-5.14111 22.1875,-10.457 44.40332,-10.457 22.21485,0 33.48926,5.31543 44.39258,10.45606 11.09278,5.22949 21.56983,10.16943 43.11328,10.16943 21.54248,0 32.02,-4.93994 43.1128,-10.16943 10.90332,-5.14063 22.17773,-10.45606 44.39257,-10.45606 22.21582,0 33.49219,5.31592 44.39844,10.457 11.09278,5.229 21.57031,10.16846 43.10742,10.16846 21.53614,0 32.01661,-4.93945 43.11231,-10.16846 10.9082,-5.14111 22.1875,-10.457 44.40332,-10.457 22.21484,0 33.49121,5.31543 44.39746,10.45606 11.09473,5.22949 21.5752,10.16943 43.11816,10.16943 z"
             id="path40"
             inkscape:connector-curvature="0"
             style="fill:#ffffff" />
        </g>
        <g
           id="path3843">
          <path
             class="cls-4"
             d="m 708.0293,419.27854 c -22.43847,0 -33.81836,-5.36426 -44.82421,-10.55176 -10.99024,-5.18066 -21.37208,-10.07421 -42.69141,-10.07421 -21.32031,0 -31.7041,4.89355 -42.69824,10.07519 -11.00489,5.1875 -22.38575,10.55078 -44.81739,10.55078 -22.43261,0 -33.81054,-5.36328 -44.81347,-10.55078 -10.99121,-5.18164 -21.37207,-10.07519 -42.69239,-10.07519 -21.31933,0 -31.69824,4.89355 -42.68652,10.07421 -11.00293,5.1875 -22.38037,10.55176 -44.81885,10.55176 -22.439,0 -33.8164,-5.36426 -44.81884,-10.55176 -10.98877,-5.18066 -21.36768,-10.07421 -42.687,-10.07421 -21.3208,0 -31.7041,4.89355 -42.69775,10.07519 -11.00537,5.1875 -22.38574,10.55078 -44.81787,10.55078 -22.43213,0 -33.81006,-5.36328 -44.813,-10.55078 -10.99072,-5.18164 -21.37207,-10.07519 -42.69238,-10.07519 v -5 c 22.43994,0 33.81933,5.36474 44.82471,10.55273 10.98876,5.17969 21.36767,10.07324 42.68066,10.07324 21.31299,0 31.69482,-4.89355 42.686,-10.07324 11.00782,-5.188 22.38965,-10.55273 44.82959,-10.55273 22.439,0 33.81641,5.36425 44.81885,10.55175 10.98877,5.18067 21.36768,10.07422 42.687,10.07422 21.31885,0 31.69776,-4.89355 42.686,-10.07422 11.00293,-5.1875 22.38086,-10.55175 44.81933,-10.55175 22.43946,0 33.81934,5.36474 44.82422,10.55273 10.98926,5.17969 21.36817,10.07324 42.68164,10.07324 21.3125,0 31.69434,-4.89355 42.68555,-10.07324 11.00781,-5.188 22.39063,-10.55273 44.83008,-10.55273 22.43848,0 33.81836,5.36425 44.82422,10.55175 10.99023,5.18067 21.37207,10.07422 42.6914,10.07422 z"
             id="path43"
             inkscape:connector-curvature="0"
             style="fill:#ffffff" />
        </g>
        <g
           id="path3845">
          <path
             class="cls-4"
             d="m 708.0293,469.78049 c -22.66211,0 -34.1455,-5.4121 -45.25,-10.64648 -10.88671,-5.13184 -21.16992,-9.97852 -42.26562,-9.97852 -21.09668,0 -31.38184,4.84766 -42.27149,9.9795 -11.10546,5.2334 -22.58886,10.6455 -45.24414,10.6455 -22.65625,0 -34.13671,-5.4121 -45.24023,-10.6455 -10.88574,-5.13184 -21.16895,-9.9795 -42.26563,-9.9795 -21.0957,0 -31.376,4.84668 -42.26074,9.97852 -11.10156,5.23438 -22.58252,10.64648 -45.24463,10.64648 -22.66308,0 -34.14306,-5.4121 -45.2456,-10.64648 -10.88428,-5.13184 -21.16455,-9.97852 -42.26026,-9.97852 -21.09668,0 -31.38232,4.84766 -42.27148,9.9795 -11.105,5.2334 -22.58838,10.6455 -45.24414,10.6455 -22.65625,0 -34.13672,-5.4121 -45.23926,-10.6455 -10.88672,-5.13184 -21.16943,-9.9795 -42.26611,-9.9795 v -7 c 22.66406,0 34.14648,5.41309 45.251,10.64747 10.88428,5.13086 21.16553,9.97753 42.2544,9.97753 21.08887,0 31.37256,-4.84667 42.25976,-9.97753 11.10694,-5.23438 22.59229,-10.64747 45.25586,-10.64747 22.6626,0 34.14307,5.41211 45.24561,10.64649 10.88428,5.13184 21.165,9.97851 42.26025,9.97851 21.09473,0 31.37549,-4.84667 42.26026,-9.97851 11.10156,-5.23438 22.582,-10.64649 45.24511,-10.64649 22.66407,0 34.14649,5.41309 45.251,10.64747 10.88477,5.13086 21.166,9.97753 42.25488,9.97753 21.08888,0 31.37207,-4.84667 42.25977,-9.97753 11.10742,-5.23438 22.5918,-10.64747 45.25586,-10.64747 22.66211,0 34.14551,5.41211 45.25,10.64649 10.88672,5.13184 21.16992,9.97851 42.26562,9.97851 z"
             id="path46"
             inkscape:connector-curvature="0"
             style="fill:#ffffff" />
        </g>
      </g>
    </g>
  </g>
  <g
     id="wQjLs5.tif"
     transform="translate(-19.76493,-30.649168)">
    <path
       class="cls-7"
       d="M 69.97291,396.08172 C 70.6446,213.94918 216.27906,70.56717 392.5182,67.52905 579.74639,64.30148 725.3522,214.46717 727.51428,391.76705 729.76445,576.28949 581.35535,725.10626 399.1025,725.20266 217.223,725.29886 70.2973,578.46061 69.97291,396.08172 Z m 628.85858,0.10588 C 698.91849,231.15846 566.14508,98.09167 402.5229,96.16566 233.12872,94.17171 98.45934,230.62774 98.67461,396.5698 A 299.75958,299.75958 0 0 0 398.88386,696.55966 C 565.4402,696.503 699.11342,561.48738 698.83149,396.1876 Z"
       id="path53"
       inkscape:connector-curvature="0"
       style="fill:#fdfdfe" />
    <path
       class="cls-7"
       d="m 412.51678,420.83544 q 0,27.77351 1.1e-4,55.547 c 9e-5,4.51579 0.0479,4.50986 4.53561,4.31713 a 165.17329,165.17329 0 0 0 29.487,-4.2981 c 16.03543,-3.6372 27.73135,-13.19016 36.84,-26.41364 0.899,-1.30519 0.94647,-2.17583 -0.9482,-2.72638 -6.37557,-1.85276 -6.77481,-3.54612 -1.95345,-8.21029 q 11.4316,-11.05884 22.96284,-22.01472 c 2.981,-2.84862 5.68513,-2.20684 6.67288,1.725 q 4.00776,15.95289 7.797,31.9604 c 0.87882,3.70353 -1.83845,6.25218 -5.57439,5.41785 a 12.16786,12.16786 0 0 1 -1.8267,-0.5459 c -1.85224,-0.73389 -2.9823,0.0209 -3.87188,1.64981 a 133.82736,133.82736 0 0 1 -12.57828,19.3174 c -9.49524,11.939 -20.73307,21.86926 -34.218,29.00371 -10.1126,5.35023 -20.3709,10.5033 -31.53,13.4623 a 36.55951,36.55951 0 0 1 -8.19914,1.445 c -2.50462,0.078 -4.26165,1.35775 -5.94075,3.03594 -3.77927,3.77713 -7.6287,7.48452 -11.47795,11.1908 q -3.95936,3.81219 -7.93154,-0.0558 -6.42373,-6.26729 -12.77642,-12.607 a 6.788,6.788 0 0 0 -3.68046,-1.99465 c -20.80362,-4.064 -38.77235,-13.92633 -54.96386,-27.25025 A 122.72966,122.72966 0 0 1 292.256,453.82869 c -1.79252,-3.467 -3.72457,-4.3321 -7.62975,-3.56234 -3.879,0.76461 -5.91529,-1.38023 -4.74629,-5.14457 q 5.10108,-16.42556 10.32191,-32.81382 c 0.95065,-2.98756 3.80347,-3.611 5.93528,-1.29452 q 11.97693,13.01463 23.87712,26.09993 c 2.15078,2.35765 0.90718,5.38157 -1.94892,5.68573 a 16.07623,16.07623 0 0 0 -1.85514,0.45367 c -1.88247,0.43418 -2.03016,1.41677 -1.09155,2.96479 a 68.14571,68.14571 0 0 0 19.78648,21.43968 c 4.39344,2.99136 9.66647,4.45113 14.79768,5.88678 a 203.78489,203.78489 0 0 0 35.2242,6.41915 c 2.46668,0.24052 3.24724,-0.43626 3.26142,-3.12583 0.0315,-5.9855 0.0102,-11.97126 0.0102,-17.95693 q 8e-5,-46.92759 -2.4e-4,-93.85519 c -6e-5,-3.59733 -0.23705,-3.85153 -3.72235,-3.85454 -7.89721,-0.007 -15.795,0.0472 -23.69137,-0.0317 a 12.42517,12.42517 0 0 0 -6.52984,1.87989 c -5.47079,3.15842 -10.90349,2.513 -15.6066,-1.70228 -3.95359,-3.5436 -5.09,-9.6431 -2.788,-14.96355 2.95926,-6.83927 12.14641,-9.64767 18.41925,-5.58938 a 11.37135,11.37135 0 0 0 6.50616,1.94147 c 7.97857,-0.0786 15.9584,-0.0228 23.93772,-0.0331 3.03683,-0.004 3.46463,-0.44242 3.47361,-3.45626 0.008,-2.63366 -0.11638,-5.27441 0.0398,-7.8988 0.12007,-2.01719 -0.74443,-3.00685 -2.51544,-3.76524 -7.2923,-3.12258 -13.76888,-7.34228 -18.01393,-14.3021 -14.78963,-24.2479 -0.19341,-51.56636 24.04645,-56.40073 a 37.12876,37.12876 0 0 1 40.17752,19.57806 c 8.14333,16.34855 4.16244,38.98029 -15.70441,49.09212 -2.784,1.417 -4.08927,3.094 -3.77158,6.29807 a 72.48632,72.48632 0 0 1 0.0414,8.85219 c -0.0347,1.4505 0.55743,2.016 1.96313,2.01271 8.141,-0.0189 16.2821,-0.007 24.42315,-0.0129 a 7.33752,7.33752 0 0 0 3.91345,-1.62311 12.88346,12.88346 0 0 1 16.069,1.34006 13.52581,13.52581 0 0 1 2.45849,15.85854 13.24886,13.24886 0 0 1 -14.9215,6.27536 3.39939,3.39939 0 0 1 -1.32441,-0.51711 c -4.0766,-3.46512 -8.93825,-2.76294 -13.67086,-2.54561 a 145.182,145.182 0 0 1 -16.01207,0.15113 c -2.35869,-0.15209 -2.93316,0.70685 -2.92357,2.962 0.0797,18.75476 0.0452,37.50998 0.0452,56.26505 z M 399.01337,312.08036 c 9.99882,0.24248 18.41706,-8.17787 18.66371,-18.66837 a 18.87076,18.87076 0 0 0 -37.72842,-0.96046 c -0.31716,11.24105 7.55854,19.34982 19.06471,19.62883 z"
       id="path55"
       inkscape:connector-curvature="0"
       style="fill:#fdfdfe" />
    <path
       class="cls-7"
       d="m 209.05294,537.02758 c -4.17115,2.65838 -7.71537,6.10479 -11.55114,9.18481 -0.62059,0.49828 -1.23735,1.00568 -1.89242,1.45567 a 2.72568,2.72568 0 0 1 -3.36577,0.0544 16.46006,16.46006 0 0 1 -5.19667,-6.69386 c -0.63166,-1.65422 0.81665,-2.77233 1.98348,-3.7178 5.3205,-4.311 10.69275,-8.5582 16.00448,-12.87986 q 6.20452,-5.04825 12.2971,-10.23295 c 1.61614,-1.38066 3.02286,-1.57149 4.54943,0.0458 0.76332,0.80872 1.64349,1.50584 2.43847,2.28632 2.45244,2.40787 2.746,5.11525 1.46839,8.283 -2.13141,5.28455 -4.04769,10.65586 -6.16875,16.29435 5.56028,-0.8 10.82407,-1.50256 16.06844,-2.32847 a 10.358,10.358 0 0 1 10.99034,5.40615 c 1.02021,1.92315 0.34677,3.28862 -1.20421,4.53933 q -10.689,8.61926 -21.33467,17.29226 c -2.40923,1.95752 -4.76456,3.98257 -7.20322,5.90222 -2.82074,2.22031 -3.90528,2.03662 -6.044,-0.76845 -0.77,-1.00989 -1.58377,-1.99084 -2.43216,-2.936 -1.79944,-2.00459 -1.74822,-3.5382 0.34,-5.26187 3.49951,-2.88867 7.044,-5.72285 10.55594,-8.59656 0.51045,-0.41766 1.48264,-0.74365 1.14813,-1.5298 -0.28564,-0.67134 -1.24914,-0.59206 -1.947,-0.547 -1.58713,0.10242 -3.17194,0.26232 -4.75214,0.44648 -5.27235,0.61439 -8.39667,-3.10381 -6.81184,-8.15241 0.76087,-2.42389 1.57437,-4.83123 2.36245,-7.247 -7.6e-4,-0.1748 5e-5,-0.34855 8.6e-4,-0.52237 z"
       id="path57"
       inkscape:connector-curvature="0"
       style="fill:#fdfdfe" />
    <path
       class="cls-7"
       d="m 124.83943,400.61821 a 49.9315,49.9315 0 0 1 9.28427,3.97456 c 16.3791,8.31538 33.77766,10.14157 51.79721,8.71766 11.63718,-0.91951 22.39278,-4.5979 32.75543,-9.69762 a 100.347,100.347 0 0 1 43.64423,-10.81909 c 16.29382,-0.20053 31.73817,2.65256 46.40921,9.89727 7.96874,3.935 16.1333,7.504 24.96248,9.2165 a 114.8072,114.8072 0 0 0 30.22024,1.46737 83.07775,83.07775 0 0 0 16.43728,-2.90548 c 1.22182,-0.34116 1.48115,-0.0184 1.53988,1.16962 0.19139,3.874 0.26313,3.996 -3.41964,4.76233 -22.63978,4.71138 -44.76095,3.81762 -66.01766,-6.24183 -5.101,-2.41392 -10.14122,-5.01893 -15.41254,-6.99385 a 75.00911,75.00911 0 0 0 -18.29309,-4.28871 c -13.72664,-1.47319 -27.38561,-1.2009 -40.77338,2.6734 -7.05613,2.042 -13.66044,5.24007 -20.26763,8.3644 a 92.68582,92.68582 0 0 1 -37.55286,9.04313 c -11.61992,0.31812 -23.04916,-0.509 -34.20041,-3.9568 -6.93357,-2.14379 -13.40275,-5.41861 -20.0276,-8.31306 a 1.53835,1.53835 0 0 1 -1.10171,-1.61859 c 0.0602,-1.42624 0.0163,-2.85686 0.0163,-4.45121 z"
       id="path59"
       inkscape:connector-curvature="0"
       style="fill:#fdfdfe" />
    <path
       class="cls-7"
       d="m 464.49871,163.96918 c -0.26722,6.07518 -2.07214,11.27242 -8.09521,14.01345 -1.78726,0.81337 -2.11038,2.00136 -1.5267,3.84864 1.29055,4.08452 2.42882,8.219 3.54669,12.35548 0.6111,2.26118 -0.0957,3.30506 -2.41985,3.13249 -6.32272,-0.46951 -8.90036,-0.32759 -11.10084,-7.6666 -0.84316,-2.81211 -1.80267,-5.59654 -2.48866,-8.44665 -0.75683,-3.14426 -2.67515,-3.50892 -5.63728,-3.39682 -1.00754,0.0382 -1.16858,0.80485 -1.33738,1.66094 -0.539,2.7335 -1.11427,5.46345 -1.79945,8.16333 -0.55076,2.17018 -1.61989,4.11862 -4.0467,4.5225 a 9.5177,9.5177 0 0 1 -7.577,-2.10089 c -1.30493,-1.03064 -0.72347,-2.67881 -0.45677,-4.05477 q 2.86242,-14.76743 5.80084,-29.52011 c 0.55421,-2.807 1.093,-5.61767 1.70464,-8.41227 0.3451,-1.577 1.26465,-2.65375 3.03621,-2.31506 8.41807,1.60929 17.04086,2.49662 24.93126,6.12827 4.89726,2.25402 7.44086,6.73289 7.4662,12.08807 z m -26.40908,-1.01946 c -0.19034,3.27377 1.99669,5.87631 5.51242,5.414 a 13.424,13.424 0 0 1 3.05606,0.21483 c 2.06351,0.20651 3.961,-0.35826 4.89424,-2.52671 a 4.12054,4.12054 0 0 0 -1.13421,-5.15448 10.72717,10.72717 0 0 0 -7.69731,-2.60856 c -3.1651,0.0653 -4.64532,1.55145 -4.6312,4.66092 z"
       id="path61"
       inkscape:connector-curvature="0"
       style="fill:#fdfdfe" />
    <path
       class="cls-7"
       d="m 342.2831,622.50718 c 1.43768,-5.3819 2.88656,-10.76087 4.3093,-16.14674 1.0825,-4.09775 2.22059,-4.75142 6.34736,-3.57514 0.613,0.17474 1.22679,0.34657 1.84014,0.52 4.33612,1.226 4.85469,2.15332 3.61925,6.51 -2.75869,9.7284 -5.53762,19.451 -8.26828,29.1872 -0.53629,1.91215 -0.89729,3.87371 -1.32978,5.81458 a 2.28468,2.28468 0 0 1 -2.68923,2.0617 c -6.48549,-0.48133 -8.094,-1.4942 -9.78068,-7.04728 -1.81851,-5.9871 -3.99838,-11.8647 -6.04163,-17.78282 a 23.37683,23.37683 0 0 0 -1.1367,-2.2523 c -1.38006,5.0849 -2.68277,9.53173 -3.78543,14.02762 -1.8065,7.36561 -2.48343,7.06972 -8.85965,5.2735 -4.04836,-1.1405 -4.6659,-2.2012 -3.48673,-6.3449 3.31145,-11.63688 6.93669,-23.189 9.59838,-35.0026 a 2.54662,2.54662 0 0 1 3.026,-2.27568 c 5.63514,0.3088 7.7399,1.88912 9.51649,7.23565 q 3.29431,9.91381 6.60418,19.82249 z"
       id="path63"
       inkscape:connector-curvature="0"
       style="fill:#fdfdfe" />
    <path
       class="cls-7"
       d="m 578.60084,516.9168 c 8.15959,0.2214 13.74292,5.30449 14.76189,12.90512 0.55708,4.15545 0.70132,4.23865 4.977,4.93512 3.38175,0.551 6.749,1.2023 10.1052,1.89421 2.36909,0.4884 2.74042,1.321 1.63632,3.48821 -2.52315,4.9526 -6.37615,8.55329 -13.14462,6.19284 a 43.08717,43.08717 0 0 0 -7.00433,-1.47141 4.60683,4.60683 0 0 0 -5.13139,3.59093 c -0.28046,1.141 0.60935,1.39055 1.15035,1.834 2.45709,2.01406 4.96493,3.96667 7.469,5.92273 a 2.94242,2.94242 0 0 1 0.67881,4.4034 35.24644,35.24644 0 0 1 -3.30709,4.35463 c -1.7594,1.90409 -3.135,1.98746 -5.22522,0.37019 -4.52461,-3.50054 -8.97585,-7.09574 -13.4852,-10.61628 Q 565.03873,549.222 557.9372,543.799 c -3.63035,-2.75853 -3.8993,-4.26987 -1.09235,-7.826 3.49565,-4.42865 6.9371,-8.90606 10.5875,-13.20486 3.03919,-3.57905 6.78981,-6.02965 11.16849,-5.85134 z m 3.6265,16.15188 c 0.0869,-2.7894 -3.35422,-5.1474 -5.43817,-3.9451 a 20.14664,20.14664 0 0 0 -6.69088,6.31964 c -0.37764,0.56382 -0.63221,1.16675 -0.13705,1.74642 a 23.347,23.347 0 0 0 5.33129,4.682 0.88184,0.88184 0 0 0 1.10117,-0.14762 20.748,20.748 0 0 0 5.83364,-8.65534 z"
       id="path65"
       inkscape:connector-curvature="0"
       style="fill:#fdfdfe" />
    <path
       class="cls-7"
       d="m 339.10668,153.64432 c 0.11363,-2.74291 1.59552,-3.61207 3.57964,-3.929 5.02684,-0.80313 10.06357,-1.54646 15.08378,-2.38861 3.449,-0.57858 6.86354,-1.36819 10.31791,-1.90681 3.59907,-0.56114 4.29083,0.0132 5.00182,3.60458 1.20659,6.09468 0.94468,6.433 -5.30021,7.37618 -4.00721,0.60517 -8.00728,1.26065 -12.00273,1.93935 -2.24427,0.3812 -3.12081,1.57071 -2.80722,3.63433 0.41666,2.74187 1.159,3.46113 3.73641,3.06113 4.16211,-0.64592 8.30616,-1.42151 12.43963,-2.23482 3.55887,-0.7003 4.634,-0.10081 5.46994,3.38356 0.18473,0.77 0.23355,1.57192 0.36036,2.35664 0.52068,3.22187 -0.31037,4.465 -3.41809,4.98918 -4.00162,0.675 -7.9952,1.42541 -12.01857,1.93595 -3.898,0.49463 -3.90641,1.94866 -3.14429,5.5802 0.40594,1.93429 2.23337,1.78384 3.75928,1.52138 4.69931,-0.80821 9.38462,-1.69751 14.08133,-2.52135 0.85748,-0.15042 1.74326,-0.13772 2.61551,-0.20656 a 2.42653,2.42653 0 0 1 1.75536,0.63731 c 0.57777,0.47573 2.01651,7.61077 1.68105,8.245 -0.6356,1.20159 -1.85356,1.45848 -3.01378,1.67022 -7.97,1.45463 -15.94738,2.86841 -23.92264,4.29376 -1.0162,0.18159 -2.031,0.37405 -3.05168,0.52683 -3.15995,0.473 -4.05143,-0.11 -4.597,-3.22293 -1.63376,-9.32226 -3.22231,-18.65244 -4.82727,-27.97976 -0.6198,-3.60215 -1.23622,-7.2048 -1.77854,-10.36576 z"
       id="path67"
       inkscape:connector-curvature="0"
       style="fill:#fdfdfe" />
    <path
       class="cls-7"
       d="m 494.66911,622.29209 c 0.0686,6.20874 -3.30787,10.43744 -8.00549,13.89373 -7.67676,5.64843 -18.118,5.75624 -25.14853,0.29063 -2.74761,-2.136 -4.31035,-5.11835 -5.58222,-8.20351 a 69.40613,69.40613 0 0 1 -3.7418,-12.53979 c -1.08255,-5.28537 0.51914,-9.8949 4.1311,-13.84474 a 23.66265,23.66265 0 0 1 24.96263,-6.097 14.12324,14.12324 0 0 1 6.80536,5.42375 c 1.07153,1.5588 0.6936,2.768 -1.03548,3.3676 -4.13142,1.43311 -8.16994,2.86014 -12.70206,0.95324 a 7.46406,7.46406 0 0 0 -10.24409,7.86705 28.59581,28.59581 0 0 0 5.0581,13.73665 c 1.82988,2.552 4.45477,3.16537 8.12766,2.03616 3.05658,-0.93986 5.57427,-3.78164 5.65838,-6.42892 0.0409,-1.28613 -0.6083,-1.94647 -1.90835,-1.79458 a 8.82634,8.82634 0 0 0 -1.34156,0.47057 6.40393,6.40393 0 0 1 -1.8447,0.44169 c -3.85177,-0.0926 -2.98119,-3.74066 -4.19267,-5.78787 -0.84561,-1.429 -0.64258,-3.15462 1.118,-3.83811 4.35649,-1.69128 8.76867,-3.24962 13.20791,-4.71126 a 2.67,2.67 0 0 1 3.32092,1.69882 33.77829,33.77829 0 0 1 3.35689,13.06589 z"
       id="path69"
       inkscape:connector-curvature="0"
       style="fill:#fdfdfe" />
    <path
       class="cls-7"
       d="m 511.82,461.30754 a 113.1003,113.1003 0 0 0 19.57007,2.01166 c 14.47072,0.23812 28.322,-2.34648 41.41785,-8.73113 11.265,-5.49207 22.79255,-10.23148 35.4471,-11.5479 19.17828,-1.99509 37.817,-0.33529 55.50848,7.94042 1.10977,0.51913 3.04551,0.76479 3.05048,1.93212 a 20.62742,20.62742 0 0 1 -1.30686,6.27069 c -0.3231,0.99592 -1.1997,0.1351 -1.76239,-0.10936 -6.69749,-2.90934 -13.35738,-5.87255 -20.58272,-7.355 -10.3928,-2.1323 -20.85372,-2.29208 -31.37994,-1.56436 -12.06035,0.83372 -23.13,4.92071 -33.812,10.2465 a 98.4118,98.4118 0 0 1 -48.795,10.22517 112.236,112.236 0 0 1 -20.11207,-2.40065 c -1.34685,-0.303 -1.839,-0.67253 -0.89554,-1.9976 a 24.54364,24.54364 0 0 0 1.98993,-3.5377 c 0.47845,-0.98496 1.07955,-1.56108 1.66261,-1.38286 z"
       id="path71"
       inkscape:connector-curvature="0"
       style="fill:#fdfdfe" />
    <path
       class="cls-7"
       d="m 539.29226,566.60069 c 0.10471,1.08256 -0.67594,1.82043 -1.63638,2.49007 -3.85289,2.68633 -7.71021,5.36722 -11.51977,8.114 -0.90981,0.656 -2.306,1.15559 -2.02367,2.64944 a 5.734,5.734 0 0 0 2.79831,3.7095 c 0.88221,0.55125 1.79565,-0.14575 2.59232,-0.72232 3.67538,-2.65961 7.40512,-5.24591 11.03443,-7.96649 a 2.61628,2.61628 0 0 1 3.97361,0.31377 c 0.27492,0.28857 0.59192,0.54166 0.83959,0.851 4.2117,5.259 3.48758,6.08035 -0.75294,8.8362 -2.93284,1.90607 -5.7429,4.00373 -8.57774,6.05732 -2.43639,1.76488 -2.56976,2.71912 -0.84088,5.09337 1.43859,1.97559 2.45639,2.12514 4.82543,0.452 3.77032,-2.66283 7.44914,-5.45562 11.23005,-8.10289 2.88969,-2.02324 3.73905,-1.82014 5.85878,1.01077 3.551,4.74225 3.49851,5.278 -1.20349,8.64146 q -9.716,6.94981 -19.48465,13.82585 c -2.55216,1.80056 -3.51459,1.7145 -5.33544,-0.82579 q -10.78529,-15.04633 -21.4412,-30.18511 c -1.79073,-2.54338 -1.47209,-3.71779 1.08861,-5.54325 q 10.20891,-7.27745 20.41615,-14.55723 c 2.45352,-1.75045 3.87205,-1.59763 5.57509,0.887 1.01435,1.48008 2.48627,2.75926 2.58379,4.97133 z"
       id="path73"
       inkscape:connector-curvature="0"
       style="fill:#fdfdfe" />
    <path
       class="cls-7"
       d="m 269.5823,612.05061 c 0.51448,-1.77237 -0.3955,-2.87961 -2.03724,-3.8653 -3.259,-1.95664 -6.42392,-4.075 -9.57268,-6.20786 a 2.40868,2.40868 0 0 0 -3.3804,0.22842 c -3.42369,2.913 -4.65639,2.92725 -8.41256,0.39258 -0.85607,-0.57768 -1.66755,-1.22107 -2.51763,-1.808 -2.61857,-1.80786 -2.72391,-2.58133 -0.15167,-4.59936 10.45083,-8.19906 20.95985,-16.324 31.43015,-24.49845 a 3.91185,3.91185 0 0 1 5.21041,-0.18158 c 2.38669,1.68123 5.24458,2.61126 7.412,4.67566 a 4.63183,4.63183 0 0 1 1.49238,4.89968 c -2.62823,10.57583 -5.16261,21.17493 -7.75587,31.75947 -0.50779,2.07252 -1.31206,4.04454 -1.40745,6.24732 -0.0912,2.10585 -1.47873,3.01016 -3.61925,2.77765 -3.91092,-0.42484 -6.89349,-4.68423 -6.69019,-9.82023 z m 6.19394,-26.48052 c -1.9764,1.50981 -3.54294,2.68416 -5.08572,3.889 -5.70612,4.45631 -5.62187,5.2683 0.65194,8.922 1.05337,0.61352 1.51734,0.55459 1.8611,-0.59924 a 57.927,57.927 0 0 0 2.57268,-12.21176 z"
       id="path75"
       inkscape:connector-curvature="0"
       style="fill:#fdfdfe" />
    <path
       class="cls-7"
       d="m 406.00176,606.74647 c 4.03884,-0.0216 6.27334,2.15876 7.75213,5.32034 2.35509,5.035 4.13832,10.30029 6.11539,15.48668 q 3.77017,9.89015 7.47844,19.80379 c 1.09769,2.94578 0.59525,3.60174 -2.61481,3.76369 a 31.211,31.211 0 0 0 -3.31542,0.30447 c -3.30428,0.52424 -5.34622,-0.459 -6.1992,-3.6909 -0.66951,-2.537 -2.11318,-2.97672 -4.35953,-2.85254 -3.49538,0.19328 -7.00216,0.30114 -10.50146,0.25262 -1.79331,-0.0248 -2.98122,0.57136 -3.38041,2.28013 -0.84254,3.60671 -7.48271,6.07216 -10.763,5.31489 -2.13043,-0.49179 -2.33431,-2.02452 -1.73692,-3.9123 q 3.63394,-11.48382 7.1857,-22.99354 c 1.39327,-4.48069 2.8359,-8.94781 4.12364,-13.45889 0.82416,-2.887 2.28493,-4.72149 5.527,-5.02059 1.64269,-0.15154 3.29693,-0.43321 4.68845,-0.59785 z m -0.6161,14.30415 c -0.22042,0.23368 -0.37653,0.32541 -0.41807,0.45414 q -1.17142,3.62918 -2.3177,7.26664 c -1.99435,6.31941 -1.50141,6.87037 5.15772,6.16658 1.86508,-0.19708 2.37346,-0.9333 1.71716,-2.66849 -1.39924,-3.69956 -2.74171,-7.42057 -4.13911,-11.21887 z"
       id="path77"
       inkscape:connector-curvature="0"
       style="fill:#fdfdfe" />
    <path
       class="cls-7"
       d="m 280.41153,176.005 a 15.20468,15.20468 0 0 1 12.24148,5.4112 c 1.35232,1.54223 1.325,3.0487 -0.412,4.252 -3.50491,2.4281 -7.17987,4.00986 -11.59734,2.17787 -3.30867,-1.37216 -7.004,-0.12943 -9.67351,2.8811 -2.14456,2.41848 -2.41035,5.19553 -0.53787,8.62222 1.63866,2.99885 3.4344,5.91873 5.28875,8.79083 1.72151,2.66632 3.92088,4.69637 7.46555,3.9816 4.21616,-0.85018 7.15482,-3.6032 7.67421,-7.44391 0.62242,-4.60271 3.41663,-7.3732 7.3511,-9.23638 1.87806,-0.88934 3.11844,-0.22749 3.85724,1.79041 2.735,7.47071 0.23138,13.64858 -4.93514,18.91025 -5.11952,5.21381 -11.36713,8.04 -18.90012,7.34012 a 15.478,15.478 0 0 1 -10.06457,-4.94913 45.53606,45.53606 0 0 1 -9.67556,-14.97055 c -3.6161,-9.56479 0.2922,-19.16 9.38878,-24.14282 a 26.90939,26.90939 0 0 1 12.529,-3.41481 z"
       id="path79"
       inkscape:connector-curvature="0"
       style="fill:#fdfdfe" />
    <path
       class="cls-7"
       d="m 130.40863,452.35641 c 7.9892,3.50987 15.33983,7.21147 23.45863,8.76472 19.98858,3.82417 39.5819,3.21335 58.4993,-5.23486 7.18258,-3.20764 14.22538,-6.76867 21.73193,-9.20659 a 98.5915,98.5915 0 0 1 32.5303,-4.35744 c 2.21407,0.0404 5.03889,-0.84579 6.47529,0.54961 1.23252,1.19739 -0.18806,4.01143 0.59178,6.08819 0.44707,1.19037 -0.61669,0.98189 -1.27854,0.96441 -4.37794,-0.11558 -8.75165,-0.16925 -13.13492,-0.074 -12.9032,0.28048 -24.91544,3.8555 -36.445,9.42258 -10.21024,4.93 -20.65521,9.14476 -32.06778,10.447 -19.64067,2.24111 -38.77517,0.92054 -56.92139,-7.754 -0.65435,-0.3128 -1.328,-0.51857 -1.51775,-1.34988 -0.59876,-2.62315 -1.21784,-5.24164 -1.92185,-8.25974 z"
       id="path81"
       inkscape:connector-curvature="0"
       style="fill:#fdfdfe" />
    <path
       class="cls-7"
       d="m 354.38937,375.5389 c -16.1197,0.8158 -31.20515,-3.06312 -45.54114,-10.28237 -23.52439,-11.84632 -47.99405,-13.31726 -73.1069,-6.209 -6.57947,1.86232 -12.72055,5.00113 -18.86986,7.96969 -14.41281,6.95768 -29.64912,9.33029 -45.50207,8.7917 a 92.27192,92.27192 0 0 1 -26.51165,-4.38939 c -5.80962,-1.95373 -11.29422,-4.68308 -16.92528,-7.06382 -1.79653,-0.75953 -1.31056,-2.15031 -0.91727,-3.18888 0.53169,-1.404 1.45079,-0.11675 2.0635,0.16665 9.82642,4.545 19.68809,9.001 30.59454,10.29239 17.79081,2.10655 35.25044,1.45741 52.02239,-5.88052 8.65453,-3.78646 17.059,-8.22 26.23605,-10.74344 12.06079,-3.31636 24.33425,-3.70511 36.74035,-2.93322 13.37522,0.83222 25.6077,5.34427 37.43274,11.19708 a 92.4739,92.4739 0 0 0 45.286,9.34156 109.098,109.098 0 0 0 22.44424,-2.98777 c 0.61274,-0.1527 1.76437,-1.2094 1.98929,0.41927 0.15614,1.13059 0.35782,2.33359 -1.39523,2.75435 a 95.95314,95.95314 0 0 1 -16.72225,2.713 c -3.09562,0.18306 -6.21099,0.0327 -9.31745,0.0327 z"
       id="path83"
       inkscape:connector-curvature="0"
       style="fill:#fdfdfe" />
    <path
       class="cls-7"
       d="m 515.14274,412.4614 a 129.653,129.653 0 0 0 18.804,1.301 90.35589,90.35589 0 0 0 40.79067,-9.45608 c 9.96558,-4.861 20.18637,-9.03313 31.34486,-10.45077 a 126.50648,126.50648 0 0 1 33.333,0.15431 c 11.518,1.58266 21.91011,6.38507 32.28718,11.23407 0.87228,0.4076 1.45888,5.03041 0.705,5.64614 -0.73967,0.60414 -1.34527,-0.1399 -1.94439,-0.41435 -6.1396,-2.81235 -12.22224,-5.76144 -18.60922,-7.99006 -11.14358,-3.88822 -22.68684,-4.59252 -34.36908,-4.33084 a 88.48505,88.48505 0 0 0 -38.50033,10.02683 97.64341,97.64341 0 0 1 -46.74008,10.91515 c -4.61617,-0.0872 -9.23509,-0.27981 -13.83547,-0.78961 a 2.06186,2.06186 0 0 1 -2.12155,-1.79777 c -0.2677,-1.23696 -0.6827,-2.442 -1.14459,-4.04802 z"
       id="path85"
       inkscape:connector-curvature="0"
       style="fill:#fdfdfe" />
    <path
       class="cls-7"
       d="m 542.52427,201.26269 a 9.725,9.725 0 0 1 -1.50664,-0.48238 c -0.85029,-0.42095 -1.65474,-0.93395 -2.48264,-1.40089 -5.82989,-3.2881 -6.48853,-3.44832 -9.87759,1.96666 -4.24122,6.77666 -8.567,13.50072 -12.89333,20.22363 -1.92773,2.9956 -3.09988,3.18921 -6.00495,1.20247 -0.98009,-0.67027 -1.97076,-1.327 -2.97949,-1.953 -3.19478,-1.98272 -3.45279,-3.06237 -1.384,-6.33181 3.13309,-4.9517 6.30909,-9.87636 9.4368,-14.83144 1.98941,-3.15177 3.83616,-6.398 5.93385,-9.47442 0.695,-1.01922 0.42249,-1.47535 -0.22352,-2.17837 -1.548,-1.68477 -3.68262,-2.44562 -5.57919,-3.565 -3.23154,-1.90732 -3.79108,-3.68447 -1.92129,-6.81463 2.53935,-4.25106 4.06845,-4.81844 7.49113,-2.66075 q 12.56026,7.91814 25.08295,15.89578 c 2.99125,1.91028 3.2274,2.95169 1.3879,6.05255 -1.06485,1.79501 -1.87234,3.94234 -4.47999,4.3516 z"
       id="path87"
       inkscape:connector-curvature="0"
       style="fill:#fdfdfe" />
    <path
       class="cls-7"
       d="m 671.1713,367.44238 c -6.62985,-2.8604 -12.94561,-6.06574 -19.6652,-8.32069 -10.95736,-3.67693 -22.26191,-4.35429 -33.70478,-4.15654 -14.39074,0.24868 -27.77619,4.21544 -40.49231,10.6896 -19.78213,10.07173 -40.67789,12.0325 -62.34133,8.84915 -9.56437,-1.40546 -18.36362,-5.01329 -27.02684,-9.04526 a 133.028,133.028 0 0 0 -18.35369,-7.35021 c -1.47694,-0.43593 -1.42014,-1.01606 -1.1877,-2.17589 0.29613,-1.47765 1.12362,-1.151 2.09813,-0.8756 a 108.12077,108.12077 0 0 1 19.00641,7.60931 c 22.32488,11.19546 45.58675,12.55823 69.49159,6.74018 7.43879,-1.81049 14.30514,-5.325 21.19534,-8.61044 a 92.65829,92.65829 0 0 1 38.52261,-9.05772 c 13.43316,-0.27062 26.55247,1.12694 39.07752,6.29042 3.6742,1.51466 7.23539,3.30472 10.91672,4.80009 2.10923,0.85678 2.97751,2.17492 2.46353,4.6136 z"
       id="path89"
       inkscape:connector-curvature="0"
       style="fill:#fdfdfe" />
    <path
       class="cls-7"
       d="m 501.83656,408.97006 c -0.29239,0.33824 -0.4002,0.45113 -0.4948,0.57417 -2.906,3.77877 -6.07339,2.65049 -9.6955,0.9407 -8.748,-4.12934 -17.45843,-8.40152 -27.05938,-10.38222 a 111.79683,111.79683 0 0 0 -29.68436,-1.711 73.23082,73.23082 0 0 0 -14.14267,2.14116 c -1.441,0.37922 -1.95292,0.0511 -1.94845,-1.54825 0.01,-3.53528 -0.0952,-3.62961 3.41242,-4.237 18.05111,-3.12594 35.932,-2.95845 53.45586,3.064 7.82512,2.68928 15.10325,6.67612 22.76435,9.76044 1.09629,0.44131 2.18553,0.90007 3.39253,1.398 z"
       id="path91"
       inkscape:connector-curvature="0"
       style="fill:#fdfdfe" />
    <path
       class="cls-7"
       d="m 443.55191,449.61857 a 95.4557,95.4557 0 0 0 -22.75034,2.5697 c -1.73052,0.44631 -1.97231,-0.16046 -1.98064,-1.69325 -0.0308,-5.677 -0.0873,-5.74386 5.17375,-6.59032 15.42874,-2.4823 30.768,-2.33187 45.99432,1.574 2.55371,0.65508 2.80006,3.22425 4.41244,4.64847 0.54284,0.47955 -2.95242,3.42779 -3.97654,3.12428 a 77.76842,77.76842 0 0 0 -16.13941,-3.0198 c -3.57232,-0.27612 -7.15535,-0.41348 -10.73358,-0.61308 z"
       id="path93"
       inkscape:connector-curvature="0"
       style="fill:#fdfdfe" />
    <path
       class="cls-7"
       d="m 342.6917,463.0349 c 4.76184,-0.0391 9.47559,0.44122 14.21314,0.27714 a 97.55222,97.55222 0 0 0 23.30149,-3.32314 c 1.24386,-0.35171 1.62711,-0.33876 1.69005,1.10484 0.26772,6.13809 0.23054,5.85568 -5.63385,7.58649 -7.19391,2.12324 -14.01088,0.492 -20.85536,-1.27383 -4.3305,-1.11726 -8.70617,-2.19088 -12.71547,-4.3715 z"
       id="path95"
       inkscape:connector-curvature="0"
       style="fill:#fdfdfe" />
  </g>
</svg>
