<?xml version="1.0" encoding="UTF-8" standalone="no"?>
<!-- Generator: Adobe Illustrator 24.2.1, SVG Export Plug-In . SVG Version: 6.00 Build 0)  -->

<svg
   xmlns:dc="http://purl.org/dc/elements/1.1/"
   xmlns:cc="http://creativecommons.org/ns#"
   xmlns:rdf="http://www.w3.org/1999/02/22-rdf-syntax-ns#"
   xmlns:svg="http://www.w3.org/2000/svg"
   xmlns="http://www.w3.org/2000/svg"
   xmlns:sodipodi="http://sodipodi.sourceforge.net/DTD/sodipodi-0.dtd"
   xmlns:inkscape="http://www.inkscape.org/namespaces/inkscape"
   version="1.1"
   id="_x30_1"
   x="0px"
   y="0px"
   width="263.92099"
   height="306.24976"
   viewBox="0 0 263.92099 306.24976"
   enable-background="new 0 0 500 500"
   xml:space="preserve"
   sodipodi:docname="trivy.svg"
   inkscape:version="0.92.5 (2060ec1f9f, 2020-04-08)"><metadata
   id="metadata79"><rdf:RDF><cc:Work
       rdf:about=""><dc:format>image/svg+xml</dc:format><dc:type
         rdf:resource="http://purl.org/dc/dcmitype/StillImage" /><dc:title></dc:title></cc:Work></rdf:RDF></metadata><defs
   id="defs77" /><sodipodi:namedview
   pagecolor="#ffffff"
   bordercolor="#666666"
   borderopacity="1"
   objecttolerance="10"
   gridtolerance="10"
   guidetolerance="10"
   inkscape:pageopacity="0"
   inkscape:pageshadow="2"
   inkscape:window-width="3696"
   inkscape:window-height="2018"
   id="namedview75"
   showgrid="false"
   fit-margin-top="0"
   fit-margin-left="0"
   fit-margin-right="0"
   fit-margin-bottom="0"
   inkscape:zoom="0.472"
   inkscape:cx="131.96"
   inkscape:cy="102.895"
   inkscape:window-x="144"
   inkscape:window-y="68"
   inkscape:window-maximized="1"
   inkscape:current-layer="_x30_1" />

<g
   id="g72"
   transform="translate(-118.04,-46.64525)">
	<g
   id="g28">
		<polygon
   id="XMLID_13_"
   points="250.005,48.462 119.856,123.622 250.003,198.745 380.124,123.604 "
   style="fill:#f69421" />
		<g
   id="g23">
			<g
   id="g17">
				<path
   d="m 307.849,164.921 c -0.317,-0.628 -0.644,-1.249 -0.978,-1.86 -6.381,-11.683 -15.986,-20.898 -27.774,-26.646 -30.74,-14.993 -69.14,-2.215 -87.41,29.095 l -3.16,-1.844 c 19.231,-32.951 59.717,-46.365 92.173,-30.537 12.474,6.083 22.634,15.828 29.381,28.179 0.378,0.691 0.747,1.395 1.104,2.106 z"
   id="path15"
   inkscape:connector-curvature="0"
   style="fill:#ffffff" />
			</g>
			<g
   id="g21">
				<path
   d="m 340.029,145.899 c -0.693,-0.851 -1.408,-1.727 -1.95,-2.604 -10.641,-17.213 -24.699,-30.163 -41.784,-38.496 -48.873,-23.834 -108.91,-5.31 -136.682,42.169 l -3.158,-1.848 c 28.734,-49.117 90.861,-68.274 141.443,-43.609 17.716,8.64 32.282,22.051 43.292,39.859 0.417,0.674 1.028,1.425 1.675,2.218 z"
   id="path19"
   inkscape:connector-curvature="0"
   style="fill:#ffffff" />
			</g>
		</g>
		<g
   id="XMLID_12_">
			<path
   d="m 250.003,200.562 c -0.314,0 -0.627,-0.081 -0.908,-0.243 L 118.948,125.196 c -0.562,-0.325 -0.908,-0.924 -0.908,-1.574 0,-0.648 0.346,-1.249 0.908,-1.574 L 249.097,46.889 c 0.562,-0.325 1.255,-0.325 1.817,0 l 130.118,75.141 c 0.562,0.325 0.908,0.924 0.908,1.574 0,0.649 -0.346,1.249 -0.908,1.574 l -130.12,75.141 c -0.281,0.161 -0.595,0.243 -0.909,0.243 z M 123.49,123.622 250.003,196.647 376.491,123.604 250.005,50.56 Z"
   id="path25"
   inkscape:connector-curvature="0"
   style="fill:#ffffff" />
		</g>
	</g>
	<g
   id="g46">
		<polygon
   points="119.864,123.625 251.169,199.451 251.169,351.078 119.864,275.288 "
   id="polygon30"
   style="fill:#08b1d5" />
		<g
   id="g40">
			<g
   id="g34">
				<path
   d="m 255.56,307.022 c -74.72,-22.26 -119.248,-94.96 -99.258,-162.058 l 0.157,-0.479 3.502,1.058 -0.155,0.472 c -19.412,65.158 24.011,135.818 96.799,157.503 z"
   id="path32"
   inkscape:connector-curvature="0"
   style="fill:#ffffff" />
			</g>
			<g
   id="g38">
				<path
   d="m 192.616,165.145 c -3.08,18.413 0.649,37.88 10.683,54.644 12.932,21.607 34.745,36.525 61.42,42.004 l -0.735,3.584 c -27.692,-5.689 -50.358,-21.212 -63.824,-43.71 -10.643,-17.783 -14.493,-38.494 -10.996,-58.022 z"
   id="path36"
   inkscape:connector-curvature="0"
   style="fill:#ffffff" />
			</g>
		</g>
		<g
   id="g44">
			<path
   d="m 251.169,352.895 c -0.314,0 -0.627,-0.081 -0.908,-0.243 l -131.304,-75.79 c -0.562,-0.325 -0.908,-0.924 -0.908,-1.574 V 123.625 c 0,-0.649 0.346,-1.249 0.908,-1.574 0.562,-0.325 1.255,-0.325 1.817,0 l 131.304,75.826 c 0.562,0.325 0.908,0.924 0.908,1.574 v 151.628 c 0,0.649 -0.346,1.249 -0.908,1.574 -0.282,0.162 -0.596,0.242 -0.909,0.242 z M 121.681,274.239 249.352,347.932 V 200.499 L 121.681,126.772 Z"
   id="path42"
   inkscape:connector-curvature="0"
   style="fill:#ffffff" />
		</g>
	</g>
	<g
   id="g64">
		<polygon
   points="380.143,123.656 249.99,199.481 251.169,351.108 380.143,275.319 "
   id="polygon48"
   style="fill:#0d819b" />
		<g
   id="g58">
			<g
   id="g52">
				<path
   d="m 249.425,301.621 c 69.14,-23.695 109.647,-92.235 90.775,-155.582 l -0.15,-0.456 3.495,-1.076 0.162,0.489 c 19.488,65.415 -22.346,136.155 -93.696,160.288 z"
   id="path50"
   inkscape:connector-curvature="0"
   style="fill:#ffffff" />
			</g>
			<g
   id="g56">
				<path
   d="m 248.84,258.208 c 22.672,-7.355 39.791,-20.048 49.948,-37.174 9.685,-16.328 12.678,-35.968 8.695,-56.093 l 3.465,-1.325 c 4.344,21.224 1.236,42.002 -9.014,59.284 -10.793,18.197 -29.004,31.576 -53.095,39.149 z"
   id="path54"
   inkscape:connector-curvature="0"
   style="fill:#ffffff" />
			</g>
		</g>
		<g
   id="g62">
			<path
   d="m 251.169,352.895 c -0.309,0 -0.618,-0.079 -0.896,-0.237 -0.565,-0.32 -0.915,-0.917 -0.92,-1.566 l -1.179,-151.597 c -0.005,-0.652 0.339,-1.256 0.902,-1.584 L 379.23,122.085 c 0.562,-0.326 1.256,-0.328 1.82,-0.005 0.564,0.325 0.911,0.925 0.911,1.575 v 151.663 c 0,0.644 -0.341,1.24 -0.896,1.567 l -128.975,75.76 c -0.285,0.167 -0.603,0.25 -0.921,0.25 z m 0.645,-152.374 1.147,147.398 125.366,-73.64 V 126.816 Z"
   id="path60"
   inkscape:connector-curvature="0"
   style="fill:#ffffff" />
		</g>
	</g>
	<g
   id="g70">
		<path
   d="m 226.242,183.387 c -0.112,0.184 -0.061,0.803 -0.061,0.803 -0.02,0.26 -0.049,0.798 -0.063,1.057 -0.817,14.92 8.01,28.668 22.73,35.291 l 0.303,0.152 c 0.005,-0.002 0.01,-0.005 0.016,-0.007 0.123,0.055 0.202,-0.085 0.202,-0.085 18.107,-8.831 25.339,-20.666 24.35,-36.399 l -0.019,-0.382 c -0.199,-0.424 -0.398,-0.848 -0.618,-1.26 -2.487,-4.665 -6.321,-8.547 -11.298,-10.974 -12.526,-6.109 -27.837,-0.817 -35.526,11.777"
   id="path66"
   inkscape:connector-curvature="0"
   style="fill:#f0df36" />
		<path
   d="m 248.969,222.646 -0.941,-0.472 c -15.247,-6.861 -24.591,-21.406 -23.736,-37.026 0.013,-0.238 0.036,-0.671 0.056,-0.961 -0.065,-1.1 0.222,-1.57 0.332,-1.752 l 3.125,1.9 c 0.004,-0.007 0.009,-0.014 0.013,-0.023 l -3.12,-1.906 c 8.299,-13.592 24.587,-18.954 37.889,-12.467 5.164,2.519 9.351,6.585 12.11,11.758 0.235,0.44 0.45,0.893 0.661,1.347 l 0.152,0.325 0.037,0.737 c 1.067,16.968 -6.916,29.06 -25.122,38.013 -0.295,0.225 -0.645,0.363 -1.01,0.398 z m -20.967,-38.628 c 10e-4,0.012 0.002,0.021 0.002,0.024 l 0.011,0.141 -0.01,0.147 c -0.019,0.246 -0.046,0.755 -0.059,1.008 -0.764,13.955 7.546,26.985 21.209,33.33 16.468,-8.202 23.698,-19.134 22.74,-34.354 l -0.002,-0.044 c -0.136,-0.286 -0.275,-0.571 -0.424,-0.851 -2.395,-4.49 -6.02,-8.015 -10.486,-10.193 -11.503,-5.605 -25.617,-0.964 -32.981,10.792 z M 228,183.814 v 0.002 z"
   id="path68"
   inkscape:connector-curvature="0"
   style="fill:#ffffff" />
	</g>
</g>
</svg>
