<?xml version="1.0" encoding="UTF-8" standalone="no"?>
<svg
   viewBox="0 0 200.84906 36.000001"
   version="1.1"
   id="svg45"
   sodipodi:docname="created-by.svg"
   width="200.84906"
   height="36"
   inkscape:version="1.1 (ce6663b3b7, 2021-05-25)"
   xmlns:inkscape="http://www.inkscape.org/namespaces/inkscape"
   xmlns:sodipodi="http://sodipodi.sourceforge.net/DTD/sodipodi-0.dtd"
   xmlns="http://www.w3.org/2000/svg"
   xmlns:svg="http://www.w3.org/2000/svg">
  <sodipodi:namedview
     id="namedview47"
     pagecolor="#ffffff"
     bordercolor="#666666"
     borderopacity="1.0"
     inkscape:pageshadow="2"
     inkscape:pageopacity="0.0"
     inkscape:pagecheckerboard="0"
     showgrid="false"
     inkscape:snap-object-midpoints="true"
     inkscape:snap-bbox="true"
     inkscape:snap-center="false"
     inkscape:snap-page="true"
     showguides="true"
     inkscape:guide-bbox="true"
     inkscape:snap-bbox-edge-midpoints="true"
     inkscape:bbox-paths="false"
     inkscape:bbox-nodes="true"
     inkscape:snap-bbox-midpoints="true"
     inkscape:object-paths="true"
     inkscape:snap-intersection-paths="true"
     inkscape:snap-smooth-nodes="true"
     inkscape:snap-midpoints="true"
     inkscape:snap-text-baseline="true"
     inkscape:snap-nodes="true"
     inkscape:snap-global="false"
     inkscape:zoom="2.8284271"
     inkscape:cx="128.51666"
     inkscape:cy="44.724504"
     inkscape:window-width="1848"
     inkscape:window-height="1016"
     inkscape:window-x="1032"
     inkscape:window-y="27"
     inkscape:window-maximized="1"
     inkscape:current-layer="svg45"
     fit-margin-top="0"
     fit-margin-left="0"
     fit-margin-right="0"
     fit-margin-bottom="0">
    <sodipodi:guide
       position="170.29474,27.922673"
       orientation="0,-1"
       id="guide5476" />
    <sodipodi:guide
       position="143.63026,37.864844"
       orientation="0,-1"
       id="guide31" />
    <sodipodi:guide
       position="91.339297,58.596625"
       orientation="1,0"
       id="guide4687" />
    <sodipodi:guide
       position="134.47282,34.554994"
       orientation="1,0"
       id="guide4689" />
    <sodipodi:guide
       position="125.81076,29.074916"
       orientation="1,0"
       id="guide4691" />
    <sodipodi:guide
       position="82.78125,46.890626"
       orientation="1,0"
       id="guide4908" />
  </sodipodi:namedview>
  <defs
     id="defs10">
    <style
       id="style2">.cls-1{fill:none;}.cls-2{}.cls-3{}.cls-4{fill:#001a70;}.cls-5{fill:#0083ca;}.cls-6{fill:#6c8cc7;}</style>
    <clipPath
       id="clip-path"
       transform="translate(-5 -12.03)">
      <rect
         class="cls-1"
         width="120"
         height="60"
         id="rect4"
         x="0"
         y="0" />
    </clipPath>
    <clipPath
       id="clip-path-2"
       transform="translate(-5 -12.03)">
      <rect
         class="cls-1"
         x="5"
         y="12.03"
         width="110"
         height="35.939999"
         id="rect7" />
    </clipPath>
  </defs>
  <g
     id="Layer_2"
     data-name="Layer 2"
     transform="translate(90.779059,0.03)">
    <g
       id="Layer_1-2"
       data-name="Layer 1">
      <g
         id="Logo_Color_Horizontal"
         data-name="Logo Color Horizontal">
        <g
           class="cls-2"
           id="g40">
          <g
             class="cls-3"
             id="g38">
            <path
               class="cls-4"
               d="M 51.14,35.73 V 35.5 l 2.75,-0.94 c 1.85,-0.63 2.86,-1.39 2.86,-3.3 0,-1.55 -1.21,-2.6 -3.18,-2.6 -2.39,0 -4,1.31 -4.24,3.1 l -0.47,3.42 a 6.57,6.57 0 0 0 -0.06,0.81 c 0,1.61 1.05,2.61 3.34,2.61 h 3.14 l 0.3,-2 h -3.15 c -0.87,0 -1.29,-0.28 -1.29,-0.84 m 0.5,-3.81 c 0.12,-0.88 0.75,-1.25 1.73,-1.25 0.64,0 1.17,0.23 1.17,0.77 0,0.54 -0.18,0.82 -0.83,1 l -2.25,0.78 z"
               transform="translate(-5,-12.03)"
               id="path12" />
            <polygon
               class="cls-4"
               points="51.03,26.57 56.67,26.57 56.97,24.54 55.33,24.54 56.95,12.92 53.17,12.92 52.87,14.95 54.3,14.95 52.98,24.54 51.32,24.54 "
               id="polygon14" />
            <polygon
               class="cls-4"
               points="83.08,15.2 85.42,15.2 85.78,12.65 83.44,12.65 "
               id="polygon16" />
            <polygon
               class="cls-4"
               points="79.82,26.57 85.48,26.57 85.78,24.54 84.11,24.54 85.23,16.63 81.43,16.63 81.13,18.65 82.58,18.65 81.77,24.54 80.11,24.54 "
               id="polygon18" />
            <path
               class="cls-4"
               d="m 96.15,28.66 v 0 c -2.24,0 -4,1 -4,3 0,2.88 4,2.52 4,4 0,0.83 -0.83,0.93 -1.54,0.93 h -3 l -0.29,2 h 2.98 c 2.62,0 4.17,-1.31 4.17,-3.26 0,-3 -4,-2.71 -4,-4 0,-0.44 0.46,-0.7 1.45,-0.7 h 2.66 l 0.29,-2 z"
               transform="translate(-5,-12.03)"
               id="path20" />
            <path
               class="cls-4"
               d="m 75.52,28.65 v 0 c -2.24,0 -4.05,1 -4.05,3 0,2.88 4,2.53 4,4 0,0.83 -0.83,0.93 -1.54,0.93 h -3 l -0.3,2 h 3.09 c 2.62,0 4.18,-1.31 4.18,-3.26 0,-3 -4,-2.71 -4,-4 0,-0.44 0.46,-0.7 1.45,-0.7 H 78 l 0.29,-2 z"
               transform="translate(-5,-12.03)"
               id="path22" />
            <path
               class="cls-4"
               d="m 112.25,28.66 v 0 c -2.24,0 -4,1 -4,3 0,2.88 4,2.52 4,4 0,0.83 -0.83,0.93 -1.55,0.93 h -3 l -0.29,2 h 3.09 c 2.62,0 4.17,-1.31 4.17,-3.26 0,-3 -4,-2.71 -4,-4 0,-0.44 0.45,-0.7 1.45,-0.7 h 2.66 l 0.29,-2 z"
               transform="translate(-5,-12.03)"
               id="path24" />
            <polygon
               class="cls-4"
               points="96.78,30.15 103.61,16.63 101.12,16.63 98.12,22.91 96.89,16.63 94.4,16.63 96.51,25.99 94.42,30.15 "
               id="polygon26" />
            <path
               class="cls-4"
               d="m 68.9,28.66 -0.2,0.77 a 2.75,2.75 0 0 0 -2,-0.78 3.64,3.64 0 0 0 -3.7,3.23 l -0.49,3.5 a 5.11,5.11 0 0 0 0,0.53 2.59,2.59 0 0 0 2.82,2.69 3.18,3.18 0 0 0 2.21,-0.82 v 0.82 h 2.1 L 71,28.66 Z m -0.72,3.46 -0.47,3.34 a 1.55,1.55 0 0 1 -1.63,1.11 c -0.74,0 -1.26,-0.36 -1.26,-1 a 6,6 0 0 1 0.08,-0.8 l 0.46,-3 A 1.46,1.46 0 0 1 67,30.67 c 0.72,0 1.25,0.37 1.25,1 a 4.23,4.23 0 0 1 0,0.48"
               transform="translate(-5,-12.03)"
               id="path28" />
            <path
               class="cls-4"
               d="m 82,36 a 5.9,5.9 0 0 1 0.06,-0.59 l 0.67,-4.77 h 1.86 l 0.3,-2 h -1.82 l 0.3,-2.17 H 81 l -0.3,2.17 h -1.77 l -0.29,2 h 1.8 l -0.69,5 a 7.39,7.39 0 0 0 -0.08,0.83 c 0,1.43 0.83,2.11 2.86,2.11 h 1.6 l 0.27,-2 h -1.21 c -0.94,0 -1.15,-0.16 -1.15,-0.54"
               transform="translate(-5,-12.03)"
               id="path30" />
            <path
               class="cls-5"
               d="M 5,48 C 5.58,44.17 8.28,30.61 17.59,30.61 a 9.77,9.77 0 0 1 1.68,0.14 c 2.94,0.63 4.8,2.68 4.73,5.22 C 23.89,40 18.82,45.56 5,48"
               transform="translate(-5,-12.03)"
               id="path32" />
            <path
               class="cls-6"
               d="m 18.78,45 c 4.7,-2.75 6.66,-6.09 6.74,-9 0.09,-3.31 -2.24,-6 -5.95,-6.76 v 0 a 13,13 0 0 0 -1.94,-0.16 c -5,0 -8.25,3.17 -10.39,7 2.74,-6.51 7.39,-12.8 15.14,-12.8 a 16.38,16.38 0 0 1 2.49,0.2 c 4.44,1 7.24,4.07 7.14,7.92 -0.16,4.22 -3.9,9.6 -13.23,13.6"
               transform="translate(-5,-12.03)"
               id="path34" />
            <path
               class="cls-4"
               d="m 43.72,24 c -0.18,6.41 -5.91,14.47 -20.3,20.35 a 31.48,31.48 0 0 0 2.78,-1.77 c 4.59,-3.3 7.18,-7.28 7.29,-11.23 0.13,-4.62 -3.15,-8.34 -8.36,-9.46 v 0 a 17.39,17.39 0 0 0 -2.75,-0.23 c -7.22,0 -13,4.95 -16.8,14.31 0.48,-1.51 1,-3.06 1.65,-4.6 C 12.36,18.55 19.89,12 29.57,12 a 22.81,22.81 0 0 1 3.64,0.3 c 6.54,1.41 10.67,6 10.51,11.7"
               transform="translate(-5,-12.03)"
               id="path36" />
          </g>
        </g>
      </g>
    </g>
  </g>
  <text
     xml:space="preserve"
     style="font-style:normal;font-weight:normal;font-size:18.1333px;line-height:1.25;font-family:sans-serif;letter-spacing:0px;word-spacing:0px;fill:#000000;fill-opacity:1;stroke:none"
     x="-1.0624981"
     y="26.402449"
     id="text469"><tspan
       sodipodi:role="line"
       id="tspan467"
       x="-1.0624981"
       y="26.402449"
       style="font-style:normal;font-variant:normal;font-weight:normal;font-stretch:normal;font-size:18.1333px;font-family:Roboto,Helvetica,Arial,sans-serif;-inkscape-font-specification:Roboto">Created by </tspan></text>
</svg>
