<?xml version="1.0" encoding="UTF-8" standalone="no"?>
<svg
   xmlns:dc="http://purl.org/dc/elements/1.1/"
   xmlns:cc="http://creativecommons.org/ns#"
   xmlns:rdf="http://www.w3.org/1999/02/22-rdf-syntax-ns#"
   xmlns:svg="http://www.w3.org/2000/svg"
   xmlns="http://www.w3.org/2000/svg"
   xmlns:sodipodi="http://sodipodi.sourceforge.net/DTD/sodipodi-0.dtd"
   xmlns:inkscape="http://www.inkscape.org/namespaces/inkscape"
   id="Layer_1"
   data-name="Layer 1"
   viewBox="0 0 102.08205 101.45214"
   version="1.1"
   sodipodi:docname="dex.svg"
   width="102.08205"
   height="101.45214"
   inkscape:version="0.92.5 (2060ec1f9f, 2020-04-08)">
  <metadata
     id="metadata13">
    <rdf:RDF>
      <cc:Work
         rdf:about="">
        <dc:format>image/svg+xml</dc:format>
        <dc:type
           rdf:resource="http://purl.org/dc/dcmitype/StillImage" />
        <dc:title></dc:title>
      </cc:Work>
    </rdf:RDF>
  </metadata>
  <sodipodi:namedview
     pagecolor="#ffffff"
     bordercolor="#666666"
     borderopacity="1"
     objecttolerance="10"
     gridtolerance="10"
     guidetolerance="10"
     inkscape:pageopacity="0"
     inkscape:pageshadow="2"
     inkscape:window-width="1163"
     inkscape:window-height="530"
     id="namedview11"
     showgrid="false"
     fit-margin-top="0"
     fit-margin-left="0"
     fit-margin-right="0"
     fit-margin-bottom="0"
     inkscape:zoom="2.1651376"
     inkscape:cx="51.11705"
     inkscape:cy="50.422144"
     inkscape:window-x="144"
     inkscape:window-y="68"
     inkscape:window-maximized="0"
     inkscape:current-layer="Layer_1" />
  <defs
     id="defs4">
    <style
       id="style2">.cls-1{fill:#449fd8;}.cls-2{fill:#f04d5c;}</style>
  </defs>
  <path
     class="cls-1"
     d="m 83.46205,48.104 a 25.19624,25.19624 0 0 0 14.175,-18.53 50.95114,50.95114 0 0 0 -32.426,-28.193 38.4537,38.4537 0 0 1 6.771,24.17 32.62725,32.62725 0 0 1 11.48,22.553 z M 22.38705,35.072 A 25.1843,25.1843 0 0 0 0.52904986,43.126 50.95762,50.95762 0 0 0 13.21605,84.688 a 38.89772,38.89772 0 0 1 6.831,-24.483 32.61,32.61 0 0 1 2.34,-25.133 z m 5.74,38.386 a 25.21718,25.21718 0 0 0 3.642,24.215 51.06313,51.06313 0 0 0 38.643,-0.035 38.467,38.467 0 0 1 -19.887,-14.731 32.49323,32.49323 0 0 1 -22.398,-9.449 z m 30.112,-54.726 A 25.20126,25.20126 0 0 0 43.00905,0 51.13351,51.13351 0 0 0 7.8770499,23.161 38.785,38.785 0 0 1 32.40605,23.8 a 32.27852,32.27852 0 0 1 25.833,-5.068 z m 22.769,44.255 a 32.40354,32.40354 0 0 1 -15.678,16.61 25.3707,25.3707 0 0 0 22.852,5.834 51.11349,51.11349 0 0 0 13.9,-35.009 38.66315,38.66315 0 0 1 -21.074,12.565 z"
     id="path6"
     inkscape:connector-curvature="0"
     style="fill:#449fd8" />
  <circle
     class="cls-2"
     cx="51.15205"
     cy="50.421997"
     r="15.972"
     id="circle8"
     style="fill:#f04d5c" />
</svg>
