<svg xmlns="http://www.w3.org/2000/svg" width="101" height="46" viewBox="0 0 101 46" fill="none"><g clip-path="url(#clip0_2209_357)"><path fill-rule="evenodd" clip-rule="evenodd" d="M35.3976 27.1438V11.6086H29.3912V33.1854H50.842V27.1445H35.3976V27.1438Z" fill="#73C679"></path><path fill-rule="evenodd" clip-rule="evenodd" d="M67.6287 0.676514L67.4529 0.805707C61.3499 5.29627 58.2639 11.5077 58.7651 18.302L58.7825 18.4726C59.1239 21.0905 60.1189 23.2266 60.9984 25.1188C61.5896 26.3904 62.1481 27.5909 62.3914 28.7188C63.4315 35.1567 58.0315 39.1297 56.2572 40.4355L56.0814 40.5654L59.8443 45.6765L60.0201 45.5466C66.1231 41.0568 69.2083 34.8453 68.7072 28.0452L68.6607 27.6968C68.2867 25.735 67.5059 24.0576 66.7506 22.4347C66.0127 20.8481 65.3154 19.3486 65.0896 17.746C64.6828 11.6761 68.7529 7.7299 71.2158 5.91756L71.3915 5.78837L67.6287 0.676514Z" fill="#FFCE45"></path><path fill-rule="evenodd" clip-rule="evenodd" d="M87.6494 8.86646L75.0375 33.3247H100.262L87.6494 8.86646V8.86646ZM87.6494 21.2581L90.9445 27.6474H84.3557L87.6494 21.2581V21.2581Z" fill="#FF9A8D"></path><path fill-rule="evenodd" clip-rule="evenodd" d="M0.03479 33.3253H21.88V27.2104H0.03479V33.3253V33.3253ZM0.03479 21.0955H15.3267V14.982H0.03479V21.0962V21.0955ZM0.03479 8.86638H10.9574V2.75146H0.03479V8.86638Z" fill="#00AFF3"></path></g><defs><clipPath id="clip0_2209_357"><rect width="100.227" height="45" fill="white" transform="translate(0.03479 0.676514)"></rect></clipPath></defs></svg>