<svg width="138" height="63" viewBox="0 0 138 63" fill="none" xmlns="http://www.w3.org/2000/svg">
<g clip-path="url(#clip0_35_9169)">
<path d="M48.766 36.5294V14.8823H40.3477V36.7699V44.9477H48.766H70.413V36.5294H48.766Z" fill="#73C679"/>
<path d="M93.0887 0L92.8482 0.180392C84.4479 6.36183 80.2027 14.9124 80.8942 24.2688L80.9182 24.5033C81.3873 28.1051 82.7582 31.0455 83.9669 33.6552C84.7786 35.405 85.5483 37.0586 85.885 38.6099C87.3161 47.4732 79.884 52.9451 77.4427 54.743L77.2021 54.9234L82.3794 61.9587L82.6199 61.7783C91.0202 55.5969 95.2654 47.0463 94.5739 37.6839L94.5078 37.2029C93.9906 34.503 92.9203 32.194 91.8801 29.9571C90.8639 27.7744 89.9018 25.7059 89.5951 23.4991C89.0359 15.1409 94.634 9.71111 98.0254 7.21569L98.2659 7.03529L93.0887 0Z" fill="#FFCE45"/>
<path d="M120.641 28.3336L125.174 37.1307H116.107L120.641 28.3336V28.3336ZM120.641 11.2745L103.281 44.9477H138L120.641 11.2745V11.2745Z" fill="#FF9A8D"/>
<path d="M30.1257 36.5294H0.0603027V44.9477H30.1257V36.5294Z" fill="#00AFF3"/>
<path d="M21.1061 19.6928H0.0603027V28.1111H21.1061V19.6928Z" fill="#00AFF3"/>
<path d="M15.093 2.85622H0.0603027V11.2745H15.093V2.85622Z" fill="#00AFF3"/>
<path d="M1.52699 58.2848C2.33274 59.0905 3.57744 59.764 5.10476 59.764C6.09692 59.764 6.70424 59.3431 6.70424 58.8079C6.70424 58.1705 5.98267 57.918 4.78607 57.6654C2.94006 57.2986 0.348424 56.8236 0.348424 54.1718C0.348424 52.2897 1.9479 50.6602 4.82215 50.6602C6.62006 50.6602 8.18346 51.1953 9.38006 52.2236L7.79862 54.2921C6.85457 53.5164 5.6279 53.1316 4.63574 53.1316C3.64359 53.1316 3.30686 53.5164 3.30686 54.0035C3.30686 54.5927 3.99836 54.7912 5.23705 55.0317C7.08306 55.4165 9.63862 55.9577 9.63862 58.4952C9.63862 60.7501 7.973 62.2414 4.96646 62.2414C2.69954 62.2414 1.1181 61.5378 -0.00634766 60.4615L1.52097 58.2908L1.52699 58.2848Z" fill="#91B2C2"/>
<path d="M10.4265 56.4327C10.4265 52.9691 13.0482 50.6361 16.4095 50.6361C19.1996 50.6361 20.6427 52.1634 21.3823 53.6426L18.8929 54.8212C18.5201 53.9312 17.564 53.1916 16.4035 53.1916C14.6537 53.1916 13.3609 54.6047 13.3609 56.4387C13.3609 58.2727 14.6537 59.6858 16.4035 59.6858C17.564 59.6858 18.5201 58.9461 18.8929 58.0562L21.3823 59.2348C20.6608 60.6779 19.1996 62.2413 16.4095 62.2413C13.0482 62.2413 10.4265 59.8902 10.4265 56.4447V56.4327Z" fill="#91B2C2"/>
<path d="M22.6272 50.8225H25.5195V62.0369H22.6272V50.8225V50.8225Z" fill="#91B2C2"/>
<path d="M27.5398 50.8225H35.7597V53.2578H30.4321V55.1218H35.6454V57.5752H30.4321V59.5895H35.7597V62.0248H27.5398V50.8105V50.8225Z" fill="#91B2C2"/>
<path d="M40.3356 55.2601V62.0369H37.4434V50.8225H40.4198L44.9597 57.2745V50.8225H47.87V62.0369H45.08L40.3417 55.2601H40.3356Z" fill="#91B2C2"/>
<path d="M49.3135 56.4327C49.3135 52.9691 51.9352 50.6361 55.2965 50.6361C58.0865 50.6361 59.5297 52.1634 60.2693 53.6426L57.7799 54.8212C57.4071 53.9312 56.451 53.1916 55.2905 53.1916C53.5407 53.1916 52.2479 54.6047 52.2479 56.4387C52.2479 58.2727 53.5407 59.6858 55.2905 59.6858C56.451 59.6858 57.4071 58.9461 57.7799 58.0562L60.2693 59.2348C59.5477 60.6779 58.0865 62.2413 55.2965 62.2413C51.9352 62.2413 49.3135 59.8902 49.3135 56.4447V56.4327Z" fill="#91B2C2"/>
<path d="M61.5193 50.8225H69.7392V53.2578H64.4116V55.1218H69.6249V57.5752H64.4116V59.5895H69.7392V62.0248H61.5193V50.8105V50.8225Z" fill="#91B2C2"/>
</g>
<defs>
<clipPath id="clip0_35_9169">
<rect width="138" height="62.2353" fill="white"/>
</clipPath>
</defs>
</svg>
