<svg xmlns="http://www.w3.org/2000/svg" width="145" height="46" viewBox="0 0 145 46" fill="none"><path d="M37.7694 6.64572C37.7694 6.95556 37.6427 7.26539 37.4314 7.49073L37.361 7.56114L37.3469 7.57523L31.9952 12.9269C31.5446 13.3213 30.8686 13.3494 30.3897 12.9832C30.3897 12.9832 30.3897 12.9832 30.3756 12.9832C30.3475 12.9551 30.3193 12.941 30.2911 12.9128C25.193 8.77232 17.7006 9.5469 13.546 14.6451C9.39139 19.7433 10.1801 27.2356 15.2782 31.3902C19.1512 34.5449 24.5874 34.9393 28.8828 32.3761L29.0659 32.2634C29.5306 32.024 30.094 32.1085 30.4883 32.4606L35.9104 37.8827L35.9949 37.9672C36.4738 38.4883 36.4315 39.3051 35.9104 39.7699C35.8963 39.7839 35.8963 39.7839 35.8823 39.798L35.7273 39.9107C25.9394 47.0791 12.194 44.9526 5.02554 35.1646C-1.39649 26.4047 -0.452902 14.2648 7.25071 6.60347C15.405 -1.55081 28.4885 -2.01556 37.192 5.5613C37.2765 5.63172 37.361 5.71622 37.4596 5.80072C37.6568 6.02605 37.7694 6.33589 37.7694 6.64572Z" fill="white"></path><path d="M44.7125 23.4756C44.4168 28.3485 42.5014 32.9819 39.2764 36.6436C39.2623 36.6718 39.2341 36.6858 39.22 36.714C38.7412 37.2351 37.9243 37.2492 37.4173 36.7703C37.4173 36.7703 37.4173 36.7703 37.4033 36.7563L37.361 36.714L32.0938 31.4468L32.0093 31.3623C31.6009 30.9116 31.5727 30.2216 31.9389 29.7427L31.953 29.7286L32.0093 29.6582C33.4881 27.8415 34.4035 25.6304 34.6288 23.3066C34.6288 23.2925 34.6288 23.2785 34.6288 23.2785C34.6992 22.6306 35.2485 22.1377 35.8963 22.1377H43.431C44.1351 22.1377 44.7125 22.7151 44.7125 23.4193C44.7125 23.4334 44.7125 23.4615 44.7125 23.4756Z" fill="white"></path><path d="M32.8262 22.7855C32.8262 22.8137 32.8262 22.8559 32.8121 22.8982C32.6571 25.0389 31.8121 27.081 30.4038 28.7006C30.3897 28.7146 30.3756 28.7428 30.3475 28.7569C30.094 29.0104 29.6715 29.0104 29.4039 28.7569L23.9536 23.3066L23.8691 23.2221C23.6297 22.9404 23.6719 22.5179 23.9536 22.2926C24.0804 22.194 24.2212 22.1377 24.3761 22.1377H32.1501C32.5304 22.1377 32.8262 22.4334 32.8262 22.7855Z" fill="white"></path><path d="M61.3873 13.0957C63.6406 13.0957 65.8095 13.9689 67.5135 15.4335C67.7107 15.6166 67.7389 15.9265 67.5558 16.1236L67.5417 16.1377L65.9925 17.7714C65.7954 17.9686 65.57 17.9686 65.3447 17.7714C64.3025 16.8419 62.9505 16.3208 61.5563 16.3208C58.4157 16.3208 55.937 19.0107 55.937 22.1513C55.937 25.2638 58.4157 27.8973 61.5844 27.8973C62.6125 27.8833 63.6265 27.672 64.5701 27.2636V25.1229H62.5562C62.3027 25.137 62.0914 24.9398 62.0774 24.6863V24.6723V22.6865C62.0633 22.433 62.2745 22.2217 62.528 22.2077C62.5421 22.2077 62.5421 22.2077 62.5562 22.2077H67.3727C67.6262 22.2217 67.8234 22.433 67.8234 22.6865V29.1085C67.8234 29.2634 67.753 29.4184 67.6262 29.5169C65.725 30.5873 63.5843 31.1506 61.4014 31.1506C56.4158 31.1506 52.3739 27.1087 52.3739 22.1232C52.3739 17.1376 56.4018 13.0957 61.3873 13.0957Z" fill="white"></path><path d="M79.2591 13.0957C84.2446 13.0817 88.3006 17.1236 88.3147 22.1091C88.3288 27.0946 84.2869 31.1507 79.3013 31.1647C74.3158 31.1788 70.2598 27.1369 70.2457 22.1514C70.2176 17.1799 74.2313 13.1239 79.2168 13.0957C79.2309 13.0957 79.245 13.0957 79.2591 13.0957ZM79.2591 27.9115C82.4419 27.9115 85.0192 25.3342 85.0333 22.1654C85.0333 19.0108 82.4279 16.3631 79.2591 16.3631C76.0903 16.3631 73.499 18.9967 73.499 22.1654C73.5131 25.3342 76.0903 27.8974 79.2591 27.9115Z" fill="white"></path><path d="M99.3279 13.0957C104.313 13.0817 108.369 17.1236 108.384 22.1091C108.398 27.0946 104.356 31.1507 99.3702 31.1647C94.3847 31.1788 90.3287 27.1369 90.3146 22.1514C90.2864 17.1799 94.3002 13.1239 99.2857 13.0957C99.2998 13.0957 99.3139 13.0957 99.3279 13.0957ZM99.3279 27.9115C102.511 27.9115 105.088 25.3342 105.102 22.1654C105.102 19.0108 102.497 16.3631 99.3279 16.3631C96.1592 16.3631 93.5819 18.9967 93.5819 22.1654C93.596 25.3342 96.1592 27.8974 99.3279 27.9115Z" fill="white"></path><path d="M109.848 29.9959L117.327 16.49V16.3914H111.045C110.792 16.3773 110.581 16.1801 110.566 15.9125V13.8282C110.581 13.5747 110.778 13.3634 111.045 13.3494H121.537C121.791 13.3634 122.002 13.5606 122.016 13.8282V14.1521L114.637 27.8271V27.8834H121.03C121.298 27.8834 121.509 28.0947 121.509 28.3623V30.4466C121.509 30.7142 121.298 30.9254 121.03 30.9254H110.313C110.059 30.9114 109.848 30.7142 109.834 30.4466V29.9959H109.848Z" fill="white"></path><path d="M132.607 13.0957C137.593 13.0817 141.649 17.1236 141.663 22.1091C141.677 27.0946 137.635 31.1507 132.649 31.1647C127.664 31.1788 123.608 27.1369 123.594 22.1514C123.565 17.1799 127.579 13.1239 132.565 13.0957C132.579 13.0957 132.593 13.0957 132.607 13.0957ZM132.607 27.9115C135.79 27.9115 138.367 25.3342 138.381 22.1654C138.381 19.0108 135.776 16.3631 132.607 16.3631C129.438 16.3631 126.861 18.9967 126.861 22.1654C126.875 25.3342 129.438 27.8974 132.607 27.9115Z" fill="white"></path></svg>