<?xml version="1.0" encoding="UTF-8" standalone="no"?>
<svg
   xmlns:dc="http://purl.org/dc/elements/1.1/"
   xmlns:cc="http://creativecommons.org/ns#"
   xmlns:rdf="http://www.w3.org/1999/02/22-rdf-syntax-ns#"
   xmlns:svg="http://www.w3.org/2000/svg"
   xmlns="http://www.w3.org/2000/svg"
   xmlns:sodipodi="http://sodipodi.sourceforge.net/DTD/sodipodi-0.dtd"
   xmlns:inkscape="http://www.inkscape.org/namespaces/inkscape"
   id="Layer_1"
   data-name="Layer 1"
   viewBox="0 0 132.68222 101.07414"
   version="1.1"
   sodipodi:docname="safespring.svg"
   width="132.68222"
   height="101.07414"
   inkscape:version="0.92.5 (2060ec1f9f, 2020-04-08)">
  <metadata
     id="metadata989">
    <rdf:RDF>
      <cc:Work
         rdf:about="">
        <dc:format>image/svg+xml</dc:format>
        <dc:type
           rdf:resource="http://purl.org/dc/dcmitype/StillImage" />
        <dc:title>1A_Safespring_Logotyp_Bla_RGB</dc:title>
      </cc:Work>
    </rdf:RDF>
  </metadata>
  <sodipodi:namedview
     pagecolor="#ffffff"
     bordercolor="#666666"
     borderopacity="1"
     objecttolerance="10"
     gridtolerance="10"
     guidetolerance="10"
     inkscape:pageopacity="0"
     inkscape:pageshadow="2"
     inkscape:window-width="3696"
     inkscape:window-height="2018"
     id="namedview987"
     showgrid="false"
     fit-margin-top="0"
     fit-margin-left="0"
     fit-margin-right="0"
     fit-margin-bottom="0"
     inkscape:zoom="1.5785714"
     inkscape:cx="280.68642"
     inkscape:cy="41.006732"
     inkscape:window-x="144"
     inkscape:window-y="68"
     inkscape:window-maximized="1"
     inkscape:current-layer="Layer_1" />
  <defs
     id="defs958">
    <style
       id="style956">.cls-1{fill:#417da5;}</style>
  </defs>
  <title
     id="title960">1A_Safespring_Logotyp_Bla_RGB</title>
  <path
     class="cls-1"
     d="m 101.42642,31.217412 a 35,35 0 0 0 -69.590004,0 35,35 0 0 0 3.85,69.849998 h 30.93 a 19.54,19.54 0 0 0 0,-39.079998 11.4,11.4 0 1 1 8.07,-19.49 4.07,4.07 0 1 0 5.77,-5.74 19.54,19.54 0 1 0 -13.83,33.31 11.4,11.4 0 1 1 0,22.8 h -30.94 a 26.87,26.87 0 0 1 0,-53.74 4.06,4.06 0 0 0 4.06,-4.06 26.87,26.87 0 1 1 53.74,0 4.07,4.07 0 0 0 4.07,4.06 26.87,26.87 0 1 1 0,53.74 4.07,4.07 0 0 0 0,8.139998 35,35 0 0 0 3.860004,-69.799998 z"
     id="path962"
     inkscape:connector-curvature="0"
     style="fill:#417da5" />
</svg>
