<?xml version="1.0" encoding="UTF-8" standalone="no"?>
<!DOCTYPE svg PUBLIC "-//W3C//DTD SVG 1.1//EN"
 "http://www.w3.org/Graphics/SVG/1.1/DTD/svg11.dtd">
<!-- Generated by graphviz version 2.43.0 (0)
 -->
<!-- Title: compliance_basics Pages: 1 -->
<svg width="922pt" height="975pt"
 viewBox="0.00 0.00 922.00 975.00" xmlns="http://www.w3.org/2000/svg" xmlns:xlink="http://www.w3.org/1999/xlink">
<g id="graph0" class="graph" transform="scale(1 1) rotate(0) translate(4 971)">
<title>compliance_basics</title>
<polygon fill="white" stroke="transparent" points="-4,4 -4,-971 918,-971 918,4 -4,4"/>
<g id="clust1" class="cluster">
<title>cluster_header</title>
</g>
<g id="clust2" class="cluster">
<title>cluster_personaldata_regulations</title>
<path fill="none" stroke="black" d="M55,-798C55,-798 445,-798 445,-798 451,-798 457,-804 457,-810 457,-810 457,-868 457,-868 457,-874 451,-880 445,-880 445,-880 55,-880 55,-880 49,-880 43,-874 43,-868 43,-868 43,-810 43,-810 43,-804 49,-798 55,-798"/>
<text text-anchor="middle" x="170" y="-860" font-family="Roboto,BlinkMacSystemFont,Helvetica,Arial,sans-serif" font-size="20.00">Personal Data Regulations</text>
</g>
<g id="clust3" class="cluster">
<title>cluster_healthtech_regulations</title>
<path fill="none" stroke="black" d="M477,-797C477,-797 847,-797 847,-797 853,-797 859,-803 859,-809 859,-809 859,-869 859,-869 859,-875 853,-881 847,-881 847,-881 477,-881 477,-881 471,-881 465,-875 465,-869 465,-869 465,-809 465,-809 465,-803 471,-797 477,-797"/>
<text text-anchor="middle" x="577.5" y="-861" font-family="Roboto,BlinkMacSystemFont,Helvetica,Arial,sans-serif" font-size="20.00">Healthcare Regulations</text>
</g>
<g id="clust4" class="cluster">
<title>cluster_policies</title>
<path fill="none" stroke="black" d="M20,-516C20,-516 894,-516 894,-516 900,-516 906,-522 906,-528 906,-528 906,-759 906,-759 906,-765 900,-771 894,-771 894,-771 20,-771 20,-771 14,-771 8,-765 8,-759 8,-759 8,-528 8,-528 8,-522 14,-516 20,-516"/>
<text text-anchor="middle" x="50.5" y="-751" font-family="Roboto,BlinkMacSystemFont,Helvetica,Arial,sans-serif" font-size="20.00">Policies</text>
</g>
<g id="clust7" class="cluster">
<title>cluster_implementation</title>
<path fill="none" stroke="black" d="M20,-343C20,-343 804,-343 804,-343 810,-343 816,-349 816,-355 816,-355 816,-478 816,-478 816,-484 810,-490 804,-490 804,-490 20,-490 20,-490 14,-490 8,-484 8,-478 8,-478 8,-355 8,-355 8,-349 14,-343 20,-343"/>
<text text-anchor="middle" x="115" y="-470" font-family="Roboto,BlinkMacSystemFont,Helvetica,Arial,sans-serif" font-size="20.00">Compliant Kubernetes</text>
</g>
<g id="clust17" class="cluster">
<title>cluster_audit</title>
<path fill="none" stroke="black" d="M20,-170C20,-170 804,-170 804,-170 810,-170 816,-176 816,-182 816,-182 816,-305 816,-305 816,-311 810,-317 804,-317 804,-317 20,-317 20,-317 14,-317 8,-311 8,-305 8,-305 8,-182 8,-182 8,-176 14,-170 20,-170"/>
<text text-anchor="middle" x="166.5" y="-297" font-family="Roboto,BlinkMacSystemFont,Helvetica,Arial,sans-serif" font-size="20.00">Compliant Kubernetes Dashboard</text>
</g>
<g id="clust18" class="cluster">
<title>cluster_provider</title>
<path fill="none" stroke="black" d="M20,-8C20,-8 894,-8 894,-8 900,-8 906,-14 906,-20 906,-20 906,-132 906,-132 906,-138 900,-144 894,-144 894,-144 20,-144 20,-144 14,-144 8,-138 8,-132 8,-132 8,-20 8,-20 8,-14 14,-8 20,-8"/>
<text text-anchor="middle" x="130" y="-124" font-family="Roboto,BlinkMacSystemFont,Helvetica,Arial,sans-serif" font-size="20.00">Compliant Cloud Provider</text>
</g>
<!-- title -->
<g id="node1" class="node">
<title>title</title>
<g id="a_node1"><a xlink:href="https://compliantkubernetes.io" xlink:title="compliantkubernetes.io" target="_top">
<text text-anchor="middle" x="359" y="-929.3" font-family="Roboto,BlinkMacSystemFont,Helvetica,Arial,sans-serif" font-size="14.00" fill="#4651b4">compliantkubernetes.io</text>
</a>
</g>
</g>
<!-- CCPA -->
<g id="node2" class="node">
<title>CCPA</title>
<g id="a_node2"><a xlink:href="https://oag.ca.gov/privacy/ccpa" xlink:title="CCPA" target="_blank">
<path fill="none" stroke="black" d="M437,-842C437,-842 281,-842 281,-842 275,-842 269,-836 269,-830 269,-830 269,-818 269,-818 269,-812 275,-806 281,-806 281,-806 437,-806 437,-806 443,-806 449,-812 449,-818 449,-818 449,-830 449,-830 449,-836 443,-842 437,-842"/>
<text text-anchor="middle" x="359" y="-820.3" font-family="Roboto,BlinkMacSystemFont,Helvetica,Arial,sans-serif" font-size="14.00">CCPA</text>
</a>
</g>
</g>
<!-- title&#45;&gt;CCPA -->
<!-- Controls -->
<g id="node7" class="node">
<title>Controls</title>
<ellipse fill="none" stroke="black" cx="457" cy="-682.5" rx="50.5" ry="50.5"/>
<text text-anchor="middle" x="457" y="-686.3" font-family="Roboto,BlinkMacSystemFont,Helvetica,Arial,sans-serif" font-size="14.00">ISO 27001</text>
<text text-anchor="middle" x="457" y="-671.3" font-family="Roboto,BlinkMacSystemFont,Helvetica,Arial,sans-serif" font-size="14.00">Controls</text>
</g>
<!-- CCPA&#45;&gt;Controls -->
<g id="edge1" class="edge">
<title>CCPA&#45;&gt;Controls</title>
<path fill="none" stroke="black" d="M371.02,-805.89C383.78,-787.72 404.55,-758.15 422.48,-732.63"/>
<polygon fill="black" stroke="black" points="425.56,-734.35 428.44,-724.15 419.83,-730.32 425.56,-734.35"/>
</g>
<!-- GDPR -->
<g id="node3" class="node">
<title>GDPR</title>
<g id="a_node3"><a xlink:href="https://gdpr.eu/" xlink:title="GDPR" target="_blank">
<path fill="none" stroke="black" d="M239,-842C239,-842 83,-842 83,-842 77,-842 71,-836 71,-830 71,-830 71,-818 71,-818 71,-812 77,-806 83,-806 83,-806 239,-806 239,-806 245,-806 251,-812 251,-818 251,-818 251,-830 251,-830 251,-836 245,-842 239,-842"/>
<text text-anchor="middle" x="161" y="-820.3" font-family="Roboto,BlinkMacSystemFont,Helvetica,Arial,sans-serif" font-size="14.00">GDPR</text>
</a>
</g>
</g>
<!-- GDPR&#45;&gt;Controls -->
<g id="edge2" class="edge">
<title>GDPR&#45;&gt;Controls</title>
<path fill="none" stroke="black" d="M197.3,-805.89C248.58,-781.72 342.66,-737.39 402.4,-709.23"/>
<polygon fill="black" stroke="black" points="404.13,-712.29 411.68,-704.86 401.14,-705.96 404.13,-712.29"/>
</g>
<!-- regulation2 -->
<g id="node4" class="node">
<title>regulation2</title>
</g>
<!-- controls2 -->
<!-- regulation2&#45;&gt;controls2 -->
<!-- HIPAA -->
<g id="node5" class="node">
<title>HIPAA</title>
<g id="a_node5"><a xlink:href="https://www.cdc.gov/phlp/publications/topic/hipaa.html" xlink:title="HIPAA" target="_blank">
<path fill="none" stroke="black" d="M839,-842C839,-842 683,-842 683,-842 677,-842 671,-836 671,-830 671,-830 671,-818 671,-818 671,-812 677,-806 683,-806 683,-806 839,-806 839,-806 845,-806 851,-812 851,-818 851,-818 851,-830 851,-830 851,-836 845,-842 839,-842"/>
<text text-anchor="middle" x="761" y="-820.3" font-family="Roboto,BlinkMacSystemFont,Helvetica,Arial,sans-serif" font-size="14.00">HIPAA</text>
</a>
</g>
</g>
<!-- HIPAA&#45;&gt;Controls -->
<g id="edge3" class="edge">
<title>HIPAA&#45;&gt;Controls</title>
<path fill="none" stroke="black" d="M723.72,-805.89C670.64,-781.54 572.92,-736.7 511.65,-708.58"/>
<polygon fill="black" stroke="black" points="513.06,-705.37 502.51,-704.38 510.14,-711.74 513.06,-705.37"/>
</g>
<!-- PDL -->
<g id="node6" class="node">
<title>PDL</title>
<g id="a_node6"><a xlink:href="https://www.riksdagen.se/sv/dokument-lagar/dokument/svensk-forfattningssamling/patientdatalag-2008355_sfs-2008-355" xlink:title="Patient data law\n(HSLF&#45;FS 2016:40)" target="_blank">
<path fill="none" stroke="black" d="M641,-843C641,-843 485,-843 485,-843 479,-843 473,-837 473,-831 473,-831 473,-817 473,-817 473,-811 479,-805 485,-805 485,-805 641,-805 641,-805 647,-805 653,-811 653,-817 653,-817 653,-831 653,-831 653,-837 647,-843 641,-843"/>
<text text-anchor="middle" x="563" y="-827.8" font-family="Roboto,BlinkMacSystemFont,Helvetica,Arial,sans-serif" font-size="14.00">Patient data law</text>
<text text-anchor="middle" x="563" y="-812.8" font-family="Roboto,BlinkMacSystemFont,Helvetica,Arial,sans-serif" font-size="14.00">(HSLF&#45;FS 2016:40)</text>
</a>
</g>
</g>
<!-- PDL&#45;&gt;Controls -->
<g id="edge4" class="edge">
<title>PDL&#45;&gt;Controls</title>
<path fill="none" stroke="black" d="M549.14,-804.76C535.01,-786.17 512.5,-756.54 493.27,-731.23"/>
<polygon fill="black" stroke="black" points="495.99,-729.03 487.15,-723.18 490.41,-733.26 495.99,-729.03"/>
</g>
<!-- access -->
<g id="node8" class="node">
<title>access</title>
<path fill="none" stroke="black" d="M76,-560C76,-560 28,-560 28,-560 22,-560 16,-554 16,-548 16,-548 16,-536 16,-536 16,-530 22,-524 28,-524 28,-524 76,-524 76,-524 82,-524 88,-530 88,-536 88,-536 88,-548 88,-548 88,-554 82,-560 76,-560"/>
<text text-anchor="middle" x="52" y="-545.8" font-family="Roboto,BlinkMacSystemFont,Helvetica,Arial,sans-serif" font-size="14.00">Access</text>
<text text-anchor="middle" x="52" y="-530.8" font-family="Roboto,BlinkMacSystemFont,Helvetica,Arial,sans-serif" font-size="14.00">control</text>
</g>
<!-- Controls&#45;&gt;access -->
<g id="edge5" class="edge">
<title>Controls&#45;&gt;access</title>
<path fill="none" stroke="black" d="M409.06,-665.92C341.71,-643.91 215.09,-602.03 97.81,-560.24"/>
<polygon fill="black" stroke="black" points="98.9,-556.91 88.31,-556.84 96.55,-563.5 98.9,-556.91"/>
</g>
<!-- logging -->
<g id="node9" class="node">
<title>logging</title>
<path fill="none" stroke="black" d="M166,-560C166,-560 118,-560 118,-560 112,-560 106,-554 106,-548 106,-548 106,-536 106,-536 106,-530 112,-524 118,-524 118,-524 166,-524 166,-524 172,-524 178,-530 178,-536 178,-536 178,-548 178,-548 178,-554 172,-560 166,-560"/>
<text text-anchor="middle" x="142" y="-538.3" font-family="Roboto,BlinkMacSystemFont,Helvetica,Arial,sans-serif" font-size="14.00">Logging</text>
</g>
<!-- Controls&#45;&gt;logging -->
<g id="edge6" class="edge">
<title>Controls&#45;&gt;logging</title>
<path fill="none" stroke="black" d="M410.86,-661.21C351,-634.9 247.22,-589.26 187.62,-563.06"/>
<polygon fill="black" stroke="black" points="189.01,-559.85 178.45,-559.02 186.19,-566.25 189.01,-559.85"/>
</g>
<!-- backups -->
<g id="node10" class="node">
<title>backups</title>
<g id="a_node10"><a xlink:href="/ciso-guide/backup/" xlink:title="Backup" target="_top">
<path fill="none" stroke="black" d="M256,-560C256,-560 208,-560 208,-560 202,-560 196,-554 196,-548 196,-548 196,-536 196,-536 196,-530 202,-524 208,-524 208,-524 256,-524 256,-524 262,-524 268,-530 268,-536 268,-536 268,-548 268,-548 268,-554 262,-560 256,-560"/>
<text text-anchor="middle" x="232" y="-538.3" font-family="Roboto,BlinkMacSystemFont,Helvetica,Arial,sans-serif" font-size="14.00" fill="#4651b4">Backup</text>
</a>
</g>
</g>
<!-- Controls&#45;&gt;backups -->
<g id="edge7" class="edge">
<title>Controls&#45;&gt;backups</title>
<path fill="none" stroke="black" d="M414.41,-655.29C372.25,-629.33 308.37,-590.01 268.47,-565.45"/>
<polygon fill="black" stroke="black" points="270.2,-562.41 259.85,-560.14 266.53,-568.37 270.2,-562.41"/>
</g>
<!-- continuous -->
<g id="node11" class="node">
<title>continuous</title>
<g id="a_node11"><a xlink:href="/ciso-guide/policy-as-code/" xlink:title="Continuous\ncompliance" target="_top">
<path fill="none" stroke="black" d="M346,-560C346,-560 298,-560 298,-560 292,-560 286,-554 286,-548 286,-548 286,-536 286,-536 286,-530 292,-524 298,-524 298,-524 346,-524 346,-524 352,-524 358,-530 358,-536 358,-536 358,-548 358,-548 358,-554 352,-560 346,-560"/>
<text text-anchor="middle" x="322" y="-545.4" font-family="Roboto,BlinkMacSystemFont,Helvetica,Arial,sans-serif" font-size="12.00" fill="#4651b4">Continuous</text>
<text text-anchor="middle" x="322" y="-532.4" font-family="Roboto,BlinkMacSystemFont,Helvetica,Arial,sans-serif" font-size="12.00" fill="#4651b4">compliance</text>
</a>
</g>
</g>
<!-- Controls&#45;&gt;continuous -->
<g id="edge8" class="edge">
<title>Controls&#45;&gt;continuous</title>
<path fill="none" stroke="black" d="M422.23,-645.83C398.19,-621.17 366.84,-589.01 345.66,-567.27"/>
<polygon fill="black" stroke="black" points="348.1,-564.76 338.61,-560.04 343.09,-569.65 348.1,-564.76"/>
</g>
<!-- vulnerability -->
<g id="node12" class="node">
<title>vulnerability</title>
<path fill="none" stroke="black" d="M436,-560C436,-560 388,-560 388,-560 382,-560 376,-554 376,-548 376,-548 376,-536 376,-536 376,-530 382,-524 388,-524 388,-524 436,-524 436,-524 442,-524 448,-530 448,-536 448,-536 448,-548 448,-548 448,-554 442,-560 436,-560"/>
<text text-anchor="middle" x="412" y="-545.4" font-family="Roboto,BlinkMacSystemFont,Helvetica,Arial,sans-serif" font-size="12.00">Vulnerability</text>
<text text-anchor="middle" x="412" y="-532.4" font-family="Roboto,BlinkMacSystemFont,Helvetica,Arial,sans-serif" font-size="12.00">management</text>
</g>
<!-- Controls&#45;&gt;vulnerability -->
<g id="edge9" class="edge">
<title>Controls&#45;&gt;vulnerability</title>
<path fill="none" stroke="black" d="M441.64,-634.22C434.67,-612.77 426.68,-588.17 420.75,-569.93"/>
<polygon fill="black" stroke="black" points="424.03,-568.68 417.61,-560.26 417.37,-570.85 424.03,-568.68"/>
</g>
<!-- intrusion -->
<g id="node13" class="node">
<title>intrusion</title>
<g id="a_node13"><a xlink:href="/ciso-guide/intrusion-detection/" xlink:title="Intrusion\ndetection" target="_top">
<path fill="none" stroke="black" d="M526,-560C526,-560 478,-560 478,-560 472,-560 466,-554 466,-548 466,-548 466,-536 466,-536 466,-530 472,-524 478,-524 478,-524 526,-524 526,-524 532,-524 538,-530 538,-536 538,-536 538,-548 538,-548 538,-554 532,-560 526,-560"/>
<text text-anchor="middle" x="502" y="-545.8" font-family="Roboto,BlinkMacSystemFont,Helvetica,Arial,sans-serif" font-size="14.00" fill="#4651b4">Intrusion</text>
<text text-anchor="middle" x="502" y="-530.8" font-family="Roboto,BlinkMacSystemFont,Helvetica,Arial,sans-serif" font-size="14.00" fill="#4651b4">detection</text>
</a>
</g>
</g>
<!-- Controls&#45;&gt;intrusion -->
<g id="edge10" class="edge">
<title>Controls&#45;&gt;intrusion</title>
<path fill="none" stroke="black" d="M472.36,-634.22C479.33,-612.77 487.32,-588.17 493.25,-569.93"/>
<polygon fill="black" stroke="black" points="496.63,-570.85 496.39,-560.26 489.97,-568.68 496.63,-570.85"/>
</g>
<!-- network -->
<g id="node14" class="node">
<title>network</title>
<g id="a_node14"><a xlink:href="/ciso-guide/network-security/" xlink:title="Network\nsecurity" target="_top">
<path fill="none" stroke="black" d="M616,-560C616,-560 568,-560 568,-560 562,-560 556,-554 556,-548 556,-548 556,-536 556,-536 556,-530 562,-524 568,-524 568,-524 616,-524 616,-524 622,-524 628,-530 628,-536 628,-536 628,-548 628,-548 628,-554 622,-560 616,-560"/>
<text text-anchor="middle" x="592" y="-545.8" font-family="Roboto,BlinkMacSystemFont,Helvetica,Arial,sans-serif" font-size="14.00" fill="#4651b4">Network</text>
<text text-anchor="middle" x="592" y="-530.8" font-family="Roboto,BlinkMacSystemFont,Helvetica,Arial,sans-serif" font-size="14.00" fill="#4651b4">security</text>
</a>
</g>
</g>
<!-- Controls&#45;&gt;network -->
<g id="edge11" class="edge">
<title>Controls&#45;&gt;network</title>
<path fill="none" stroke="black" d="M491.77,-645.83C515.81,-621.17 547.16,-589.01 568.34,-567.27"/>
<polygon fill="black" stroke="black" points="570.91,-569.65 575.39,-560.04 565.9,-564.76 570.91,-569.65"/>
</g>
<!-- crypto -->
<g id="node15" class="node">
<title>crypto</title>
<g id="a_node15"><a xlink:href="/ciso-guide/cryptography/" xlink:title="Use of\ncryptography" target="_top">
<path fill="none" stroke="black" d="M706,-560C706,-560 658,-560 658,-560 652,-560 646,-554 646,-548 646,-548 646,-536 646,-536 646,-530 652,-524 658,-524 658,-524 706,-524 706,-524 712,-524 718,-530 718,-536 718,-536 718,-548 718,-548 718,-554 712,-560 706,-560"/>
<text text-anchor="middle" x="682" y="-545.4" font-family="Roboto,BlinkMacSystemFont,Helvetica,Arial,sans-serif" font-size="12.00" fill="#4651b4">Use of</text>
<text text-anchor="middle" x="682" y="-532.4" font-family="Roboto,BlinkMacSystemFont,Helvetica,Arial,sans-serif" font-size="12.00" fill="#4651b4">cryptography</text>
</a>
</g>
</g>
<!-- Controls&#45;&gt;crypto -->
<g id="edge12" class="edge">
<title>Controls&#45;&gt;crypto</title>
<path fill="none" stroke="black" d="M499.59,-655.29C541.75,-629.33 605.63,-590.01 645.53,-565.45"/>
<polygon fill="black" stroke="black" points="647.47,-568.37 654.15,-560.14 643.8,-562.41 647.47,-568.37"/>
</g>
<!-- capacity -->
<g id="node16" class="node">
<title>capacity</title>
<path fill="none" stroke="black" d="M796,-560C796,-560 748,-560 748,-560 742,-560 736,-554 736,-548 736,-548 736,-536 736,-536 736,-530 742,-524 748,-524 748,-524 796,-524 796,-524 802,-524 808,-530 808,-536 808,-536 808,-548 808,-548 808,-554 802,-560 796,-560"/>
<text text-anchor="middle" x="772" y="-545.2" font-family="Roboto,BlinkMacSystemFont,Helvetica,Arial,sans-serif" font-size="11.00">Capacity</text>
<text text-anchor="middle" x="772" y="-533.2" font-family="Roboto,BlinkMacSystemFont,Helvetica,Arial,sans-serif" font-size="11.00">management</text>
</g>
<!-- Controls&#45;&gt;capacity -->
<g id="edge13" class="edge">
<title>Controls&#45;&gt;capacity</title>
<path fill="none" stroke="black" d="M503.14,-661.21C563,-634.9 666.78,-589.26 726.38,-563.06"/>
<polygon fill="black" stroke="black" points="727.81,-566.25 735.55,-559.02 724.99,-559.85 727.81,-566.25"/>
</g>
<!-- supplier -->
<g id="node17" class="node">
<title>supplier</title>
<path fill="none" stroke="black" d="M886,-560C886,-560 838,-560 838,-560 832,-560 826,-554 826,-548 826,-548 826,-536 826,-536 826,-530 832,-524 838,-524 838,-524 886,-524 886,-524 892,-524 898,-530 898,-536 898,-536 898,-548 898,-548 898,-554 892,-560 886,-560"/>
<text text-anchor="middle" x="862" y="-545.4" font-family="Roboto,BlinkMacSystemFont,Helvetica,Arial,sans-serif" font-size="12.00">Supplier</text>
<text text-anchor="middle" x="862" y="-532.4" font-family="Roboto,BlinkMacSystemFont,Helvetica,Arial,sans-serif" font-size="12.00">management</text>
</g>
<!-- Controls&#45;&gt;supplier -->
<g id="edge14" class="edge">
<title>Controls&#45;&gt;supplier</title>
<path fill="none" stroke="black" d="M504.94,-665.92C572.29,-643.91 698.91,-602.03 816.19,-560.24"/>
<polygon fill="black" stroke="black" points="817.45,-563.5 825.69,-556.84 815.1,-556.91 817.45,-563.5"/>
</g>
<!-- dex -->
<g id="node19" class="node">
<title>dex</title>
<g id="a_node19"><a xlink:href="https://dexidp.io/" xlink:title="Dex" target="_blank">
<image xlink:href="logos/project-icons/dex.svg" width="72px" height="71.301px" preserveAspectRatio="xMinYMin meet" x="16" y="-452"/>
<text text-anchor="middle" x="52" y="-356.2" font-family="Roboto,BlinkMacSystemFont,Helvetica,Arial,sans-serif" font-size="16.00">Dex</text>
</a>
</g>
</g>
<!-- access&#45;&gt;dex -->
<g id="edge15" class="edge">
<title>access&#45;&gt;dex</title>
<path fill="none" stroke="black" d="M47.36,-523.74C45.72,-508.27 45.04,-484.64 45.31,-462.34"/>
<polygon fill="black" stroke="black" points="48.81,-462.29 45.49,-452.23 41.81,-462.16 48.81,-462.29"/>
</g>
<!-- access&#45;&gt;dex -->
<!-- elasticsearch -->
<g id="node21" class="node">
<title>elasticsearch</title>
<g id="a_node21"><a xlink:href="https://opendistro.github.io/for-elasticsearch/" xlink:title="Elasticsearch" target="_blank">
<image xlink:href="logos/project-icons/opendistro.svg" width="72px" height="71.7131px" preserveAspectRatio="xMinYMin meet" x="106" y="-452"/>
<text text-anchor="middle" x="142" y="-354.8" font-family="Roboto,BlinkMacSystemFont,Helvetica,Arial,sans-serif" font-size="14.00">Elasticsearch</text>
</a>
</g>
</g>
<!-- logging&#45;&gt;elasticsearch -->
<g id="edge17" class="edge">
<title>logging&#45;&gt;elasticsearch</title>
<path fill="none" stroke="black" d="M142,-523.74C142,-508.27 142,-484.64 142,-462.34"/>
<polygon fill="black" stroke="black" points="145.5,-462.22 142,-452.23 138.5,-462.23 145.5,-462.22"/>
</g>
<!-- velero -->
<g id="node20" class="node">
<title>velero</title>
<g id="a_node20"><a xlink:href="https://velero.io" xlink:title="Velero" target="_blank">
<image xlink:href="logos/project-icons/velero.svg" width="72px" height="72px" preserveAspectRatio="xMinYMin meet" x="196" y="-452"/>
<text text-anchor="middle" x="232" y="-356.2" font-family="Roboto,BlinkMacSystemFont,Helvetica,Arial,sans-serif" font-size="16.00">Velero</text>
</a>
</g>
</g>
<!-- backups&#45;&gt;velero -->
<g id="edge16" class="edge">
<title>backups&#45;&gt;velero</title>
<path fill="none" stroke="black" d="M232,-523.74C232,-508.27 232,-484.64 232,-462.34"/>
<polygon fill="black" stroke="black" points="235.5,-462.22 232,-452.23 228.5,-462.23 235.5,-462.22"/>
</g>
<!-- opa -->
<g id="node22" class="node">
<title>opa</title>
<g id="a_node22"><a xlink:href="https://open-policy-agent.github.io/gatekeeper/website/docs/" xlink:title="OPA" target="_blank">
<image xlink:href="logos/project-icons/opa.svg" width="72px" height="83.5041px" preserveAspectRatio="xMinYMin meet" x="286" y="-452"/>
<text text-anchor="middle" x="322" y="-356.2" font-family="Roboto,BlinkMacSystemFont,Helvetica,Arial,sans-serif" font-size="16.00">OPA</text>
</a>
</g>
</g>
<!-- continuous&#45;&gt;opa -->
<g id="edge18" class="edge">
<title>continuous&#45;&gt;opa</title>
<path fill="none" stroke="black" d="M322,-523.74C322,-508.27 322,-484.64 322,-462.34"/>
<polygon fill="black" stroke="black" points="325.5,-462.22 322,-452.23 318.5,-462.23 325.5,-462.22"/>
</g>
<!-- trivy -->
<g id="node23" class="node">
<title>trivy</title>
<g id="a_node23"><a xlink:href="https://github.com/aquasecurity/trivy" xlink:title="Trivy" target="_blank">
<image xlink:href="logos/project-icons/trivy.svg" width="72px" height="83.4545px" preserveAspectRatio="xMinYMin meet" x="376" y="-452"/>
<text text-anchor="middle" x="412" y="-356.2" font-family="Roboto,BlinkMacSystemFont,Helvetica,Arial,sans-serif" font-size="16.00">Trivy</text>
</a>
</g>
</g>
<!-- vulnerability&#45;&gt;trivy -->
<g id="edge19" class="edge">
<title>vulnerability&#45;&gt;trivy</title>
<path fill="none" stroke="black" d="M412,-523.74C412,-508.27 412,-484.64 412,-462.34"/>
<polygon fill="black" stroke="black" points="415.5,-462.22 412,-452.23 408.5,-462.23 415.5,-462.22"/>
</g>
<!-- falco -->
<g id="node24" class="node">
<title>falco</title>
<g id="a_node24"><a xlink:href="https://falco.org/" xlink:title="Falco" target="_blank">
<image xlink:href="logos/project-icons/falco.svg" width="72px" height="81.8507px" preserveAspectRatio="xMinYMin meet" x="466" y="-452"/>
<text text-anchor="middle" x="502" y="-356.2" font-family="Roboto,BlinkMacSystemFont,Helvetica,Arial,sans-serif" font-size="16.00">Falco</text>
</a>
</g>
</g>
<!-- intrusion&#45;&gt;falco -->
<g id="edge20" class="edge">
<title>intrusion&#45;&gt;falco</title>
<path fill="none" stroke="black" d="M502,-523.74C502,-508.27 502,-484.64 502,-462.34"/>
<polygon fill="black" stroke="black" points="505.5,-462.22 502,-452.23 498.5,-462.23 505.5,-462.22"/>
</g>
<!-- calico -->
<g id="node25" class="node">
<title>calico</title>
<g id="a_node25"><a xlink:href="https://www.projectcalico.org/" xlink:title="Calico" target="_blank">
<image xlink:href="logos/project-icons/calico.svg" width="72px" height="69.6667px" preserveAspectRatio="xMinYMin meet" x="556" y="-452"/>
<text text-anchor="middle" x="592" y="-356.2" font-family="Roboto,BlinkMacSystemFont,Helvetica,Arial,sans-serif" font-size="16.00">Calico</text>
</a>
</g>
</g>
<!-- network&#45;&gt;calico -->
<g id="edge21" class="edge">
<title>network&#45;&gt;calico</title>
<path fill="none" stroke="black" d="M592,-523.74C592,-508.27 592,-484.64 592,-462.34"/>
<polygon fill="black" stroke="black" points="595.5,-462.22 592,-452.23 588.5,-462.23 595.5,-462.22"/>
</g>
<!-- certmanager -->
<g id="node26" class="node">
<title>certmanager</title>
<g id="a_node26"><a xlink:href="https://cert-manager.io/" xlink:title="Cert Manager" target="_blank">
<image xlink:href="logos/project-icons/cert-manager.svg" width="72px" height="69.5303px" preserveAspectRatio="xMinYMin meet" x="646" y="-452"/>
<text text-anchor="middle" x="682" y="-354.8" font-family="Roboto,BlinkMacSystemFont,Helvetica,Arial,sans-serif" font-size="14.00">Cert Manager</text>
</a>
</g>
</g>
<!-- crypto&#45;&gt;certmanager -->
<g id="edge22" class="edge">
<title>crypto&#45;&gt;certmanager</title>
<path fill="none" stroke="black" d="M682,-523.74C682,-508.27 682,-484.64 682,-462.34"/>
<polygon fill="black" stroke="black" points="685.5,-462.22 682,-452.23 678.5,-462.23 685.5,-462.22"/>
</g>
<!-- kubernetes -->
<g id="node27" class="node">
<title>kubernetes</title>
<g id="a_node27"><a xlink:href="https://kubernetes.io/" xlink:title="Kubernetes" target="_blank">
<image xlink:href="logos/project-icons/kubernetes.svg" width="72px" height="69.8182px" preserveAspectRatio="xMinYMin meet" x="736" y="-452"/>
<text text-anchor="middle" x="772" y="-354.8" font-family="Roboto,BlinkMacSystemFont,Helvetica,Arial,sans-serif" font-size="14.00">Kubernetes</text>
</a>
</g>
</g>
<!-- capacity&#45;&gt;kubernetes -->
<g id="edge23" class="edge">
<title>capacity&#45;&gt;kubernetes</title>
<path fill="none" stroke="black" d="M772,-523.74C772,-508.27 772,-484.64 772,-462.34"/>
<polygon fill="black" stroke="black" points="775.5,-462.22 772,-452.23 768.5,-462.23 775.5,-462.22"/>
</g>
<!-- byom -->
<g id="node46" class="node">
<title>byom</title>
<polygon fill="none" stroke="black" points="898,-106 826,-106 826,-16 898,-16 898,-106"/>
<text text-anchor="middle" x="862" y="-57.2" font-family="Roboto,BlinkMacSystemFont,Helvetica,Arial,sans-serif" font-size="16.00">Bring</text>
<text text-anchor="middle" x="862" y="-39.2" font-family="Roboto,BlinkMacSystemFont,Helvetica,Arial,sans-serif" font-size="16.00">Your Own</text>
<text text-anchor="middle" x="862" y="-21.2" font-family="Roboto,BlinkMacSystemFont,Helvetica,Arial,sans-serif" font-size="16.00">Metal</text>
</g>
<!-- supplier&#45;&gt;byom -->
<g id="edge42" class="edge">
<title>supplier&#45;&gt;byom</title>
<path fill="none" stroke="black" d="M862,-523.95C862,-458.79 862,-223.77 862,-116.3"/>
<polygon fill="black" stroke="black" points="865.5,-116 862,-106 858.5,-116 865.5,-116"/>
</g>
<!-- controls2&#45;&gt;access -->
<!-- prometheus -->
<g id="node28" class="node">
<title>prometheus</title>
<g id="a_node28"><a xlink:href="https://prometheus.io/" xlink:title="Prometheus" target="_blank">
<image xlink:href="logos/project-icons/prometheus.svg" width="72px" height="70.6479px" preserveAspectRatio="xMinYMin meet" x="16" y="-279"/>
<text text-anchor="middle" x="52" y="-181.4" font-family="Roboto,BlinkMacSystemFont,Helvetica,Arial,sans-serif" font-size="12.00">Prometheus</text>
</a>
</g>
</g>
<!-- dex&#45;&gt;prometheus -->
<g id="edge24" class="edge">
<title>dex&#45;&gt;prometheus</title>
<path fill="none" stroke="black" d="M45.8,-350.58C45.56,-343.14 45.39,-335.25 45.31,-327.22"/>
<polygon fill="black" stroke="black" points="48.81,-326.98 45.25,-317 41.81,-327.02 48.81,-326.98"/>
</g>
<!-- dex&#45;&gt;prometheus -->
<!-- auditNA1 -->
<g id="node30" class="node">
<title>auditNA1</title>
</g>
<!-- velero&#45;&gt;auditNA1 -->
<g id="edge26" class="edge">
<title>velero&#45;&gt;auditNA1</title>
<path fill="none" stroke="black" d="M232,-350.58C232,-343.14 232,-335.25 232,-327.22"/>
<polygon fill="black" stroke="black" points="235.5,-327 232,-317 228.5,-327 235.5,-327"/>
</g>
<!-- grafana -->
<g id="node29" class="node">
<title>grafana</title>
<g id="a_node29"><a xlink:href="https://github.com/grafana/grafana" xlink:title="Grafana" target="_blank">
<image xlink:href="logos/project-icons/grafana.svg" width="72px" height="75.0114px" preserveAspectRatio="xMinYMin meet" x="106" y="-279"/>
<text text-anchor="middle" x="142" y="-183.2" font-family="Roboto,BlinkMacSystemFont,Helvetica,Arial,sans-serif" font-size="16.00">Grafana</text>
</a>
</g>
</g>
<!-- elasticsearch&#45;&gt;grafana -->
<g id="edge25" class="edge">
<title>elasticsearch&#45;&gt;grafana</title>
<path fill="none" stroke="black" d="M142,-350.58C142,-343.14 142,-335.25 142,-327.22"/>
<polygon fill="black" stroke="black" points="145.5,-327 142,-317 138.5,-327 145.5,-327"/>
</g>
<!-- auditNA2 -->
<g id="node31" class="node">
<title>auditNA2</title>
</g>
<!-- opa&#45;&gt;auditNA2 -->
<g id="edge27" class="edge">
<title>opa&#45;&gt;auditNA2</title>
<path fill="none" stroke="black" d="M322,-350.58C322,-343.14 322,-335.25 322,-327.22"/>
<polygon fill="black" stroke="black" points="325.5,-327 322,-317 318.5,-327 325.5,-327"/>
</g>
<!-- auditNA3 -->
<g id="node32" class="node">
<title>auditNA3</title>
</g>
<!-- trivy&#45;&gt;auditNA3 -->
<g id="edge28" class="edge">
<title>trivy&#45;&gt;auditNA3</title>
<path fill="none" stroke="black" d="M412,-350.58C412,-343.14 412,-335.25 412,-327.22"/>
<polygon fill="black" stroke="black" points="415.5,-327 412,-317 408.5,-327 415.5,-327"/>
</g>
<!-- auditNA4 -->
<g id="node33" class="node">
<title>auditNA4</title>
</g>
<!-- falco&#45;&gt;auditNA4 -->
<g id="edge29" class="edge">
<title>falco&#45;&gt;auditNA4</title>
<path fill="none" stroke="black" d="M502,-350.58C502,-343.14 502,-335.25 502,-327.22"/>
<polygon fill="black" stroke="black" points="505.5,-327 502,-317 498.5,-327 505.5,-327"/>
</g>
<!-- auditNA5 -->
<g id="node34" class="node">
<title>auditNA5</title>
</g>
<!-- calico&#45;&gt;auditNA5 -->
<g id="edge30" class="edge">
<title>calico&#45;&gt;auditNA5</title>
<path fill="none" stroke="black" d="M592,-350.58C592,-343.14 592,-335.25 592,-327.22"/>
<polygon fill="black" stroke="black" points="595.5,-327 592,-317 588.5,-327 595.5,-327"/>
</g>
<!-- auditNA6 -->
<g id="node35" class="node">
<title>auditNA6</title>
</g>
<!-- certmanager&#45;&gt;auditNA6 -->
<g id="edge31" class="edge">
<title>certmanager&#45;&gt;auditNA6</title>
<path fill="none" stroke="black" d="M682,-350.58C682,-343.14 682,-335.25 682,-327.22"/>
<polygon fill="black" stroke="black" points="685.5,-327 682,-317 678.5,-327 685.5,-327"/>
</g>
<!-- auditNA7 -->
<g id="node36" class="node">
<title>auditNA7</title>
</g>
<!-- kubernetes&#45;&gt;auditNA7 -->
<g id="edge32" class="edge">
<title>kubernetes&#45;&gt;auditNA7</title>
<path fill="none" stroke="black" d="M772,-350.58C772,-343.14 772,-335.25 772,-327.22"/>
<polygon fill="black" stroke="black" points="775.5,-327 772,-317 768.5,-327 775.5,-327"/>
</g>
<!-- aws -->
<g id="node37" class="node">
<title>aws</title>
<g id="a_node37"><a xlink:href="/operator-manual/aws/" xlink:title="AWS" target="_top">
<image xlink:href="logos/cloud-providers/aws.svg" width="72px" height="43.2px" preserveAspectRatio="xMinYMin meet" x="16" y="-106"/>
<text text-anchor="middle" x="52" y="-21.2" font-family="Roboto,BlinkMacSystemFont,Helvetica,Arial,sans-serif" font-size="16.00" fill="#4651b4">AWS</text>
</a>
</g>
</g>
<!-- prometheus&#45;&gt;aws -->
<!-- azure -->
<g id="node38" class="node">
<title>azure</title>
<g id="a_node38"><a xlink:href="/operator-manual/azure/" xlink:title="Azure" target="_top">
<image xlink:href="logos/cloud-providers/azure.svg" width="72px" height="55.2857px" preserveAspectRatio="xMinYMin meet" x="106" y="-106"/>
<text text-anchor="middle" x="142" y="-21.2" font-family="Roboto,BlinkMacSystemFont,Helvetica,Arial,sans-serif" font-size="16.00" fill="#4651b4">Azure</text>
</a>
</g>
</g>
<!-- aws&#45;&gt;azure -->
<!-- citycloud -->
<g id="node39" class="node">
<title>citycloud</title>
<image xlink:href="logos/cloud-providers/citycloud.png" width="72px" height="57.7834px" preserveAspectRatio="xMinYMin meet" x="196" y="-106"/>
<text text-anchor="middle" x="232" y="-21.2" font-family="Roboto,BlinkMacSystemFont,Helvetica,Arial,sans-serif" font-size="16.00">CityCloud</text>
</g>
<!-- azure&#45;&gt;citycloud -->
<!-- exoscale -->
<g id="node40" class="node">
<title>exoscale</title>
<g id="a_node40"><a xlink:href="/operator-manual/exoscale/" xlink:title="Exoscale" target="_top">
<image xlink:href="logos/cloud-providers/exoscale.svg" width="72px" height="62.4906px" preserveAspectRatio="xMinYMin meet" x="286" y="-106"/>
<text text-anchor="middle" x="322" y="-21.2" font-family="Roboto,BlinkMacSystemFont,Helvetica,Arial,sans-serif" font-size="16.00" fill="#4651b4">Exoscale</text>
</a>
</g>
</g>
<!-- citycloud&#45;&gt;exoscale -->
<!-- gcp -->
<g id="node41" class="node">
<title>gcp</title>
<g id="a_node41"><a xlink:href="/operator-manual/gcp/" xlink:title="GCP" target="_top">
<image xlink:href="logos/cloud-providers/gcp.svg" width="72px" height="58.1053px" preserveAspectRatio="xMinYMin meet" x="376" y="-106"/>
<text text-anchor="middle" x="412" y="-21.2" font-family="Roboto,BlinkMacSystemFont,Helvetica,Arial,sans-serif" font-size="16.00" fill="#4651b4">GCP</text>
</a>
</g>
</g>
<!-- exoscale&#45;&gt;gcp -->
<!-- ovh -->
<g id="node42" class="node">
<title>ovh</title>
<image xlink:href="logos/cloud-providers/ovh.svg" width="72px" height="42.7826px" preserveAspectRatio="xMinYMin meet" x="466" y="-106"/>
<text text-anchor="middle" x="502" y="-21.2" font-family="Roboto,BlinkMacSystemFont,Helvetica,Arial,sans-serif" font-size="16.00">OVHcloud</text>
</g>
<!-- gcp&#45;&gt;ovh -->
<!-- safespring -->
<g id="node43" class="node">
<title>safespring</title>
<image xlink:href="logos/cloud-providers/safespring.svg" width="72px" height="55.218px" preserveAspectRatio="xMinYMin meet" x="556" y="-106"/>
<text text-anchor="middle" x="592" y="-21.2" font-family="Roboto,BlinkMacSystemFont,Helvetica,Arial,sans-serif" font-size="16.00">SafeSpring</text>
</g>
<!-- ovh&#45;&gt;safespring -->
<!-- upcloud -->
<g id="node44" class="node">
<title>upcloud</title>
<image xlink:href="logos/cloud-providers/upcloud.svg" width="72px" height="29.1892px" preserveAspectRatio="xMinYMin meet" x="646" y="-106"/>
<text text-anchor="middle" x="682" y="-21.2" font-family="Roboto,BlinkMacSystemFont,Helvetica,Arial,sans-serif" font-size="16.00">UpCloud</text>
</g>
<!-- safespring&#45;&gt;upcloud -->
<!-- byovm -->
<g id="node45" class="node">
<title>byovm</title>
<polygon fill="none" stroke="black" points="808,-106 736,-106 736,-16 808,-16 808,-106"/>
<text text-anchor="middle" x="772" y="-49.8" font-family="Roboto,BlinkMacSystemFont,Helvetica,Arial,sans-serif" font-size="14.00">On&#45;prem</text>
<text text-anchor="middle" x="772" y="-34.8" font-family="Roboto,BlinkMacSystemFont,Helvetica,Arial,sans-serif" font-size="14.00">VMware</text>
<text text-anchor="middle" x="772" y="-19.8" font-family="Roboto,BlinkMacSystemFont,Helvetica,Arial,sans-serif" font-size="14.00">OpenStack</text>
</g>
<!-- upcloud&#45;&gt;byovm -->
<!-- byovm&#45;&gt;byom -->
</g>
</svg>
