<?xml version="1.0" encoding="UTF-8" standalone="no"?>
<!DOCTYPE svg PUBLIC "-//W3C//DTD SVG 1.1//EN"
 "http://www.w3.org/Graphics/SVG/1.1/DTD/svg11.dtd">
<!-- Generated by graphviz version 2.43.0 (0)
 -->
<!-- Title: compliance_basics Pages: 1 -->
<svg width="832pt" height="837pt"
 viewBox="0.00 0.00 832.00 837.00" xmlns="http://www.w3.org/2000/svg" xmlns:xlink="http://www.w3.org/1999/xlink">
<g id="graph0" class="graph" transform="scale(1 1) rotate(0) translate(4 833)">
<title>compliance_basics</title>
<polygon fill="white" stroke="transparent" points="-4,4 -4,-833 828,-833 828,4 -4,4"/>
<g id="clust1" class="cluster">
<title>cluster_header</title>
</g>
<g id="clust2" class="cluster">
<title>cluster_regulations</title>
<polygon fill="none" stroke="black" points="8,-679 8,-761 456,-761 456,-679 8,-679"/>
<text text-anchor="middle" x="69" y="-741" font-family="Roboto,BlinkMacSystemFont,Helvetica,Arial,sans-serif" font-size="20.00">Regulations</text>
</g>
<g id="clust3" class="cluster">
<title>cluster_isms</title>
<polygon fill="none" stroke="black" points="464,-679 464,-761 759,-761 759,-679 464,-679"/>
<text text-anchor="middle" x="611.5" y="-741" font-family="Roboto,BlinkMacSystemFont,Helvetica,Arial,sans-serif" font-size="20.00">Information Security Standards</text>
</g>
<g id="clust4" class="cluster">
<title>cluster_policies</title>
<polygon fill="none" stroke="black" points="8,-481 8,-671 816,-671 816,-481 8,-481"/>
<text text-anchor="middle" x="51" y="-651" font-family="Roboto,BlinkMacSystemFont,Helvetica,Arial,sans-serif" font-size="20.00">Policies</text>
</g>
<g id="clust8" class="cluster">
<title>cluster_implementation</title>
<polygon fill="none" stroke="black" points="8,-326 8,-473 726,-473 726,-326 8,-326"/>
<text text-anchor="middle" x="115" y="-453" font-family="Roboto,BlinkMacSystemFont,Helvetica,Arial,sans-serif" font-size="20.00">Compliant Kubernetes</text>
</g>
<g id="clust17" class="cluster">
<title>cluster_audit</title>
<polygon fill="none" stroke="black" points="8,-171 8,-318 726,-318 726,-171 8,-171"/>
<text text-anchor="middle" x="166.5" y="-298" font-family="Roboto,BlinkMacSystemFont,Helvetica,Arial,sans-serif" font-size="20.00">Compliant Kubernetes Dashboard</text>
</g>
<g id="clust18" class="cluster">
<title>cluster_provider</title>
<polygon fill="none" stroke="black" points="98,-8 98,-163 816,-163 816,-8 98,-8"/>
<text text-anchor="middle" x="219" y="-143" font-family="Roboto,BlinkMacSystemFont,Helvetica,Arial,sans-serif" font-size="20.00">Compliant Cloud Provider</text>
</g>
<!-- title -->
<g id="node1" class="node">
<title>title</title>
<g id="a_node1"><a xlink:href="https://compliantkubernetes.io" xlink:title="compliantkubernetes.io" target="_top">
<text text-anchor="middle" x="412" y="-791.3" font-family="Roboto,BlinkMacSystemFont,Helvetica,Arial,sans-serif" font-size="14.00" fill="#4651b4">compliantkubernetes.io</text>
</a>
</g>
</g>
<!-- HIPAA -->
<g id="node2" class="node">
<title>HIPAA</title>
<g id="a_node2"><a xlink:href="https://www.cdc.gov/phlp/publications/topic/hipaa.html" xlink:title="HIPAA">
<path fill="none" stroke="black" d="M436,-723C436,-723 388,-723 388,-723 382,-723 376,-717 376,-711 376,-711 376,-699 376,-699 376,-693 382,-687 388,-687 388,-687 436,-687 436,-687 442,-687 448,-693 448,-699 448,-699 448,-711 448,-711 448,-717 442,-723 436,-723"/>
<text text-anchor="middle" x="412" y="-701.3" font-family="Roboto,BlinkMacSystemFont,Helvetica,Arial,sans-serif" font-size="14.00">HIPAA</text>
</a>
</g>
</g>
<!-- title&#45;&gt;HIPAA -->
<!-- Controls -->
<g id="node10" class="node">
<title>Controls</title>
<ellipse fill="none" stroke="black" cx="412" cy="-597" rx="36" ry="36"/>
<text text-anchor="middle" x="412" y="-593.3" font-family="Roboto,BlinkMacSystemFont,Helvetica,Arial,sans-serif" font-size="14.00">Controls</text>
</g>
<!-- HIPAA&#45;&gt;Controls -->
<g id="edge1" class="edge">
<title>HIPAA&#45;&gt;Controls</title>
<path fill="none" stroke="black" d="M412,-686.97C412,-675.27 412,-659.15 412,-643.84"/>
<polygon fill="black" stroke="black" points="415.5,-643.43 412,-633.43 408.5,-643.43 415.5,-643.43"/>
</g>
<!-- PDL -->
<g id="node3" class="node">
<title>PDL</title>
<g id="a_node3"><a xlink:href="https://www.riksdagen.se/sv/dokument-lagar/dokument/svensk-forfattningssamling/patientdatalag-2008355_sfs-2008-355" xlink:title="PDL">
<path fill="none" stroke="black" d="M346,-723C346,-723 298,-723 298,-723 292,-723 286,-717 286,-711 286,-711 286,-699 286,-699 286,-693 292,-687 298,-687 298,-687 346,-687 346,-687 352,-687 358,-693 358,-699 358,-699 358,-711 358,-711 358,-717 352,-723 346,-723"/>
<text text-anchor="middle" x="322" y="-701.3" font-family="Roboto,BlinkMacSystemFont,Helvetica,Arial,sans-serif" font-size="14.00">PDL</text>
</a>
</g>
</g>
<!-- PDL&#45;&gt;Controls -->
<g id="edge2" class="edge">
<title>PDL&#45;&gt;Controls</title>
<path fill="none" stroke="black" d="M336.46,-686.97C348.78,-672.45 366.89,-651.13 382.29,-632.99"/>
<polygon fill="black" stroke="black" points="385.34,-634.81 389.15,-624.92 380.01,-630.28 385.34,-634.81"/>
</g>
<!-- GDPR -->
<g id="node4" class="node">
<title>GDPR</title>
<g id="a_node4"><a xlink:href="https://gdpr.eu/" xlink:title="GDPR">
<path fill="none" stroke="black" d="M256,-723C256,-723 208,-723 208,-723 202,-723 196,-717 196,-711 196,-711 196,-699 196,-699 196,-693 202,-687 208,-687 208,-687 256,-687 256,-687 262,-687 268,-693 268,-699 268,-699 268,-711 268,-711 268,-717 262,-723 256,-723"/>
<text text-anchor="middle" x="232" y="-701.3" font-family="Roboto,BlinkMacSystemFont,Helvetica,Arial,sans-serif" font-size="14.00">GDPR</text>
</a>
</g>
</g>
<!-- GDPR&#45;&gt;Controls -->
<g id="edge3" class="edge">
<title>GDPR&#45;&gt;Controls</title>
<path fill="none" stroke="black" d="M260.92,-686.97C291.21,-669.13 338.97,-641.01 372.67,-621.16"/>
<polygon fill="black" stroke="black" points="374.5,-624.14 381.34,-616.05 370.95,-618.11 374.5,-624.14"/>
</g>
<!-- CCPA -->
<g id="node5" class="node">
<title>CCPA</title>
<g id="a_node5"><a xlink:href="https://oag.ca.gov/privacy/ccpa" xlink:title="CCPA">
<path fill="none" stroke="black" d="M166,-723C166,-723 118,-723 118,-723 112,-723 106,-717 106,-711 106,-711 106,-699 106,-699 106,-693 112,-687 118,-687 118,-687 166,-687 166,-687 172,-687 178,-693 178,-699 178,-699 178,-711 178,-711 178,-717 172,-723 166,-723"/>
<text text-anchor="middle" x="142" y="-701.3" font-family="Roboto,BlinkMacSystemFont,Helvetica,Arial,sans-serif" font-size="14.00">CCPA</text>
</a>
</g>
</g>
<!-- CCPA&#45;&gt;Controls -->
<g id="edge4" class="edge">
<title>CCPA&#45;&gt;Controls</title>
<path fill="none" stroke="black" d="M171.18,-686.9C176.38,-684.11 181.79,-681.37 187,-679 248.28,-651.17 322.17,-626.11 368.13,-611.46"/>
<polygon fill="black" stroke="black" points="369.3,-614.77 377.78,-608.41 367.19,-608.09 369.3,-614.77"/>
</g>
<!-- FFFS -->
<g id="node6" class="node">
<title>FFFS</title>
<g id="a_node6"><a xlink:href="https://www.fi.se/en/our-registers/search-fffs/2014/20145/" xlink:title="FFFS">
<path fill="none" stroke="black" d="M76,-723C76,-723 28,-723 28,-723 22,-723 16,-717 16,-711 16,-711 16,-699 16,-699 16,-693 22,-687 28,-687 28,-687 76,-687 76,-687 82,-687 88,-693 88,-699 88,-699 88,-711 88,-711 88,-717 82,-723 76,-723"/>
<text text-anchor="middle" x="52" y="-701.3" font-family="Roboto,BlinkMacSystemFont,Helvetica,Arial,sans-serif" font-size="14.00">FFFS</text>
</a>
</g>
</g>
<!-- FFFS&#45;&gt;Controls -->
<g id="edge5" class="edge">
<title>FFFS&#45;&gt;Controls</title>
<path fill="none" stroke="black" d="M80.03,-687C85.53,-684.07 91.35,-681.25 97,-679 189.66,-642.05 304.45,-617.53 366.69,-605.87"/>
<polygon fill="black" stroke="black" points="367.39,-609.3 376.59,-604.04 366.12,-602.42 367.39,-609.3"/>
</g>
<!-- controls2 -->
<!-- FFFS&#45;&gt;controls2 -->
<!-- iso27k -->
<g id="node7" class="node">
<title>iso27k</title>
<g id="a_node7"><a xlink:href="https://www.isms.online/iso-27001/" xlink:title="ISO 27001" target="_blank">
<path fill="none" stroke="black" d="M720,-723C720,-723 664,-723 664,-723 658,-723 652,-717 652,-711 652,-711 652,-699 652,-699 652,-693 658,-687 664,-687 664,-687 720,-687 720,-687 726,-687 732,-693 732,-699 732,-699 732,-711 732,-711 732,-717 726,-723 720,-723"/>
<text text-anchor="middle" x="692" y="-701.3" font-family="Roboto,BlinkMacSystemFont,Helvetica,Arial,sans-serif" font-size="14.00">ISO 27001</text>
</a>
</g>
</g>
<!-- iso27k&#45;&gt;Controls -->
<g id="edge6" class="edge">
<title>iso27k&#45;&gt;Controls</title>
<path fill="none" stroke="black" d="M660.14,-686.97C654.49,-684.17 648.62,-681.41 643,-679 579.17,-651.67 502.73,-626.23 455.77,-611.41"/>
<polygon fill="black" stroke="black" points="456.8,-608.06 446.21,-608.4 454.7,-614.74 456.8,-608.06"/>
</g>
<!-- soc2 -->
<g id="node8" class="node">
<title>soc2</title>
<g id="a_node8"><a xlink:href="https://www.aicpa.org/interestareas/frc/assuranceadvisoryservices/aicpasoc2report.html" xlink:title="SOC 2" target="_blank">
<path fill="none" stroke="black" d="M622,-723C622,-723 574,-723 574,-723 568,-723 562,-717 562,-711 562,-711 562,-699 562,-699 562,-693 568,-687 574,-687 574,-687 622,-687 622,-687 628,-687 634,-693 634,-699 634,-699 634,-711 634,-711 634,-717 628,-723 622,-723"/>
<text text-anchor="middle" x="598" y="-701.3" font-family="Roboto,BlinkMacSystemFont,Helvetica,Arial,sans-serif" font-size="14.00">SOC 2</text>
</a>
</g>
</g>
<!-- soc2&#45;&gt;Controls -->
<g id="edge7" class="edge">
<title>soc2&#45;&gt;Controls</title>
<path fill="none" stroke="black" d="M568.12,-686.97C536.63,-669.03 486.87,-640.67 452.01,-620.8"/>
<polygon fill="black" stroke="black" points="453.47,-617.61 443.05,-615.7 450.01,-623.69 453.47,-617.61"/>
</g>
<!-- pcidss -->
<g id="node9" class="node">
<title>pcidss</title>
<g id="a_node9"><a xlink:href="https://www.pcisecuritystandards.org/" xlink:title="PCI DSS" target="_blank">
<path fill="none" stroke="black" d="M532,-723C532,-723 484,-723 484,-723 478,-723 472,-717 472,-711 472,-711 472,-699 472,-699 472,-693 478,-687 484,-687 484,-687 532,-687 532,-687 538,-687 544,-693 544,-699 544,-699 544,-711 544,-711 544,-717 538,-723 532,-723"/>
<text text-anchor="middle" x="508" y="-701.3" font-family="Roboto,BlinkMacSystemFont,Helvetica,Arial,sans-serif" font-size="14.00">PCI DSS</text>
</a>
</g>
</g>
<!-- pcidss&#45;&gt;Controls -->
<g id="edge8" class="edge">
<title>pcidss&#45;&gt;Controls</title>
<path fill="none" stroke="black" d="M492.58,-686.97C479.22,-672.22 459.49,-650.44 442.9,-632.12"/>
<polygon fill="black" stroke="black" points="445.32,-629.57 436.01,-624.51 440.13,-634.27 445.32,-629.57"/>
</g>
<!-- access -->
<g id="node12" class="node">
<title>access</title>
<path fill="none" stroke="black" d="M76,-525C76,-525 28,-525 28,-525 22,-525 16,-519 16,-513 16,-513 16,-501 16,-501 16,-495 22,-489 28,-489 28,-489 76,-489 76,-489 82,-489 88,-495 88,-501 88,-501 88,-513 88,-513 88,-519 82,-525 76,-525"/>
<text text-anchor="middle" x="52" y="-510.8" font-family="Roboto,BlinkMacSystemFont,Helvetica,Arial,sans-serif" font-size="14.00">Access</text>
<text text-anchor="middle" x="52" y="-495.8" font-family="Roboto,BlinkMacSystemFont,Helvetica,Arial,sans-serif" font-size="14.00">control</text>
</g>
<!-- Controls&#45;&gt;access -->
<g id="edge9" class="edge">
<title>Controls&#45;&gt;access</title>
<path fill="none" stroke="black" d="M376.63,-589.7C319.68,-579.19 204.14,-556.4 98.1,-525.13"/>
<polygon fill="black" stroke="black" points="98.78,-521.68 88.2,-522.17 96.78,-528.38 98.78,-521.68"/>
</g>
<!-- Logging -->
<g id="node13" class="node">
<title>Logging</title>
<path fill="none" stroke="black" d="M166,-525C166,-525 118,-525 118,-525 112,-525 106,-519 106,-513 106,-513 106,-501 106,-501 106,-495 112,-489 118,-489 118,-489 166,-489 166,-489 172,-489 178,-495 178,-501 178,-501 178,-513 178,-513 178,-519 172,-525 166,-525"/>
<text text-anchor="middle" x="142" y="-503.3" font-family="Roboto,BlinkMacSystemFont,Helvetica,Arial,sans-serif" font-size="14.00">Logging</text>
</g>
<!-- Controls&#45;&gt;Logging -->
<g id="edge10" class="edge">
<title>Controls&#45;&gt;Logging</title>
<path fill="none" stroke="black" d="M377.5,-585.76C335.08,-573.03 260.7,-550.26 188.06,-525.28"/>
<polygon fill="black" stroke="black" points="188.88,-521.86 178.29,-521.91 186.59,-528.48 188.88,-521.86"/>
</g>
<!-- Backups -->
<g id="node14" class="node">
<title>Backups</title>
<g id="a_node14"><a xlink:href="/ciso-guide/backup/" xlink:title="Backups" target="_top">
<path fill="none" stroke="black" d="M256,-525C256,-525 208,-525 208,-525 202,-525 196,-519 196,-513 196,-513 196,-501 196,-501 196,-495 202,-489 208,-489 208,-489 256,-489 256,-489 262,-489 268,-495 268,-501 268,-501 268,-513 268,-513 268,-519 262,-525 256,-525"/>
<text text-anchor="middle" x="232" y="-503.3" font-family="Roboto,BlinkMacSystemFont,Helvetica,Arial,sans-serif" font-size="14.00" fill="#4651b4">Backups</text>
</a>
</g>
</g>
<!-- Controls&#45;&gt;Backups -->
<g id="edge11" class="edge">
<title>Controls&#45;&gt;Backups</title>
<path fill="none" stroke="black" d="M379.82,-580.27C350.92,-566.14 308.23,-545.27 276.14,-529.58"/>
<polygon fill="black" stroke="black" points="277.5,-526.35 266.98,-525.1 274.42,-532.64 277.5,-526.35"/>
</g>
<!-- continuous -->
<g id="node15" class="node">
<title>continuous</title>
<g id="a_node15"><a xlink:href="/ciso-guide/policy-as-code/" xlink:title="Continuous\ncompliance" target="_top">
<path fill="none" stroke="black" d="M346,-525C346,-525 298,-525 298,-525 292,-525 286,-519 286,-513 286,-513 286,-501 286,-501 286,-495 292,-489 298,-489 298,-489 346,-489 346,-489 352,-489 358,-495 358,-501 358,-501 358,-513 358,-513 358,-519 352,-525 346,-525"/>
<text text-anchor="middle" x="322" y="-510.4" font-family="Roboto,BlinkMacSystemFont,Helvetica,Arial,sans-serif" font-size="12.00" fill="#4651b4">Continuous</text>
<text text-anchor="middle" x="322" y="-497.4" font-family="Roboto,BlinkMacSystemFont,Helvetica,Arial,sans-serif" font-size="12.00" fill="#4651b4">compliance</text>
</a>
</g>
</g>
<!-- Controls&#45;&gt;continuous -->
<g id="edge12" class="edge">
<title>Controls&#45;&gt;continuous</title>
<path fill="none" stroke="black" d="M386.45,-571.02C374.06,-558.9 359.22,-544.4 346.91,-532.36"/>
<polygon fill="black" stroke="black" points="349.22,-529.72 339.62,-525.23 344.32,-534.72 349.22,-529.72"/>
</g>
<!-- vulnerability -->
<g id="node16" class="node">
<title>vulnerability</title>
<path fill="none" stroke="black" d="M436,-525C436,-525 388,-525 388,-525 382,-525 376,-519 376,-513 376,-513 376,-501 376,-501 376,-495 382,-489 388,-489 388,-489 436,-489 436,-489 442,-489 448,-495 448,-501 448,-501 448,-513 448,-513 448,-519 442,-525 436,-525"/>
<text text-anchor="middle" x="412" y="-510.4" font-family="Roboto,BlinkMacSystemFont,Helvetica,Arial,sans-serif" font-size="12.00">Vulnerability</text>
<text text-anchor="middle" x="412" y="-497.4" font-family="Roboto,BlinkMacSystemFont,Helvetica,Arial,sans-serif" font-size="12.00">management</text>
</g>
<!-- Controls&#45;&gt;vulnerability -->
<g id="edge13" class="edge">
<title>Controls&#45;&gt;vulnerability</title>
<path fill="none" stroke="black" d="M412,-560.97C412,-552.44 412,-543.43 412,-535.32"/>
<polygon fill="black" stroke="black" points="415.5,-535.28 412,-525.28 408.5,-535.28 415.5,-535.28"/>
</g>
<!-- intrusion -->
<g id="node17" class="node">
<title>intrusion</title>
<g id="a_node17"><a xlink:href="/ciso-guide/intrusion-detection/" xlink:title="Intrusion\ndetection" target="_top">
<path fill="none" stroke="black" d="M526,-525C526,-525 478,-525 478,-525 472,-525 466,-519 466,-513 466,-513 466,-501 466,-501 466,-495 472,-489 478,-489 478,-489 526,-489 526,-489 532,-489 538,-495 538,-501 538,-501 538,-513 538,-513 538,-519 532,-525 526,-525"/>
<text text-anchor="middle" x="502" y="-510.8" font-family="Roboto,BlinkMacSystemFont,Helvetica,Arial,sans-serif" font-size="14.00" fill="#4651b4">Intrusion</text>
<text text-anchor="middle" x="502" y="-495.8" font-family="Roboto,BlinkMacSystemFont,Helvetica,Arial,sans-serif" font-size="14.00" fill="#4651b4">detection</text>
</a>
</g>
</g>
<!-- Controls&#45;&gt;intrusion -->
<g id="edge14" class="edge">
<title>Controls&#45;&gt;intrusion</title>
<path fill="none" stroke="black" d="M437.55,-571.02C449.94,-558.9 464.78,-544.4 477.09,-532.36"/>
<polygon fill="black" stroke="black" points="479.68,-534.72 484.38,-525.23 474.78,-529.72 479.68,-534.72"/>
</g>
<!-- network -->
<g id="node18" class="node">
<title>network</title>
<path fill="none" stroke="black" d="M616,-525C616,-525 568,-525 568,-525 562,-525 556,-519 556,-513 556,-513 556,-501 556,-501 556,-495 562,-489 568,-489 568,-489 616,-489 616,-489 622,-489 628,-495 628,-501 628,-501 628,-513 628,-513 628,-519 622,-525 616,-525"/>
<text text-anchor="middle" x="592" y="-510.8" font-family="Roboto,BlinkMacSystemFont,Helvetica,Arial,sans-serif" font-size="14.00">Network</text>
<text text-anchor="middle" x="592" y="-495.8" font-family="Roboto,BlinkMacSystemFont,Helvetica,Arial,sans-serif" font-size="14.00">security</text>
</g>
<!-- Controls&#45;&gt;network -->
<g id="edge15" class="edge">
<title>Controls&#45;&gt;network</title>
<path fill="none" stroke="black" d="M444.18,-580.27C473.08,-566.14 515.77,-545.27 547.86,-529.58"/>
<polygon fill="black" stroke="black" points="549.58,-532.64 557.02,-525.1 546.5,-526.35 549.58,-532.64"/>
</g>
<!-- crypto -->
<g id="node19" class="node">
<title>crypto</title>
<g id="a_node19"><a xlink:href="/ciso-guide/cryptography/" xlink:title="Use of\ncryptography" target="_top">
<path fill="none" stroke="black" d="M706,-525C706,-525 658,-525 658,-525 652,-525 646,-519 646,-513 646,-513 646,-501 646,-501 646,-495 652,-489 658,-489 658,-489 706,-489 706,-489 712,-489 718,-495 718,-501 718,-501 718,-513 718,-513 718,-519 712,-525 706,-525"/>
<text text-anchor="middle" x="682" y="-510.4" font-family="Roboto,BlinkMacSystemFont,Helvetica,Arial,sans-serif" font-size="12.00" fill="#4651b4">Use of</text>
<text text-anchor="middle" x="682" y="-497.4" font-family="Roboto,BlinkMacSystemFont,Helvetica,Arial,sans-serif" font-size="12.00" fill="#4651b4">cryptography</text>
</a>
</g>
</g>
<!-- Controls&#45;&gt;crypto -->
<g id="edge16" class="edge">
<title>Controls&#45;&gt;crypto</title>
<path fill="none" stroke="black" d="M446.5,-585.76C488.92,-573.03 563.3,-550.26 635.94,-525.28"/>
<polygon fill="black" stroke="black" points="637.41,-528.48 645.71,-521.91 635.12,-521.86 637.41,-528.48"/>
</g>
<!-- supplier -->
<g id="node20" class="node">
<title>supplier</title>
<path fill="none" stroke="black" d="M796,-525C796,-525 748,-525 748,-525 742,-525 736,-519 736,-513 736,-513 736,-501 736,-501 736,-495 742,-489 748,-489 748,-489 796,-489 796,-489 802,-489 808,-495 808,-501 808,-501 808,-513 808,-513 808,-519 802,-525 796,-525"/>
<text text-anchor="middle" x="772" y="-510.4" font-family="Roboto,BlinkMacSystemFont,Helvetica,Arial,sans-serif" font-size="12.00">Supplier</text>
<text text-anchor="middle" x="772" y="-497.4" font-family="Roboto,BlinkMacSystemFont,Helvetica,Arial,sans-serif" font-size="12.00">management</text>
</g>
<!-- Controls&#45;&gt;supplier -->
<g id="edge17" class="edge">
<title>Controls&#45;&gt;supplier</title>
<path fill="none" stroke="black" d="M447.37,-589.7C504.32,-579.19 619.86,-556.4 725.9,-525.13"/>
<polygon fill="black" stroke="black" points="727.22,-528.38 735.8,-522.17 725.22,-521.68 727.22,-528.38"/>
</g>
<!-- controls2&#45;&gt;access -->
<!-- dex -->
<g id="node21" class="node">
<title>dex</title>
<g id="a_node21"><a xlink:href="https://dexidp.io/" xlink:title="Dex" target="_blank">
<image xlink:href="logos/project-icons/dex.svg" width="72px" height="71.301px" preserveAspectRatio="xMinYMin meet" x="16" y="-435"/>
<text text-anchor="middle" x="52" y="-339.2" font-family="Roboto,BlinkMacSystemFont,Helvetica,Arial,sans-serif" font-size="16.00">Dex</text>
</a>
</g>
</g>
<!-- access&#45;&gt;dex -->
<g id="edge18" class="edge">
<title>access&#45;&gt;dex</title>
<path fill="none" stroke="black" d="M47.13,-488.99C45.87,-477.5 45.25,-461.56 45.25,-445.64"/>
<polygon fill="black" stroke="black" points="48.75,-445.25 45.34,-435.22 41.75,-445.19 48.75,-445.25"/>
</g>
<!-- access&#45;&gt;dex -->
<!-- elasticsearch -->
<g id="node23" class="node">
<title>elasticsearch</title>
<g id="a_node23"><a xlink:href="https://opendistro.github.io/for-elasticsearch/" xlink:title="Elasticsearch" target="_blank">
<image xlink:href="logos/project-icons/opendistro.svg" width="72px" height="71.7131px" preserveAspectRatio="xMinYMin meet" x="106" y="-435"/>
<text text-anchor="middle" x="142" y="-337.8" font-family="Roboto,BlinkMacSystemFont,Helvetica,Arial,sans-serif" font-size="14.00">Elasticsearch</text>
</a>
</g>
</g>
<!-- Logging&#45;&gt;elasticsearch -->
<g id="edge20" class="edge">
<title>Logging&#45;&gt;elasticsearch</title>
<path fill="none" stroke="black" d="M142,-488.99C142,-477.5 142,-461.56 142,-445.64"/>
<polygon fill="black" stroke="black" points="145.5,-445.22 142,-435.22 138.5,-445.22 145.5,-445.22"/>
</g>
<!-- velero -->
<g id="node22" class="node">
<title>velero</title>
<g id="a_node22"><a xlink:href="https://velero.io" xlink:title="Velero" target="_blank">
<image xlink:href="logos/project-icons/velero.svg" width="72px" height="72px" preserveAspectRatio="xMinYMin meet" x="196" y="-435"/>
<text text-anchor="middle" x="232" y="-339.2" font-family="Roboto,BlinkMacSystemFont,Helvetica,Arial,sans-serif" font-size="16.00">Velero</text>
</a>
</g>
</g>
<!-- Backups&#45;&gt;velero -->
<g id="edge19" class="edge">
<title>Backups&#45;&gt;velero</title>
<path fill="none" stroke="black" d="M232,-488.99C232,-477.5 232,-461.56 232,-445.64"/>
<polygon fill="black" stroke="black" points="235.5,-445.22 232,-435.22 228.5,-445.22 235.5,-445.22"/>
</g>
<!-- opa -->
<g id="node24" class="node">
<title>opa</title>
<g id="a_node24"><a xlink:href="https://open-policy-agent.github.io/gatekeeper/website/docs/" xlink:title="OPA" target="_blank">
<image xlink:href="logos/project-icons/opa.svg" width="72px" height="83.5041px" preserveAspectRatio="xMinYMin meet" x="286" y="-435"/>
<text text-anchor="middle" x="322" y="-339.2" font-family="Roboto,BlinkMacSystemFont,Helvetica,Arial,sans-serif" font-size="16.00">OPA</text>
</a>
</g>
</g>
<!-- continuous&#45;&gt;opa -->
<g id="edge21" class="edge">
<title>continuous&#45;&gt;opa</title>
<path fill="none" stroke="black" d="M322,-488.99C322,-477.5 322,-461.56 322,-445.64"/>
<polygon fill="black" stroke="black" points="325.5,-445.22 322,-435.22 318.5,-445.22 325.5,-445.22"/>
</g>
<!-- trivy -->
<g id="node25" class="node">
<title>trivy</title>
<g id="a_node25"><a xlink:href="https://github.com/aquasecurity/trivy" xlink:title="Trivy" target="_blank">
<image xlink:href="logos/project-icons/trivy.svg" width="72px" height="83.4545px" preserveAspectRatio="xMinYMin meet" x="376" y="-435"/>
<text text-anchor="middle" x="412" y="-339.2" font-family="Roboto,BlinkMacSystemFont,Helvetica,Arial,sans-serif" font-size="16.00">Trivy</text>
</a>
</g>
</g>
<!-- vulnerability&#45;&gt;trivy -->
<g id="edge22" class="edge">
<title>vulnerability&#45;&gt;trivy</title>
<path fill="none" stroke="black" d="M412,-488.99C412,-477.5 412,-461.56 412,-445.64"/>
<polygon fill="black" stroke="black" points="415.5,-445.22 412,-435.22 408.5,-445.22 415.5,-445.22"/>
</g>
<!-- falco -->
<g id="node26" class="node">
<title>falco</title>
<g id="a_node26"><a xlink:href="https://falco.org/" xlink:title="Falco" target="_blank">
<image xlink:href="logos/project-icons/falco.svg" width="72px" height="81.8507px" preserveAspectRatio="xMinYMin meet" x="466" y="-435"/>
<text text-anchor="middle" x="502" y="-339.2" font-family="Roboto,BlinkMacSystemFont,Helvetica,Arial,sans-serif" font-size="16.00">Falco</text>
</a>
</g>
</g>
<!-- intrusion&#45;&gt;falco -->
<g id="edge23" class="edge">
<title>intrusion&#45;&gt;falco</title>
<path fill="none" stroke="black" d="M502,-488.99C502,-477.5 502,-461.56 502,-445.64"/>
<polygon fill="black" stroke="black" points="505.5,-445.22 502,-435.22 498.5,-445.22 505.5,-445.22"/>
</g>
<!-- calico -->
<g id="node27" class="node">
<title>calico</title>
<g id="a_node27"><a xlink:href="https://www.projectcalico.org/" xlink:title="Calico" target="_blank">
<image xlink:href="logos/project-icons/calico.svg" width="72px" height="69.6667px" preserveAspectRatio="xMinYMin meet" x="556" y="-435"/>
<text text-anchor="middle" x="592" y="-339.2" font-family="Roboto,BlinkMacSystemFont,Helvetica,Arial,sans-serif" font-size="16.00">Calico</text>
</a>
</g>
</g>
<!-- network&#45;&gt;calico -->
<g id="edge24" class="edge">
<title>network&#45;&gt;calico</title>
<path fill="none" stroke="black" d="M592,-488.99C592,-477.5 592,-461.56 592,-445.64"/>
<polygon fill="black" stroke="black" points="595.5,-445.22 592,-435.22 588.5,-445.22 595.5,-445.22"/>
</g>
<!-- certmanager -->
<g id="node28" class="node">
<title>certmanager</title>
<g id="a_node28"><a xlink:href="https://cert-manager.io/" xlink:title="Cert Manager" target="_blank">
<image xlink:href="logos/project-icons/cert-manager.svg" width="72px" height="69.5303px" preserveAspectRatio="xMinYMin meet" x="646" y="-435"/>
<text text-anchor="middle" x="682" y="-337.8" font-family="Roboto,BlinkMacSystemFont,Helvetica,Arial,sans-serif" font-size="14.00">Cert Manager</text>
</a>
</g>
</g>
<!-- crypto&#45;&gt;certmanager -->
<g id="edge25" class="edge">
<title>crypto&#45;&gt;certmanager</title>
<path fill="none" stroke="black" d="M682,-488.99C682,-477.5 682,-461.56 682,-445.64"/>
<polygon fill="black" stroke="black" points="685.5,-445.22 682,-435.22 678.5,-445.22 685.5,-445.22"/>
</g>
<!-- supplier2 -->
<g id="node46" class="node">
<title>supplier2</title>
</g>
<!-- supplier&#45;&gt;supplier2 -->
<g id="edge42" class="edge">
<title>supplier&#45;&gt;supplier2</title>
<path fill="none" stroke="black" d="M772,-488.99C772,-456.29 772,-387.69 772,-385.55"/>
</g>
<!-- prometheus -->
<g id="node29" class="node">
<title>prometheus</title>
<g id="a_node29"><a xlink:href="https://prometheus.io/" xlink:title="Prometheus" target="_blank">
<image xlink:href="logos/project-icons/prometheus.svg" width="72px" height="70.6479px" preserveAspectRatio="xMinYMin meet" x="16" y="-280"/>
<text text-anchor="middle" x="52" y="-182.4" font-family="Roboto,BlinkMacSystemFont,Helvetica,Arial,sans-serif" font-size="12.00">Prometheus</text>
</a>
</g>
</g>
<!-- dex&#45;&gt;prometheus -->
<g id="edge26" class="edge">
<title>dex&#45;&gt;prometheus</title>
<path fill="none" stroke="black" d="M52,-333.83C52,-332.06 52,-330.28 52,-328.48"/>
<polygon fill="black" stroke="black" points="55.5,-328 52,-318 48.5,-328 55.5,-328"/>
</g>
<!-- auditNA1 -->
<g id="node31" class="node">
<title>auditNA1</title>
</g>
<!-- velero&#45;&gt;auditNA1 -->
<g id="edge28" class="edge">
<title>velero&#45;&gt;auditNA1</title>
<path fill="none" stroke="black" d="M232,-333.83C232,-332.06 232,-330.28 232,-328.48"/>
<polygon fill="black" stroke="black" points="235.5,-328 232,-318 228.5,-328 235.5,-328"/>
</g>
<!-- grafana -->
<g id="node30" class="node">
<title>grafana</title>
<g id="a_node30"><a xlink:href="https://github.com/grafana/grafana" xlink:title="Grafana" target="_blank">
<image xlink:href="logos/project-icons/grafana.svg" width="72px" height="75.0114px" preserveAspectRatio="xMinYMin meet" x="106" y="-280"/>
<text text-anchor="middle" x="142" y="-184.2" font-family="Roboto,BlinkMacSystemFont,Helvetica,Arial,sans-serif" font-size="16.00">Grafana</text>
</a>
</g>
</g>
<!-- elasticsearch&#45;&gt;grafana -->
<g id="edge27" class="edge">
<title>elasticsearch&#45;&gt;grafana</title>
<path fill="none" stroke="black" d="M142,-333.83C142,-332.06 142,-330.28 142,-328.48"/>
<polygon fill="black" stroke="black" points="145.5,-328 142,-318 138.5,-328 145.5,-328"/>
</g>
<!-- auditNA2 -->
<g id="node32" class="node">
<title>auditNA2</title>
</g>
<!-- opa&#45;&gt;auditNA2 -->
<g id="edge29" class="edge">
<title>opa&#45;&gt;auditNA2</title>
<path fill="none" stroke="black" d="M322,-333.83C322,-332.06 322,-330.28 322,-328.48"/>
<polygon fill="black" stroke="black" points="325.5,-328 322,-318 318.5,-328 325.5,-328"/>
</g>
<!-- auditNA3 -->
<g id="node33" class="node">
<title>auditNA3</title>
</g>
<!-- trivy&#45;&gt;auditNA3 -->
<g id="edge30" class="edge">
<title>trivy&#45;&gt;auditNA3</title>
<path fill="none" stroke="black" d="M412,-333.83C412,-332.06 412,-330.28 412,-328.48"/>
<polygon fill="black" stroke="black" points="415.5,-328 412,-318 408.5,-328 415.5,-328"/>
</g>
<!-- auditNA4 -->
<g id="node34" class="node">
<title>auditNA4</title>
</g>
<!-- falco&#45;&gt;auditNA4 -->
<g id="edge31" class="edge">
<title>falco&#45;&gt;auditNA4</title>
<path fill="none" stroke="black" d="M502,-333.83C502,-332.06 502,-330.28 502,-328.48"/>
<polygon fill="black" stroke="black" points="505.5,-328 502,-318 498.5,-328 505.5,-328"/>
</g>
<!-- auditNA5 -->
<g id="node35" class="node">
<title>auditNA5</title>
</g>
<!-- calico&#45;&gt;auditNA5 -->
<g id="edge32" class="edge">
<title>calico&#45;&gt;auditNA5</title>
<path fill="none" stroke="black" d="M592,-333.83C592,-332.06 592,-330.28 592,-328.48"/>
<polygon fill="black" stroke="black" points="595.5,-328 592,-318 588.5,-328 595.5,-328"/>
</g>
<!-- auditNA6 -->
<g id="node36" class="node">
<title>auditNA6</title>
</g>
<!-- certmanager&#45;&gt;auditNA6 -->
<g id="edge33" class="edge">
<title>certmanager&#45;&gt;auditNA6</title>
<path fill="none" stroke="black" d="M682,-333.83C682,-332.06 682,-330.28 682,-328.48"/>
<polygon fill="black" stroke="black" points="685.5,-328 682,-318 678.5,-328 685.5,-328"/>
</g>
<!-- cloud_provider -->
<g id="node37" class="node">
<title>cloud_provider</title>
</g>
<!-- aws -->
<g id="node38" class="node">
<title>aws</title>
<image xlink:href="logos/cloud-providers/aws.png" width="72px" height="43.2px" preserveAspectRatio="xMinYMin meet" x="106" y="-73.6"/>
</g>
<!-- cloud_provider&#45;&gt;aws -->
<!-- azure -->
<g id="node39" class="node">
<title>azure</title>
<image xlink:href="logos/cloud-providers/azure.png" width="72px" height="72px" preserveAspectRatio="xMinYMin meet" x="196" y="-88"/>
</g>
<!-- cloud_provider&#45;&gt;azure -->
<!-- citycloud -->
<g id="node40" class="node">
<title>citycloud</title>
<image xlink:href="logos/cloud-providers/citycloud.png" width="67.2897px" height="72px" preserveAspectRatio="xMinYMin meet" x="288.355" y="-88"/>
</g>
<!-- cloud_provider&#45;&gt;citycloud -->
<!-- exoscale -->
<g id="node41" class="node">
<title>exoscale</title>
<image xlink:href="logos/cloud-providers/exoscale.png" width="69.9231px" height="72px" preserveAspectRatio="xMinYMin meet" x="377.038" y="-88"/>
</g>
<!-- cloud_provider&#45;&gt;exoscale -->
<!-- safespring -->
<g id="node42" class="node">
<title>safespring</title>
<image xlink:href="logos/cloud-providers/safespring.png" width="68.6307px" height="72px" preserveAspectRatio="xMinYMin meet" x="467.685" y="-88"/>
</g>
<!-- cloud_provider&#45;&gt;safespring -->
<!-- openstack -->
<g id="node43" class="node">
<title>openstack</title>
<image xlink:href="logos/cloud-providers/openstack.png" width="72px" height="65.52px" preserveAspectRatio="xMinYMin meet" x="556" y="-84.76"/>
</g>
<!-- cloud_provider&#45;&gt;openstack -->
<!-- byovm -->
<g id="node44" class="node">
<title>byovm</title>
<polygon fill="none" stroke="black" points="718,-88 646,-88 646,-16 718,-16 718,-88"/>
<text text-anchor="middle" x="682" y="-63.3" font-family="Roboto,BlinkMacSystemFont,Helvetica,Arial,sans-serif" font-size="14.00">Bring</text>
<text text-anchor="middle" x="682" y="-48.3" font-family="Roboto,BlinkMacSystemFont,Helvetica,Arial,sans-serif" font-size="14.00">Your Own</text>
<text text-anchor="middle" x="682" y="-33.3" font-family="Roboto,BlinkMacSystemFont,Helvetica,Arial,sans-serif" font-size="14.00">VMs</text>
</g>
<!-- cloud_provider&#45;&gt;byovm -->
<!-- byom -->
<g id="node45" class="node">
<title>byom</title>
<polygon fill="none" stroke="black" points="808,-88 736,-88 736,-16 808,-16 808,-88"/>
<text text-anchor="middle" x="772" y="-63.3" font-family="Roboto,BlinkMacSystemFont,Helvetica,Arial,sans-serif" font-size="14.00">Bring</text>
<text text-anchor="middle" x="772" y="-48.3" font-family="Roboto,BlinkMacSystemFont,Helvetica,Arial,sans-serif" font-size="14.00">Your Own</text>
<text text-anchor="middle" x="772" y="-33.3" font-family="Roboto,BlinkMacSystemFont,Helvetica,Arial,sans-serif" font-size="14.00">Metal</text>
</g>
<!-- cloud_provider&#45;&gt;byom -->
<!-- cloud_provider&#45;&gt;byom -->
<!-- supplier3 -->
<g id="node47" class="node">
<title>supplier3</title>
</g>
<!-- supplier2&#45;&gt;supplier3 -->
<g id="edge43" class="edge">
<title>supplier2&#45;&gt;supplier3</title>
<path fill="none" stroke="black" d="M772,-383.39C772,-378.83 772,-235.1 772,-230.61"/>
</g>
<!-- supplier3&#45;&gt;cloud_provider -->
<g id="edge44" class="edge">
<title>supplier3&#45;&gt;cloud_provider</title>
<path fill="none" stroke="black" d="M772,-228.43C772,-226.81 772,-199.4 772,-173.27"/>
<polygon fill="black" stroke="black" points="775.5,-173 772,-163 768.5,-173 775.5,-173"/>
</g>
</g>
</svg>
