<?xml version="1.0" encoding="UTF-8" standalone="no"?>
<!DOCTYPE svg PUBLIC "-//W3C//DTD SVG 1.1//EN"
 "http://www.w3.org/Graphics/SVG/1.1/DTD/svg11.dtd">
<!-- Generated by graphviz version 2.43.0 (0)
 -->
<!-- Title: compliance_basics Pages: 1 -->
<svg width="922pt" height="944pt"
 viewBox="0.00 0.00 922.00 944.00" xmlns="http://www.w3.org/2000/svg" xmlns:xlink="http://www.w3.org/1999/xlink">
<g id="graph0" class="graph" transform="scale(1 1) rotate(0) translate(4 940)">
<title>compliance_basics</title>
<polygon fill="white" stroke="transparent" points="-4,4 -4,-940 918,-940 918,4 -4,4"/>
<g id="clust1" class="cluster">
<title>cluster_header</title>
</g>
<g id="clust2" class="cluster">
<title>cluster_regulations</title>
<polygon fill="none" stroke="black" points="8,-768 8,-850 456,-850 456,-768 8,-768"/>
<text text-anchor="middle" x="69" y="-830" font-family="Roboto,BlinkMacSystemFont,Helvetica,Arial,sans-serif" font-size="20.00">Regulations</text>
</g>
<g id="clust3" class="cluster">
<title>cluster_isms</title>
<polygon fill="none" stroke="black" points="464,-768 464,-850 759,-850 759,-768 464,-768"/>
<text text-anchor="middle" x="611.5" y="-830" font-family="Roboto,BlinkMacSystemFont,Helvetica,Arial,sans-serif" font-size="20.00">Information Security Standards</text>
</g>
<g id="clust4" class="cluster">
<title>cluster_policies</title>
<polygon fill="none" stroke="black" points="8,-516 8,-742 906,-742 906,-516 8,-516"/>
<text text-anchor="middle" x="51" y="-722" font-family="Roboto,BlinkMacSystemFont,Helvetica,Arial,sans-serif" font-size="20.00">Policies</text>
</g>
<g id="clust8" class="cluster">
<title>cluster_implementation</title>
<polygon fill="none" stroke="black" points="8,-343 8,-490 816,-490 816,-343 8,-343"/>
<text text-anchor="middle" x="115" y="-470" font-family="Roboto,BlinkMacSystemFont,Helvetica,Arial,sans-serif" font-size="20.00">Compliant Kubernetes</text>
</g>
<g id="clust18" class="cluster">
<title>cluster_audit</title>
<polygon fill="none" stroke="black" points="8,-170 8,-317 816,-317 816,-170 8,-170"/>
<text text-anchor="middle" x="166.5" y="-297" font-family="Roboto,BlinkMacSystemFont,Helvetica,Arial,sans-serif" font-size="20.00">Compliant Kubernetes Dashboard</text>
</g>
<g id="clust19" class="cluster">
<title>cluster_provider</title>
<polygon fill="none" stroke="black" points="8,-8 8,-144 906,-144 906,-8 8,-8"/>
<text text-anchor="middle" x="129" y="-124" font-family="Roboto,BlinkMacSystemFont,Helvetica,Arial,sans-serif" font-size="20.00">Compliant Cloud Provider</text>
</g>
<!-- title -->
<g id="node1" class="node">
<title>title</title>
<g id="a_node1"><a xlink:href="https://compliantkubernetes.io" xlink:title="compliantkubernetes.io" target="_top">
<text text-anchor="middle" x="412" y="-898.3" font-family="Roboto,BlinkMacSystemFont,Helvetica,Arial,sans-serif" font-size="14.00" fill="#4651b4">compliantkubernetes.io</text>
</a>
</g>
</g>
<!-- HIPAA -->
<g id="node2" class="node">
<title>HIPAA</title>
<g id="a_node2"><a xlink:href="https://www.cdc.gov/phlp/publications/topic/hipaa.html" xlink:title="HIPAA" target="_blank">
<path fill="none" stroke="black" d="M436,-812C436,-812 388,-812 388,-812 382,-812 376,-806 376,-800 376,-800 376,-788 376,-788 376,-782 382,-776 388,-776 388,-776 436,-776 436,-776 442,-776 448,-782 448,-788 448,-788 448,-800 448,-800 448,-806 442,-812 436,-812"/>
<text text-anchor="middle" x="412" y="-790.3" font-family="Roboto,BlinkMacSystemFont,Helvetica,Arial,sans-serif" font-size="14.00">HIPAA</text>
</a>
</g>
</g>
<!-- title&#45;&gt;HIPAA -->
<!-- Controls -->
<g id="node10" class="node">
<title>Controls</title>
<ellipse fill="none" stroke="black" cx="412" cy="-668" rx="36" ry="36"/>
<text text-anchor="middle" x="412" y="-664.3" font-family="Roboto,BlinkMacSystemFont,Helvetica,Arial,sans-serif" font-size="14.00">Controls</text>
</g>
<!-- HIPAA&#45;&gt;Controls -->
<g id="edge1" class="edge">
<title>HIPAA&#45;&gt;Controls</title>
<path fill="none" stroke="black" d="M412,-775.76C412,-759.92 412,-735.73 412,-714.38"/>
<polygon fill="black" stroke="black" points="415.5,-714.18 412,-704.18 408.5,-714.18 415.5,-714.18"/>
</g>
<!-- PDL -->
<g id="node3" class="node">
<title>PDL</title>
<g id="a_node3"><a xlink:href="https://www.riksdagen.se/sv/dokument-lagar/dokument/svensk-forfattningssamling/patientdatalag-2008355_sfs-2008-355" xlink:title="PDL" target="_blank">
<path fill="none" stroke="black" d="M346,-812C346,-812 298,-812 298,-812 292,-812 286,-806 286,-800 286,-800 286,-788 286,-788 286,-782 292,-776 298,-776 298,-776 346,-776 346,-776 352,-776 358,-782 358,-788 358,-788 358,-800 358,-800 358,-806 352,-812 346,-812"/>
<text text-anchor="middle" x="322" y="-790.3" font-family="Roboto,BlinkMacSystemFont,Helvetica,Arial,sans-serif" font-size="14.00">PDL</text>
</a>
</g>
</g>
<!-- PDL&#45;&gt;Controls -->
<g id="edge2" class="edge">
<title>PDL&#45;&gt;Controls</title>
<path fill="none" stroke="black" d="M334.51,-775.76C347.59,-757.74 368.51,-728.93 385.31,-705.77"/>
<polygon fill="black" stroke="black" points="388.25,-707.67 391.3,-697.53 382.59,-703.56 388.25,-707.67"/>
</g>
<!-- GDPR -->
<g id="node4" class="node">
<title>GDPR</title>
<g id="a_node4"><a xlink:href="https://gdpr.eu/" xlink:title="GDPR" target="_blank">
<path fill="none" stroke="black" d="M256,-812C256,-812 208,-812 208,-812 202,-812 196,-806 196,-800 196,-800 196,-788 196,-788 196,-782 202,-776 208,-776 208,-776 256,-776 256,-776 262,-776 268,-782 268,-788 268,-788 268,-800 268,-800 268,-806 262,-812 256,-812"/>
<text text-anchor="middle" x="232" y="-790.3" font-family="Roboto,BlinkMacSystemFont,Helvetica,Arial,sans-serif" font-size="14.00">GDPR</text>
</a>
</g>
</g>
<!-- GDPR&#45;&gt;Controls -->
<g id="edge3" class="edge">
<title>GDPR&#45;&gt;Controls</title>
<path fill="none" stroke="black" d="M257.03,-775.76C287.4,-754.84 338.89,-719.36 374.13,-695.09"/>
<polygon fill="black" stroke="black" points="376.46,-697.73 382.71,-689.18 372.49,-691.97 376.46,-697.73"/>
</g>
<!-- CCPA -->
<g id="node5" class="node">
<title>CCPA</title>
<g id="a_node5"><a xlink:href="https://oag.ca.gov/privacy/ccpa" xlink:title="CCPA" target="_blank">
<path fill="none" stroke="black" d="M166,-812C166,-812 118,-812 118,-812 112,-812 106,-806 106,-800 106,-800 106,-788 106,-788 106,-782 112,-776 118,-776 118,-776 166,-776 166,-776 172,-776 178,-782 178,-788 178,-788 178,-800 178,-800 178,-806 172,-812 166,-812"/>
<text text-anchor="middle" x="142" y="-790.3" font-family="Roboto,BlinkMacSystemFont,Helvetica,Arial,sans-serif" font-size="14.00">CCPA</text>
</a>
</g>
</g>
<!-- CCPA&#45;&gt;Controls -->
<g id="edge4" class="edge">
<title>CCPA&#45;&gt;Controls</title>
<path fill="none" stroke="black" d="M171.81,-775.93C176.84,-773.2 182.04,-770.46 187,-768 249.45,-737 323.83,-705.24 369.48,-686.32"/>
<polygon fill="black" stroke="black" points="370.86,-689.54 378.77,-682.49 368.19,-683.07 370.86,-689.54"/>
</g>
<!-- FFFS -->
<g id="node6" class="node">
<title>FFFS</title>
<g id="a_node6"><a xlink:href="https://www.fi.se/en/our-registers/search-fffs/2014/20145/" xlink:title="FFFS" target="_blank">
<path fill="none" stroke="black" d="M76,-812C76,-812 28,-812 28,-812 22,-812 16,-806 16,-800 16,-800 16,-788 16,-788 16,-782 22,-776 28,-776 28,-776 76,-776 76,-776 82,-776 88,-782 88,-788 88,-788 88,-800 88,-800 88,-806 82,-812 76,-812"/>
<text text-anchor="middle" x="52" y="-790.3" font-family="Roboto,BlinkMacSystemFont,Helvetica,Arial,sans-serif" font-size="14.00">FFFS</text>
</a>
</g>
</g>
<!-- FFFS&#45;&gt;Controls -->
<g id="edge5" class="edge">
<title>FFFS&#45;&gt;Controls</title>
<path fill="none" stroke="black" d="M80.61,-775.98C85.96,-773.12 91.58,-770.33 97,-768 190.3,-727.91 305.3,-695.9 367.3,-679.98"/>
<polygon fill="black" stroke="black" points="368.32,-683.34 377.15,-677.48 366.6,-676.55 368.32,-683.34"/>
</g>
<!-- controls2 -->
<!-- FFFS&#45;&gt;controls2 -->
<!-- iso27k -->
<g id="node7" class="node">
<title>iso27k</title>
<g id="a_node7"><a xlink:href="https://www.isms.online/iso-27001/" xlink:title="ISO 27001" target="_blank">
<path fill="none" stroke="black" d="M720,-812C720,-812 664,-812 664,-812 658,-812 652,-806 652,-800 652,-800 652,-788 652,-788 652,-782 658,-776 664,-776 664,-776 720,-776 720,-776 726,-776 732,-782 732,-788 732,-788 732,-800 732,-800 732,-806 726,-812 720,-812"/>
<text text-anchor="middle" x="692" y="-790.3" font-family="Roboto,BlinkMacSystemFont,Helvetica,Arial,sans-serif" font-size="14.00">ISO 27001</text>
</a>
</g>
</g>
<!-- iso27k&#45;&gt;Controls -->
<g id="edge6" class="edge">
<title>iso27k&#45;&gt;Controls</title>
<path fill="none" stroke="black" d="M659.2,-775.89C653.82,-773.19 648.27,-770.47 643,-768 578.08,-737.57 501.34,-705.42 454.69,-686.29"/>
<polygon fill="black" stroke="black" points="455.79,-682.96 445.21,-682.41 453.14,-689.44 455.79,-682.96"/>
</g>
<!-- soc2 -->
<g id="node8" class="node">
<title>soc2</title>
<g id="a_node8"><a xlink:href="https://www.aicpa.org/interestareas/frc/assuranceadvisoryservices/aicpasoc2report.html" xlink:title="SOC 2" target="_blank">
<path fill="none" stroke="black" d="M622,-812C622,-812 574,-812 574,-812 568,-812 562,-806 562,-800 562,-800 562,-788 562,-788 562,-782 568,-776 574,-776 574,-776 622,-776 622,-776 628,-776 634,-782 634,-788 634,-788 634,-800 634,-800 634,-806 628,-812 622,-812"/>
<text text-anchor="middle" x="598" y="-790.3" font-family="Roboto,BlinkMacSystemFont,Helvetica,Arial,sans-serif" font-size="14.00">SOC 2</text>
</a>
</g>
</g>
<!-- soc2&#45;&gt;Controls -->
<g id="edge7" class="edge">
<title>soc2&#45;&gt;Controls</title>
<path fill="none" stroke="black" d="M572.14,-775.76C540.44,-754.63 486.46,-718.64 450.04,-694.36"/>
<polygon fill="black" stroke="black" points="451.89,-691.39 441.63,-688.76 448.01,-697.21 451.89,-691.39"/>
</g>
<!-- pcidss -->
<g id="node9" class="node">
<title>pcidss</title>
<g id="a_node9"><a xlink:href="https://www.pcisecuritystandards.org/" xlink:title="PCI DSS" target="_blank">
<path fill="none" stroke="black" d="M532,-812C532,-812 484,-812 484,-812 478,-812 472,-806 472,-800 472,-800 472,-788 472,-788 472,-782 478,-776 484,-776 484,-776 532,-776 532,-776 538,-776 544,-782 544,-788 544,-788 544,-800 544,-800 544,-806 538,-812 532,-812"/>
<text text-anchor="middle" x="508" y="-790.3" font-family="Roboto,BlinkMacSystemFont,Helvetica,Arial,sans-serif" font-size="14.00">PCI DSS</text>
</a>
</g>
</g>
<!-- pcidss&#45;&gt;Controls -->
<g id="edge8" class="edge">
<title>pcidss&#45;&gt;Controls</title>
<path fill="none" stroke="black" d="M494.65,-775.76C480.55,-757.54 457.9,-728.29 439.88,-705.01"/>
<polygon fill="black" stroke="black" points="442.61,-702.82 433.72,-697.05 437.07,-707.1 442.61,-702.82"/>
</g>
<!-- access -->
<g id="node11" class="node">
<title>access</title>
<path fill="none" stroke="black" d="M76,-560C76,-560 28,-560 28,-560 22,-560 16,-554 16,-548 16,-548 16,-536 16,-536 16,-530 22,-524 28,-524 28,-524 76,-524 76,-524 82,-524 88,-530 88,-536 88,-536 88,-548 88,-548 88,-554 82,-560 76,-560"/>
<text text-anchor="middle" x="52" y="-545.8" font-family="Roboto,BlinkMacSystemFont,Helvetica,Arial,sans-serif" font-size="14.00">Access</text>
<text text-anchor="middle" x="52" y="-530.8" font-family="Roboto,BlinkMacSystemFont,Helvetica,Arial,sans-serif" font-size="14.00">control</text>
</g>
<!-- Controls&#45;&gt;access -->
<g id="edge9" class="edge">
<title>Controls&#45;&gt;access</title>
<path fill="none" stroke="black" d="M377.84,-655.82C321.58,-637.31 205.71,-598.8 98.04,-560.32"/>
<polygon fill="black" stroke="black" points="98.91,-556.91 88.31,-556.84 96.54,-563.5 98.91,-556.91"/>
</g>
<!-- logging -->
<g id="node12" class="node">
<title>logging</title>
<path fill="none" stroke="black" d="M166,-560C166,-560 118,-560 118,-560 112,-560 106,-554 106,-548 106,-548 106,-536 106,-536 106,-530 112,-524 118,-524 118,-524 166,-524 166,-524 172,-524 178,-530 178,-536 178,-536 178,-548 178,-548 178,-554 172,-560 166,-560"/>
<text text-anchor="middle" x="142" y="-538.3" font-family="Roboto,BlinkMacSystemFont,Helvetica,Arial,sans-serif" font-size="14.00">Logging</text>
</g>
<!-- Controls&#45;&gt;logging -->
<g id="edge10" class="edge">
<title>Controls&#45;&gt;logging</title>
<path fill="none" stroke="black" d="M379.43,-652.04C331.53,-630.05 241.9,-588.88 187.52,-563.91"/>
<polygon fill="black" stroke="black" points="188.67,-560.58 178.12,-559.59 185.75,-566.94 188.67,-560.58"/>
</g>
<!-- backups -->
<g id="node13" class="node">
<title>backups</title>
<g id="a_node13"><a xlink:href="/ciso-guide/backup/" xlink:title="Backup" target="_top">
<path fill="none" stroke="black" d="M256,-560C256,-560 208,-560 208,-560 202,-560 196,-554 196,-548 196,-548 196,-536 196,-536 196,-530 202,-524 208,-524 208,-524 256,-524 256,-524 262,-524 268,-530 268,-536 268,-536 268,-548 268,-548 268,-554 262,-560 256,-560"/>
<text text-anchor="middle" x="232" y="-538.3" font-family="Roboto,BlinkMacSystemFont,Helvetica,Arial,sans-serif" font-size="14.00" fill="#4651b4">Backup</text>
</a>
</g>
</g>
<!-- Controls&#45;&gt;backups -->
<g id="edge11" class="edge">
<title>Controls&#45;&gt;backups</title>
<path fill="none" stroke="black" d="M382.68,-646.8C350.58,-624.69 299.21,-589.3 265.53,-566.1"/>
<polygon fill="black" stroke="black" points="267.18,-562.98 256.96,-560.19 263.2,-568.75 267.18,-562.98"/>
</g>
<!-- continuous -->
<g id="node14" class="node">
<title>continuous</title>
<g id="a_node14"><a xlink:href="/ciso-guide/policy-as-code/" xlink:title="Continuous\ncompliance" target="_top">
<path fill="none" stroke="black" d="M346,-560C346,-560 298,-560 298,-560 292,-560 286,-554 286,-548 286,-548 286,-536 286,-536 286,-530 292,-524 298,-524 298,-524 346,-524 346,-524 352,-524 358,-530 358,-536 358,-536 358,-548 358,-548 358,-554 352,-560 346,-560"/>
<text text-anchor="middle" x="322" y="-545.4" font-family="Roboto,BlinkMacSystemFont,Helvetica,Arial,sans-serif" font-size="12.00" fill="#4651b4">Continuous</text>
<text text-anchor="middle" x="322" y="-532.4" font-family="Roboto,BlinkMacSystemFont,Helvetica,Arial,sans-serif" font-size="12.00" fill="#4651b4">compliance</text>
</a>
</g>
</g>
<!-- Controls&#45;&gt;continuous -->
<g id="edge12" class="edge">
<title>Controls&#45;&gt;continuous</title>
<path fill="none" stroke="black" d="M391.13,-638.24C375.77,-617.08 355.09,-588.59 340.36,-568.29"/>
<polygon fill="black" stroke="black" points="343.15,-566.18 334.44,-560.14 337.48,-570.29 343.15,-566.18"/>
</g>
<!-- vulnerability -->
<g id="node15" class="node">
<title>vulnerability</title>
<path fill="none" stroke="black" d="M436,-560C436,-560 388,-560 388,-560 382,-560 376,-554 376,-548 376,-548 376,-536 376,-536 376,-530 382,-524 388,-524 388,-524 436,-524 436,-524 442,-524 448,-530 448,-536 448,-536 448,-548 448,-548 448,-554 442,-560 436,-560"/>
<text text-anchor="middle" x="412" y="-545.4" font-family="Roboto,BlinkMacSystemFont,Helvetica,Arial,sans-serif" font-size="12.00">Vulnerability</text>
<text text-anchor="middle" x="412" y="-532.4" font-family="Roboto,BlinkMacSystemFont,Helvetica,Arial,sans-serif" font-size="12.00">management</text>
</g>
<!-- Controls&#45;&gt;vulnerability -->
<g id="edge13" class="edge">
<title>Controls&#45;&gt;vulnerability</title>
<path fill="none" stroke="black" d="M412,-631.8C412,-612.26 412,-588.32 412,-570.22"/>
<polygon fill="black" stroke="black" points="415.5,-570.06 412,-560.06 408.5,-570.06 415.5,-570.06"/>
</g>
<!-- intrusion -->
<g id="node16" class="node">
<title>intrusion</title>
<g id="a_node16"><a xlink:href="/ciso-guide/intrusion-detection/" xlink:title="Intrusion\ndetection" target="_top">
<path fill="none" stroke="black" d="M526,-560C526,-560 478,-560 478,-560 472,-560 466,-554 466,-548 466,-548 466,-536 466,-536 466,-530 472,-524 478,-524 478,-524 526,-524 526,-524 532,-524 538,-530 538,-536 538,-536 538,-548 538,-548 538,-554 532,-560 526,-560"/>
<text text-anchor="middle" x="502" y="-545.8" font-family="Roboto,BlinkMacSystemFont,Helvetica,Arial,sans-serif" font-size="14.00" fill="#4651b4">Intrusion</text>
<text text-anchor="middle" x="502" y="-530.8" font-family="Roboto,BlinkMacSystemFont,Helvetica,Arial,sans-serif" font-size="14.00" fill="#4651b4">detection</text>
</a>
</g>
</g>
<!-- Controls&#45;&gt;intrusion -->
<g id="edge14" class="edge">
<title>Controls&#45;&gt;intrusion</title>
<path fill="none" stroke="black" d="M432.87,-638.24C448.23,-617.08 468.91,-588.59 483.64,-568.29"/>
<polygon fill="black" stroke="black" points="486.52,-570.29 489.56,-560.14 480.85,-566.18 486.52,-570.29"/>
</g>
<!-- network -->
<g id="node17" class="node">
<title>network</title>
<g id="a_node17"><a xlink:href="/ciso-guide/network-security/" xlink:title="Network\nsecurity" target="_top">
<path fill="none" stroke="black" d="M616,-560C616,-560 568,-560 568,-560 562,-560 556,-554 556,-548 556,-548 556,-536 556,-536 556,-530 562,-524 568,-524 568,-524 616,-524 616,-524 622,-524 628,-530 628,-536 628,-536 628,-548 628,-548 628,-554 622,-560 616,-560"/>
<text text-anchor="middle" x="592" y="-545.8" font-family="Roboto,BlinkMacSystemFont,Helvetica,Arial,sans-serif" font-size="14.00" fill="#4651b4">Network</text>
<text text-anchor="middle" x="592" y="-530.8" font-family="Roboto,BlinkMacSystemFont,Helvetica,Arial,sans-serif" font-size="14.00" fill="#4651b4">security</text>
</a>
</g>
</g>
<!-- Controls&#45;&gt;network -->
<g id="edge15" class="edge">
<title>Controls&#45;&gt;network</title>
<path fill="none" stroke="black" d="M441.32,-646.8C473.42,-624.69 524.79,-589.3 558.47,-566.1"/>
<polygon fill="black" stroke="black" points="560.8,-568.75 567.04,-560.19 556.82,-562.98 560.8,-568.75"/>
</g>
<!-- crypto -->
<g id="node18" class="node">
<title>crypto</title>
<g id="a_node18"><a xlink:href="/ciso-guide/cryptography/" xlink:title="Use of\ncryptography" target="_top">
<path fill="none" stroke="black" d="M706,-560C706,-560 658,-560 658,-560 652,-560 646,-554 646,-548 646,-548 646,-536 646,-536 646,-530 652,-524 658,-524 658,-524 706,-524 706,-524 712,-524 718,-530 718,-536 718,-536 718,-548 718,-548 718,-554 712,-560 706,-560"/>
<text text-anchor="middle" x="682" y="-545.4" font-family="Roboto,BlinkMacSystemFont,Helvetica,Arial,sans-serif" font-size="12.00" fill="#4651b4">Use of</text>
<text text-anchor="middle" x="682" y="-532.4" font-family="Roboto,BlinkMacSystemFont,Helvetica,Arial,sans-serif" font-size="12.00" fill="#4651b4">cryptography</text>
</a>
</g>
</g>
<!-- Controls&#45;&gt;crypto -->
<g id="edge16" class="edge">
<title>Controls&#45;&gt;crypto</title>
<path fill="none" stroke="black" d="M444.57,-652.04C492.47,-630.05 582.1,-588.88 636.48,-563.91"/>
<polygon fill="black" stroke="black" points="638.25,-566.94 645.88,-559.59 635.33,-560.58 638.25,-566.94"/>
</g>
<!-- capacity -->
<g id="node19" class="node">
<title>capacity</title>
<path fill="none" stroke="black" d="M796,-560C796,-560 748,-560 748,-560 742,-560 736,-554 736,-548 736,-548 736,-536 736,-536 736,-530 742,-524 748,-524 748,-524 796,-524 796,-524 802,-524 808,-530 808,-536 808,-536 808,-548 808,-548 808,-554 802,-560 796,-560"/>
<text text-anchor="middle" x="772" y="-545.2" font-family="Roboto,BlinkMacSystemFont,Helvetica,Arial,sans-serif" font-size="11.00">Capacity</text>
<text text-anchor="middle" x="772" y="-533.2" font-family="Roboto,BlinkMacSystemFont,Helvetica,Arial,sans-serif" font-size="11.00">management</text>
</g>
<!-- Controls&#45;&gt;capacity -->
<g id="edge17" class="edge">
<title>Controls&#45;&gt;capacity</title>
<path fill="none" stroke="black" d="M446.16,-655.82C502.42,-637.31 618.29,-598.8 725.96,-560.32"/>
<polygon fill="black" stroke="black" points="727.46,-563.5 735.69,-556.84 725.09,-556.91 727.46,-563.5"/>
</g>
<!-- supplier -->
<g id="node20" class="node">
<title>supplier</title>
<path fill="none" stroke="black" d="M886,-560C886,-560 838,-560 838,-560 832,-560 826,-554 826,-548 826,-548 826,-536 826,-536 826,-530 832,-524 838,-524 838,-524 886,-524 886,-524 892,-524 898,-530 898,-536 898,-536 898,-548 898,-548 898,-554 892,-560 886,-560"/>
<text text-anchor="middle" x="862" y="-545.4" font-family="Roboto,BlinkMacSystemFont,Helvetica,Arial,sans-serif" font-size="12.00">Supplier</text>
<text text-anchor="middle" x="862" y="-532.4" font-family="Roboto,BlinkMacSystemFont,Helvetica,Arial,sans-serif" font-size="12.00">management</text>
</g>
<!-- Controls&#45;&gt;supplier -->
<g id="edge18" class="edge">
<title>Controls&#45;&gt;supplier</title>
<path fill="none" stroke="black" d="M447.02,-659.03C516.06,-643.05 674.6,-604.99 816.04,-560.16"/>
<polygon fill="black" stroke="black" points="817.3,-563.43 825.76,-557.06 815.17,-556.76 817.3,-563.43"/>
</g>
<!-- dex -->
<g id="node22" class="node">
<title>dex</title>
<g id="a_node22"><a xlink:href="https://dexidp.io/" xlink:title="Dex" target="_blank">
<image xlink:href="logos/project-icons/dex.svg" width="72px" height="71.301px" preserveAspectRatio="xMinYMin meet" x="16" y="-452"/>
<text text-anchor="middle" x="52" y="-356.2" font-family="Roboto,BlinkMacSystemFont,Helvetica,Arial,sans-serif" font-size="16.00">Dex</text>
</a>
</g>
</g>
<!-- access&#45;&gt;dex -->
<g id="edge19" class="edge">
<title>access&#45;&gt;dex</title>
<path fill="none" stroke="black" d="M47.36,-523.74C45.72,-508.27 45.04,-484.64 45.31,-462.34"/>
<polygon fill="black" stroke="black" points="48.81,-462.29 45.49,-452.23 41.81,-462.16 48.81,-462.29"/>
</g>
<!-- access&#45;&gt;dex -->
<!-- elasticsearch -->
<g id="node24" class="node">
<title>elasticsearch</title>
<g id="a_node24"><a xlink:href="https://opendistro.github.io/for-elasticsearch/" xlink:title="Elasticsearch" target="_blank">
<image xlink:href="logos/project-icons/opendistro.svg" width="72px" height="71.7131px" preserveAspectRatio="xMinYMin meet" x="106" y="-452"/>
<text text-anchor="middle" x="142" y="-354.8" font-family="Roboto,BlinkMacSystemFont,Helvetica,Arial,sans-serif" font-size="14.00">Elasticsearch</text>
</a>
</g>
</g>
<!-- logging&#45;&gt;elasticsearch -->
<g id="edge21" class="edge">
<title>logging&#45;&gt;elasticsearch</title>
<path fill="none" stroke="black" d="M142,-523.74C142,-508.27 142,-484.64 142,-462.34"/>
<polygon fill="black" stroke="black" points="145.5,-462.22 142,-452.23 138.5,-462.23 145.5,-462.22"/>
</g>
<!-- velero -->
<g id="node23" class="node">
<title>velero</title>
<g id="a_node23"><a xlink:href="https://velero.io" xlink:title="Velero" target="_blank">
<image xlink:href="logos/project-icons/velero.svg" width="72px" height="72px" preserveAspectRatio="xMinYMin meet" x="196" y="-452"/>
<text text-anchor="middle" x="232" y="-356.2" font-family="Roboto,BlinkMacSystemFont,Helvetica,Arial,sans-serif" font-size="16.00">Velero</text>
</a>
</g>
</g>
<!-- backups&#45;&gt;velero -->
<g id="edge20" class="edge">
<title>backups&#45;&gt;velero</title>
<path fill="none" stroke="black" d="M232,-523.74C232,-508.27 232,-484.64 232,-462.34"/>
<polygon fill="black" stroke="black" points="235.5,-462.22 232,-452.23 228.5,-462.23 235.5,-462.22"/>
</g>
<!-- opa -->
<g id="node25" class="node">
<title>opa</title>
<g id="a_node25"><a xlink:href="https://open-policy-agent.github.io/gatekeeper/website/docs/" xlink:title="OPA" target="_blank">
<image xlink:href="logos/project-icons/opa.svg" width="72px" height="83.5041px" preserveAspectRatio="xMinYMin meet" x="286" y="-452"/>
<text text-anchor="middle" x="322" y="-356.2" font-family="Roboto,BlinkMacSystemFont,Helvetica,Arial,sans-serif" font-size="16.00">OPA</text>
</a>
</g>
</g>
<!-- continuous&#45;&gt;opa -->
<g id="edge22" class="edge">
<title>continuous&#45;&gt;opa</title>
<path fill="none" stroke="black" d="M322,-523.74C322,-508.27 322,-484.64 322,-462.34"/>
<polygon fill="black" stroke="black" points="325.5,-462.22 322,-452.23 318.5,-462.23 325.5,-462.22"/>
</g>
<!-- trivy -->
<g id="node26" class="node">
<title>trivy</title>
<g id="a_node26"><a xlink:href="https://github.com/aquasecurity/trivy" xlink:title="Trivy" target="_blank">
<image xlink:href="logos/project-icons/trivy.svg" width="72px" height="83.4545px" preserveAspectRatio="xMinYMin meet" x="376" y="-452"/>
<text text-anchor="middle" x="412" y="-356.2" font-family="Roboto,BlinkMacSystemFont,Helvetica,Arial,sans-serif" font-size="16.00">Trivy</text>
</a>
</g>
</g>
<!-- vulnerability&#45;&gt;trivy -->
<g id="edge23" class="edge">
<title>vulnerability&#45;&gt;trivy</title>
<path fill="none" stroke="black" d="M412,-523.74C412,-508.27 412,-484.64 412,-462.34"/>
<polygon fill="black" stroke="black" points="415.5,-462.22 412,-452.23 408.5,-462.23 415.5,-462.22"/>
</g>
<!-- falco -->
<g id="node27" class="node">
<title>falco</title>
<g id="a_node27"><a xlink:href="https://falco.org/" xlink:title="Falco" target="_blank">
<image xlink:href="logos/project-icons/falco.svg" width="72px" height="81.8507px" preserveAspectRatio="xMinYMin meet" x="466" y="-452"/>
<text text-anchor="middle" x="502" y="-356.2" font-family="Roboto,BlinkMacSystemFont,Helvetica,Arial,sans-serif" font-size="16.00">Falco</text>
</a>
</g>
</g>
<!-- intrusion&#45;&gt;falco -->
<g id="edge24" class="edge">
<title>intrusion&#45;&gt;falco</title>
<path fill="none" stroke="black" d="M502,-523.74C502,-508.27 502,-484.64 502,-462.34"/>
<polygon fill="black" stroke="black" points="505.5,-462.22 502,-452.23 498.5,-462.23 505.5,-462.22"/>
</g>
<!-- calico -->
<g id="node28" class="node">
<title>calico</title>
<g id="a_node28"><a xlink:href="https://www.projectcalico.org/" xlink:title="Calico" target="_blank">
<image xlink:href="logos/project-icons/calico.svg" width="72px" height="69.6667px" preserveAspectRatio="xMinYMin meet" x="556" y="-452"/>
<text text-anchor="middle" x="592" y="-356.2" font-family="Roboto,BlinkMacSystemFont,Helvetica,Arial,sans-serif" font-size="16.00">Calico</text>
</a>
</g>
</g>
<!-- network&#45;&gt;calico -->
<g id="edge25" class="edge">
<title>network&#45;&gt;calico</title>
<path fill="none" stroke="black" d="M592,-523.74C592,-508.27 592,-484.64 592,-462.34"/>
<polygon fill="black" stroke="black" points="595.5,-462.22 592,-452.23 588.5,-462.23 595.5,-462.22"/>
</g>
<!-- certmanager -->
<g id="node29" class="node">
<title>certmanager</title>
<g id="a_node29"><a xlink:href="https://cert-manager.io/" xlink:title="Cert Manager" target="_blank">
<image xlink:href="logos/project-icons/cert-manager.svg" width="72px" height="69.5303px" preserveAspectRatio="xMinYMin meet" x="646" y="-452"/>
<text text-anchor="middle" x="682" y="-354.8" font-family="Roboto,BlinkMacSystemFont,Helvetica,Arial,sans-serif" font-size="14.00">Cert Manager</text>
</a>
</g>
</g>
<!-- crypto&#45;&gt;certmanager -->
<g id="edge26" class="edge">
<title>crypto&#45;&gt;certmanager</title>
<path fill="none" stroke="black" d="M682,-523.74C682,-508.27 682,-484.64 682,-462.34"/>
<polygon fill="black" stroke="black" points="685.5,-462.22 682,-452.23 678.5,-462.23 685.5,-462.22"/>
</g>
<!-- kubernetes -->
<g id="node30" class="node">
<title>kubernetes</title>
<g id="a_node30"><a xlink:href="https://kubernetes.io/" xlink:title="Kubernetes" target="_blank">
<image xlink:href="logos/project-icons/kubernetes.svg" width="72px" height="69.8182px" preserveAspectRatio="xMinYMin meet" x="736" y="-452"/>
<text text-anchor="middle" x="772" y="-354.8" font-family="Roboto,BlinkMacSystemFont,Helvetica,Arial,sans-serif" font-size="14.00">Kubernetes</text>
</a>
</g>
</g>
<!-- capacity&#45;&gt;kubernetes -->
<g id="edge27" class="edge">
<title>capacity&#45;&gt;kubernetes</title>
<path fill="none" stroke="black" d="M772,-523.74C772,-508.27 772,-484.64 772,-462.34"/>
<polygon fill="black" stroke="black" points="775.5,-462.22 772,-452.23 768.5,-462.23 775.5,-462.22"/>
</g>
<!-- byom -->
<g id="node49" class="node">
<title>byom</title>
<polygon fill="none" stroke="black" points="898,-106 826,-106 826,-16 898,-16 898,-106"/>
<text text-anchor="middle" x="862" y="-57.2" font-family="Roboto,BlinkMacSystemFont,Helvetica,Arial,sans-serif" font-size="16.00">Bring</text>
<text text-anchor="middle" x="862" y="-39.2" font-family="Roboto,BlinkMacSystemFont,Helvetica,Arial,sans-serif" font-size="16.00">Your Own</text>
<text text-anchor="middle" x="862" y="-21.2" font-family="Roboto,BlinkMacSystemFont,Helvetica,Arial,sans-serif" font-size="16.00">Metal</text>
</g>
<!-- supplier&#45;&gt;byom -->
<g id="edge46" class="edge">
<title>supplier&#45;&gt;byom</title>
<path fill="none" stroke="black" d="M862,-523.95C862,-458.79 862,-223.77 862,-116.3"/>
<polygon fill="black" stroke="black" points="865.5,-116 862,-106 858.5,-116 865.5,-116"/>
</g>
<!-- controls2&#45;&gt;access -->
<!-- prometheus -->
<g id="node31" class="node">
<title>prometheus</title>
<g id="a_node31"><a xlink:href="https://prometheus.io/" xlink:title="Prometheus" target="_blank">
<image xlink:href="logos/project-icons/prometheus.svg" width="72px" height="70.6479px" preserveAspectRatio="xMinYMin meet" x="16" y="-279"/>
<text text-anchor="middle" x="52" y="-181.4" font-family="Roboto,BlinkMacSystemFont,Helvetica,Arial,sans-serif" font-size="12.00">Prometheus</text>
</a>
</g>
</g>
<!-- dex&#45;&gt;prometheus -->
<g id="edge28" class="edge">
<title>dex&#45;&gt;prometheus</title>
<path fill="none" stroke="black" d="M45.8,-350.58C45.56,-343.14 45.39,-335.25 45.31,-327.22"/>
<polygon fill="black" stroke="black" points="48.81,-326.98 45.25,-317 41.81,-327.02 48.81,-326.98"/>
</g>
<!-- dex&#45;&gt;prometheus -->
<!-- auditNA1 -->
<g id="node33" class="node">
<title>auditNA1</title>
</g>
<!-- velero&#45;&gt;auditNA1 -->
<g id="edge30" class="edge">
<title>velero&#45;&gt;auditNA1</title>
<path fill="none" stroke="black" d="M232,-350.58C232,-343.14 232,-335.25 232,-327.22"/>
<polygon fill="black" stroke="black" points="235.5,-327 232,-317 228.5,-327 235.5,-327"/>
</g>
<!-- grafana -->
<g id="node32" class="node">
<title>grafana</title>
<g id="a_node32"><a xlink:href="https://github.com/grafana/grafana" xlink:title="Grafana" target="_blank">
<image xlink:href="logos/project-icons/grafana.svg" width="72px" height="75.0114px" preserveAspectRatio="xMinYMin meet" x="106" y="-279"/>
<text text-anchor="middle" x="142" y="-183.2" font-family="Roboto,BlinkMacSystemFont,Helvetica,Arial,sans-serif" font-size="16.00">Grafana</text>
</a>
</g>
</g>
<!-- elasticsearch&#45;&gt;grafana -->
<g id="edge29" class="edge">
<title>elasticsearch&#45;&gt;grafana</title>
<path fill="none" stroke="black" d="M142,-350.58C142,-343.14 142,-335.25 142,-327.22"/>
<polygon fill="black" stroke="black" points="145.5,-327 142,-317 138.5,-327 145.5,-327"/>
</g>
<!-- auditNA2 -->
<g id="node34" class="node">
<title>auditNA2</title>
</g>
<!-- opa&#45;&gt;auditNA2 -->
<g id="edge31" class="edge">
<title>opa&#45;&gt;auditNA2</title>
<path fill="none" stroke="black" d="M322,-350.58C322,-343.14 322,-335.25 322,-327.22"/>
<polygon fill="black" stroke="black" points="325.5,-327 322,-317 318.5,-327 325.5,-327"/>
</g>
<!-- auditNA3 -->
<g id="node35" class="node">
<title>auditNA3</title>
</g>
<!-- trivy&#45;&gt;auditNA3 -->
<g id="edge32" class="edge">
<title>trivy&#45;&gt;auditNA3</title>
<path fill="none" stroke="black" d="M412,-350.58C412,-343.14 412,-335.25 412,-327.22"/>
<polygon fill="black" stroke="black" points="415.5,-327 412,-317 408.5,-327 415.5,-327"/>
</g>
<!-- auditNA4 -->
<g id="node36" class="node">
<title>auditNA4</title>
</g>
<!-- falco&#45;&gt;auditNA4 -->
<g id="edge33" class="edge">
<title>falco&#45;&gt;auditNA4</title>
<path fill="none" stroke="black" d="M502,-350.58C502,-343.14 502,-335.25 502,-327.22"/>
<polygon fill="black" stroke="black" points="505.5,-327 502,-317 498.5,-327 505.5,-327"/>
</g>
<!-- auditNA5 -->
<g id="node37" class="node">
<title>auditNA5</title>
</g>
<!-- calico&#45;&gt;auditNA5 -->
<g id="edge34" class="edge">
<title>calico&#45;&gt;auditNA5</title>
<path fill="none" stroke="black" d="M592,-350.58C592,-343.14 592,-335.25 592,-327.22"/>
<polygon fill="black" stroke="black" points="595.5,-327 592,-317 588.5,-327 595.5,-327"/>
</g>
<!-- auditNA6 -->
<g id="node38" class="node">
<title>auditNA6</title>
</g>
<!-- certmanager&#45;&gt;auditNA6 -->
<g id="edge35" class="edge">
<title>certmanager&#45;&gt;auditNA6</title>
<path fill="none" stroke="black" d="M682,-350.58C682,-343.14 682,-335.25 682,-327.22"/>
<polygon fill="black" stroke="black" points="685.5,-327 682,-317 678.5,-327 685.5,-327"/>
</g>
<!-- auditNA7 -->
<g id="node39" class="node">
<title>auditNA7</title>
</g>
<!-- kubernetes&#45;&gt;auditNA7 -->
<g id="edge36" class="edge">
<title>kubernetes&#45;&gt;auditNA7</title>
<path fill="none" stroke="black" d="M772,-350.58C772,-343.14 772,-335.25 772,-327.22"/>
<polygon fill="black" stroke="black" points="775.5,-327 772,-317 768.5,-327 775.5,-327"/>
</g>
<!-- aws -->
<g id="node40" class="node">
<title>aws</title>
<g id="a_node40"><a xlink:href="/operator-manual/aws/" xlink:title="AWS" target="_top">
<image xlink:href="logos/cloud-providers/aws.svg" width="72px" height="43.2px" preserveAspectRatio="xMinYMin meet" x="16" y="-106"/>
<text text-anchor="middle" x="52" y="-21.2" font-family="Roboto,BlinkMacSystemFont,Helvetica,Arial,sans-serif" font-size="16.00" fill="#4651b4">AWS</text>
</a>
</g>
</g>
<!-- prometheus&#45;&gt;aws -->
<!-- azure -->
<g id="node41" class="node">
<title>azure</title>
<g id="a_node41"><a xlink:href="/operator-manual/azure/" xlink:title="Azure" target="_top">
<image xlink:href="logos/cloud-providers/azure.svg" width="72px" height="55.2857px" preserveAspectRatio="xMinYMin meet" x="106" y="-106"/>
<text text-anchor="middle" x="142" y="-21.2" font-family="Roboto,BlinkMacSystemFont,Helvetica,Arial,sans-serif" font-size="16.00" fill="#4651b4">Azure</text>
</a>
</g>
</g>
<!-- aws&#45;&gt;azure -->
<!-- citycloud -->
<g id="node42" class="node">
<title>citycloud</title>
<image xlink:href="logos/cloud-providers/citycloud.png" width="72px" height="57.7834px" preserveAspectRatio="xMinYMin meet" x="196" y="-106"/>
<text text-anchor="middle" x="232" y="-21.2" font-family="Roboto,BlinkMacSystemFont,Helvetica,Arial,sans-serif" font-size="16.00">CityCloud</text>
</g>
<!-- azure&#45;&gt;citycloud -->
<!-- exoscale -->
<g id="node43" class="node">
<title>exoscale</title>
<g id="a_node43"><a xlink:href="/operator-manual/exoscale/" xlink:title="Exoscale" target="_top">
<image xlink:href="logos/cloud-providers/exoscale.svg" width="72px" height="62.4906px" preserveAspectRatio="xMinYMin meet" x="286" y="-106"/>
<text text-anchor="middle" x="322" y="-21.2" font-family="Roboto,BlinkMacSystemFont,Helvetica,Arial,sans-serif" font-size="16.00" fill="#4651b4">Exoscale</text>
</a>
</g>
</g>
<!-- citycloud&#45;&gt;exoscale -->
<!-- gcp -->
<g id="node44" class="node">
<title>gcp</title>
<g id="a_node44"><a xlink:href="/operator-manual/gcp/" xlink:title="GCP" target="_top">
<image xlink:href="logos/cloud-providers/gcp.svg" width="72px" height="58.1053px" preserveAspectRatio="xMinYMin meet" x="376" y="-106"/>
<text text-anchor="middle" x="412" y="-21.2" font-family="Roboto,BlinkMacSystemFont,Helvetica,Arial,sans-serif" font-size="16.00" fill="#4651b4">GCP</text>
</a>
</g>
</g>
<!-- exoscale&#45;&gt;gcp -->
<!-- openstack -->
<g id="node47" class="node">
<title>openstack</title>
<image xlink:href="logos/cloud-providers/openstack.svg" width="72px" height="70.4432px" preserveAspectRatio="xMinYMin meet" x="466" y="-106"/>
<text text-anchor="middle" x="502" y="-21.2" font-family="Roboto,BlinkMacSystemFont,Helvetica,Arial,sans-serif" font-size="16.00">OpenStack</text>
</g>
<!-- gcp&#45;&gt;openstack -->
<!-- ovh -->
<g id="node45" class="node">
<title>ovh</title>
<image xlink:href="logos/cloud-providers/ovh.svg" width="72px" height="42.7826px" preserveAspectRatio="xMinYMin meet" x="556" y="-106"/>
<text text-anchor="middle" x="592" y="-21.2" font-family="Roboto,BlinkMacSystemFont,Helvetica,Arial,sans-serif" font-size="16.00">OVHcloud</text>
</g>
<!-- safespring -->
<g id="node46" class="node">
<title>safespring</title>
<image xlink:href="logos/cloud-providers/safespring.svg" width="72px" height="55.218px" preserveAspectRatio="xMinYMin meet" x="646" y="-106"/>
<text text-anchor="middle" x="682" y="-21.2" font-family="Roboto,BlinkMacSystemFont,Helvetica,Arial,sans-serif" font-size="16.00">SafeSpring</text>
</g>
<!-- ovh&#45;&gt;safespring -->
<!-- byovm -->
<g id="node48" class="node">
<title>byovm</title>
<polygon fill="none" stroke="black" points="808,-106 736,-106 736,-16 808,-16 808,-106"/>
<text text-anchor="middle" x="772" y="-57.2" font-family="Roboto,BlinkMacSystemFont,Helvetica,Arial,sans-serif" font-size="16.00">Bring</text>
<text text-anchor="middle" x="772" y="-39.2" font-family="Roboto,BlinkMacSystemFont,Helvetica,Arial,sans-serif" font-size="16.00">Your Own</text>
<text text-anchor="middle" x="772" y="-21.2" font-family="Roboto,BlinkMacSystemFont,Helvetica,Arial,sans-serif" font-size="16.00">VMs</text>
</g>
<!-- safespring&#45;&gt;byovm -->
<!-- openstack&#45;&gt;ovh -->
<!-- byovm&#45;&gt;byom -->
</g>
</svg>
