<?xml version="1.0" encoding="UTF-8" standalone="no"?>
<!DOCTYPE svg PUBLIC "-//W3C//DTD SVG 1.1//EN"
 "http://www.w3.org/Graphics/SVG/1.1/DTD/svg11.dtd">
<!-- Generated by graphviz version 2.43.0 (0)
 -->
<!-- Title: compliance_basics Pages: 1 -->
<svg width="832pt" height="818pt"
 viewBox="0.00 0.00 832.00 818.00" xmlns="http://www.w3.org/2000/svg" xmlns:xlink="http://www.w3.org/1999/xlink">
<g id="graph0" class="graph" transform="scale(1 1) rotate(0) translate(4 814)">
<title>compliance_basics</title>
<polygon fill="white" stroke="transparent" points="-4,4 -4,-814 828,-814 828,4 -4,4"/>
<g id="clust1" class="cluster">
<title>cluster_header</title>
</g>
<g id="clust2" class="cluster">
<title>cluster_regulations</title>
<polygon fill="none" stroke="black" points="8,-660 8,-742 456,-742 456,-660 8,-660"/>
<text text-anchor="middle" x="69" y="-722" font-family="Roboto,BlinkMacSystemFont,Helvetica,Arial,sans-serif" font-size="20.00">Regulations</text>
</g>
<g id="clust3" class="cluster">
<title>cluster_isms</title>
<polygon fill="none" stroke="black" points="464,-660 464,-742 759,-742 759,-660 464,-660"/>
<text text-anchor="middle" x="611.5" y="-722" font-family="Roboto,BlinkMacSystemFont,Helvetica,Arial,sans-serif" font-size="20.00">Information Security Standards</text>
</g>
<g id="clust4" class="cluster">
<title>cluster_policies</title>
<polygon fill="none" stroke="black" points="8,-462 8,-652 816,-652 816,-462 8,-462"/>
<text text-anchor="middle" x="51" y="-632" font-family="Roboto,BlinkMacSystemFont,Helvetica,Arial,sans-serif" font-size="20.00">Policies</text>
</g>
<g id="clust8" class="cluster">
<title>cluster_implementation</title>
<polygon fill="none" stroke="black" points="8,-307 8,-454 726,-454 726,-307 8,-307"/>
<text text-anchor="middle" x="115" y="-434" font-family="Roboto,BlinkMacSystemFont,Helvetica,Arial,sans-serif" font-size="20.00">Compliant Kubernetes</text>
</g>
<g id="clust17" class="cluster">
<title>cluster_audit</title>
<polygon fill="none" stroke="black" points="8,-152 8,-299 726,-299 726,-152 8,-152"/>
<text text-anchor="middle" x="166.5" y="-279" font-family="Roboto,BlinkMacSystemFont,Helvetica,Arial,sans-serif" font-size="20.00">Compliant Kubernetes Dashboard</text>
</g>
<g id="clust18" class="cluster">
<title>cluster_provider</title>
<polygon fill="none" stroke="black" points="8,-8 8,-144 816,-144 816,-8 8,-8"/>
<text text-anchor="middle" x="129" y="-124" font-family="Roboto,BlinkMacSystemFont,Helvetica,Arial,sans-serif" font-size="20.00">Compliant Cloud Provider</text>
</g>
<!-- title -->
<g id="node1" class="node">
<title>title</title>
<g id="a_node1"><a xlink:href="https://compliantkubernetes.io" xlink:title="compliantkubernetes.io" target="_top">
<text text-anchor="middle" x="412" y="-772.3" font-family="Roboto,BlinkMacSystemFont,Helvetica,Arial,sans-serif" font-size="14.00" fill="#4651b4">compliantkubernetes.io</text>
</a>
</g>
</g>
<!-- HIPAA -->
<g id="node2" class="node">
<title>HIPAA</title>
<g id="a_node2"><a xlink:href="https://www.cdc.gov/phlp/publications/topic/hipaa.html" xlink:title="HIPAA" target="_blank">
<path fill="none" stroke="black" d="M436,-704C436,-704 388,-704 388,-704 382,-704 376,-698 376,-692 376,-692 376,-680 376,-680 376,-674 382,-668 388,-668 388,-668 436,-668 436,-668 442,-668 448,-674 448,-680 448,-680 448,-692 448,-692 448,-698 442,-704 436,-704"/>
<text text-anchor="middle" x="412" y="-682.3" font-family="Roboto,BlinkMacSystemFont,Helvetica,Arial,sans-serif" font-size="14.00">HIPAA</text>
</a>
</g>
</g>
<!-- title&#45;&gt;HIPAA -->
<!-- Controls -->
<g id="node10" class="node">
<title>Controls</title>
<ellipse fill="none" stroke="black" cx="412" cy="-578" rx="36" ry="36"/>
<text text-anchor="middle" x="412" y="-574.3" font-family="Roboto,BlinkMacSystemFont,Helvetica,Arial,sans-serif" font-size="14.00">Controls</text>
</g>
<!-- HIPAA&#45;&gt;Controls -->
<g id="edge1" class="edge">
<title>HIPAA&#45;&gt;Controls</title>
<path fill="none" stroke="black" d="M412,-667.97C412,-656.27 412,-640.15 412,-624.84"/>
<polygon fill="black" stroke="black" points="415.5,-624.43 412,-614.43 408.5,-624.43 415.5,-624.43"/>
</g>
<!-- PDL -->
<g id="node3" class="node">
<title>PDL</title>
<g id="a_node3"><a xlink:href="https://www.riksdagen.se/sv/dokument-lagar/dokument/svensk-forfattningssamling/patientdatalag-2008355_sfs-2008-355" xlink:title="PDL" target="_blank">
<path fill="none" stroke="black" d="M346,-704C346,-704 298,-704 298,-704 292,-704 286,-698 286,-692 286,-692 286,-680 286,-680 286,-674 292,-668 298,-668 298,-668 346,-668 346,-668 352,-668 358,-674 358,-680 358,-680 358,-692 358,-692 358,-698 352,-704 346,-704"/>
<text text-anchor="middle" x="322" y="-682.3" font-family="Roboto,BlinkMacSystemFont,Helvetica,Arial,sans-serif" font-size="14.00">PDL</text>
</a>
</g>
</g>
<!-- PDL&#45;&gt;Controls -->
<g id="edge2" class="edge">
<title>PDL&#45;&gt;Controls</title>
<path fill="none" stroke="black" d="M336.46,-667.97C348.78,-653.45 366.89,-632.13 382.29,-613.99"/>
<polygon fill="black" stroke="black" points="385.34,-615.81 389.15,-605.92 380.01,-611.28 385.34,-615.81"/>
</g>
<!-- GDPR -->
<g id="node4" class="node">
<title>GDPR</title>
<g id="a_node4"><a xlink:href="https://gdpr.eu/" xlink:title="GDPR" target="_blank">
<path fill="none" stroke="black" d="M256,-704C256,-704 208,-704 208,-704 202,-704 196,-698 196,-692 196,-692 196,-680 196,-680 196,-674 202,-668 208,-668 208,-668 256,-668 256,-668 262,-668 268,-674 268,-680 268,-680 268,-692 268,-692 268,-698 262,-704 256,-704"/>
<text text-anchor="middle" x="232" y="-682.3" font-family="Roboto,BlinkMacSystemFont,Helvetica,Arial,sans-serif" font-size="14.00">GDPR</text>
</a>
</g>
</g>
<!-- GDPR&#45;&gt;Controls -->
<g id="edge3" class="edge">
<title>GDPR&#45;&gt;Controls</title>
<path fill="none" stroke="black" d="M260.92,-667.97C291.21,-650.13 338.97,-622.01 372.67,-602.16"/>
<polygon fill="black" stroke="black" points="374.5,-605.14 381.34,-597.05 370.95,-599.11 374.5,-605.14"/>
</g>
<!-- CCPA -->
<g id="node5" class="node">
<title>CCPA</title>
<g id="a_node5"><a xlink:href="https://oag.ca.gov/privacy/ccpa" xlink:title="CCPA" target="_blank">
<path fill="none" stroke="black" d="M166,-704C166,-704 118,-704 118,-704 112,-704 106,-698 106,-692 106,-692 106,-680 106,-680 106,-674 112,-668 118,-668 118,-668 166,-668 166,-668 172,-668 178,-674 178,-680 178,-680 178,-692 178,-692 178,-698 172,-704 166,-704"/>
<text text-anchor="middle" x="142" y="-682.3" font-family="Roboto,BlinkMacSystemFont,Helvetica,Arial,sans-serif" font-size="14.00">CCPA</text>
</a>
</g>
</g>
<!-- CCPA&#45;&gt;Controls -->
<g id="edge4" class="edge">
<title>CCPA&#45;&gt;Controls</title>
<path fill="none" stroke="black" d="M171.18,-667.9C176.38,-665.11 181.79,-662.37 187,-660 248.28,-632.17 322.17,-607.11 368.13,-592.46"/>
<polygon fill="black" stroke="black" points="369.3,-595.77 377.78,-589.41 367.19,-589.09 369.3,-595.77"/>
</g>
<!-- FFFS -->
<g id="node6" class="node">
<title>FFFS</title>
<g id="a_node6"><a xlink:href="https://www.fi.se/en/our-registers/search-fffs/2014/20145/" xlink:title="FFFS" target="_blank">
<path fill="none" stroke="black" d="M76,-704C76,-704 28,-704 28,-704 22,-704 16,-698 16,-692 16,-692 16,-680 16,-680 16,-674 22,-668 28,-668 28,-668 76,-668 76,-668 82,-668 88,-674 88,-680 88,-680 88,-692 88,-692 88,-698 82,-704 76,-704"/>
<text text-anchor="middle" x="52" y="-682.3" font-family="Roboto,BlinkMacSystemFont,Helvetica,Arial,sans-serif" font-size="14.00">FFFS</text>
</a>
</g>
</g>
<!-- FFFS&#45;&gt;Controls -->
<g id="edge5" class="edge">
<title>FFFS&#45;&gt;Controls</title>
<path fill="none" stroke="black" d="M80.03,-668C85.53,-665.07 91.35,-662.25 97,-660 189.66,-623.05 304.45,-598.53 366.69,-586.87"/>
<polygon fill="black" stroke="black" points="367.39,-590.3 376.59,-585.04 366.12,-583.42 367.39,-590.3"/>
</g>
<!-- controls2 -->
<!-- FFFS&#45;&gt;controls2 -->
<!-- iso27k -->
<g id="node7" class="node">
<title>iso27k</title>
<g id="a_node7"><a xlink:href="https://www.isms.online/iso-27001/" xlink:title="ISO 27001" target="_blank">
<path fill="none" stroke="black" d="M720,-704C720,-704 664,-704 664,-704 658,-704 652,-698 652,-692 652,-692 652,-680 652,-680 652,-674 658,-668 664,-668 664,-668 720,-668 720,-668 726,-668 732,-674 732,-680 732,-680 732,-692 732,-692 732,-698 726,-704 720,-704"/>
<text text-anchor="middle" x="692" y="-682.3" font-family="Roboto,BlinkMacSystemFont,Helvetica,Arial,sans-serif" font-size="14.00">ISO 27001</text>
</a>
</g>
</g>
<!-- iso27k&#45;&gt;Controls -->
<g id="edge6" class="edge">
<title>iso27k&#45;&gt;Controls</title>
<path fill="none" stroke="black" d="M660.14,-667.97C654.49,-665.17 648.62,-662.41 643,-660 579.17,-632.67 502.73,-607.23 455.77,-592.41"/>
<polygon fill="black" stroke="black" points="456.8,-589.06 446.21,-589.4 454.7,-595.74 456.8,-589.06"/>
</g>
<!-- soc2 -->
<g id="node8" class="node">
<title>soc2</title>
<g id="a_node8"><a xlink:href="https://www.aicpa.org/interestareas/frc/assuranceadvisoryservices/aicpasoc2report.html" xlink:title="SOC 2" target="_blank">
<path fill="none" stroke="black" d="M622,-704C622,-704 574,-704 574,-704 568,-704 562,-698 562,-692 562,-692 562,-680 562,-680 562,-674 568,-668 574,-668 574,-668 622,-668 622,-668 628,-668 634,-674 634,-680 634,-680 634,-692 634,-692 634,-698 628,-704 622,-704"/>
<text text-anchor="middle" x="598" y="-682.3" font-family="Roboto,BlinkMacSystemFont,Helvetica,Arial,sans-serif" font-size="14.00">SOC 2</text>
</a>
</g>
</g>
<!-- soc2&#45;&gt;Controls -->
<g id="edge7" class="edge">
<title>soc2&#45;&gt;Controls</title>
<path fill="none" stroke="black" d="M568.12,-667.97C536.63,-650.03 486.87,-621.67 452.01,-601.8"/>
<polygon fill="black" stroke="black" points="453.47,-598.61 443.05,-596.7 450.01,-604.69 453.47,-598.61"/>
</g>
<!-- pcidss -->
<g id="node9" class="node">
<title>pcidss</title>
<g id="a_node9"><a xlink:href="https://www.pcisecuritystandards.org/" xlink:title="PCI DSS" target="_blank">
<path fill="none" stroke="black" d="M532,-704C532,-704 484,-704 484,-704 478,-704 472,-698 472,-692 472,-692 472,-680 472,-680 472,-674 478,-668 484,-668 484,-668 532,-668 532,-668 538,-668 544,-674 544,-680 544,-680 544,-692 544,-692 544,-698 538,-704 532,-704"/>
<text text-anchor="middle" x="508" y="-682.3" font-family="Roboto,BlinkMacSystemFont,Helvetica,Arial,sans-serif" font-size="14.00">PCI DSS</text>
</a>
</g>
</g>
<!-- pcidss&#45;&gt;Controls -->
<g id="edge8" class="edge">
<title>pcidss&#45;&gt;Controls</title>
<path fill="none" stroke="black" d="M492.58,-667.97C479.22,-653.22 459.49,-631.44 442.9,-613.12"/>
<polygon fill="black" stroke="black" points="445.32,-610.57 436.01,-605.51 440.13,-615.27 445.32,-610.57"/>
</g>
<!-- access -->
<g id="node11" class="node">
<title>access</title>
<path fill="none" stroke="black" d="M76,-506C76,-506 28,-506 28,-506 22,-506 16,-500 16,-494 16,-494 16,-482 16,-482 16,-476 22,-470 28,-470 28,-470 76,-470 76,-470 82,-470 88,-476 88,-482 88,-482 88,-494 88,-494 88,-500 82,-506 76,-506"/>
<text text-anchor="middle" x="52" y="-491.8" font-family="Roboto,BlinkMacSystemFont,Helvetica,Arial,sans-serif" font-size="14.00">Access</text>
<text text-anchor="middle" x="52" y="-476.8" font-family="Roboto,BlinkMacSystemFont,Helvetica,Arial,sans-serif" font-size="14.00">control</text>
</g>
<!-- Controls&#45;&gt;access -->
<g id="edge9" class="edge">
<title>Controls&#45;&gt;access</title>
<path fill="none" stroke="black" d="M376.63,-570.7C319.68,-560.19 204.14,-537.4 98.1,-506.13"/>
<polygon fill="black" stroke="black" points="98.78,-502.68 88.2,-503.17 96.78,-509.38 98.78,-502.68"/>
</g>
<!-- logging -->
<g id="node12" class="node">
<title>logging</title>
<path fill="none" stroke="black" d="M166,-506C166,-506 118,-506 118,-506 112,-506 106,-500 106,-494 106,-494 106,-482 106,-482 106,-476 112,-470 118,-470 118,-470 166,-470 166,-470 172,-470 178,-476 178,-482 178,-482 178,-494 178,-494 178,-500 172,-506 166,-506"/>
<text text-anchor="middle" x="142" y="-484.3" font-family="Roboto,BlinkMacSystemFont,Helvetica,Arial,sans-serif" font-size="14.00">Logging</text>
</g>
<!-- Controls&#45;&gt;logging -->
<g id="edge10" class="edge">
<title>Controls&#45;&gt;logging</title>
<path fill="none" stroke="black" d="M377.5,-566.76C335.08,-554.03 260.7,-531.26 188.06,-506.28"/>
<polygon fill="black" stroke="black" points="188.88,-502.86 178.29,-502.91 186.59,-509.48 188.88,-502.86"/>
</g>
<!-- backups -->
<g id="node13" class="node">
<title>backups</title>
<g id="a_node13"><a xlink:href="/ciso-guide/backup/" xlink:title="Backup" target="_top">
<path fill="none" stroke="black" d="M256,-506C256,-506 208,-506 208,-506 202,-506 196,-500 196,-494 196,-494 196,-482 196,-482 196,-476 202,-470 208,-470 208,-470 256,-470 256,-470 262,-470 268,-476 268,-482 268,-482 268,-494 268,-494 268,-500 262,-506 256,-506"/>
<text text-anchor="middle" x="232" y="-484.3" font-family="Roboto,BlinkMacSystemFont,Helvetica,Arial,sans-serif" font-size="14.00" fill="#4651b4">Backup</text>
</a>
</g>
</g>
<!-- Controls&#45;&gt;backups -->
<g id="edge11" class="edge">
<title>Controls&#45;&gt;backups</title>
<path fill="none" stroke="black" d="M379.82,-561.27C350.92,-547.14 308.23,-526.27 276.14,-510.58"/>
<polygon fill="black" stroke="black" points="277.5,-507.35 266.98,-506.1 274.42,-513.64 277.5,-507.35"/>
</g>
<!-- continuous -->
<g id="node14" class="node">
<title>continuous</title>
<g id="a_node14"><a xlink:href="/ciso-guide/policy-as-code/" xlink:title="Continuous\ncompliance" target="_top">
<path fill="none" stroke="black" d="M346,-506C346,-506 298,-506 298,-506 292,-506 286,-500 286,-494 286,-494 286,-482 286,-482 286,-476 292,-470 298,-470 298,-470 346,-470 346,-470 352,-470 358,-476 358,-482 358,-482 358,-494 358,-494 358,-500 352,-506 346,-506"/>
<text text-anchor="middle" x="322" y="-491.4" font-family="Roboto,BlinkMacSystemFont,Helvetica,Arial,sans-serif" font-size="12.00" fill="#4651b4">Continuous</text>
<text text-anchor="middle" x="322" y="-478.4" font-family="Roboto,BlinkMacSystemFont,Helvetica,Arial,sans-serif" font-size="12.00" fill="#4651b4">compliance</text>
</a>
</g>
</g>
<!-- Controls&#45;&gt;continuous -->
<g id="edge12" class="edge">
<title>Controls&#45;&gt;continuous</title>
<path fill="none" stroke="black" d="M386.45,-552.02C374.06,-539.9 359.22,-525.4 346.91,-513.36"/>
<polygon fill="black" stroke="black" points="349.22,-510.72 339.62,-506.23 344.32,-515.72 349.22,-510.72"/>
</g>
<!-- vulnerability -->
<g id="node15" class="node">
<title>vulnerability</title>
<path fill="none" stroke="black" d="M436,-506C436,-506 388,-506 388,-506 382,-506 376,-500 376,-494 376,-494 376,-482 376,-482 376,-476 382,-470 388,-470 388,-470 436,-470 436,-470 442,-470 448,-476 448,-482 448,-482 448,-494 448,-494 448,-500 442,-506 436,-506"/>
<text text-anchor="middle" x="412" y="-491.4" font-family="Roboto,BlinkMacSystemFont,Helvetica,Arial,sans-serif" font-size="12.00">Vulnerability</text>
<text text-anchor="middle" x="412" y="-478.4" font-family="Roboto,BlinkMacSystemFont,Helvetica,Arial,sans-serif" font-size="12.00">management</text>
</g>
<!-- Controls&#45;&gt;vulnerability -->
<g id="edge13" class="edge">
<title>Controls&#45;&gt;vulnerability</title>
<path fill="none" stroke="black" d="M412,-541.97C412,-533.44 412,-524.43 412,-516.32"/>
<polygon fill="black" stroke="black" points="415.5,-516.28 412,-506.28 408.5,-516.28 415.5,-516.28"/>
</g>
<!-- intrusion -->
<g id="node16" class="node">
<title>intrusion</title>
<g id="a_node16"><a xlink:href="/ciso-guide/intrusion-detection/" xlink:title="Intrusion\ndetection" target="_top">
<path fill="none" stroke="black" d="M526,-506C526,-506 478,-506 478,-506 472,-506 466,-500 466,-494 466,-494 466,-482 466,-482 466,-476 472,-470 478,-470 478,-470 526,-470 526,-470 532,-470 538,-476 538,-482 538,-482 538,-494 538,-494 538,-500 532,-506 526,-506"/>
<text text-anchor="middle" x="502" y="-491.8" font-family="Roboto,BlinkMacSystemFont,Helvetica,Arial,sans-serif" font-size="14.00" fill="#4651b4">Intrusion</text>
<text text-anchor="middle" x="502" y="-476.8" font-family="Roboto,BlinkMacSystemFont,Helvetica,Arial,sans-serif" font-size="14.00" fill="#4651b4">detection</text>
</a>
</g>
</g>
<!-- Controls&#45;&gt;intrusion -->
<g id="edge14" class="edge">
<title>Controls&#45;&gt;intrusion</title>
<path fill="none" stroke="black" d="M437.55,-552.02C449.94,-539.9 464.78,-525.4 477.09,-513.36"/>
<polygon fill="black" stroke="black" points="479.68,-515.72 484.38,-506.23 474.78,-510.72 479.68,-515.72"/>
</g>
<!-- network -->
<g id="node17" class="node">
<title>network</title>
<path fill="none" stroke="black" d="M616,-506C616,-506 568,-506 568,-506 562,-506 556,-500 556,-494 556,-494 556,-482 556,-482 556,-476 562,-470 568,-470 568,-470 616,-470 616,-470 622,-470 628,-476 628,-482 628,-482 628,-494 628,-494 628,-500 622,-506 616,-506"/>
<text text-anchor="middle" x="592" y="-491.8" font-family="Roboto,BlinkMacSystemFont,Helvetica,Arial,sans-serif" font-size="14.00">Network</text>
<text text-anchor="middle" x="592" y="-476.8" font-family="Roboto,BlinkMacSystemFont,Helvetica,Arial,sans-serif" font-size="14.00">security</text>
</g>
<!-- Controls&#45;&gt;network -->
<g id="edge15" class="edge">
<title>Controls&#45;&gt;network</title>
<path fill="none" stroke="black" d="M444.18,-561.27C473.08,-547.14 515.77,-526.27 547.86,-510.58"/>
<polygon fill="black" stroke="black" points="549.58,-513.64 557.02,-506.1 546.5,-507.35 549.58,-513.64"/>
</g>
<!-- crypto -->
<g id="node18" class="node">
<title>crypto</title>
<g id="a_node18"><a xlink:href="/ciso-guide/cryptography/" xlink:title="Use of\ncryptography" target="_top">
<path fill="none" stroke="black" d="M706,-506C706,-506 658,-506 658,-506 652,-506 646,-500 646,-494 646,-494 646,-482 646,-482 646,-476 652,-470 658,-470 658,-470 706,-470 706,-470 712,-470 718,-476 718,-482 718,-482 718,-494 718,-494 718,-500 712,-506 706,-506"/>
<text text-anchor="middle" x="682" y="-491.4" font-family="Roboto,BlinkMacSystemFont,Helvetica,Arial,sans-serif" font-size="12.00" fill="#4651b4">Use of</text>
<text text-anchor="middle" x="682" y="-478.4" font-family="Roboto,BlinkMacSystemFont,Helvetica,Arial,sans-serif" font-size="12.00" fill="#4651b4">cryptography</text>
</a>
</g>
</g>
<!-- Controls&#45;&gt;crypto -->
<g id="edge16" class="edge">
<title>Controls&#45;&gt;crypto</title>
<path fill="none" stroke="black" d="M446.5,-566.76C488.92,-554.03 563.3,-531.26 635.94,-506.28"/>
<polygon fill="black" stroke="black" points="637.41,-509.48 645.71,-502.91 635.12,-502.86 637.41,-509.48"/>
</g>
<!-- supplier -->
<g id="node19" class="node">
<title>supplier</title>
<path fill="none" stroke="black" d="M796,-506C796,-506 748,-506 748,-506 742,-506 736,-500 736,-494 736,-494 736,-482 736,-482 736,-476 742,-470 748,-470 748,-470 796,-470 796,-470 802,-470 808,-476 808,-482 808,-482 808,-494 808,-494 808,-500 802,-506 796,-506"/>
<text text-anchor="middle" x="772" y="-491.4" font-family="Roboto,BlinkMacSystemFont,Helvetica,Arial,sans-serif" font-size="12.00">Supplier</text>
<text text-anchor="middle" x="772" y="-478.4" font-family="Roboto,BlinkMacSystemFont,Helvetica,Arial,sans-serif" font-size="12.00">management</text>
</g>
<!-- Controls&#45;&gt;supplier -->
<g id="edge17" class="edge">
<title>Controls&#45;&gt;supplier</title>
<path fill="none" stroke="black" d="M447.37,-570.7C504.32,-560.19 619.86,-537.4 725.9,-506.13"/>
<polygon fill="black" stroke="black" points="727.22,-509.38 735.8,-503.17 725.22,-502.68 727.22,-509.38"/>
</g>
<!-- dex -->
<g id="node21" class="node">
<title>dex</title>
<g id="a_node21"><a xlink:href="https://dexidp.io/" xlink:title="Dex" target="_blank">
<image xlink:href="logos/project-icons/dex.svg" width="72px" height="71.301px" preserveAspectRatio="xMinYMin meet" x="16" y="-416"/>
<text text-anchor="middle" x="52" y="-320.2" font-family="Roboto,BlinkMacSystemFont,Helvetica,Arial,sans-serif" font-size="16.00">Dex</text>
</a>
</g>
</g>
<!-- access&#45;&gt;dex -->
<g id="edge18" class="edge">
<title>access&#45;&gt;dex</title>
<path fill="none" stroke="black" d="M47.13,-469.99C45.87,-458.5 45.25,-442.56 45.25,-426.64"/>
<polygon fill="black" stroke="black" points="48.75,-426.25 45.34,-416.22 41.75,-426.19 48.75,-426.25"/>
</g>
<!-- access&#45;&gt;dex -->
<!-- elasticsearch -->
<g id="node23" class="node">
<title>elasticsearch</title>
<g id="a_node23"><a xlink:href="https://opendistro.github.io/for-elasticsearch/" xlink:title="Elasticsearch" target="_blank">
<image xlink:href="logos/project-icons/opendistro.svg" width="72px" height="71.7131px" preserveAspectRatio="xMinYMin meet" x="106" y="-416"/>
<text text-anchor="middle" x="142" y="-318.8" font-family="Roboto,BlinkMacSystemFont,Helvetica,Arial,sans-serif" font-size="14.00">Elasticsearch</text>
</a>
</g>
</g>
<!-- logging&#45;&gt;elasticsearch -->
<g id="edge20" class="edge">
<title>logging&#45;&gt;elasticsearch</title>
<path fill="none" stroke="black" d="M142,-469.99C142,-458.5 142,-442.56 142,-426.64"/>
<polygon fill="black" stroke="black" points="145.5,-426.22 142,-416.22 138.5,-426.22 145.5,-426.22"/>
</g>
<!-- velero -->
<g id="node22" class="node">
<title>velero</title>
<g id="a_node22"><a xlink:href="https://velero.io" xlink:title="Velero" target="_blank">
<image xlink:href="logos/project-icons/velero.svg" width="72px" height="72px" preserveAspectRatio="xMinYMin meet" x="196" y="-416"/>
<text text-anchor="middle" x="232" y="-320.2" font-family="Roboto,BlinkMacSystemFont,Helvetica,Arial,sans-serif" font-size="16.00">Velero</text>
</a>
</g>
</g>
<!-- backups&#45;&gt;velero -->
<g id="edge19" class="edge">
<title>backups&#45;&gt;velero</title>
<path fill="none" stroke="black" d="M232,-469.99C232,-458.5 232,-442.56 232,-426.64"/>
<polygon fill="black" stroke="black" points="235.5,-426.22 232,-416.22 228.5,-426.22 235.5,-426.22"/>
</g>
<!-- opa -->
<g id="node24" class="node">
<title>opa</title>
<g id="a_node24"><a xlink:href="https://open-policy-agent.github.io/gatekeeper/website/docs/" xlink:title="OPA" target="_blank">
<image xlink:href="logos/project-icons/opa.svg" width="72px" height="83.5041px" preserveAspectRatio="xMinYMin meet" x="286" y="-416"/>
<text text-anchor="middle" x="322" y="-320.2" font-family="Roboto,BlinkMacSystemFont,Helvetica,Arial,sans-serif" font-size="16.00">OPA</text>
</a>
</g>
</g>
<!-- continuous&#45;&gt;opa -->
<g id="edge21" class="edge">
<title>continuous&#45;&gt;opa</title>
<path fill="none" stroke="black" d="M322,-469.99C322,-458.5 322,-442.56 322,-426.64"/>
<polygon fill="black" stroke="black" points="325.5,-426.22 322,-416.22 318.5,-426.22 325.5,-426.22"/>
</g>
<!-- trivy -->
<g id="node25" class="node">
<title>trivy</title>
<g id="a_node25"><a xlink:href="https://github.com/aquasecurity/trivy" xlink:title="Trivy" target="_blank">
<image xlink:href="logos/project-icons/trivy.svg" width="72px" height="83.4545px" preserveAspectRatio="xMinYMin meet" x="376" y="-416"/>
<text text-anchor="middle" x="412" y="-320.2" font-family="Roboto,BlinkMacSystemFont,Helvetica,Arial,sans-serif" font-size="16.00">Trivy</text>
</a>
</g>
</g>
<!-- vulnerability&#45;&gt;trivy -->
<g id="edge22" class="edge">
<title>vulnerability&#45;&gt;trivy</title>
<path fill="none" stroke="black" d="M412,-469.99C412,-458.5 412,-442.56 412,-426.64"/>
<polygon fill="black" stroke="black" points="415.5,-426.22 412,-416.22 408.5,-426.22 415.5,-426.22"/>
</g>
<!-- falco -->
<g id="node26" class="node">
<title>falco</title>
<g id="a_node26"><a xlink:href="https://falco.org/" xlink:title="Falco" target="_blank">
<image xlink:href="logos/project-icons/falco.svg" width="72px" height="81.8507px" preserveAspectRatio="xMinYMin meet" x="466" y="-416"/>
<text text-anchor="middle" x="502" y="-320.2" font-family="Roboto,BlinkMacSystemFont,Helvetica,Arial,sans-serif" font-size="16.00">Falco</text>
</a>
</g>
</g>
<!-- intrusion&#45;&gt;falco -->
<g id="edge23" class="edge">
<title>intrusion&#45;&gt;falco</title>
<path fill="none" stroke="black" d="M502,-469.99C502,-458.5 502,-442.56 502,-426.64"/>
<polygon fill="black" stroke="black" points="505.5,-426.22 502,-416.22 498.5,-426.22 505.5,-426.22"/>
</g>
<!-- calico -->
<g id="node27" class="node">
<title>calico</title>
<g id="a_node27"><a xlink:href="https://www.projectcalico.org/" xlink:title="Calico" target="_blank">
<image xlink:href="logos/project-icons/calico.svg" width="72px" height="69.6667px" preserveAspectRatio="xMinYMin meet" x="556" y="-416"/>
<text text-anchor="middle" x="592" y="-320.2" font-family="Roboto,BlinkMacSystemFont,Helvetica,Arial,sans-serif" font-size="16.00">Calico</text>
</a>
</g>
</g>
<!-- network&#45;&gt;calico -->
<g id="edge24" class="edge">
<title>network&#45;&gt;calico</title>
<path fill="none" stroke="black" d="M592,-469.99C592,-458.5 592,-442.56 592,-426.64"/>
<polygon fill="black" stroke="black" points="595.5,-426.22 592,-416.22 588.5,-426.22 595.5,-426.22"/>
</g>
<!-- certmanager -->
<g id="node28" class="node">
<title>certmanager</title>
<g id="a_node28"><a xlink:href="https://cert-manager.io/" xlink:title="Cert Manager" target="_blank">
<image xlink:href="logos/project-icons/cert-manager.svg" width="72px" height="69.5303px" preserveAspectRatio="xMinYMin meet" x="646" y="-416"/>
<text text-anchor="middle" x="682" y="-318.8" font-family="Roboto,BlinkMacSystemFont,Helvetica,Arial,sans-serif" font-size="14.00">Cert Manager</text>
</a>
</g>
</g>
<!-- crypto&#45;&gt;certmanager -->
<g id="edge25" class="edge">
<title>crypto&#45;&gt;certmanager</title>
<path fill="none" stroke="black" d="M682,-469.99C682,-458.5 682,-442.56 682,-426.64"/>
<polygon fill="black" stroke="black" points="685.5,-426.22 682,-416.22 678.5,-426.22 685.5,-426.22"/>
</g>
<!-- byom -->
<g id="node45" class="node">
<title>byom</title>
<polygon fill="none" stroke="black" points="808,-106 736,-106 736,-16 808,-16 808,-106"/>
<text text-anchor="middle" x="772" y="-57.2" font-family="Roboto,BlinkMacSystemFont,Helvetica,Arial,sans-serif" font-size="16.00">Bring</text>
<text text-anchor="middle" x="772" y="-39.2" font-family="Roboto,BlinkMacSystemFont,Helvetica,Arial,sans-serif" font-size="16.00">Your Own</text>
<text text-anchor="middle" x="772" y="-21.2" font-family="Roboto,BlinkMacSystemFont,Helvetica,Arial,sans-serif" font-size="16.00">Metal</text>
</g>
<!-- supplier&#45;&gt;byom -->
<g id="edge42" class="edge">
<title>supplier&#45;&gt;byom</title>
<path fill="none" stroke="black" d="M772,-469.81C772,-410.55 772,-213.1 772,-116.36"/>
<polygon fill="black" stroke="black" points="775.5,-116.19 772,-106.19 768.5,-116.19 775.5,-116.19"/>
</g>
<!-- controls2&#45;&gt;access -->
<!-- prometheus -->
<g id="node29" class="node">
<title>prometheus</title>
<g id="a_node29"><a xlink:href="https://prometheus.io/" xlink:title="Prometheus" target="_blank">
<image xlink:href="logos/project-icons/prometheus.svg" width="72px" height="70.6479px" preserveAspectRatio="xMinYMin meet" x="16" y="-261"/>
<text text-anchor="middle" x="52" y="-163.4" font-family="Roboto,BlinkMacSystemFont,Helvetica,Arial,sans-serif" font-size="12.00">Prometheus</text>
</a>
</g>
</g>
<!-- dex&#45;&gt;prometheus -->
<g id="edge26" class="edge">
<title>dex&#45;&gt;prometheus</title>
<path fill="none" stroke="black" d="M45.63,-314.83C45.58,-313.06 45.53,-311.28 45.49,-309.48"/>
<polygon fill="black" stroke="black" points="48.98,-308.94 45.31,-299 41.98,-309.06 48.98,-308.94"/>
</g>
<!-- dex&#45;&gt;prometheus -->
<!-- auditNA1 -->
<g id="node31" class="node">
<title>auditNA1</title>
</g>
<!-- velero&#45;&gt;auditNA1 -->
<g id="edge28" class="edge">
<title>velero&#45;&gt;auditNA1</title>
<path fill="none" stroke="black" d="M232,-314.83C232,-313.06 232,-311.28 232,-309.48"/>
<polygon fill="black" stroke="black" points="235.5,-309 232,-299 228.5,-309 235.5,-309"/>
</g>
<!-- grafana -->
<g id="node30" class="node">
<title>grafana</title>
<g id="a_node30"><a xlink:href="https://github.com/grafana/grafana" xlink:title="Grafana" target="_blank">
<image xlink:href="logos/project-icons/grafana.svg" width="72px" height="75.0114px" preserveAspectRatio="xMinYMin meet" x="106" y="-261"/>
<text text-anchor="middle" x="142" y="-165.2" font-family="Roboto,BlinkMacSystemFont,Helvetica,Arial,sans-serif" font-size="16.00">Grafana</text>
</a>
</g>
</g>
<!-- elasticsearch&#45;&gt;grafana -->
<g id="edge27" class="edge">
<title>elasticsearch&#45;&gt;grafana</title>
<path fill="none" stroke="black" d="M142,-314.83C142,-313.06 142,-311.28 142,-309.48"/>
<polygon fill="black" stroke="black" points="145.5,-309 142,-299 138.5,-309 145.5,-309"/>
</g>
<!-- auditNA2 -->
<g id="node32" class="node">
<title>auditNA2</title>
</g>
<!-- opa&#45;&gt;auditNA2 -->
<g id="edge29" class="edge">
<title>opa&#45;&gt;auditNA2</title>
<path fill="none" stroke="black" d="M322,-314.83C322,-313.06 322,-311.28 322,-309.48"/>
<polygon fill="black" stroke="black" points="325.5,-309 322,-299 318.5,-309 325.5,-309"/>
</g>
<!-- auditNA3 -->
<g id="node33" class="node">
<title>auditNA3</title>
</g>
<!-- trivy&#45;&gt;auditNA3 -->
<g id="edge30" class="edge">
<title>trivy&#45;&gt;auditNA3</title>
<path fill="none" stroke="black" d="M412,-314.83C412,-313.06 412,-311.28 412,-309.48"/>
<polygon fill="black" stroke="black" points="415.5,-309 412,-299 408.5,-309 415.5,-309"/>
</g>
<!-- auditNA4 -->
<g id="node34" class="node">
<title>auditNA4</title>
</g>
<!-- falco&#45;&gt;auditNA4 -->
<g id="edge31" class="edge">
<title>falco&#45;&gt;auditNA4</title>
<path fill="none" stroke="black" d="M502,-314.83C502,-313.06 502,-311.28 502,-309.48"/>
<polygon fill="black" stroke="black" points="505.5,-309 502,-299 498.5,-309 505.5,-309"/>
</g>
<!-- auditNA5 -->
<g id="node35" class="node">
<title>auditNA5</title>
</g>
<!-- calico&#45;&gt;auditNA5 -->
<g id="edge32" class="edge">
<title>calico&#45;&gt;auditNA5</title>
<path fill="none" stroke="black" d="M592,-314.83C592,-313.06 592,-311.28 592,-309.48"/>
<polygon fill="black" stroke="black" points="595.5,-309 592,-299 588.5,-309 595.5,-309"/>
</g>
<!-- auditNA6 -->
<g id="node36" class="node">
<title>auditNA6</title>
</g>
<!-- certmanager&#45;&gt;auditNA6 -->
<g id="edge33" class="edge">
<title>certmanager&#45;&gt;auditNA6</title>
<path fill="none" stroke="black" d="M682,-314.83C682,-313.06 682,-311.28 682,-309.48"/>
<polygon fill="black" stroke="black" points="685.5,-309 682,-299 678.5,-309 685.5,-309"/>
</g>
<!-- aws -->
<g id="node37" class="node">
<title>aws</title>
<g id="a_node37"><a xlink:href="/operator-manual/aws/" target="_top">
<image xlink:href="logos/cloud-providers/aws.svg" width="72px" height="43.2px" preserveAspectRatio="xMinYMin meet" x="16" y="-106"/>
</a>
</g>
</g>
<!-- prometheus&#45;&gt;aws -->
<!-- azure -->
<g id="node38" class="node">
<title>azure</title>
<image xlink:href="logos/cloud-providers/azure.svg" width="72px" height="55.2857px" preserveAspectRatio="xMinYMin meet" x="106" y="-106"/>
<text text-anchor="middle" x="142" y="-21.2" font-family="Roboto,BlinkMacSystemFont,Helvetica,Arial,sans-serif" font-size="16.00">Azure</text>
</g>
<!-- aws&#45;&gt;azure -->
<!-- citycloud -->
<g id="node39" class="node">
<title>citycloud</title>
<image xlink:href="logos/cloud-providers/citycloud.png" width="72px" height="57.7834px" preserveAspectRatio="xMinYMin meet" x="196" y="-106"/>
<text text-anchor="middle" x="232" y="-21.2" font-family="Roboto,BlinkMacSystemFont,Helvetica,Arial,sans-serif" font-size="16.00">CityCloud</text>
</g>
<!-- azure&#45;&gt;citycloud -->
<!-- exoscale -->
<g id="node40" class="node">
<title>exoscale</title>
<g id="a_node40"><a xlink:href="/operator-manual/exoscale/" xlink:title="Exoscale" target="_top">
<image xlink:href="logos/cloud-providers/exoscale.svg" width="72px" height="62.4906px" preserveAspectRatio="xMinYMin meet" x="286" y="-106"/>
<text text-anchor="middle" x="322" y="-21.2" font-family="Roboto,BlinkMacSystemFont,Helvetica,Arial,sans-serif" font-size="16.00">Exoscale</text>
</a>
</g>
</g>
<!-- citycloud&#45;&gt;exoscale -->
<!-- openstack -->
<g id="node43" class="node">
<title>openstack</title>
<image xlink:href="logos/cloud-providers/openstack.svg" width="72px" height="70.4432px" preserveAspectRatio="xMinYMin meet" x="376" y="-106"/>
<text text-anchor="middle" x="412" y="-21.2" font-family="Roboto,BlinkMacSystemFont,Helvetica,Arial,sans-serif" font-size="16.00">OpenStack</text>
</g>
<!-- exoscale&#45;&gt;openstack -->
<!-- ovh -->
<g id="node41" class="node">
<title>ovh</title>
<image xlink:href="logos/cloud-providers/ovh.svg" width="72px" height="42.7826px" preserveAspectRatio="xMinYMin meet" x="466" y="-106"/>
<text text-anchor="middle" x="502" y="-21.2" font-family="Roboto,BlinkMacSystemFont,Helvetica,Arial,sans-serif" font-size="16.00">OVHcloud</text>
</g>
<!-- safespring -->
<g id="node42" class="node">
<title>safespring</title>
<image xlink:href="logos/cloud-providers/safespring.svg" width="72px" height="55.218px" preserveAspectRatio="xMinYMin meet" x="556" y="-106"/>
<text text-anchor="middle" x="592" y="-21.2" font-family="Roboto,BlinkMacSystemFont,Helvetica,Arial,sans-serif" font-size="16.00">SafeSpring</text>
</g>
<!-- ovh&#45;&gt;safespring -->
<!-- byovm -->
<g id="node44" class="node">
<title>byovm</title>
<polygon fill="none" stroke="black" points="718,-106 646,-106 646,-16 718,-16 718,-106"/>
<text text-anchor="middle" x="682" y="-57.2" font-family="Roboto,BlinkMacSystemFont,Helvetica,Arial,sans-serif" font-size="16.00">Bring</text>
<text text-anchor="middle" x="682" y="-39.2" font-family="Roboto,BlinkMacSystemFont,Helvetica,Arial,sans-serif" font-size="16.00">Your Own</text>
<text text-anchor="middle" x="682" y="-21.2" font-family="Roboto,BlinkMacSystemFont,Helvetica,Arial,sans-serif" font-size="16.00">VMs</text>
</g>
<!-- safespring&#45;&gt;byovm -->
<!-- openstack&#45;&gt;ovh -->
<!-- byovm&#45;&gt;byom -->
</g>
</svg>
