<?xml version="1.0" encoding="UTF-8" standalone="no"?>
<!DOCTYPE svg PUBLIC "-//W3C//DTD SVG 1.1//EN"
 "http://www.w3.org/Graphics/SVG/1.1/DTD/svg11.dtd">
<!-- Generated by graphviz version 2.43.0 (0)
 -->
<!-- Title: compliance_basics Pages: 1 -->
<svg width="862pt" height="757pt"
 viewBox="0.00 0.00 861.50 757.00" xmlns="http://www.w3.org/2000/svg" xmlns:xlink="http://www.w3.org/1999/xlink">
<g id="graph0" class="graph" transform="scale(1 1) rotate(0) translate(4 753)">
<title>compliance_basics</title>
<polygon fill="white" stroke="transparent" points="-4,4 -4,-753 857.5,-753 857.5,4 -4,4"/>
<g id="clust1" class="cluster">
<title>cluster_regulations</title>
<polygon fill="none" stroke="black" points="8,-659 8,-741 456,-741 456,-659 8,-659"/>
<text text-anchor="middle" x="69" y="-721" font-family="Roboto,BlinkMacSystemFont,Helvetica,Arial,sans-serif" font-size="20.00">Regulations</text>
</g>
<g id="clust2" class="cluster">
<title>cluster_isms</title>
<polygon fill="none" stroke="black" points="464,-659 464,-741 759,-741 759,-659 464,-659"/>
<text text-anchor="middle" x="611.5" y="-721" font-family="Roboto,BlinkMacSystemFont,Helvetica,Arial,sans-serif" font-size="20.00">Information Security Standards</text>
</g>
<g id="clust3" class="cluster">
<title>cluster_policies</title>
<polygon fill="none" stroke="black" points="8,-461 8,-651 816,-651 816,-461 8,-461"/>
<text text-anchor="middle" x="51" y="-631" font-family="Roboto,BlinkMacSystemFont,Helvetica,Arial,sans-serif" font-size="20.00">Policies</text>
</g>
<g id="clust7" class="cluster">
<title>cluster_implementation</title>
<polygon fill="none" stroke="black" points="8,-227 8,-453 726,-453 726,-227 8,-227"/>
<text text-anchor="middle" x="115" y="-433" font-family="Roboto,BlinkMacSystemFont,Helvetica,Arial,sans-serif" font-size="20.00">Compliant Kubernetes</text>
</g>
<g id="clust20" class="cluster">
<title>cluster_provider</title>
<polygon fill="none" stroke="black" points="98,-64 98,-219 816,-219 816,-64 98,-64"/>
<text text-anchor="middle" x="219" y="-199" font-family="Roboto,BlinkMacSystemFont,Helvetica,Arial,sans-serif" font-size="20.00">Compliant Cloud Provider</text>
</g>
<!-- title -->
<g id="node1" class="node">
<title>title</title>
<g id="a_node1"><a xlink:href="https://compliantkubernetes.io" xlink:title="compliantkubernetes.io" target="_top">
<text text-anchor="middle" x="772" y="-14.3" font-family="Roboto,BlinkMacSystemFont,Helvetica,Arial,sans-serif" font-size="14.00" fill="#4651b4">compliantkubernetes.io</text>
</a>
</g>
</g>
<!-- HIPAA -->
<g id="node2" class="node">
<title>HIPAA</title>
<g id="a_node2"><a xlink:href="https://www.cdc.gov/phlp/publications/topic/hipaa.html" xlink:title="HIPAA">
<path fill="none" stroke="black" d="M436,-703C436,-703 388,-703 388,-703 382,-703 376,-697 376,-691 376,-691 376,-679 376,-679 376,-673 382,-667 388,-667 388,-667 436,-667 436,-667 442,-667 448,-673 448,-679 448,-679 448,-691 448,-691 448,-697 442,-703 436,-703"/>
<text text-anchor="middle" x="412" y="-681.3" font-family="Roboto,BlinkMacSystemFont,Helvetica,Arial,sans-serif" font-size="14.00">HIPAA</text>
</a>
</g>
</g>
<!-- Controls -->
<g id="node10" class="node">
<title>Controls</title>
<ellipse fill="none" stroke="black" cx="412" cy="-577" rx="36" ry="36"/>
<text text-anchor="middle" x="412" y="-573.3" font-family="Roboto,BlinkMacSystemFont,Helvetica,Arial,sans-serif" font-size="14.00">Controls</text>
</g>
<!-- HIPAA&#45;&gt;Controls -->
<g id="edge1" class="edge">
<title>HIPAA&#45;&gt;Controls</title>
<path fill="none" stroke="black" d="M412,-666.97C412,-655.27 412,-639.15 412,-623.84"/>
<polygon fill="black" stroke="black" points="415.5,-623.43 412,-613.43 408.5,-623.43 415.5,-623.43"/>
</g>
<!-- PDL -->
<g id="node3" class="node">
<title>PDL</title>
<g id="a_node3"><a xlink:href="https://www.riksdagen.se/sv/dokument-lagar/dokument/svensk-forfattningssamling/patientdatalag-2008355_sfs-2008-355" xlink:title="PDL">
<path fill="none" stroke="black" d="M346,-703C346,-703 298,-703 298,-703 292,-703 286,-697 286,-691 286,-691 286,-679 286,-679 286,-673 292,-667 298,-667 298,-667 346,-667 346,-667 352,-667 358,-673 358,-679 358,-679 358,-691 358,-691 358,-697 352,-703 346,-703"/>
<text text-anchor="middle" x="322" y="-681.3" font-family="Roboto,BlinkMacSystemFont,Helvetica,Arial,sans-serif" font-size="14.00">PDL</text>
</a>
</g>
</g>
<!-- PDL&#45;&gt;Controls -->
<g id="edge2" class="edge">
<title>PDL&#45;&gt;Controls</title>
<path fill="none" stroke="black" d="M336.46,-666.97C348.78,-652.45 366.89,-631.13 382.29,-612.99"/>
<polygon fill="black" stroke="black" points="385.34,-614.81 389.15,-604.92 380.01,-610.28 385.34,-614.81"/>
</g>
<!-- GDPR -->
<g id="node4" class="node">
<title>GDPR</title>
<g id="a_node4"><a xlink:href="https://gdpr.eu/" xlink:title="GDPR">
<path fill="none" stroke="black" d="M256,-703C256,-703 208,-703 208,-703 202,-703 196,-697 196,-691 196,-691 196,-679 196,-679 196,-673 202,-667 208,-667 208,-667 256,-667 256,-667 262,-667 268,-673 268,-679 268,-679 268,-691 268,-691 268,-697 262,-703 256,-703"/>
<text text-anchor="middle" x="232" y="-681.3" font-family="Roboto,BlinkMacSystemFont,Helvetica,Arial,sans-serif" font-size="14.00">GDPR</text>
</a>
</g>
</g>
<!-- GDPR&#45;&gt;Controls -->
<g id="edge3" class="edge">
<title>GDPR&#45;&gt;Controls</title>
<path fill="none" stroke="black" d="M260.92,-666.97C291.21,-649.13 338.97,-621.01 372.67,-601.16"/>
<polygon fill="black" stroke="black" points="374.5,-604.14 381.34,-596.05 370.95,-598.11 374.5,-604.14"/>
</g>
<!-- CCPA -->
<g id="node5" class="node">
<title>CCPA</title>
<g id="a_node5"><a xlink:href="https://oag.ca.gov/privacy/ccpa" xlink:title="CCPA">
<path fill="none" stroke="black" d="M166,-703C166,-703 118,-703 118,-703 112,-703 106,-697 106,-691 106,-691 106,-679 106,-679 106,-673 112,-667 118,-667 118,-667 166,-667 166,-667 172,-667 178,-673 178,-679 178,-679 178,-691 178,-691 178,-697 172,-703 166,-703"/>
<text text-anchor="middle" x="142" y="-681.3" font-family="Roboto,BlinkMacSystemFont,Helvetica,Arial,sans-serif" font-size="14.00">CCPA</text>
</a>
</g>
</g>
<!-- CCPA&#45;&gt;Controls -->
<g id="edge4" class="edge">
<title>CCPA&#45;&gt;Controls</title>
<path fill="none" stroke="black" d="M171.18,-666.9C176.38,-664.11 181.79,-661.37 187,-659 248.28,-631.17 322.17,-606.11 368.13,-591.46"/>
<polygon fill="black" stroke="black" points="369.3,-594.77 377.78,-588.41 367.19,-588.09 369.3,-594.77"/>
</g>
<!-- FFFS -->
<g id="node6" class="node">
<title>FFFS</title>
<g id="a_node6"><a xlink:href="https://www.fi.se/en/our-registers/search-fffs/2014/20145/" xlink:title="FFFS">
<path fill="none" stroke="black" d="M76,-703C76,-703 28,-703 28,-703 22,-703 16,-697 16,-691 16,-691 16,-679 16,-679 16,-673 22,-667 28,-667 28,-667 76,-667 76,-667 82,-667 88,-673 88,-679 88,-679 88,-691 88,-691 88,-697 82,-703 76,-703"/>
<text text-anchor="middle" x="52" y="-681.3" font-family="Roboto,BlinkMacSystemFont,Helvetica,Arial,sans-serif" font-size="14.00">FFFS</text>
</a>
</g>
</g>
<!-- FFFS&#45;&gt;Controls -->
<g id="edge5" class="edge">
<title>FFFS&#45;&gt;Controls</title>
<path fill="none" stroke="black" d="M80.03,-667C85.53,-664.07 91.35,-661.25 97,-659 189.66,-622.05 304.45,-597.53 366.69,-585.87"/>
<polygon fill="black" stroke="black" points="367.39,-589.3 376.59,-584.04 366.12,-582.42 367.39,-589.3"/>
</g>
<!-- controls2 -->
<!-- FFFS&#45;&gt;controls2 -->
<!-- iso27k -->
<g id="node7" class="node">
<title>iso27k</title>
<g id="a_node7"><a xlink:href="https://www.isms.online/iso-27001/" xlink:title="ISO 27001" target="_blank">
<path fill="none" stroke="black" d="M720,-703C720,-703 664,-703 664,-703 658,-703 652,-697 652,-691 652,-691 652,-679 652,-679 652,-673 658,-667 664,-667 664,-667 720,-667 720,-667 726,-667 732,-673 732,-679 732,-679 732,-691 732,-691 732,-697 726,-703 720,-703"/>
<text text-anchor="middle" x="692" y="-681.3" font-family="Roboto,BlinkMacSystemFont,Helvetica,Arial,sans-serif" font-size="14.00">ISO 27001</text>
</a>
</g>
</g>
<!-- iso27k&#45;&gt;Controls -->
<g id="edge6" class="edge">
<title>iso27k&#45;&gt;Controls</title>
<path fill="none" stroke="black" d="M660.14,-666.97C654.49,-664.17 648.62,-661.41 643,-659 579.17,-631.67 502.73,-606.23 455.77,-591.41"/>
<polygon fill="black" stroke="black" points="456.8,-588.06 446.21,-588.4 454.7,-594.74 456.8,-588.06"/>
</g>
<!-- soc2 -->
<g id="node8" class="node">
<title>soc2</title>
<g id="a_node8"><a xlink:href="https://www.aicpa.org/interestareas/frc/assuranceadvisoryservices/aicpasoc2report.html" xlink:title="SOC 2" target="_blank">
<path fill="none" stroke="black" d="M622,-703C622,-703 574,-703 574,-703 568,-703 562,-697 562,-691 562,-691 562,-679 562,-679 562,-673 568,-667 574,-667 574,-667 622,-667 622,-667 628,-667 634,-673 634,-679 634,-679 634,-691 634,-691 634,-697 628,-703 622,-703"/>
<text text-anchor="middle" x="598" y="-681.3" font-family="Roboto,BlinkMacSystemFont,Helvetica,Arial,sans-serif" font-size="14.00">SOC 2</text>
</a>
</g>
</g>
<!-- soc2&#45;&gt;Controls -->
<g id="edge7" class="edge">
<title>soc2&#45;&gt;Controls</title>
<path fill="none" stroke="black" d="M568.12,-666.97C536.63,-649.03 486.87,-620.67 452.01,-600.8"/>
<polygon fill="black" stroke="black" points="453.47,-597.61 443.05,-595.7 450.01,-603.69 453.47,-597.61"/>
</g>
<!-- pcidss -->
<g id="node9" class="node">
<title>pcidss</title>
<g id="a_node9"><a xlink:href="https://www.pcisecuritystandards.org/" xlink:title="PCI DSS" target="_blank">
<path fill="none" stroke="black" d="M532,-703C532,-703 484,-703 484,-703 478,-703 472,-697 472,-691 472,-691 472,-679 472,-679 472,-673 478,-667 484,-667 484,-667 532,-667 532,-667 538,-667 544,-673 544,-679 544,-679 544,-691 544,-691 544,-697 538,-703 532,-703"/>
<text text-anchor="middle" x="508" y="-681.3" font-family="Roboto,BlinkMacSystemFont,Helvetica,Arial,sans-serif" font-size="14.00">PCI DSS</text>
</a>
</g>
</g>
<!-- pcidss&#45;&gt;Controls -->
<g id="edge8" class="edge">
<title>pcidss&#45;&gt;Controls</title>
<path fill="none" stroke="black" d="M492.58,-666.97C479.22,-652.22 459.49,-630.44 442.9,-612.12"/>
<polygon fill="black" stroke="black" points="445.32,-609.57 436.01,-604.51 440.13,-614.27 445.32,-609.57"/>
</g>
<!-- supplier -->
<g id="node12" class="node">
<title>supplier</title>
<path fill="none" stroke="black" d="M796,-505C796,-505 748,-505 748,-505 742,-505 736,-499 736,-493 736,-493 736,-481 736,-481 736,-475 742,-469 748,-469 748,-469 796,-469 796,-469 802,-469 808,-475 808,-481 808,-481 808,-493 808,-493 808,-499 802,-505 796,-505"/>
<text text-anchor="middle" x="772" y="-490.4" font-family="Roboto,BlinkMacSystemFont,Helvetica,Arial,sans-serif" font-size="12.00">Supplier</text>
<text text-anchor="middle" x="772" y="-477.4" font-family="Roboto,BlinkMacSystemFont,Helvetica,Arial,sans-serif" font-size="12.00">management</text>
</g>
<!-- Controls&#45;&gt;supplier -->
<g id="edge9" class="edge">
<title>Controls&#45;&gt;supplier</title>
<path fill="none" stroke="black" d="M447.37,-569.7C504.32,-559.19 619.86,-536.4 725.9,-505.13"/>
<polygon fill="black" stroke="black" points="727.22,-508.38 735.8,-502.17 725.22,-501.68 727.22,-508.38"/>
</g>
<!-- access -->
<g id="node13" class="node">
<title>access</title>
<path fill="none" stroke="black" d="M76,-505C76,-505 28,-505 28,-505 22,-505 16,-499 16,-493 16,-493 16,-481 16,-481 16,-475 22,-469 28,-469 28,-469 76,-469 76,-469 82,-469 88,-475 88,-481 88,-481 88,-493 88,-493 88,-499 82,-505 76,-505"/>
<text text-anchor="middle" x="52" y="-490.8" font-family="Roboto,BlinkMacSystemFont,Helvetica,Arial,sans-serif" font-size="14.00">Access</text>
<text text-anchor="middle" x="52" y="-475.8" font-family="Roboto,BlinkMacSystemFont,Helvetica,Arial,sans-serif" font-size="14.00">control</text>
</g>
<!-- Controls&#45;&gt;access -->
<g id="edge10" class="edge">
<title>Controls&#45;&gt;access</title>
<path fill="none" stroke="black" d="M376.63,-569.7C319.68,-559.19 204.14,-536.4 98.1,-505.13"/>
<polygon fill="black" stroke="black" points="98.78,-501.68 88.2,-502.17 96.78,-508.38 98.78,-501.68"/>
</g>
<!-- Logging -->
<g id="node14" class="node">
<title>Logging</title>
<path fill="none" stroke="black" d="M166,-505C166,-505 118,-505 118,-505 112,-505 106,-499 106,-493 106,-493 106,-481 106,-481 106,-475 112,-469 118,-469 118,-469 166,-469 166,-469 172,-469 178,-475 178,-481 178,-481 178,-493 178,-493 178,-499 172,-505 166,-505"/>
<text text-anchor="middle" x="142" y="-483.3" font-family="Roboto,BlinkMacSystemFont,Helvetica,Arial,sans-serif" font-size="14.00">Logging</text>
</g>
<!-- Controls&#45;&gt;Logging -->
<g id="edge11" class="edge">
<title>Controls&#45;&gt;Logging</title>
<path fill="none" stroke="black" d="M377.5,-565.76C335.08,-553.03 260.7,-530.26 188.06,-505.28"/>
<polygon fill="black" stroke="black" points="188.88,-501.86 178.29,-501.91 186.59,-508.48 188.88,-501.86"/>
</g>
<!-- Backups -->
<g id="node15" class="node">
<title>Backups</title>
<g id="a_node15"><a xlink:href="/ciso-guide/backup/" xlink:title="Backups" target="_top">
<path fill="none" stroke="black" d="M256,-505C256,-505 208,-505 208,-505 202,-505 196,-499 196,-493 196,-493 196,-481 196,-481 196,-475 202,-469 208,-469 208,-469 256,-469 256,-469 262,-469 268,-475 268,-481 268,-481 268,-493 268,-493 268,-499 262,-505 256,-505"/>
<text text-anchor="middle" x="232" y="-483.3" font-family="Roboto,BlinkMacSystemFont,Helvetica,Arial,sans-serif" font-size="14.00" fill="#4651b4">Backups</text>
</a>
</g>
</g>
<!-- Controls&#45;&gt;Backups -->
<g id="edge12" class="edge">
<title>Controls&#45;&gt;Backups</title>
<path fill="none" stroke="black" d="M379.82,-560.27C350.92,-546.14 308.23,-525.27 276.14,-509.58"/>
<polygon fill="black" stroke="black" points="277.5,-506.35 266.98,-505.1 274.42,-512.64 277.5,-506.35"/>
</g>
<!-- incident -->
<g id="node16" class="node">
<title>incident</title>
<path fill="none" stroke="black" d="M346,-505C346,-505 298,-505 298,-505 292,-505 286,-499 286,-493 286,-493 286,-481 286,-481 286,-475 292,-469 298,-469 298,-469 346,-469 346,-469 352,-469 358,-475 358,-481 358,-481 358,-493 358,-493 358,-499 352,-505 346,-505"/>
<text text-anchor="middle" x="322" y="-490.4" font-family="Roboto,BlinkMacSystemFont,Helvetica,Arial,sans-serif" font-size="12.00">Continuous</text>
<text text-anchor="middle" x="322" y="-477.4" font-family="Roboto,BlinkMacSystemFont,Helvetica,Arial,sans-serif" font-size="12.00">compliance</text>
</g>
<!-- Controls&#45;&gt;incident -->
<g id="edge13" class="edge">
<title>Controls&#45;&gt;incident</title>
<path fill="none" stroke="black" d="M386.45,-551.02C374.06,-538.9 359.22,-524.4 346.91,-512.36"/>
<polygon fill="black" stroke="black" points="349.22,-509.72 339.62,-505.23 344.32,-514.72 349.22,-509.72"/>
</g>
<!-- vulnerability -->
<g id="node17" class="node">
<title>vulnerability</title>
<path fill="none" stroke="black" d="M436,-505C436,-505 388,-505 388,-505 382,-505 376,-499 376,-493 376,-493 376,-481 376,-481 376,-475 382,-469 388,-469 388,-469 436,-469 436,-469 442,-469 448,-475 448,-481 448,-481 448,-493 448,-493 448,-499 442,-505 436,-505"/>
<text text-anchor="middle" x="412" y="-490.4" font-family="Roboto,BlinkMacSystemFont,Helvetica,Arial,sans-serif" font-size="12.00">Vulnerability</text>
<text text-anchor="middle" x="412" y="-477.4" font-family="Roboto,BlinkMacSystemFont,Helvetica,Arial,sans-serif" font-size="12.00">management</text>
</g>
<!-- Controls&#45;&gt;vulnerability -->
<g id="edge14" class="edge">
<title>Controls&#45;&gt;vulnerability</title>
<path fill="none" stroke="black" d="M412,-540.97C412,-532.44 412,-523.43 412,-515.32"/>
<polygon fill="black" stroke="black" points="415.5,-515.28 412,-505.28 408.5,-515.28 415.5,-515.28"/>
</g>
<!-- intrusion -->
<g id="node18" class="node">
<title>intrusion</title>
<path fill="none" stroke="black" d="M526,-505C526,-505 478,-505 478,-505 472,-505 466,-499 466,-493 466,-493 466,-481 466,-481 466,-475 472,-469 478,-469 478,-469 526,-469 526,-469 532,-469 538,-475 538,-481 538,-481 538,-493 538,-493 538,-499 532,-505 526,-505"/>
<text text-anchor="middle" x="502" y="-490.8" font-family="Roboto,BlinkMacSystemFont,Helvetica,Arial,sans-serif" font-size="14.00">Intrusion</text>
<text text-anchor="middle" x="502" y="-475.8" font-family="Roboto,BlinkMacSystemFont,Helvetica,Arial,sans-serif" font-size="14.00">detection</text>
</g>
<!-- Controls&#45;&gt;intrusion -->
<g id="edge15" class="edge">
<title>Controls&#45;&gt;intrusion</title>
<path fill="none" stroke="black" d="M437.55,-551.02C449.94,-538.9 464.78,-524.4 477.09,-512.36"/>
<polygon fill="black" stroke="black" points="479.68,-514.72 484.38,-505.23 474.78,-509.72 479.68,-514.72"/>
</g>
<!-- network -->
<g id="node19" class="node">
<title>network</title>
<path fill="none" stroke="black" d="M616,-505C616,-505 568,-505 568,-505 562,-505 556,-499 556,-493 556,-493 556,-481 556,-481 556,-475 562,-469 568,-469 568,-469 616,-469 616,-469 622,-469 628,-475 628,-481 628,-481 628,-493 628,-493 628,-499 622,-505 616,-505"/>
<text text-anchor="middle" x="592" y="-490.8" font-family="Roboto,BlinkMacSystemFont,Helvetica,Arial,sans-serif" font-size="14.00">Network</text>
<text text-anchor="middle" x="592" y="-475.8" font-family="Roboto,BlinkMacSystemFont,Helvetica,Arial,sans-serif" font-size="14.00">security</text>
</g>
<!-- Controls&#45;&gt;network -->
<g id="edge16" class="edge">
<title>Controls&#45;&gt;network</title>
<path fill="none" stroke="black" d="M444.18,-560.27C473.08,-546.14 515.77,-525.27 547.86,-509.58"/>
<polygon fill="black" stroke="black" points="549.58,-512.64 557.02,-505.1 546.5,-506.35 549.58,-512.64"/>
</g>
<!-- crypto -->
<g id="node20" class="node">
<title>crypto</title>
<g id="a_node20"><a xlink:href="/ciso-guide/cryptography/" xlink:title="Use of\ncryptography" target="_top">
<path fill="none" stroke="black" d="M706,-505C706,-505 658,-505 658,-505 652,-505 646,-499 646,-493 646,-493 646,-481 646,-481 646,-475 652,-469 658,-469 658,-469 706,-469 706,-469 712,-469 718,-475 718,-481 718,-481 718,-493 718,-493 718,-499 712,-505 706,-505"/>
<text text-anchor="middle" x="682" y="-490.4" font-family="Roboto,BlinkMacSystemFont,Helvetica,Arial,sans-serif" font-size="12.00" fill="#4651b4">Use of</text>
<text text-anchor="middle" x="682" y="-477.4" font-family="Roboto,BlinkMacSystemFont,Helvetica,Arial,sans-serif" font-size="12.00" fill="#4651b4">cryptography</text>
</a>
</g>
</g>
<!-- Controls&#45;&gt;crypto -->
<g id="edge17" class="edge">
<title>Controls&#45;&gt;crypto</title>
<path fill="none" stroke="black" d="M446.5,-565.76C488.92,-553.03 563.3,-530.26 635.94,-505.28"/>
<polygon fill="black" stroke="black" points="637.41,-508.48 645.71,-501.91 635.12,-501.86 637.41,-508.48"/>
</g>
<!-- controls2&#45;&gt;access -->
<!-- supplier2 -->
<!-- supplier&#45;&gt;supplier2 -->
<g id="edge38" class="edge">
<title>supplier&#45;&gt;supplier2</title>
<path fill="none" stroke="black" d="M772,-468.97C772,-439.94 772,-383.66 772,-380.17"/>
</g>
<!-- dex -->
<g id="node21" class="node">
<title>dex</title>
<image xlink:href="logos/dex.png" width="59.5041px" height="72px" preserveAspectRatio="xMinYMin meet" x="22.2479" y="-415"/>
</g>
<!-- access&#45;&gt;dex -->
<g id="edge18" class="edge">
<title>access&#45;&gt;dex</title>
<path fill="none" stroke="black" d="M52,-468.97C52,-457.27 52,-441.15 52,-425.84"/>
<polygon fill="black" stroke="black" points="55.5,-425.43 52,-415.43 48.5,-425.43 55.5,-425.43"/>
</g>
<!-- elasticsearch -->
<g id="node23" class="node">
<title>elasticsearch</title>
<image xlink:href="logos/elasticsearch.png" width="72px" height="39.5725px" preserveAspectRatio="xMinYMin meet" x="106" y="-398.786"/>
</g>
<!-- Logging&#45;&gt;elasticsearch -->
<g id="edge20" class="edge">
<title>Logging&#45;&gt;elasticsearch</title>
<path fill="none" stroke="black" d="M142,-468.97C142,-457.27 142,-441.15 142,-425.84"/>
<polygon fill="black" stroke="black" points="145.5,-425.43 142,-415.43 138.5,-425.43 145.5,-425.43"/>
</g>
<!-- velero -->
<g id="node22" class="node">
<title>velero</title>
<image xlink:href="logos/velero.png" width="72px" height="23.76px" preserveAspectRatio="xMinYMin meet" x="196" y="-390.88"/>
</g>
<!-- Backups&#45;&gt;velero -->
<g id="edge19" class="edge">
<title>Backups&#45;&gt;velero</title>
<path fill="none" stroke="black" d="M232,-468.97C232,-457.27 232,-441.15 232,-425.84"/>
<polygon fill="black" stroke="black" points="235.5,-425.43 232,-415.43 228.5,-425.43 235.5,-425.43"/>
</g>
<!-- prometheus -->
<g id="node25" class="node">
<title>prometheus</title>
<image xlink:href="logos/prometheus.png" width="72px" height="62.64px" preserveAspectRatio="xMinYMin meet" x="286" y="-410.32"/>
</g>
<!-- incident&#45;&gt;prometheus -->
<g id="edge22" class="edge">
<title>incident&#45;&gt;prometheus</title>
<path fill="none" stroke="black" d="M322,-468.97C322,-457.27 322,-441.15 322,-425.84"/>
<polygon fill="black" stroke="black" points="325.5,-425.43 322,-415.43 318.5,-425.43 325.5,-425.43"/>
</g>
<!-- harbor -->
<g id="node27" class="node">
<title>harbor</title>
<image xlink:href="logos/harbor.png" width="58.5366px" height="72px" preserveAspectRatio="xMinYMin meet" x="382.732" y="-415"/>
</g>
<!-- vulnerability&#45;&gt;harbor -->
<g id="edge24" class="edge">
<title>vulnerability&#45;&gt;harbor</title>
<path fill="none" stroke="black" d="M412,-468.97C412,-457.27 412,-441.15 412,-425.84"/>
<polygon fill="black" stroke="black" points="415.5,-425.43 412,-415.43 408.5,-425.43 415.5,-425.43"/>
</g>
<!-- falco -->
<g id="node29" class="node">
<title>falco</title>
<image xlink:href="logos/falco.png" width="69.9029px" height="72px" preserveAspectRatio="xMinYMin meet" x="467.049" y="-415"/>
</g>
<!-- intrusion&#45;&gt;falco -->
<g id="edge26" class="edge">
<title>intrusion&#45;&gt;falco</title>
<path fill="none" stroke="black" d="M502,-468.97C502,-457.27 502,-441.15 502,-425.84"/>
<polygon fill="black" stroke="black" points="505.5,-425.43 502,-415.43 498.5,-425.43 505.5,-425.43"/>
</g>
<!-- calico -->
<g id="node30" class="node">
<title>calico</title>
<image xlink:href="logos/project-calico.png" width="72px" height="25.2px" preserveAspectRatio="xMinYMin meet" x="556" y="-391.6"/>
</g>
<!-- network&#45;&gt;calico -->
<g id="edge27" class="edge">
<title>network&#45;&gt;calico</title>
<path fill="none" stroke="black" d="M592,-468.97C592,-457.27 592,-441.15 592,-425.84"/>
<polygon fill="black" stroke="black" points="595.5,-425.43 592,-415.43 588.5,-425.43 595.5,-425.43"/>
</g>
<!-- certmanager -->
<g id="node31" class="node">
<title>certmanager</title>
<image xlink:href="logos/cert-manager.png" width="72px" height="69.12px" preserveAspectRatio="xMinYMin meet" x="646" y="-413.56"/>
</g>
<!-- crypto&#45;&gt;certmanager -->
<g id="edge28" class="edge">
<title>crypto&#45;&gt;certmanager</title>
<path fill="none" stroke="black" d="M682,-468.97C682,-457.27 682,-441.15 682,-425.84"/>
<polygon fill="black" stroke="black" points="685.5,-425.43 682,-415.43 678.5,-425.43 685.5,-425.43"/>
</g>
<!-- kibana -->
<g id="node24" class="node">
<title>kibana</title>
<image xlink:href="logos/kibana.png" width="71.2871px" height="72px" preserveAspectRatio="xMinYMin meet" x="106.356" y="-307"/>
</g>
<!-- elasticsearch&#45;&gt;kibana -->
<g id="edge21" class="edge">
<title>elasticsearch&#45;&gt;kibana</title>
<path fill="none" stroke="black" d="M142,-343C142,-334.85 142,-326.06 142,-317.54"/>
<polygon fill="black" stroke="black" points="145.5,-317.33 142,-307.33 138.5,-317.33 145.5,-317.33"/>
</g>
<!-- grafana -->
<g id="node26" class="node">
<title>grafana</title>
<image xlink:href="logos/grafana.png" width="70.56px" height="72px" preserveAspectRatio="xMinYMin meet" x="286.72" y="-307"/>
</g>
<!-- prometheus&#45;&gt;grafana -->
<g id="edge23" class="edge">
<title>prometheus&#45;&gt;grafana</title>
<path fill="none" stroke="black" d="M322,-343C322,-334.85 322,-326.06 322,-317.54"/>
<polygon fill="black" stroke="black" points="325.5,-317.33 322,-307.33 318.5,-317.33 325.5,-317.33"/>
</g>
<!-- trivy -->
<g id="node28" class="node">
<title>trivy</title>
<image xlink:href="logos/trivy.png" width="44.7205px" height="72px" preserveAspectRatio="xMinYMin meet" x="389.64" y="-307"/>
</g>
<!-- harbor&#45;&gt;trivy -->
<g id="edge25" class="edge">
<title>harbor&#45;&gt;trivy</title>
<path fill="none" stroke="black" d="M412,-343C412,-334.85 412,-326.06 412,-317.54"/>
<polygon fill="black" stroke="black" points="415.5,-317.33 412,-307.33 408.5,-317.33 415.5,-317.33"/>
</g>
<!-- letsencrypt -->
<g id="node32" class="node">
<title>letsencrypt</title>
<image xlink:href="logos/letsencrypt.png" width="72px" height="59.76px" preserveAspectRatio="xMinYMin meet" x="646" y="-300.88"/>
</g>
<!-- certmanager&#45;&gt;letsencrypt -->
<g id="edge29" class="edge">
<title>certmanager&#45;&gt;letsencrypt</title>
<path fill="none" stroke="black" d="M682,-343C682,-334.85 682,-326.06 682,-317.54"/>
<polygon fill="black" stroke="black" points="685.5,-317.33 682,-307.33 678.5,-317.33 685.5,-317.33"/>
</g>
<!-- cloud_provider -->
<g id="node33" class="node">
<title>cloud_provider</title>
</g>
<!-- aws -->
<g id="node34" class="node">
<title>aws</title>
<image xlink:href="logos/cloud-providers/aws.png" width="72px" height="43.2px" preserveAspectRatio="xMinYMin meet" x="106" y="-129.6"/>
</g>
<!-- cloud_provider&#45;&gt;aws -->
<!-- azure -->
<g id="node35" class="node">
<title>azure</title>
<image xlink:href="logos/cloud-providers/azure.png" width="72px" height="72px" preserveAspectRatio="xMinYMin meet" x="196" y="-144"/>
</g>
<!-- cloud_provider&#45;&gt;azure -->
<!-- citycloud -->
<g id="node36" class="node">
<title>citycloud</title>
<image xlink:href="logos/cloud-providers/citycloud.png" width="67.2897px" height="72px" preserveAspectRatio="xMinYMin meet" x="288.355" y="-144"/>
</g>
<!-- cloud_provider&#45;&gt;citycloud -->
<!-- exoscale -->
<g id="node37" class="node">
<title>exoscale</title>
<image xlink:href="logos/cloud-providers/exoscale.png" width="69.9231px" height="72px" preserveAspectRatio="xMinYMin meet" x="377.038" y="-144"/>
</g>
<!-- cloud_provider&#45;&gt;exoscale -->
<!-- safespring -->
<g id="node38" class="node">
<title>safespring</title>
<image xlink:href="logos/cloud-providers/safespring.png" width="68.6307px" height="72px" preserveAspectRatio="xMinYMin meet" x="467.685" y="-144"/>
</g>
<!-- cloud_provider&#45;&gt;safespring -->
<!-- openstack -->
<g id="node39" class="node">
<title>openstack</title>
<image xlink:href="logos/cloud-providers/openstack.png" width="72px" height="65.52px" preserveAspectRatio="xMinYMin meet" x="556" y="-140.76"/>
</g>
<!-- cloud_provider&#45;&gt;openstack -->
<!-- byovm -->
<g id="node40" class="node">
<title>byovm</title>
<polygon fill="none" stroke="black" points="718,-144 646,-144 646,-72 718,-72 718,-144"/>
<text text-anchor="middle" x="682" y="-119.3" font-family="Roboto,BlinkMacSystemFont,Helvetica,Arial,sans-serif" font-size="14.00">Bring</text>
<text text-anchor="middle" x="682" y="-104.3" font-family="Roboto,BlinkMacSystemFont,Helvetica,Arial,sans-serif" font-size="14.00">Your Own</text>
<text text-anchor="middle" x="682" y="-89.3" font-family="Roboto,BlinkMacSystemFont,Helvetica,Arial,sans-serif" font-size="14.00">VMs</text>
</g>
<!-- cloud_provider&#45;&gt;byovm -->
<!-- byom -->
<g id="node41" class="node">
<title>byom</title>
<polygon fill="none" stroke="black" points="808,-144 736,-144 736,-72 808,-72 808,-144"/>
<text text-anchor="middle" x="772" y="-119.3" font-family="Roboto,BlinkMacSystemFont,Helvetica,Arial,sans-serif" font-size="14.00">Bring</text>
<text text-anchor="middle" x="772" y="-104.3" font-family="Roboto,BlinkMacSystemFont,Helvetica,Arial,sans-serif" font-size="14.00">Your Own</text>
<text text-anchor="middle" x="772" y="-89.3" font-family="Roboto,BlinkMacSystemFont,Helvetica,Arial,sans-serif" font-size="14.00">Metal</text>
</g>
<!-- cloud_provider&#45;&gt;byom -->
<!-- cloud_provider&#45;&gt;byom -->
<!-- byom&#45;&gt;title -->
<!-- supplier3 -->
<!-- supplier2&#45;&gt;supplier3 -->
<g id="edge39" class="edge">
<title>supplier2&#45;&gt;supplier3</title>
<path fill="none" stroke="black" d="M772,-377.92C772,-374.76 772,-275.19 772,-272.07"/>
</g>
<!-- supplier3&#45;&gt;cloud_provider -->
<g id="edge40" class="edge">
<title>supplier3&#45;&gt;cloud_provider</title>
<path fill="none" stroke="black" d="M772,-269.94C772,-268.69 772,-249.45 772,-229.24"/>
<polygon fill="black" stroke="black" points="775.5,-229 772,-219 768.5,-229 775.5,-229"/>
</g>
</g>
</svg>
