<?xml version="1.0" encoding="UTF-8" standalone="no"?>
<!DOCTYPE svg PUBLIC "-//W3C//DTD SVG 1.1//EN"
 "http://www.w3.org/Graphics/SVG/1.1/DTD/svg11.dtd">
<!-- Generated by graphviz version 2.43.0 (0)
 -->
<!-- Title: compliance_basics Pages: 1 -->
<svg width="836pt" height="843pt"
 viewBox="0.00 0.00 836.00 843.00" xmlns="http://www.w3.org/2000/svg" xmlns:xlink="http://www.w3.org/1999/xlink">
<g id="graph0" class="graph" transform="scale(1 1) rotate(0) translate(4 839)">
<title>compliance_basics</title>
<polygon fill="white" stroke="transparent" points="-4,4 -4,-839 832,-839 832,4 -4,4"/>
<g id="clust1" class="cluster">
<title>cluster_personaldata_regulations</title>
<path fill="none" stroke="black" d="M20,-744C20,-744 264,-744 264,-744 270,-744 276,-750 276,-756 276,-756 276,-814 276,-814 276,-820 270,-826 264,-826 264,-826 20,-826 20,-826 14,-826 8,-820 8,-814 8,-814 8,-756 8,-756 8,-750 14,-744 20,-744"/>
<text text-anchor="middle" x="134.5" y="-806" font-family="Roboto,BlinkMacSystemFont,Helvetica,Arial,sans-serif" font-size="20.00">Personal Data Regulations</text>
</g>
<g id="clust2" class="cluster">
<title>cluster_healthtech_regulations</title>
<path fill="none" stroke="black" d="M296,-743C296,-743 496,-743 496,-743 502,-743 508,-749 508,-755 508,-755 508,-815 508,-815 508,-821 502,-827 496,-827 496,-827 296,-827 296,-827 290,-827 284,-821 284,-815 284,-815 284,-755 284,-755 284,-749 290,-743 296,-743"/>
<text text-anchor="middle" x="396" y="-807" font-family="Roboto,BlinkMacSystemFont,Helvetica,Arial,sans-serif" font-size="20.00">Healthcare Regulations</text>
</g>
<g id="clust3" class="cluster">
<title>cluster_best_practices</title>
<path fill="none" stroke="black" d="M528,-744C528,-744 754,-744 754,-744 760,-744 766,-750 766,-756 766,-756 766,-814 766,-814 766,-820 760,-826 754,-826 754,-826 528,-826 528,-826 522,-826 516,-820 516,-814 516,-814 516,-756 516,-756 516,-750 522,-744 528,-744"/>
<text text-anchor="middle" x="628" y="-806" font-family="Roboto,BlinkMacSystemFont,Helvetica,Arial,sans-serif" font-size="20.00">Security Best Practices</text>
</g>
<g id="clust4" class="cluster">
<title>cluster_policies</title>
<path fill="none" stroke="black" d="M20,-462C20,-462 804,-462 804,-462 810,-462 816,-468 816,-474 816,-474 816,-705 816,-705 816,-711 810,-717 804,-717 804,-717 20,-717 20,-717 14,-717 8,-711 8,-705 8,-705 8,-474 8,-474 8,-468 14,-462 20,-462"/>
<text text-anchor="middle" x="51" y="-697" font-family="Roboto,BlinkMacSystemFont,Helvetica,Arial,sans-serif" font-size="20.00">Policies</text>
</g>
<g id="clust7" class="cluster">
<title>cluster_implementation</title>
<path fill="none" stroke="black" d="M20,-289C20,-289 804,-289 804,-289 810,-289 816,-295 816,-301 816,-301 816,-424 816,-424 816,-430 810,-436 804,-436 804,-436 20,-436 20,-436 14,-436 8,-430 8,-424 8,-424 8,-301 8,-301 8,-295 14,-289 20,-289"/>
<text text-anchor="middle" x="115" y="-416" font-family="Roboto,BlinkMacSystemFont,Helvetica,Arial,sans-serif" font-size="20.00">Compliant Kubernetes</text>
</g>
<g id="clust17" class="cluster">
<title>cluster_audit</title>
<path fill="none" stroke="black" d="M20,-116C20,-116 804,-116 804,-116 810,-116 816,-122 816,-128 816,-128 816,-251 816,-251 816,-257 810,-263 804,-263 804,-263 20,-263 20,-263 14,-263 8,-257 8,-251 8,-251 8,-128 8,-128 8,-122 14,-116 20,-116"/>
<text text-anchor="middle" x="256.5" y="-243" font-family="Roboto,BlinkMacSystemFont,Helvetica,Arial,sans-serif" font-size="20.00">Compliant Kubernetes Visibility and Audit Dashboards</text>
</g>
<g id="clust18" class="cluster">
<title>cluster_footer</title>
</g>
<!-- alignment_node_1 -->
<!-- alignment_node_2 -->
<!-- GDPR -->
<g id="node3" class="node">
<title>GDPR</title>
<g id="a_node3"><a xlink:href="https://gdpr.eu/" xlink:title="GDPR" target="_blank">
<path fill="none" stroke="black" d="M76,-788C76,-788 28,-788 28,-788 22,-788 16,-782 16,-776 16,-776 16,-764 16,-764 16,-758 22,-752 28,-752 28,-752 76,-752 76,-752 82,-752 88,-758 88,-764 88,-764 88,-776 88,-776 88,-782 82,-788 76,-788"/>
<text text-anchor="middle" x="52" y="-766.3" font-family="Roboto,BlinkMacSystemFont,Helvetica,Arial,sans-serif" font-size="14.00">GDPR</text>
</a>
</g>
</g>
<!-- Controls -->
<g id="node8" class="node">
<title>Controls</title>
<ellipse fill="none" stroke="black" cx="412" cy="-628.5" rx="50.5" ry="50.5"/>
<text text-anchor="middle" x="412" y="-632.3" font-family="Roboto,BlinkMacSystemFont,Helvetica,Arial,sans-serif" font-size="14.00">ISO 27001</text>
<text text-anchor="middle" x="412" y="-617.3" font-family="Roboto,BlinkMacSystemFont,Helvetica,Arial,sans-serif" font-size="14.00">Controls</text>
</g>
<!-- GDPR&#45;&gt;Controls -->
<g id="edge1" class="edge">
<title>GDPR&#45;&gt;Controls</title>
<path fill="none" stroke="black" d="M88.17,-754.99C150.96,-730.65 280.59,-680.42 355.4,-651.43"/>
<polygon fill="black" stroke="black" points="357.07,-654.54 365.13,-647.66 354.54,-648.01 357.07,-654.54"/>
</g>
<!-- controls2 -->
<!-- GDPR&#45;&gt;controls2 -->
<!-- alignment_node_3 -->
<!-- PDL -->
<g id="node5" class="node">
<title>PDL</title>
<g id="a_node5"><a xlink:href="https://www.riksdagen.se/sv/dokument-lagar/dokument/svensk-forfattningssamling/patientdatalag-2008355_sfs-2008-355" xlink:title="Patient data law\n(HSLF&#45;FS 2016:40)" target="_blank">
<path fill="none" stroke="black" d="M419.5,-789C419.5,-789 312.5,-789 312.5,-789 306.5,-789 300.5,-783 300.5,-777 300.5,-777 300.5,-763 300.5,-763 300.5,-757 306.5,-751 312.5,-751 312.5,-751 419.5,-751 419.5,-751 425.5,-751 431.5,-757 431.5,-763 431.5,-763 431.5,-777 431.5,-777 431.5,-783 425.5,-789 419.5,-789"/>
<text text-anchor="middle" x="366" y="-773.8" font-family="Roboto,BlinkMacSystemFont,Helvetica,Arial,sans-serif" font-size="14.00">Patient data law</text>
<text text-anchor="middle" x="366" y="-758.8" font-family="Roboto,BlinkMacSystemFont,Helvetica,Arial,sans-serif" font-size="14.00">(HSLF&#45;FS 2016:40)</text>
</a>
</g>
</g>
<!-- PDL&#45;&gt;Controls -->
<g id="edge2" class="edge">
<title>PDL&#45;&gt;Controls</title>
<path fill="none" stroke="black" d="M372.01,-750.76C377.4,-734.41 385.61,-709.53 393.19,-686.55"/>
<polygon fill="black" stroke="black" points="396.58,-687.45 396.39,-676.85 389.93,-685.25 396.58,-687.45"/>
</g>
<!-- NSA -->
<g id="node6" class="node">
<title>NSA</title>
<g id="a_node6"><a xlink:href="https://media.defense.gov/2021/Aug/03/2002820425/-1/-1/1/CTR_KUBERNETES%20HARDENING%20GUIDANCE.PDF" xlink:title="NSA" target="_blank">
<path fill="none" stroke="black" d="M746,-788C746,-788 662,-788 662,-788 656,-788 650,-782 650,-776 650,-776 650,-764 650,-764 650,-758 656,-752 662,-752 662,-752 746,-752 746,-752 752,-752 758,-758 758,-764 758,-764 758,-776 758,-776 758,-782 752,-788 746,-788"/>
<text text-anchor="middle" x="704" y="-766.3" font-family="Roboto,BlinkMacSystemFont,Helvetica,Arial,sans-serif" font-size="14.00">NSA</text>
</a>
</g>
</g>
<!-- NSA&#45;&gt;Controls -->
<g id="edge3" class="edge">
<title>NSA&#45;&gt;Controls</title>
<path fill="none" stroke="black" d="M668.2,-751.89C617.74,-727.79 525.33,-683.64 466.37,-655.47"/>
<polygon fill="black" stroke="black" points="467.74,-652.25 457.2,-651.1 464.72,-658.56 467.74,-652.25"/>
</g>
<!-- EDPB -->
<g id="node7" class="node">
<title>EDPB</title>
<g id="a_node7"><a xlink:href="https://edpb.europa.eu/system/files/2021-06/edpb_recommendations_202001vo.2.0_supplementarymeasurestransferstools_en.pdf" xlink:title="EDPB" target="_blank">
<path fill="none" stroke="black" d="M620,-788C620,-788 536,-788 536,-788 530,-788 524,-782 524,-776 524,-776 524,-764 524,-764 524,-758 530,-752 536,-752 536,-752 620,-752 620,-752 626,-752 632,-758 632,-764 632,-764 632,-776 632,-776 632,-782 626,-788 620,-788"/>
<text text-anchor="middle" x="578" y="-766.3" font-family="Roboto,BlinkMacSystemFont,Helvetica,Arial,sans-serif" font-size="14.00">EDPB</text>
</a>
</g>
</g>
<!-- EDPB&#45;&gt;Controls -->
<g id="edge4" class="edge">
<title>EDPB&#45;&gt;Controls</title>
<path fill="none" stroke="black" d="M557.65,-751.89C532.96,-731.15 490.6,-695.55 457.9,-668.07"/>
<polygon fill="black" stroke="black" points="460.15,-665.39 450.24,-661.64 455.64,-670.75 460.15,-665.39"/>
</g>
<!-- access -->
<g id="node9" class="node">
<title>access</title>
<path fill="none" stroke="black" d="M76,-506C76,-506 28,-506 28,-506 22,-506 16,-500 16,-494 16,-494 16,-482 16,-482 16,-476 22,-470 28,-470 28,-470 76,-470 76,-470 82,-470 88,-476 88,-482 88,-482 88,-494 88,-494 88,-500 82,-506 76,-506"/>
<text text-anchor="middle" x="52" y="-491.8" font-family="Roboto,BlinkMacSystemFont,Helvetica,Arial,sans-serif" font-size="14.00">Access</text>
<text text-anchor="middle" x="52" y="-476.8" font-family="Roboto,BlinkMacSystemFont,Helvetica,Arial,sans-serif" font-size="14.00">control</text>
</g>
<!-- Controls&#45;&gt;access -->
<g id="edge5" class="edge">
<title>Controls&#45;&gt;access</title>
<path fill="none" stroke="black" d="M364.94,-609.39C295.54,-582.7 166.59,-533.09 97.88,-506.65"/>
<polygon fill="black" stroke="black" points="98.79,-503.25 88.2,-502.93 96.27,-509.78 98.79,-503.25"/>
</g>
<!-- logging -->
<g id="node10" class="node">
<title>logging</title>
<g id="a_node10"><a xlink:href="https://elastisys.io/compliantkubernetes/ciso-guide/log-review/" xlink:title="Logging" target="_top">
<path fill="none" stroke="black" d="M166,-506C166,-506 118,-506 118,-506 112,-506 106,-500 106,-494 106,-494 106,-482 106,-482 106,-476 112,-470 118,-470 118,-470 166,-470 166,-470 172,-470 178,-476 178,-482 178,-482 178,-494 178,-494 178,-500 172,-506 166,-506"/>
<text text-anchor="middle" x="142" y="-484.3" font-family="Roboto,BlinkMacSystemFont,Helvetica,Arial,sans-serif" font-size="14.00" fill="#4651b4">Logging</text>
</a>
</g>
</g>
<!-- Controls&#45;&gt;logging -->
<g id="edge6" class="edge">
<title>Controls&#45;&gt;logging</title>
<path fill="none" stroke="black" d="M367.41,-604.63C316.51,-578.52 233.87,-536.13 184.05,-510.57"/>
<polygon fill="black" stroke="black" points="185.64,-507.45 175.15,-506 182.45,-513.68 185.64,-507.45"/>
</g>
<!-- backups -->
<g id="node11" class="node">
<title>backups</title>
<g id="a_node11"><a xlink:href="https://elastisys.io/compliantkubernetes/ciso-guide/backup/" xlink:title="Backup" target="_top">
<path fill="none" stroke="black" d="M256,-506C256,-506 208,-506 208,-506 202,-506 196,-500 196,-494 196,-494 196,-482 196,-482 196,-476 202,-470 208,-470 208,-470 256,-470 256,-470 262,-470 268,-476 268,-482 268,-482 268,-494 268,-494 268,-500 262,-506 256,-506"/>
<text text-anchor="middle" x="232" y="-484.3" font-family="Roboto,BlinkMacSystemFont,Helvetica,Arial,sans-serif" font-size="14.00" fill="#4651b4">Backup</text>
</a>
</g>
</g>
<!-- Controls&#45;&gt;backups -->
<g id="edge7" class="edge">
<title>Controls&#45;&gt;backups</title>
<path fill="none" stroke="black" d="M372.05,-596.76C338.92,-571.27 292.51,-535.56 262.35,-512.36"/>
<polygon fill="black" stroke="black" points="264.36,-509.49 254.3,-506.16 260.09,-515.03 264.36,-509.49"/>
</g>
<!-- continuous -->
<g id="node12" class="node">
<title>continuous</title>
<g id="a_node12"><a xlink:href="https://elastisys.io/compliantkubernetes/ciso-guide/policy-as-code/" xlink:title="Continuous\ncompliance" target="_top">
<path fill="none" stroke="black" d="M346,-506C346,-506 298,-506 298,-506 292,-506 286,-500 286,-494 286,-494 286,-482 286,-482 286,-476 292,-470 298,-470 298,-470 346,-470 346,-470 352,-470 358,-476 358,-482 358,-482 358,-494 358,-494 358,-500 352,-506 346,-506"/>
<text text-anchor="middle" x="322" y="-491.4" font-family="Roboto,BlinkMacSystemFont,Helvetica,Arial,sans-serif" font-size="12.00" fill="#4651b4">Continuous</text>
<text text-anchor="middle" x="322" y="-478.4" font-family="Roboto,BlinkMacSystemFont,Helvetica,Arial,sans-serif" font-size="12.00" fill="#4651b4">compliance</text>
</a>
</g>
</g>
<!-- Controls&#45;&gt;continuous -->
<g id="edge8" class="edge">
<title>Controls&#45;&gt;continuous</title>
<path fill="none" stroke="black" d="M384.75,-585.57C369.77,-562.51 351.65,-534.64 338.75,-514.77"/>
<polygon fill="black" stroke="black" points="341.6,-512.74 333.21,-506.26 335.73,-516.55 341.6,-512.74"/>
</g>
<!-- vulnerability -->
<g id="node13" class="node">
<title>vulnerability</title>
<g id="a_node13"><a xlink:href="https://elastisys.io/compliantkubernetes/ciso-guide/vulnerability/" xlink:title="Vulnerability\nmanagement" target="_top">
<path fill="none" stroke="black" d="M436,-506C436,-506 388,-506 388,-506 382,-506 376,-500 376,-494 376,-494 376,-482 376,-482 376,-476 382,-470 388,-470 388,-470 436,-470 436,-470 442,-470 448,-476 448,-482 448,-482 448,-494 448,-494 448,-500 442,-506 436,-506"/>
<text text-anchor="middle" x="412" y="-491.4" font-family="Roboto,BlinkMacSystemFont,Helvetica,Arial,sans-serif" font-size="12.00" fill="#4651b4">Vulnerability</text>
<text text-anchor="middle" x="412" y="-478.4" font-family="Roboto,BlinkMacSystemFont,Helvetica,Arial,sans-serif" font-size="12.00" fill="#4651b4">management</text>
</a>
</g>
</g>
<!-- Controls&#45;&gt;vulnerability -->
<g id="edge9" class="edge">
<title>Controls&#45;&gt;vulnerability</title>
<path fill="none" stroke="black" d="M412,-577.89C412,-557.19 412,-533.94 412,-516.41"/>
<polygon fill="black" stroke="black" points="415.5,-516.31 412,-506.31 408.5,-516.31 415.5,-516.31"/>
</g>
<!-- intrusion -->
<g id="node14" class="node">
<title>intrusion</title>
<g id="a_node14"><a xlink:href="https://elastisys.io/compliantkubernetes/ciso-guide/intrusion-detection/" xlink:title="Intrusion\ndetection" target="_top">
<path fill="none" stroke="black" d="M526,-506C526,-506 478,-506 478,-506 472,-506 466,-500 466,-494 466,-494 466,-482 466,-482 466,-476 472,-470 478,-470 478,-470 526,-470 526,-470 532,-470 538,-476 538,-482 538,-482 538,-494 538,-494 538,-500 532,-506 526,-506"/>
<text text-anchor="middle" x="502" y="-491.8" font-family="Roboto,BlinkMacSystemFont,Helvetica,Arial,sans-serif" font-size="14.00" fill="#4651b4">Intrusion</text>
<text text-anchor="middle" x="502" y="-476.8" font-family="Roboto,BlinkMacSystemFont,Helvetica,Arial,sans-serif" font-size="14.00" fill="#4651b4">detection</text>
</a>
</g>
</g>
<!-- Controls&#45;&gt;intrusion -->
<g id="edge10" class="edge">
<title>Controls&#45;&gt;intrusion</title>
<path fill="none" stroke="black" d="M439.25,-585.57C454.23,-562.51 472.35,-534.64 485.25,-514.77"/>
<polygon fill="black" stroke="black" points="488.27,-516.55 490.79,-506.26 482.4,-512.74 488.27,-516.55"/>
</g>
<!-- network -->
<g id="node15" class="node">
<title>network</title>
<g id="a_node15"><a xlink:href="https://elastisys.io/compliantkubernetes/ciso-guide/network-security/" xlink:title="Network\nsecurity" target="_top">
<path fill="none" stroke="black" d="M616,-506C616,-506 568,-506 568,-506 562,-506 556,-500 556,-494 556,-494 556,-482 556,-482 556,-476 562,-470 568,-470 568,-470 616,-470 616,-470 622,-470 628,-476 628,-482 628,-482 628,-494 628,-494 628,-500 622,-506 616,-506"/>
<text text-anchor="middle" x="592" y="-491.8" font-family="Roboto,BlinkMacSystemFont,Helvetica,Arial,sans-serif" font-size="14.00" fill="#4651b4">Network</text>
<text text-anchor="middle" x="592" y="-476.8" font-family="Roboto,BlinkMacSystemFont,Helvetica,Arial,sans-serif" font-size="14.00" fill="#4651b4">security</text>
</a>
</g>
</g>
<!-- Controls&#45;&gt;network -->
<g id="edge11" class="edge">
<title>Controls&#45;&gt;network</title>
<path fill="none" stroke="black" d="M451.95,-596.76C485.08,-571.27 531.49,-535.56 561.65,-512.36"/>
<polygon fill="black" stroke="black" points="563.91,-515.03 569.7,-506.16 559.64,-509.49 563.91,-515.03"/>
</g>
<!-- crypto -->
<g id="node16" class="node">
<title>crypto</title>
<g id="a_node16"><a xlink:href="https://elastisys.io/compliantkubernetes/ciso-guide/cryptography/" xlink:title="Use of\ncryptography" target="_top">
<path fill="none" stroke="black" d="M706,-506C706,-506 658,-506 658,-506 652,-506 646,-500 646,-494 646,-494 646,-482 646,-482 646,-476 652,-470 658,-470 658,-470 706,-470 706,-470 712,-470 718,-476 718,-482 718,-482 718,-494 718,-494 718,-500 712,-506 706,-506"/>
<text text-anchor="middle" x="682" y="-491.4" font-family="Roboto,BlinkMacSystemFont,Helvetica,Arial,sans-serif" font-size="12.00" fill="#4651b4">Use of</text>
<text text-anchor="middle" x="682" y="-478.4" font-family="Roboto,BlinkMacSystemFont,Helvetica,Arial,sans-serif" font-size="12.00" fill="#4651b4">cryptography</text>
</a>
</g>
</g>
<!-- Controls&#45;&gt;crypto -->
<g id="edge12" class="edge">
<title>Controls&#45;&gt;crypto</title>
<path fill="none" stroke="black" d="M456.59,-604.63C507.49,-578.52 590.13,-536.13 639.95,-510.57"/>
<polygon fill="black" stroke="black" points="641.55,-513.68 648.85,-506 638.36,-507.45 641.55,-513.68"/>
</g>
<!-- capacity -->
<g id="node17" class="node">
<title>capacity</title>
<g id="a_node17"><a xlink:href="https://elastisys.io/compliantkubernetes/ciso-guide/capacity-management/" xlink:title="Capacity\nmanagement" target="_top">
<path fill="none" stroke="black" d="M796,-506C796,-506 748,-506 748,-506 742,-506 736,-500 736,-494 736,-494 736,-482 736,-482 736,-476 742,-470 748,-470 748,-470 796,-470 796,-470 802,-470 808,-476 808,-482 808,-482 808,-494 808,-494 808,-500 802,-506 796,-506"/>
<text text-anchor="middle" x="772" y="-491.2" font-family="Roboto,BlinkMacSystemFont,Helvetica,Arial,sans-serif" font-size="11.00" fill="#4651b4">Capacity</text>
<text text-anchor="middle" x="772" y="-479.2" font-family="Roboto,BlinkMacSystemFont,Helvetica,Arial,sans-serif" font-size="11.00" fill="#4651b4">management</text>
</a>
</g>
</g>
<!-- Controls&#45;&gt;capacity -->
<g id="edge13" class="edge">
<title>Controls&#45;&gt;capacity</title>
<path fill="none" stroke="black" d="M459.06,-609.39C528.46,-582.7 657.41,-533.09 726.12,-506.65"/>
<polygon fill="black" stroke="black" points="727.73,-509.78 735.8,-502.93 725.21,-503.25 727.73,-509.78"/>
</g>
<!-- dex -->
<g id="node19" class="node">
<title>dex</title>
<g id="a_node19"><a xlink:href="https://dexidp.io/" xlink:title="Dex" target="_blank">
<image xlink:href="logos/project-icons/dex.svg" width="72px" height="71.301px" preserveAspectRatio="xMinYMin meet" x="16" y="-398"/>
<text text-anchor="middle" x="52" y="-302.2" font-family="Roboto,BlinkMacSystemFont,Helvetica,Arial,sans-serif" font-size="16.00">Dex</text>
</a>
</g>
</g>
<!-- access&#45;&gt;dex -->
<g id="edge14" class="edge">
<title>access&#45;&gt;dex</title>
<path fill="none" stroke="black" d="M47.36,-469.74C45.72,-454.27 45.04,-430.64 45.31,-408.34"/>
<polygon fill="black" stroke="black" points="48.81,-408.29 45.49,-398.23 41.81,-408.16 48.81,-408.29"/>
</g>
<!-- access&#45;&gt;dex -->
<!-- opensearch -->
<g id="node21" class="node">
<title>opensearch</title>
<g id="a_node21"><a xlink:href="https://opensearch.org/" xlink:title="OpenSearch" target="_blank">
<image xlink:href="logos/project-icons/opensearch.svg" width="72px" height="72px" preserveAspectRatio="xMinYMin meet" x="106" y="-398"/>
<text text-anchor="middle" x="142" y="-300.8" font-family="Roboto,BlinkMacSystemFont,Helvetica,Arial,sans-serif" font-size="14.00">OpenSearch</text>
</a>
</g>
</g>
<!-- logging&#45;&gt;opensearch -->
<g id="edge16" class="edge">
<title>logging&#45;&gt;opensearch</title>
<path fill="none" stroke="black" d="M142,-469.74C142,-454.27 142,-430.64 142,-408.34"/>
<polygon fill="black" stroke="black" points="145.5,-408.22 142,-398.23 138.5,-408.23 145.5,-408.22"/>
</g>
<!-- velero -->
<g id="node20" class="node">
<title>velero</title>
<g id="a_node20"><a xlink:href="https://velero.io" xlink:title="Velero" target="_blank">
<image xlink:href="logos/project-icons/velero.svg" width="72px" height="72px" preserveAspectRatio="xMinYMin meet" x="196" y="-398"/>
<text text-anchor="middle" x="232" y="-302.2" font-family="Roboto,BlinkMacSystemFont,Helvetica,Arial,sans-serif" font-size="16.00">Velero</text>
</a>
</g>
</g>
<!-- backups&#45;&gt;velero -->
<g id="edge15" class="edge">
<title>backups&#45;&gt;velero</title>
<path fill="none" stroke="black" d="M232,-469.74C232,-454.27 232,-430.64 232,-408.34"/>
<polygon fill="black" stroke="black" points="235.5,-408.22 232,-398.23 228.5,-408.23 235.5,-408.22"/>
</g>
<!-- opa -->
<g id="node22" class="node">
<title>opa</title>
<g id="a_node22"><a xlink:href="https://open-policy-agent.github.io/gatekeeper/website/docs/" xlink:title="OPA" target="_blank">
<image xlink:href="logos/project-icons/opa.svg" width="72px" height="83.5041px" preserveAspectRatio="xMinYMin meet" x="286" y="-398"/>
<text text-anchor="middle" x="322" y="-302.2" font-family="Roboto,BlinkMacSystemFont,Helvetica,Arial,sans-serif" font-size="16.00">OPA</text>
</a>
</g>
</g>
<!-- continuous&#45;&gt;opa -->
<g id="edge17" class="edge">
<title>continuous&#45;&gt;opa</title>
<path fill="none" stroke="black" d="M322,-469.74C322,-454.27 322,-430.64 322,-408.34"/>
<polygon fill="black" stroke="black" points="325.5,-408.22 322,-398.23 318.5,-408.23 325.5,-408.22"/>
</g>
<!-- trivy -->
<g id="node23" class="node">
<title>trivy</title>
<g id="a_node23"><a xlink:href="https://github.com/aquasecurity/trivy" xlink:title="Trivy" target="_blank">
<image xlink:href="logos/project-icons/trivy.svg" width="72px" height="83.4545px" preserveAspectRatio="xMinYMin meet" x="376" y="-398"/>
<text text-anchor="middle" x="412" y="-302.2" font-family="Roboto,BlinkMacSystemFont,Helvetica,Arial,sans-serif" font-size="16.00">Trivy</text>
</a>
</g>
</g>
<!-- vulnerability&#45;&gt;trivy -->
<g id="edge18" class="edge">
<title>vulnerability&#45;&gt;trivy</title>
<path fill="none" stroke="black" d="M412,-469.74C412,-454.27 412,-430.64 412,-408.34"/>
<polygon fill="black" stroke="black" points="415.5,-408.22 412,-398.23 408.5,-408.23 415.5,-408.22"/>
</g>
<!-- falco -->
<g id="node24" class="node">
<title>falco</title>
<g id="a_node24"><a xlink:href="https://falco.org/" xlink:title="Falco" target="_blank">
<image xlink:href="logos/project-icons/falco.svg" width="72px" height="81.8507px" preserveAspectRatio="xMinYMin meet" x="466" y="-398"/>
<text text-anchor="middle" x="502" y="-302.2" font-family="Roboto,BlinkMacSystemFont,Helvetica,Arial,sans-serif" font-size="16.00">Falco</text>
</a>
</g>
</g>
<!-- intrusion&#45;&gt;falco -->
<g id="edge19" class="edge">
<title>intrusion&#45;&gt;falco</title>
<path fill="none" stroke="black" d="M502,-469.74C502,-454.27 502,-430.64 502,-408.34"/>
<polygon fill="black" stroke="black" points="505.5,-408.22 502,-398.23 498.5,-408.23 505.5,-408.22"/>
</g>
<!-- calico -->
<g id="node25" class="node">
<title>calico</title>
<g id="a_node25"><a xlink:href="https://www.projectcalico.org/" xlink:title="Calico" target="_blank">
<image xlink:href="logos/project-icons/calico.svg" width="72px" height="69.6667px" preserveAspectRatio="xMinYMin meet" x="556" y="-398"/>
<text text-anchor="middle" x="592" y="-302.2" font-family="Roboto,BlinkMacSystemFont,Helvetica,Arial,sans-serif" font-size="16.00">Calico</text>
</a>
</g>
</g>
<!-- network&#45;&gt;calico -->
<g id="edge20" class="edge">
<title>network&#45;&gt;calico</title>
<path fill="none" stroke="black" d="M592,-469.74C592,-454.27 592,-430.64 592,-408.34"/>
<polygon fill="black" stroke="black" points="595.5,-408.22 592,-398.23 588.5,-408.23 595.5,-408.22"/>
</g>
<!-- certmanager -->
<g id="node26" class="node">
<title>certmanager</title>
<g id="a_node26"><a xlink:href="https://cert-manager.io/" xlink:title="Cert Manager" target="_blank">
<image xlink:href="logos/project-icons/cert-manager.svg" width="72px" height="69.5303px" preserveAspectRatio="xMinYMin meet" x="646" y="-398"/>
<text text-anchor="middle" x="682" y="-300.8" font-family="Roboto,BlinkMacSystemFont,Helvetica,Arial,sans-serif" font-size="14.00">Cert Manager</text>
</a>
</g>
</g>
<!-- crypto&#45;&gt;certmanager -->
<g id="edge21" class="edge">
<title>crypto&#45;&gt;certmanager</title>
<path fill="none" stroke="black" d="M682,-469.74C682,-454.27 682,-430.64 682,-408.34"/>
<polygon fill="black" stroke="black" points="685.5,-408.22 682,-398.23 678.5,-408.23 685.5,-408.22"/>
</g>
<!-- kubernetes -->
<g id="node27" class="node">
<title>kubernetes</title>
<g id="a_node27"><a xlink:href="https://kubernetes.io/" xlink:title="Kubernetes" target="_blank">
<image xlink:href="logos/project-icons/kubernetes.svg" width="72px" height="69.8182px" preserveAspectRatio="xMinYMin meet" x="736" y="-398"/>
<text text-anchor="middle" x="772" y="-300.8" font-family="Roboto,BlinkMacSystemFont,Helvetica,Arial,sans-serif" font-size="14.00">Kubernetes</text>
</a>
</g>
</g>
<!-- capacity&#45;&gt;kubernetes -->
<g id="edge22" class="edge">
<title>capacity&#45;&gt;kubernetes</title>
<path fill="none" stroke="black" d="M772,-469.74C772,-454.27 772,-430.64 772,-408.34"/>
<polygon fill="black" stroke="black" points="775.5,-408.22 772,-398.23 768.5,-408.23 775.5,-408.22"/>
</g>
<!-- controls2&#45;&gt;access -->
<!-- prometheus -->
<g id="node28" class="node">
<title>prometheus</title>
<g id="a_node28"><a xlink:href="https://prometheus.io/" xlink:title="Prometheus" target="_blank">
<image xlink:href="logos/project-icons/prometheus.svg" width="72px" height="70.6479px" preserveAspectRatio="xMinYMin meet" x="16" y="-225"/>
<text text-anchor="middle" x="52" y="-127.4" font-family="Roboto,BlinkMacSystemFont,Helvetica,Arial,sans-serif" font-size="12.00">Prometheus</text>
</a>
</g>
</g>
<!-- dex&#45;&gt;prometheus -->
<g id="edge23" class="edge">
<title>dex&#45;&gt;prometheus</title>
<path fill="none" stroke="black" d="M45.8,-296.58C45.56,-289.14 45.39,-281.25 45.31,-273.22"/>
<polygon fill="black" stroke="black" points="48.81,-272.98 45.25,-263 41.81,-273.02 48.81,-272.98"/>
</g>
<!-- dex&#45;&gt;prometheus -->
<!-- alerts -->
<g id="node30" class="node">
<title>alerts</title>
<image xlink:href="alerts.svg" width="72px" height="72px" preserveAspectRatio="xMinYMin meet" x="196" y="-225"/>
<text text-anchor="middle" x="232" y="-129.2" font-family="Roboto,BlinkMacSystemFont,Helvetica,Arial,sans-serif" font-size="16.00">Alerts</text>
</g>
<!-- velero&#45;&gt;alerts -->
<g id="edge25" class="edge">
<title>velero&#45;&gt;alerts</title>
<path fill="none" stroke="black" d="M232,-296.58C232,-289.14 232,-281.25 232,-273.22"/>
<polygon fill="black" stroke="black" points="235.5,-273 232,-263 228.5,-273 235.5,-273"/>
</g>
<!-- grafana -->
<g id="node29" class="node">
<title>grafana</title>
<g id="a_node29"><a xlink:href="https://github.com/grafana/grafana" xlink:title="Grafana" target="_blank">
<image xlink:href="logos/project-icons/grafana.svg" width="72px" height="75.0114px" preserveAspectRatio="xMinYMin meet" x="106" y="-225"/>
<text text-anchor="middle" x="142" y="-129.2" font-family="Roboto,BlinkMacSystemFont,Helvetica,Arial,sans-serif" font-size="16.00">Grafana</text>
</a>
</g>
</g>
<!-- opensearch&#45;&gt;grafana -->
<g id="edge24" class="edge">
<title>opensearch&#45;&gt;grafana</title>
<path fill="none" stroke="black" d="M142,-296.58C142,-289.14 142,-281.25 142,-273.22"/>
<polygon fill="black" stroke="black" points="145.5,-273 142,-263 138.5,-273 145.5,-273"/>
</g>
<!-- auditNA2 -->
<g id="node31" class="node">
<title>auditNA2</title>
</g>
<!-- opa&#45;&gt;auditNA2 -->
<g id="edge26" class="edge">
<title>opa&#45;&gt;auditNA2</title>
<path fill="none" stroke="black" d="M322,-296.58C322,-289.14 322,-281.25 322,-273.22"/>
<polygon fill="black" stroke="black" points="325.5,-273 322,-263 318.5,-273 325.5,-273"/>
</g>
<!-- auditNA3 -->
<g id="node32" class="node">
<title>auditNA3</title>
</g>
<!-- trivy&#45;&gt;auditNA3 -->
<g id="edge27" class="edge">
<title>trivy&#45;&gt;auditNA3</title>
<path fill="none" stroke="black" d="M412,-296.58C412,-289.14 412,-281.25 412,-273.22"/>
<polygon fill="black" stroke="black" points="415.5,-273 412,-263 408.5,-273 415.5,-273"/>
</g>
<!-- auditNA4 -->
<g id="node33" class="node">
<title>auditNA4</title>
</g>
<!-- falco&#45;&gt;auditNA4 -->
<g id="edge28" class="edge">
<title>falco&#45;&gt;auditNA4</title>
<path fill="none" stroke="black" d="M502,-296.58C502,-289.14 502,-281.25 502,-273.22"/>
<polygon fill="black" stroke="black" points="505.5,-273 502,-263 498.5,-273 505.5,-273"/>
</g>
<!-- auditNA5 -->
<g id="node34" class="node">
<title>auditNA5</title>
</g>
<!-- calico&#45;&gt;auditNA5 -->
<g id="edge29" class="edge">
<title>calico&#45;&gt;auditNA5</title>
<path fill="none" stroke="black" d="M592,-296.58C592,-289.14 592,-281.25 592,-273.22"/>
<polygon fill="black" stroke="black" points="595.5,-273 592,-263 588.5,-273 595.5,-273"/>
</g>
<!-- auditNA6 -->
<g id="node35" class="node">
<title>auditNA6</title>
</g>
<!-- certmanager&#45;&gt;auditNA6 -->
<g id="edge30" class="edge">
<title>certmanager&#45;&gt;auditNA6</title>
<path fill="none" stroke="black" d="M682,-296.58C682,-289.14 682,-281.25 682,-273.22"/>
<polygon fill="black" stroke="black" points="685.5,-273 682,-263 678.5,-273 685.5,-273"/>
</g>
<!-- auditNA7 -->
<g id="node36" class="node">
<title>auditNA7</title>
</g>
<!-- kubernetes&#45;&gt;auditNA7 -->
<g id="edge31" class="edge">
<title>kubernetes&#45;&gt;auditNA7</title>
<path fill="none" stroke="black" d="M772,-296.58C772,-289.14 772,-281.25 772,-273.22"/>
<polygon fill="black" stroke="black" points="775.5,-273 772,-263 768.5,-273 775.5,-273"/>
</g>
<!-- alignment_node_0 -->
<g id="node40" class="node">
<title>alignment_node_0</title>
</g>
<!-- prometheus&#45;&gt;alignment_node_0 -->
<!-- createdBy -->
<g id="node37" class="node">
<title>createdBy</title>
<g id="a_node37"><a xlink:href="https://elastisys.com" target="_blank">
<image xlink:href="logos/created-by.svg" width="201px" height="36px" preserveAspectRatio="xMinYMin meet" x="603.5" y="-52"/>
</a>
</g>
</g>
<!-- title -->
<g id="node38" class="node">
<title>title</title>
<g id="a_node38"><a xlink:href="https://elastisys.io/compliantkubernetes/" xlink:title="https://elastisys.io/compliantkubernetes/" target="_blank">
<text text-anchor="middle" x="423" y="-30.3" font-family="Roboto,BlinkMacSystemFont,Helvetica,Arial,sans-serif" font-size="14.00" fill="#4651b4">https://elastisys.io/compliantkubernetes/</text>
</a>
</g>
</g>
<!-- spacing_node_0 -->
<g id="node39" class="node">
<title>spacing_node_0</title>
</g>
</g>
</svg>
