<?xml version="1.0" encoding="UTF-8" standalone="no"?>
<!DOCTYPE svg PUBLIC "-//W3C//DTD SVG 1.1//EN"
 "http://www.w3.org/Graphics/SVG/1.1/DTD/svg11.dtd">
<!-- Generated by graphviz version 2.43.0 (0)
 -->
<!-- Title: compliance_basics Pages: 1 -->
<svg width="862pt" height="801pt"
 viewBox="0.00 0.00 861.50 801.00" xmlns="http://www.w3.org/2000/svg" xmlns:xlink="http://www.w3.org/1999/xlink">
<g id="graph0" class="graph" transform="scale(1 1) rotate(0) translate(4 797)">
<title>compliance_basics</title>
<polygon fill="white" stroke="transparent" points="-4,4 -4,-797 857.5,-797 857.5,4 -4,4"/>
<g id="clust1" class="cluster">
<title>cluster_regulations</title>
<polygon fill="none" stroke="black" points="8,-703 8,-785 456,-785 456,-703 8,-703"/>
<text text-anchor="middle" x="69" y="-765" font-family="Roboto,BlinkMacSystemFont,Helvetica,Arial,sans-serif" font-size="20.00">Regulations</text>
</g>
<g id="clust2" class="cluster">
<title>cluster_isms</title>
<polygon fill="none" stroke="black" points="464,-703 464,-785 759,-785 759,-703 464,-703"/>
<text text-anchor="middle" x="611.5" y="-765" font-family="Roboto,BlinkMacSystemFont,Helvetica,Arial,sans-serif" font-size="20.00">Information Security Standards</text>
</g>
<g id="clust3" class="cluster">
<title>cluster_policies</title>
<polygon fill="none" stroke="black" points="8,-505 8,-695 816,-695 816,-505 8,-505"/>
<text text-anchor="middle" x="51" y="-675" font-family="Roboto,BlinkMacSystemFont,Helvetica,Arial,sans-serif" font-size="20.00">Policies</text>
</g>
<g id="clust7" class="cluster">
<title>cluster_implementation</title>
<polygon fill="none" stroke="black" points="8,-227 8,-497 726,-497 726,-227 8,-227"/>
<text text-anchor="middle" x="115" y="-477" font-family="Roboto,BlinkMacSystemFont,Helvetica,Arial,sans-serif" font-size="20.00">Compliant Kubernetes</text>
</g>
<g id="clust20" class="cluster">
<title>cluster_provider</title>
<polygon fill="none" stroke="black" points="98,-64 98,-219 816,-219 816,-64 98,-64"/>
<text text-anchor="middle" x="219" y="-199" font-family="Roboto,BlinkMacSystemFont,Helvetica,Arial,sans-serif" font-size="20.00">Compliant Cloud Provider</text>
</g>
<!-- title -->
<g id="node1" class="node">
<title>title</title>
<g id="a_node1"><a xlink:href="https://compliantkubernetes.io" xlink:title="compliantkubernetes.io" target="_top">
<text text-anchor="middle" x="772" y="-14.3" font-family="Roboto,BlinkMacSystemFont,Helvetica,Arial,sans-serif" font-size="14.00" fill="#4651b4">compliantkubernetes.io</text>
</a>
</g>
</g>
<!-- HIPAA -->
<g id="node2" class="node">
<title>HIPAA</title>
<g id="a_node2"><a xlink:href="https://www.cdc.gov/phlp/publications/topic/hipaa.html" xlink:title="HIPAA">
<path fill="none" stroke="black" d="M436,-747C436,-747 388,-747 388,-747 382,-747 376,-741 376,-735 376,-735 376,-723 376,-723 376,-717 382,-711 388,-711 388,-711 436,-711 436,-711 442,-711 448,-717 448,-723 448,-723 448,-735 448,-735 448,-741 442,-747 436,-747"/>
<text text-anchor="middle" x="412" y="-725.3" font-family="Roboto,BlinkMacSystemFont,Helvetica,Arial,sans-serif" font-size="14.00">HIPAA</text>
</a>
</g>
</g>
<!-- Controls -->
<g id="node10" class="node">
<title>Controls</title>
<ellipse fill="none" stroke="black" cx="412" cy="-621" rx="36" ry="36"/>
<text text-anchor="middle" x="412" y="-617.3" font-family="Roboto,BlinkMacSystemFont,Helvetica,Arial,sans-serif" font-size="14.00">Controls</text>
</g>
<!-- HIPAA&#45;&gt;Controls -->
<g id="edge1" class="edge">
<title>HIPAA&#45;&gt;Controls</title>
<path fill="none" stroke="black" d="M412,-710.97C412,-699.27 412,-683.15 412,-667.84"/>
<polygon fill="black" stroke="black" points="415.5,-667.43 412,-657.43 408.5,-667.43 415.5,-667.43"/>
</g>
<!-- PDL -->
<g id="node3" class="node">
<title>PDL</title>
<g id="a_node3"><a xlink:href="https://www.riksdagen.se/sv/dokument-lagar/dokument/svensk-forfattningssamling/patientdatalag-2008355_sfs-2008-355" xlink:title="PDL">
<path fill="none" stroke="black" d="M346,-747C346,-747 298,-747 298,-747 292,-747 286,-741 286,-735 286,-735 286,-723 286,-723 286,-717 292,-711 298,-711 298,-711 346,-711 346,-711 352,-711 358,-717 358,-723 358,-723 358,-735 358,-735 358,-741 352,-747 346,-747"/>
<text text-anchor="middle" x="322" y="-725.3" font-family="Roboto,BlinkMacSystemFont,Helvetica,Arial,sans-serif" font-size="14.00">PDL</text>
</a>
</g>
</g>
<!-- PDL&#45;&gt;Controls -->
<g id="edge2" class="edge">
<title>PDL&#45;&gt;Controls</title>
<path fill="none" stroke="black" d="M336.46,-710.97C348.78,-696.45 366.89,-675.13 382.29,-656.99"/>
<polygon fill="black" stroke="black" points="385.34,-658.81 389.15,-648.92 380.01,-654.28 385.34,-658.81"/>
</g>
<!-- GDPR -->
<g id="node4" class="node">
<title>GDPR</title>
<g id="a_node4"><a xlink:href="https://gdpr.eu/" xlink:title="GDPR">
<path fill="none" stroke="black" d="M256,-747C256,-747 208,-747 208,-747 202,-747 196,-741 196,-735 196,-735 196,-723 196,-723 196,-717 202,-711 208,-711 208,-711 256,-711 256,-711 262,-711 268,-717 268,-723 268,-723 268,-735 268,-735 268,-741 262,-747 256,-747"/>
<text text-anchor="middle" x="232" y="-725.3" font-family="Roboto,BlinkMacSystemFont,Helvetica,Arial,sans-serif" font-size="14.00">GDPR</text>
</a>
</g>
</g>
<!-- GDPR&#45;&gt;Controls -->
<g id="edge3" class="edge">
<title>GDPR&#45;&gt;Controls</title>
<path fill="none" stroke="black" d="M260.92,-710.97C291.21,-693.13 338.97,-665.01 372.67,-645.16"/>
<polygon fill="black" stroke="black" points="374.5,-648.14 381.34,-640.05 370.95,-642.11 374.5,-648.14"/>
</g>
<!-- CCPA -->
<g id="node5" class="node">
<title>CCPA</title>
<g id="a_node5"><a xlink:href="https://oag.ca.gov/privacy/ccpa" xlink:title="CCPA">
<path fill="none" stroke="black" d="M166,-747C166,-747 118,-747 118,-747 112,-747 106,-741 106,-735 106,-735 106,-723 106,-723 106,-717 112,-711 118,-711 118,-711 166,-711 166,-711 172,-711 178,-717 178,-723 178,-723 178,-735 178,-735 178,-741 172,-747 166,-747"/>
<text text-anchor="middle" x="142" y="-725.3" font-family="Roboto,BlinkMacSystemFont,Helvetica,Arial,sans-serif" font-size="14.00">CCPA</text>
</a>
</g>
</g>
<!-- CCPA&#45;&gt;Controls -->
<g id="edge4" class="edge">
<title>CCPA&#45;&gt;Controls</title>
<path fill="none" stroke="black" d="M171.18,-710.9C176.38,-708.11 181.79,-705.37 187,-703 248.28,-675.17 322.17,-650.11 368.13,-635.46"/>
<polygon fill="black" stroke="black" points="369.3,-638.77 377.78,-632.41 367.19,-632.09 369.3,-638.77"/>
</g>
<!-- FFFS -->
<g id="node6" class="node">
<title>FFFS</title>
<g id="a_node6"><a xlink:href="https://www.fi.se/en/our-registers/search-fffs/2014/20145/" xlink:title="FFFS">
<path fill="none" stroke="black" d="M76,-747C76,-747 28,-747 28,-747 22,-747 16,-741 16,-735 16,-735 16,-723 16,-723 16,-717 22,-711 28,-711 28,-711 76,-711 76,-711 82,-711 88,-717 88,-723 88,-723 88,-735 88,-735 88,-741 82,-747 76,-747"/>
<text text-anchor="middle" x="52" y="-725.3" font-family="Roboto,BlinkMacSystemFont,Helvetica,Arial,sans-serif" font-size="14.00">FFFS</text>
</a>
</g>
</g>
<!-- FFFS&#45;&gt;Controls -->
<g id="edge5" class="edge">
<title>FFFS&#45;&gt;Controls</title>
<path fill="none" stroke="black" d="M80.03,-711C85.53,-708.07 91.35,-705.25 97,-703 189.66,-666.05 304.45,-641.53 366.69,-629.87"/>
<polygon fill="black" stroke="black" points="367.39,-633.3 376.59,-628.04 366.12,-626.42 367.39,-633.3"/>
</g>
<!-- controls2 -->
<!-- FFFS&#45;&gt;controls2 -->
<!-- iso27k -->
<g id="node7" class="node">
<title>iso27k</title>
<g id="a_node7"><a xlink:href="https://www.isms.online/iso-27001/" xlink:title="ISO 27001" target="_blank">
<path fill="none" stroke="black" d="M720,-747C720,-747 664,-747 664,-747 658,-747 652,-741 652,-735 652,-735 652,-723 652,-723 652,-717 658,-711 664,-711 664,-711 720,-711 720,-711 726,-711 732,-717 732,-723 732,-723 732,-735 732,-735 732,-741 726,-747 720,-747"/>
<text text-anchor="middle" x="692" y="-725.3" font-family="Roboto,BlinkMacSystemFont,Helvetica,Arial,sans-serif" font-size="14.00">ISO 27001</text>
</a>
</g>
</g>
<!-- iso27k&#45;&gt;Controls -->
<g id="edge6" class="edge">
<title>iso27k&#45;&gt;Controls</title>
<path fill="none" stroke="black" d="M660.14,-710.97C654.49,-708.17 648.62,-705.41 643,-703 579.17,-675.67 502.73,-650.23 455.77,-635.41"/>
<polygon fill="black" stroke="black" points="456.8,-632.06 446.21,-632.4 454.7,-638.74 456.8,-632.06"/>
</g>
<!-- soc2 -->
<g id="node8" class="node">
<title>soc2</title>
<g id="a_node8"><a xlink:href="https://www.aicpa.org/interestareas/frc/assuranceadvisoryservices/aicpasoc2report.html" xlink:title="SOC 2" target="_blank">
<path fill="none" stroke="black" d="M622,-747C622,-747 574,-747 574,-747 568,-747 562,-741 562,-735 562,-735 562,-723 562,-723 562,-717 568,-711 574,-711 574,-711 622,-711 622,-711 628,-711 634,-717 634,-723 634,-723 634,-735 634,-735 634,-741 628,-747 622,-747"/>
<text text-anchor="middle" x="598" y="-725.3" font-family="Roboto,BlinkMacSystemFont,Helvetica,Arial,sans-serif" font-size="14.00">SOC 2</text>
</a>
</g>
</g>
<!-- soc2&#45;&gt;Controls -->
<g id="edge7" class="edge">
<title>soc2&#45;&gt;Controls</title>
<path fill="none" stroke="black" d="M568.12,-710.97C536.63,-693.03 486.87,-664.67 452.01,-644.8"/>
<polygon fill="black" stroke="black" points="453.47,-641.61 443.05,-639.7 450.01,-647.69 453.47,-641.61"/>
</g>
<!-- pcidss -->
<g id="node9" class="node">
<title>pcidss</title>
<g id="a_node9"><a xlink:href="https://www.pcisecuritystandards.org/" xlink:title="PCI DSS" target="_blank">
<path fill="none" stroke="black" d="M532,-747C532,-747 484,-747 484,-747 478,-747 472,-741 472,-735 472,-735 472,-723 472,-723 472,-717 478,-711 484,-711 484,-711 532,-711 532,-711 538,-711 544,-717 544,-723 544,-723 544,-735 544,-735 544,-741 538,-747 532,-747"/>
<text text-anchor="middle" x="508" y="-725.3" font-family="Roboto,BlinkMacSystemFont,Helvetica,Arial,sans-serif" font-size="14.00">PCI DSS</text>
</a>
</g>
</g>
<!-- pcidss&#45;&gt;Controls -->
<g id="edge8" class="edge">
<title>pcidss&#45;&gt;Controls</title>
<path fill="none" stroke="black" d="M492.58,-710.97C479.22,-696.22 459.49,-674.44 442.9,-656.12"/>
<polygon fill="black" stroke="black" points="445.32,-653.57 436.01,-648.51 440.13,-658.27 445.32,-653.57"/>
</g>
<!-- supplier -->
<g id="node12" class="node">
<title>supplier</title>
<path fill="none" stroke="black" d="M796,-549C796,-549 748,-549 748,-549 742,-549 736,-543 736,-537 736,-537 736,-525 736,-525 736,-519 742,-513 748,-513 748,-513 796,-513 796,-513 802,-513 808,-519 808,-525 808,-525 808,-537 808,-537 808,-543 802,-549 796,-549"/>
<text text-anchor="middle" x="772" y="-534.4" font-family="Roboto,BlinkMacSystemFont,Helvetica,Arial,sans-serif" font-size="12.00">Supplier</text>
<text text-anchor="middle" x="772" y="-521.4" font-family="Roboto,BlinkMacSystemFont,Helvetica,Arial,sans-serif" font-size="12.00">management</text>
</g>
<!-- Controls&#45;&gt;supplier -->
<g id="edge9" class="edge">
<title>Controls&#45;&gt;supplier</title>
<path fill="none" stroke="black" d="M447.37,-613.7C504.32,-603.19 619.86,-580.4 725.9,-549.13"/>
<polygon fill="black" stroke="black" points="727.22,-552.38 735.8,-546.17 725.22,-545.68 727.22,-552.38"/>
</g>
<!-- access -->
<g id="node13" class="node">
<title>access</title>
<path fill="none" stroke="black" d="M76,-549C76,-549 28,-549 28,-549 22,-549 16,-543 16,-537 16,-537 16,-525 16,-525 16,-519 22,-513 28,-513 28,-513 76,-513 76,-513 82,-513 88,-519 88,-525 88,-525 88,-537 88,-537 88,-543 82,-549 76,-549"/>
<text text-anchor="middle" x="52" y="-534.8" font-family="Roboto,BlinkMacSystemFont,Helvetica,Arial,sans-serif" font-size="14.00">Access</text>
<text text-anchor="middle" x="52" y="-519.8" font-family="Roboto,BlinkMacSystemFont,Helvetica,Arial,sans-serif" font-size="14.00">control</text>
</g>
<!-- Controls&#45;&gt;access -->
<g id="edge10" class="edge">
<title>Controls&#45;&gt;access</title>
<path fill="none" stroke="black" d="M376.63,-613.7C319.68,-603.19 204.14,-580.4 98.1,-549.13"/>
<polygon fill="black" stroke="black" points="98.78,-545.68 88.2,-546.17 96.78,-552.38 98.78,-545.68"/>
</g>
<!-- Logging -->
<g id="node14" class="node">
<title>Logging</title>
<path fill="none" stroke="black" d="M166,-549C166,-549 118,-549 118,-549 112,-549 106,-543 106,-537 106,-537 106,-525 106,-525 106,-519 112,-513 118,-513 118,-513 166,-513 166,-513 172,-513 178,-519 178,-525 178,-525 178,-537 178,-537 178,-543 172,-549 166,-549"/>
<text text-anchor="middle" x="142" y="-527.3" font-family="Roboto,BlinkMacSystemFont,Helvetica,Arial,sans-serif" font-size="14.00">Logging</text>
</g>
<!-- Controls&#45;&gt;Logging -->
<g id="edge11" class="edge">
<title>Controls&#45;&gt;Logging</title>
<path fill="none" stroke="black" d="M377.5,-609.76C335.08,-597.03 260.7,-574.26 188.06,-549.28"/>
<polygon fill="black" stroke="black" points="188.88,-545.86 178.29,-545.91 186.59,-552.48 188.88,-545.86"/>
</g>
<!-- Backups -->
<g id="node15" class="node">
<title>Backups</title>
<g id="a_node15"><a xlink:href="/ciso-guide/backup/" xlink:title="Backups" target="_top">
<path fill="none" stroke="black" d="M256,-549C256,-549 208,-549 208,-549 202,-549 196,-543 196,-537 196,-537 196,-525 196,-525 196,-519 202,-513 208,-513 208,-513 256,-513 256,-513 262,-513 268,-519 268,-525 268,-525 268,-537 268,-537 268,-543 262,-549 256,-549"/>
<text text-anchor="middle" x="232" y="-527.3" font-family="Roboto,BlinkMacSystemFont,Helvetica,Arial,sans-serif" font-size="14.00" fill="#4651b4">Backups</text>
</a>
</g>
</g>
<!-- Controls&#45;&gt;Backups -->
<g id="edge12" class="edge">
<title>Controls&#45;&gt;Backups</title>
<path fill="none" stroke="black" d="M379.82,-604.27C350.92,-590.14 308.23,-569.27 276.14,-553.58"/>
<polygon fill="black" stroke="black" points="277.5,-550.35 266.98,-549.1 274.42,-556.64 277.5,-550.35"/>
</g>
<!-- incident -->
<g id="node16" class="node">
<title>incident</title>
<g id="a_node16"><a xlink:href="/ciso-guide/policy-as-code/" xlink:title="Continuous\ncompliance" target="_top">
<path fill="none" stroke="black" d="M346,-549C346,-549 298,-549 298,-549 292,-549 286,-543 286,-537 286,-537 286,-525 286,-525 286,-519 292,-513 298,-513 298,-513 346,-513 346,-513 352,-513 358,-519 358,-525 358,-525 358,-537 358,-537 358,-543 352,-549 346,-549"/>
<text text-anchor="middle" x="322" y="-534.4" font-family="Roboto,BlinkMacSystemFont,Helvetica,Arial,sans-serif" font-size="12.00" fill="#4651b4">Continuous</text>
<text text-anchor="middle" x="322" y="-521.4" font-family="Roboto,BlinkMacSystemFont,Helvetica,Arial,sans-serif" font-size="12.00" fill="#4651b4">compliance</text>
</a>
</g>
</g>
<!-- Controls&#45;&gt;incident -->
<g id="edge13" class="edge">
<title>Controls&#45;&gt;incident</title>
<path fill="none" stroke="black" d="M386.45,-595.02C374.06,-582.9 359.22,-568.4 346.91,-556.36"/>
<polygon fill="black" stroke="black" points="349.22,-553.72 339.62,-549.23 344.32,-558.72 349.22,-553.72"/>
</g>
<!-- vulnerability -->
<g id="node17" class="node">
<title>vulnerability</title>
<path fill="none" stroke="black" d="M436,-549C436,-549 388,-549 388,-549 382,-549 376,-543 376,-537 376,-537 376,-525 376,-525 376,-519 382,-513 388,-513 388,-513 436,-513 436,-513 442,-513 448,-519 448,-525 448,-525 448,-537 448,-537 448,-543 442,-549 436,-549"/>
<text text-anchor="middle" x="412" y="-534.4" font-family="Roboto,BlinkMacSystemFont,Helvetica,Arial,sans-serif" font-size="12.00">Vulnerability</text>
<text text-anchor="middle" x="412" y="-521.4" font-family="Roboto,BlinkMacSystemFont,Helvetica,Arial,sans-serif" font-size="12.00">management</text>
</g>
<!-- Controls&#45;&gt;vulnerability -->
<g id="edge14" class="edge">
<title>Controls&#45;&gt;vulnerability</title>
<path fill="none" stroke="black" d="M412,-584.97C412,-576.44 412,-567.43 412,-559.32"/>
<polygon fill="black" stroke="black" points="415.5,-559.28 412,-549.28 408.5,-559.28 415.5,-559.28"/>
</g>
<!-- intrusion -->
<g id="node18" class="node">
<title>intrusion</title>
<g id="a_node18"><a xlink:href="/ciso-guide/intrusion-detection/" xlink:title="Intrusion\ndetection" target="_top">
<path fill="none" stroke="black" d="M526,-549C526,-549 478,-549 478,-549 472,-549 466,-543 466,-537 466,-537 466,-525 466,-525 466,-519 472,-513 478,-513 478,-513 526,-513 526,-513 532,-513 538,-519 538,-525 538,-525 538,-537 538,-537 538,-543 532,-549 526,-549"/>
<text text-anchor="middle" x="502" y="-534.8" font-family="Roboto,BlinkMacSystemFont,Helvetica,Arial,sans-serif" font-size="14.00" fill="#4651b4">Intrusion</text>
<text text-anchor="middle" x="502" y="-519.8" font-family="Roboto,BlinkMacSystemFont,Helvetica,Arial,sans-serif" font-size="14.00" fill="#4651b4">detection</text>
</a>
</g>
</g>
<!-- Controls&#45;&gt;intrusion -->
<g id="edge15" class="edge">
<title>Controls&#45;&gt;intrusion</title>
<path fill="none" stroke="black" d="M437.55,-595.02C449.94,-582.9 464.78,-568.4 477.09,-556.36"/>
<polygon fill="black" stroke="black" points="479.68,-558.72 484.38,-549.23 474.78,-553.72 479.68,-558.72"/>
</g>
<!-- network -->
<g id="node19" class="node">
<title>network</title>
<path fill="none" stroke="black" d="M616,-549C616,-549 568,-549 568,-549 562,-549 556,-543 556,-537 556,-537 556,-525 556,-525 556,-519 562,-513 568,-513 568,-513 616,-513 616,-513 622,-513 628,-519 628,-525 628,-525 628,-537 628,-537 628,-543 622,-549 616,-549"/>
<text text-anchor="middle" x="592" y="-534.8" font-family="Roboto,BlinkMacSystemFont,Helvetica,Arial,sans-serif" font-size="14.00">Network</text>
<text text-anchor="middle" x="592" y="-519.8" font-family="Roboto,BlinkMacSystemFont,Helvetica,Arial,sans-serif" font-size="14.00">security</text>
</g>
<!-- Controls&#45;&gt;network -->
<g id="edge16" class="edge">
<title>Controls&#45;&gt;network</title>
<path fill="none" stroke="black" d="M444.18,-604.27C473.08,-590.14 515.77,-569.27 547.86,-553.58"/>
<polygon fill="black" stroke="black" points="549.58,-556.64 557.02,-549.1 546.5,-550.35 549.58,-556.64"/>
</g>
<!-- crypto -->
<g id="node20" class="node">
<title>crypto</title>
<g id="a_node20"><a xlink:href="/ciso-guide/cryptography/" xlink:title="Use of\ncryptography" target="_top">
<path fill="none" stroke="black" d="M706,-549C706,-549 658,-549 658,-549 652,-549 646,-543 646,-537 646,-537 646,-525 646,-525 646,-519 652,-513 658,-513 658,-513 706,-513 706,-513 712,-513 718,-519 718,-525 718,-525 718,-537 718,-537 718,-543 712,-549 706,-549"/>
<text text-anchor="middle" x="682" y="-534.4" font-family="Roboto,BlinkMacSystemFont,Helvetica,Arial,sans-serif" font-size="12.00" fill="#4651b4">Use of</text>
<text text-anchor="middle" x="682" y="-521.4" font-family="Roboto,BlinkMacSystemFont,Helvetica,Arial,sans-serif" font-size="12.00" fill="#4651b4">cryptography</text>
</a>
</g>
</g>
<!-- Controls&#45;&gt;crypto -->
<g id="edge17" class="edge">
<title>Controls&#45;&gt;crypto</title>
<path fill="none" stroke="black" d="M446.5,-609.76C488.92,-597.03 563.3,-574.26 635.94,-549.28"/>
<polygon fill="black" stroke="black" points="637.41,-552.48 645.71,-545.91 635.12,-545.86 637.41,-552.48"/>
</g>
<!-- controls2&#45;&gt;access -->
<!-- supplier2 -->
<!-- supplier&#45;&gt;supplier2 -->
<g id="edge38" class="edge">
<title>supplier&#45;&gt;supplier2</title>
<path fill="none" stroke="black" d="M772,-512.99C772,-481.04 772,-415.1 772,-413.05"/>
</g>
<!-- dex -->
<g id="node21" class="node">
<title>dex</title>
<image xlink:href="logos/dex.png" width="72px" height="87.12px" preserveAspectRatio="xMinYMin meet" x="16" y="-459"/>
</g>
<!-- access&#45;&gt;dex -->
<g id="edge18" class="edge">
<title>access&#45;&gt;dex</title>
<path fill="none" stroke="black" d="M52,-512.99C52,-501.39 52,-485.32 52,-469.45"/>
<polygon fill="black" stroke="black" points="55.5,-469.1 52,-459.1 48.5,-469.1 55.5,-469.1"/>
</g>
<!-- elasticsearch -->
<g id="node23" class="node">
<title>elasticsearch</title>
<image xlink:href="logos/elasticsearch.png" width="72px" height="39.5725px" preserveAspectRatio="xMinYMin meet" x="106" y="-459"/>
</g>
<!-- Logging&#45;&gt;elasticsearch -->
<g id="edge20" class="edge">
<title>Logging&#45;&gt;elasticsearch</title>
<path fill="none" stroke="black" d="M142,-512.99C142,-501.39 142,-485.32 142,-469.45"/>
<polygon fill="black" stroke="black" points="145.5,-469.1 142,-459.1 138.5,-469.1 145.5,-469.1"/>
</g>
<!-- velero -->
<g id="node22" class="node">
<title>velero</title>
<g id="a_node22"><a xlink:href="https://velero.io" xlink:title="Velero" target="_blank">
<image xlink:href="logos/project-icons/velero.svg" width="72px" height="72px" preserveAspectRatio="xMinYMin meet" x="196" y="-459"/>
<text text-anchor="middle" x="232" y="-370.2" font-family="Roboto,BlinkMacSystemFont,Helvetica,Arial,sans-serif" font-size="16.00">Velero</text>
</a>
</g>
</g>
<!-- Backups&#45;&gt;velero -->
<g id="edge19" class="edge">
<title>Backups&#45;&gt;velero</title>
<path fill="none" stroke="black" d="M232,-512.99C232,-501.39 232,-485.32 232,-469.45"/>
<polygon fill="black" stroke="black" points="235.5,-469.1 232,-459.1 228.5,-469.1 235.5,-469.1"/>
</g>
<!-- prometheus -->
<g id="node25" class="node">
<title>prometheus</title>
<image xlink:href="logos/prometheus.png" width="72px" height="62.64px" preserveAspectRatio="xMinYMin meet" x="286" y="-459"/>
</g>
<!-- incident&#45;&gt;prometheus -->
<g id="edge22" class="edge">
<title>incident&#45;&gt;prometheus</title>
<path fill="none" stroke="black" d="M322,-512.99C322,-501.39 322,-485.32 322,-469.45"/>
<polygon fill="black" stroke="black" points="325.5,-469.1 322,-459.1 318.5,-469.1 325.5,-469.1"/>
</g>
<!-- harbor -->
<g id="node27" class="node">
<title>harbor</title>
<image xlink:href="logos/harbor.png" width="72px" height="88.56px" preserveAspectRatio="xMinYMin meet" x="376" y="-459"/>
</g>
<!-- vulnerability&#45;&gt;harbor -->
<g id="edge24" class="edge">
<title>vulnerability&#45;&gt;harbor</title>
<path fill="none" stroke="black" d="M412,-512.99C412,-501.39 412,-485.32 412,-469.45"/>
<polygon fill="black" stroke="black" points="415.5,-469.1 412,-459.1 408.5,-469.1 415.5,-469.1"/>
</g>
<!-- falco -->
<g id="node29" class="node">
<title>falco</title>
<image xlink:href="logos/falco.png" width="72px" height="74.16px" preserveAspectRatio="xMinYMin meet" x="466" y="-459"/>
</g>
<!-- intrusion&#45;&gt;falco -->
<g id="edge26" class="edge">
<title>intrusion&#45;&gt;falco</title>
<path fill="none" stroke="black" d="M502,-512.99C502,-501.39 502,-485.32 502,-469.45"/>
<polygon fill="black" stroke="black" points="505.5,-469.1 502,-459.1 498.5,-469.1 505.5,-469.1"/>
</g>
<!-- calico -->
<g id="node30" class="node">
<title>calico</title>
<g id="a_node30"><a xlink:href="https://www.projectcalico.org/" xlink:title="Calico" target="_blank">
<image xlink:href="logos/project-icons/calico.svg" width="72px" height="69.6667px" preserveAspectRatio="xMinYMin meet" x="556" y="-459"/>
<text text-anchor="middle" x="592" y="-370.2" font-family="Roboto,BlinkMacSystemFont,Helvetica,Arial,sans-serif" font-size="16.00">Calico</text>
</a>
</g>
</g>
<!-- network&#45;&gt;calico -->
<g id="edge27" class="edge">
<title>network&#45;&gt;calico</title>
<path fill="none" stroke="black" d="M592,-512.99C592,-501.39 592,-485.32 592,-469.45"/>
<polygon fill="black" stroke="black" points="595.5,-469.1 592,-459.1 588.5,-469.1 595.5,-469.1"/>
</g>
<!-- certmanager -->
<g id="node31" class="node">
<title>certmanager</title>
<image xlink:href="logos/cert-manager.png" width="72px" height="69.12px" preserveAspectRatio="xMinYMin meet" x="646" y="-459"/>
</g>
<!-- crypto&#45;&gt;certmanager -->
<g id="edge28" class="edge">
<title>crypto&#45;&gt;certmanager</title>
<path fill="none" stroke="black" d="M682,-512.99C682,-501.39 682,-485.32 682,-469.45"/>
<polygon fill="black" stroke="black" points="685.5,-469.1 682,-459.1 678.5,-469.1 685.5,-469.1"/>
</g>
<!-- kibana -->
<g id="node24" class="node">
<title>kibana</title>
<image xlink:href="logos/kibana.png" width="72px" height="72.72px" preserveAspectRatio="xMinYMin meet" x="106" y="-329"/>
</g>
<!-- elasticsearch&#45;&gt;kibana -->
<g id="edge21" class="edge">
<title>elasticsearch&#45;&gt;kibana</title>
<path fill="none" stroke="black" d="M142,-364.79C142,-356.54 142,-347.87 142,-339.37"/>
<polygon fill="black" stroke="black" points="145.5,-339.14 142,-329.14 138.5,-339.14 145.5,-339.14"/>
</g>
<!-- grafana -->
<g id="node26" class="node">
<title>grafana</title>
<image xlink:href="logos/grafana.png" width="72px" height="73.4694px" preserveAspectRatio="xMinYMin meet" x="286" y="-329"/>
</g>
<!-- prometheus&#45;&gt;grafana -->
<g id="edge23" class="edge">
<title>prometheus&#45;&gt;grafana</title>
<path fill="none" stroke="black" d="M322,-364.79C322,-356.54 322,-347.87 322,-339.37"/>
<polygon fill="black" stroke="black" points="325.5,-339.14 322,-329.14 318.5,-339.14 325.5,-339.14"/>
</g>
<!-- trivy -->
<g id="node28" class="node">
<title>trivy</title>
<image xlink:href="logos/trivy.png" width="58.3851px" height="94px" preserveAspectRatio="xMinYMin meet" x="382.807" y="-329"/>
</g>
<!-- harbor&#45;&gt;trivy -->
<g id="edge25" class="edge">
<title>harbor&#45;&gt;trivy</title>
<path fill="none" stroke="black" d="M412,-364.79C412,-356.54 412,-347.87 412,-339.37"/>
<polygon fill="black" stroke="black" points="415.5,-339.14 412,-329.14 408.5,-339.14 415.5,-339.14"/>
</g>
<!-- letsencrypt -->
<g id="node32" class="node">
<title>letsencrypt</title>
<image xlink:href="logos/letsencrypt.png" width="72px" height="59.76px" preserveAspectRatio="xMinYMin meet" x="646" y="-329"/>
</g>
<!-- certmanager&#45;&gt;letsencrypt -->
<g id="edge29" class="edge">
<title>certmanager&#45;&gt;letsencrypt</title>
<path fill="none" stroke="black" d="M682,-364.79C682,-356.54 682,-347.87 682,-339.37"/>
<polygon fill="black" stroke="black" points="685.5,-339.14 682,-329.14 678.5,-339.14 685.5,-339.14"/>
</g>
<!-- cloud_provider -->
<g id="node33" class="node">
<title>cloud_provider</title>
</g>
<!-- aws -->
<g id="node34" class="node">
<title>aws</title>
<image xlink:href="logos/cloud-providers/aws.png" width="72px" height="43.2px" preserveAspectRatio="xMinYMin meet" x="106" y="-129.6"/>
</g>
<!-- cloud_provider&#45;&gt;aws -->
<!-- azure -->
<g id="node35" class="node">
<title>azure</title>
<image xlink:href="logos/cloud-providers/azure.png" width="72px" height="72px" preserveAspectRatio="xMinYMin meet" x="196" y="-144"/>
</g>
<!-- cloud_provider&#45;&gt;azure -->
<!-- citycloud -->
<g id="node36" class="node">
<title>citycloud</title>
<image xlink:href="logos/cloud-providers/citycloud.png" width="67.2897px" height="72px" preserveAspectRatio="xMinYMin meet" x="288.355" y="-144"/>
</g>
<!-- cloud_provider&#45;&gt;citycloud -->
<!-- exoscale -->
<g id="node37" class="node">
<title>exoscale</title>
<image xlink:href="logos/cloud-providers/exoscale.png" width="69.9231px" height="72px" preserveAspectRatio="xMinYMin meet" x="377.038" y="-144"/>
</g>
<!-- cloud_provider&#45;&gt;exoscale -->
<!-- safespring -->
<g id="node38" class="node">
<title>safespring</title>
<image xlink:href="logos/cloud-providers/safespring.png" width="68.6307px" height="72px" preserveAspectRatio="xMinYMin meet" x="467.685" y="-144"/>
</g>
<!-- cloud_provider&#45;&gt;safespring -->
<!-- openstack -->
<g id="node39" class="node">
<title>openstack</title>
<image xlink:href="logos/cloud-providers/openstack.png" width="72px" height="65.52px" preserveAspectRatio="xMinYMin meet" x="556" y="-140.76"/>
</g>
<!-- cloud_provider&#45;&gt;openstack -->
<!-- byovm -->
<g id="node40" class="node">
<title>byovm</title>
<polygon fill="none" stroke="black" points="718,-144 646,-144 646,-72 718,-72 718,-144"/>
<text text-anchor="middle" x="682" y="-119.3" font-family="Roboto,BlinkMacSystemFont,Helvetica,Arial,sans-serif" font-size="14.00">Bring</text>
<text text-anchor="middle" x="682" y="-104.3" font-family="Roboto,BlinkMacSystemFont,Helvetica,Arial,sans-serif" font-size="14.00">Your Own</text>
<text text-anchor="middle" x="682" y="-89.3" font-family="Roboto,BlinkMacSystemFont,Helvetica,Arial,sans-serif" font-size="14.00">VMs</text>
</g>
<!-- cloud_provider&#45;&gt;byovm -->
<!-- byom -->
<g id="node41" class="node">
<title>byom</title>
<polygon fill="none" stroke="black" points="808,-144 736,-144 736,-72 808,-72 808,-144"/>
<text text-anchor="middle" x="772" y="-119.3" font-family="Roboto,BlinkMacSystemFont,Helvetica,Arial,sans-serif" font-size="14.00">Bring</text>
<text text-anchor="middle" x="772" y="-104.3" font-family="Roboto,BlinkMacSystemFont,Helvetica,Arial,sans-serif" font-size="14.00">Your Own</text>
<text text-anchor="middle" x="772" y="-89.3" font-family="Roboto,BlinkMacSystemFont,Helvetica,Arial,sans-serif" font-size="14.00">Metal</text>
</g>
<!-- cloud_provider&#45;&gt;byom -->
<!-- cloud_provider&#45;&gt;byom -->
<!-- byom&#45;&gt;title -->
<!-- supplier3 -->
<!-- supplier2&#45;&gt;supplier3 -->
<g id="edge39" class="edge">
<title>supplier2&#45;&gt;supplier3</title>
<path fill="none" stroke="black" d="M772,-410.91C772,-407.09 772,-286.85 772,-283.09"/>
</g>
<!-- supplier3&#45;&gt;cloud_provider -->
<g id="edge40" class="edge">
<title>supplier3&#45;&gt;cloud_provider</title>
<path fill="none" stroke="black" d="M772,-280.93C772,-279.4 772,-253.92 772,-229.14"/>
<polygon fill="black" stroke="black" points="775.5,-229 772,-219 768.5,-229 775.5,-229"/>
</g>
</g>
</svg>
