<?xml version="1.0" encoding="UTF-8" standalone="no"?>
<!DOCTYPE svg PUBLIC "-//W3C//DTD SVG 1.1//EN"
 "http://www.w3.org/Graphics/SVG/1.1/DTD/svg11.dtd">
<!-- Generated by graphviz version 2.43.0 (0)
 -->
<!-- Title: compliance_basics Pages: 1 -->
<svg width="836pt" height="813pt"
 viewBox="0.00 0.00 836.00 813.00" xmlns="http://www.w3.org/2000/svg" xmlns:xlink="http://www.w3.org/1999/xlink">
<g id="graph0" class="graph" transform="scale(1 1) rotate(0) translate(4 809)">
<title>compliance_basics</title>
<polygon fill="white" stroke="transparent" points="-4,4 -4,-809 832,-809 832,4 -4,4"/>
<g id="clust1" class="cluster">
<title>cluster_header</title>
</g>
<g id="clust2" class="cluster">
<title>cluster_personaldata_regulations</title>
<path fill="none" stroke="black" d="M20,-636C20,-636 264,-636 264,-636 270,-636 276,-642 276,-648 276,-648 276,-706 276,-706 276,-712 270,-718 264,-718 264,-718 20,-718 20,-718 14,-718 8,-712 8,-706 8,-706 8,-648 8,-648 8,-642 14,-636 20,-636"/>
<text text-anchor="middle" x="135" y="-698" font-family="Roboto,BlinkMacSystemFont,Helvetica,Arial,sans-serif" font-size="20.00">Personal Data Regulations</text>
</g>
<g id="clust3" class="cluster">
<title>cluster_healthtech_regulations</title>
<path fill="none" stroke="black" d="M296,-635C296,-635 496,-635 496,-635 502,-635 508,-641 508,-647 508,-647 508,-707 508,-707 508,-713 502,-719 496,-719 496,-719 296,-719 296,-719 290,-719 284,-713 284,-707 284,-707 284,-647 284,-647 284,-641 290,-635 296,-635"/>
<text text-anchor="middle" x="396" y="-699" font-family="Roboto,BlinkMacSystemFont,Helvetica,Arial,sans-serif" font-size="20.00">Healthcare Regulations</text>
</g>
<g id="clust4" class="cluster">
<title>cluster_best_practices</title>
<path fill="none" stroke="black" d="M528,-636C528,-636 754,-636 754,-636 760,-636 766,-642 766,-648 766,-648 766,-706 766,-706 766,-712 760,-718 754,-718 754,-718 528,-718 528,-718 522,-718 516,-712 516,-706 516,-706 516,-648 516,-648 516,-642 522,-636 528,-636"/>
<text text-anchor="middle" x="628" y="-698" font-family="Roboto,BlinkMacSystemFont,Helvetica,Arial,sans-serif" font-size="20.00">Security Best Practices</text>
</g>
<g id="clust5" class="cluster">
<title>cluster_policies</title>
<path fill="none" stroke="black" d="M20,-354C20,-354 804,-354 804,-354 810,-354 816,-360 816,-366 816,-366 816,-597 816,-597 816,-603 810,-609 804,-609 804,-609 20,-609 20,-609 14,-609 8,-603 8,-597 8,-597 8,-366 8,-366 8,-360 14,-354 20,-354"/>
<text text-anchor="middle" x="51" y="-589" font-family="Roboto,BlinkMacSystemFont,Helvetica,Arial,sans-serif" font-size="20.00">Policies</text>
</g>
<g id="clust8" class="cluster">
<title>cluster_implementation</title>
<path fill="none" stroke="black" d="M20,-181C20,-181 804,-181 804,-181 810,-181 816,-187 816,-193 816,-193 816,-316 816,-316 816,-322 810,-328 804,-328 804,-328 20,-328 20,-328 14,-328 8,-322 8,-316 8,-316 8,-193 8,-193 8,-187 14,-181 20,-181"/>
<text text-anchor="middle" x="115" y="-308" font-family="Roboto,BlinkMacSystemFont,Helvetica,Arial,sans-serif" font-size="20.00">Compliant Kubernetes</text>
</g>
<g id="clust18" class="cluster">
<title>cluster_audit</title>
<path fill="none" stroke="black" d="M20,-8C20,-8 804,-8 804,-8 810,-8 816,-14 816,-20 816,-20 816,-143 816,-143 816,-149 810,-155 804,-155 804,-155 20,-155 20,-155 14,-155 8,-149 8,-143 8,-143 8,-20 8,-20 8,-14 14,-8 20,-8"/>
<text text-anchor="middle" x="256.5" y="-135" font-family="Roboto,BlinkMacSystemFont,Helvetica,Arial,sans-serif" font-size="20.00">Compliant Kubernetes Visibility and Audit Dashboards</text>
</g>
<!-- createdBy -->
<g id="node1" class="node">
<title>createdBy</title>
<image xlink:href="logos/created-by.svg" width="201px" height="36px" preserveAspectRatio="xMinYMin meet" x="603.5" y="-789"/>
</g>
<!-- title -->
<g id="node2" class="node">
<title>title</title>
<g id="a_node2"><a xlink:href="https://compliantkubernetes.io" xlink:title="compliantkubernetes.io" target="_top">
<text text-anchor="middle" x="423" y="-767.3" font-family="Roboto,BlinkMacSystemFont,Helvetica,Arial,sans-serif" font-size="14.00" fill="#4651b4">compliantkubernetes.io</text>
</a>
</g>
</g>
<!-- spacing_node_0 -->
<g id="node3" class="node">
<title>spacing_node_0</title>
</g>
<!-- alignment_node_0 -->
<g id="node4" class="node">
<title>alignment_node_0</title>
</g>
<!-- GDPR -->
<g id="node7" class="node">
<title>GDPR</title>
<g id="a_node7"><a xlink:href="https://gdpr.eu/" xlink:title="GDPR" target="_blank">
<path fill="none" stroke="black" d="M76,-680C76,-680 28,-680 28,-680 22,-680 16,-674 16,-668 16,-668 16,-656 16,-656 16,-650 22,-644 28,-644 28,-644 76,-644 76,-644 82,-644 88,-650 88,-656 88,-656 88,-668 88,-668 88,-674 82,-680 76,-680"/>
<text text-anchor="middle" x="52" y="-658.3" font-family="Roboto,BlinkMacSystemFont,Helvetica,Arial,sans-serif" font-size="14.00">GDPR</text>
</a>
</g>
</g>
<!-- alignment_node_0&#45;&gt;GDPR -->
<!-- alignment_node_1 -->
<!-- alignment_node_2 -->
<!-- Controls -->
<g id="node12" class="node">
<title>Controls</title>
<ellipse fill="none" stroke="black" cx="412" cy="-520.5" rx="50.5" ry="50.5"/>
<text text-anchor="middle" x="412" y="-524.3" font-family="Roboto,BlinkMacSystemFont,Helvetica,Arial,sans-serif" font-size="14.00">ISO 27001</text>
<text text-anchor="middle" x="412" y="-509.3" font-family="Roboto,BlinkMacSystemFont,Helvetica,Arial,sans-serif" font-size="14.00">Controls</text>
</g>
<!-- GDPR&#45;&gt;Controls -->
<g id="edge1" class="edge">
<title>GDPR&#45;&gt;Controls</title>
<path fill="none" stroke="black" d="M88.17,-646.99C150.96,-622.65 280.59,-572.42 355.4,-543.43"/>
<polygon fill="black" stroke="black" points="357.07,-546.54 365.13,-539.66 354.54,-540.01 357.07,-546.54"/>
</g>
<!-- controls2 -->
<!-- GDPR&#45;&gt;controls2 -->
<!-- alignment_node_3 -->
<!-- PDL -->
<g id="node9" class="node">
<title>PDL</title>
<g id="a_node9"><a xlink:href="https://www.riksdagen.se/sv/dokument-lagar/dokument/svensk-forfattningssamling/patientdatalag-2008355_sfs-2008-355" xlink:title="Patient data law\n(HSLF&#45;FS 2016:40)" target="_blank">
<path fill="none" stroke="black" d="M419.5,-681C419.5,-681 312.5,-681 312.5,-681 306.5,-681 300.5,-675 300.5,-669 300.5,-669 300.5,-655 300.5,-655 300.5,-649 306.5,-643 312.5,-643 312.5,-643 419.5,-643 419.5,-643 425.5,-643 431.5,-649 431.5,-655 431.5,-655 431.5,-669 431.5,-669 431.5,-675 425.5,-681 419.5,-681"/>
<text text-anchor="middle" x="366" y="-665.8" font-family="Roboto,BlinkMacSystemFont,Helvetica,Arial,sans-serif" font-size="14.00">Patient data law</text>
<text text-anchor="middle" x="366" y="-650.8" font-family="Roboto,BlinkMacSystemFont,Helvetica,Arial,sans-serif" font-size="14.00">(HSLF&#45;FS 2016:40)</text>
</a>
</g>
</g>
<!-- PDL&#45;&gt;Controls -->
<g id="edge2" class="edge">
<title>PDL&#45;&gt;Controls</title>
<path fill="none" stroke="black" d="M372.01,-642.76C377.4,-626.41 385.61,-601.53 393.19,-578.55"/>
<polygon fill="black" stroke="black" points="396.58,-579.45 396.39,-568.85 389.93,-577.25 396.58,-579.45"/>
</g>
<!-- NSA -->
<g id="node10" class="node">
<title>NSA</title>
<g id="a_node10"><a xlink:href="https://media.defense.gov/2021/Aug/03/2002820425/-1/-1/1/CTR_KUBERNETES%20HARDENING%20GUIDANCE.PDF" xlink:title="NSA" target="_blank">
<path fill="none" stroke="black" d="M746,-680C746,-680 662,-680 662,-680 656,-680 650,-674 650,-668 650,-668 650,-656 650,-656 650,-650 656,-644 662,-644 662,-644 746,-644 746,-644 752,-644 758,-650 758,-656 758,-656 758,-668 758,-668 758,-674 752,-680 746,-680"/>
<text text-anchor="middle" x="704" y="-658.3" font-family="Roboto,BlinkMacSystemFont,Helvetica,Arial,sans-serif" font-size="14.00">NSA</text>
</a>
</g>
</g>
<!-- NSA&#45;&gt;Controls -->
<g id="edge3" class="edge">
<title>NSA&#45;&gt;Controls</title>
<path fill="none" stroke="black" d="M668.2,-643.89C617.74,-619.79 525.33,-575.64 466.37,-547.47"/>
<polygon fill="black" stroke="black" points="467.74,-544.25 457.2,-543.1 464.72,-550.56 467.74,-544.25"/>
</g>
<!-- EDPB -->
<g id="node11" class="node">
<title>EDPB</title>
<g id="a_node11"><a xlink:href="https://edpb.europa.eu/system/files/2021-06/edpb_recommendations_202001vo.2.0_supplementarymeasurestransferstools_en.pdf" xlink:title="EDPB" target="_blank">
<path fill="none" stroke="black" d="M620,-680C620,-680 536,-680 536,-680 530,-680 524,-674 524,-668 524,-668 524,-656 524,-656 524,-650 530,-644 536,-644 536,-644 620,-644 620,-644 626,-644 632,-650 632,-656 632,-656 632,-668 632,-668 632,-674 626,-680 620,-680"/>
<text text-anchor="middle" x="578" y="-658.3" font-family="Roboto,BlinkMacSystemFont,Helvetica,Arial,sans-serif" font-size="14.00">EDPB</text>
</a>
</g>
</g>
<!-- EDPB&#45;&gt;Controls -->
<g id="edge4" class="edge">
<title>EDPB&#45;&gt;Controls</title>
<path fill="none" stroke="black" d="M557.65,-643.89C532.96,-623.15 490.6,-587.55 457.9,-560.07"/>
<polygon fill="black" stroke="black" points="460.15,-557.39 450.24,-553.64 455.64,-562.75 460.15,-557.39"/>
</g>
<!-- access -->
<g id="node13" class="node">
<title>access</title>
<path fill="none" stroke="black" d="M76,-398C76,-398 28,-398 28,-398 22,-398 16,-392 16,-386 16,-386 16,-374 16,-374 16,-368 22,-362 28,-362 28,-362 76,-362 76,-362 82,-362 88,-368 88,-374 88,-374 88,-386 88,-386 88,-392 82,-398 76,-398"/>
<text text-anchor="middle" x="52" y="-383.8" font-family="Roboto,BlinkMacSystemFont,Helvetica,Arial,sans-serif" font-size="14.00">Access</text>
<text text-anchor="middle" x="52" y="-368.8" font-family="Roboto,BlinkMacSystemFont,Helvetica,Arial,sans-serif" font-size="14.00">control</text>
</g>
<!-- Controls&#45;&gt;access -->
<g id="edge5" class="edge">
<title>Controls&#45;&gt;access</title>
<path fill="none" stroke="black" d="M364.94,-501.39C295.54,-474.7 166.59,-425.09 97.88,-398.65"/>
<polygon fill="black" stroke="black" points="98.79,-395.25 88.2,-394.93 96.27,-401.78 98.79,-395.25"/>
</g>
<!-- logging -->
<g id="node14" class="node">
<title>logging</title>
<path fill="none" stroke="black" d="M166,-398C166,-398 118,-398 118,-398 112,-398 106,-392 106,-386 106,-386 106,-374 106,-374 106,-368 112,-362 118,-362 118,-362 166,-362 166,-362 172,-362 178,-368 178,-374 178,-374 178,-386 178,-386 178,-392 172,-398 166,-398"/>
<text text-anchor="middle" x="142" y="-376.3" font-family="Roboto,BlinkMacSystemFont,Helvetica,Arial,sans-serif" font-size="14.00">Logging</text>
</g>
<!-- Controls&#45;&gt;logging -->
<g id="edge6" class="edge">
<title>Controls&#45;&gt;logging</title>
<path fill="none" stroke="black" d="M367.41,-496.63C316.51,-470.52 233.87,-428.13 184.05,-402.57"/>
<polygon fill="black" stroke="black" points="185.64,-399.45 175.15,-398 182.45,-405.68 185.64,-399.45"/>
</g>
<!-- backups -->
<g id="node15" class="node">
<title>backups</title>
<g id="a_node15"><a xlink:href="/ciso-guide/backup/" xlink:title="Backup" target="_top">
<path fill="none" stroke="black" d="M256,-398C256,-398 208,-398 208,-398 202,-398 196,-392 196,-386 196,-386 196,-374 196,-374 196,-368 202,-362 208,-362 208,-362 256,-362 256,-362 262,-362 268,-368 268,-374 268,-374 268,-386 268,-386 268,-392 262,-398 256,-398"/>
<text text-anchor="middle" x="232" y="-376.3" font-family="Roboto,BlinkMacSystemFont,Helvetica,Arial,sans-serif" font-size="14.00" fill="#4651b4">Backup</text>
</a>
</g>
</g>
<!-- Controls&#45;&gt;backups -->
<g id="edge7" class="edge">
<title>Controls&#45;&gt;backups</title>
<path fill="none" stroke="black" d="M372.05,-488.76C338.92,-463.27 292.51,-427.56 262.35,-404.36"/>
<polygon fill="black" stroke="black" points="264.36,-401.49 254.3,-398.16 260.09,-407.03 264.36,-401.49"/>
</g>
<!-- continuous -->
<g id="node16" class="node">
<title>continuous</title>
<g id="a_node16"><a xlink:href="/ciso-guide/policy-as-code/" xlink:title="Continuous\ncompliance" target="_top">
<path fill="none" stroke="black" d="M346,-398C346,-398 298,-398 298,-398 292,-398 286,-392 286,-386 286,-386 286,-374 286,-374 286,-368 292,-362 298,-362 298,-362 346,-362 346,-362 352,-362 358,-368 358,-374 358,-374 358,-386 358,-386 358,-392 352,-398 346,-398"/>
<text text-anchor="middle" x="322" y="-383.4" font-family="Roboto,BlinkMacSystemFont,Helvetica,Arial,sans-serif" font-size="12.00" fill="#4651b4">Continuous</text>
<text text-anchor="middle" x="322" y="-370.4" font-family="Roboto,BlinkMacSystemFont,Helvetica,Arial,sans-serif" font-size="12.00" fill="#4651b4">compliance</text>
</a>
</g>
</g>
<!-- Controls&#45;&gt;continuous -->
<g id="edge8" class="edge">
<title>Controls&#45;&gt;continuous</title>
<path fill="none" stroke="black" d="M384.75,-477.57C369.77,-454.51 351.65,-426.64 338.75,-406.77"/>
<polygon fill="black" stroke="black" points="341.6,-404.74 333.21,-398.26 335.73,-408.55 341.6,-404.74"/>
</g>
<!-- vulnerability -->
<g id="node17" class="node">
<title>vulnerability</title>
<path fill="none" stroke="black" d="M436,-398C436,-398 388,-398 388,-398 382,-398 376,-392 376,-386 376,-386 376,-374 376,-374 376,-368 382,-362 388,-362 388,-362 436,-362 436,-362 442,-362 448,-368 448,-374 448,-374 448,-386 448,-386 448,-392 442,-398 436,-398"/>
<text text-anchor="middle" x="412" y="-383.4" font-family="Roboto,BlinkMacSystemFont,Helvetica,Arial,sans-serif" font-size="12.00">Vulnerability</text>
<text text-anchor="middle" x="412" y="-370.4" font-family="Roboto,BlinkMacSystemFont,Helvetica,Arial,sans-serif" font-size="12.00">management</text>
</g>
<!-- Controls&#45;&gt;vulnerability -->
<g id="edge9" class="edge">
<title>Controls&#45;&gt;vulnerability</title>
<path fill="none" stroke="black" d="M412,-469.89C412,-449.19 412,-425.94 412,-408.41"/>
<polygon fill="black" stroke="black" points="415.5,-408.31 412,-398.31 408.5,-408.31 415.5,-408.31"/>
</g>
<!-- intrusion -->
<g id="node18" class="node">
<title>intrusion</title>
<g id="a_node18"><a xlink:href="/ciso-guide/intrusion-detection/" xlink:title="Intrusion\ndetection" target="_top">
<path fill="none" stroke="black" d="M526,-398C526,-398 478,-398 478,-398 472,-398 466,-392 466,-386 466,-386 466,-374 466,-374 466,-368 472,-362 478,-362 478,-362 526,-362 526,-362 532,-362 538,-368 538,-374 538,-374 538,-386 538,-386 538,-392 532,-398 526,-398"/>
<text text-anchor="middle" x="502" y="-383.8" font-family="Roboto,BlinkMacSystemFont,Helvetica,Arial,sans-serif" font-size="14.00" fill="#4651b4">Intrusion</text>
<text text-anchor="middle" x="502" y="-368.8" font-family="Roboto,BlinkMacSystemFont,Helvetica,Arial,sans-serif" font-size="14.00" fill="#4651b4">detection</text>
</a>
</g>
</g>
<!-- Controls&#45;&gt;intrusion -->
<g id="edge10" class="edge">
<title>Controls&#45;&gt;intrusion</title>
<path fill="none" stroke="black" d="M439.25,-477.57C454.23,-454.51 472.35,-426.64 485.25,-406.77"/>
<polygon fill="black" stroke="black" points="488.27,-408.55 490.79,-398.26 482.4,-404.74 488.27,-408.55"/>
</g>
<!-- network -->
<g id="node19" class="node">
<title>network</title>
<g id="a_node19"><a xlink:href="/ciso-guide/network-security/" xlink:title="Network\nsecurity" target="_top">
<path fill="none" stroke="black" d="M616,-398C616,-398 568,-398 568,-398 562,-398 556,-392 556,-386 556,-386 556,-374 556,-374 556,-368 562,-362 568,-362 568,-362 616,-362 616,-362 622,-362 628,-368 628,-374 628,-374 628,-386 628,-386 628,-392 622,-398 616,-398"/>
<text text-anchor="middle" x="592" y="-383.8" font-family="Roboto,BlinkMacSystemFont,Helvetica,Arial,sans-serif" font-size="14.00" fill="#4651b4">Network</text>
<text text-anchor="middle" x="592" y="-368.8" font-family="Roboto,BlinkMacSystemFont,Helvetica,Arial,sans-serif" font-size="14.00" fill="#4651b4">security</text>
</a>
</g>
</g>
<!-- Controls&#45;&gt;network -->
<g id="edge11" class="edge">
<title>Controls&#45;&gt;network</title>
<path fill="none" stroke="black" d="M451.95,-488.76C485.08,-463.27 531.49,-427.56 561.65,-404.36"/>
<polygon fill="black" stroke="black" points="563.91,-407.03 569.7,-398.16 559.64,-401.49 563.91,-407.03"/>
</g>
<!-- crypto -->
<g id="node20" class="node">
<title>crypto</title>
<g id="a_node20"><a xlink:href="/ciso-guide/cryptography/" xlink:title="Use of\ncryptography" target="_top">
<path fill="none" stroke="black" d="M706,-398C706,-398 658,-398 658,-398 652,-398 646,-392 646,-386 646,-386 646,-374 646,-374 646,-368 652,-362 658,-362 658,-362 706,-362 706,-362 712,-362 718,-368 718,-374 718,-374 718,-386 718,-386 718,-392 712,-398 706,-398"/>
<text text-anchor="middle" x="682" y="-383.4" font-family="Roboto,BlinkMacSystemFont,Helvetica,Arial,sans-serif" font-size="12.00" fill="#4651b4">Use of</text>
<text text-anchor="middle" x="682" y="-370.4" font-family="Roboto,BlinkMacSystemFont,Helvetica,Arial,sans-serif" font-size="12.00" fill="#4651b4">cryptography</text>
</a>
</g>
</g>
<!-- Controls&#45;&gt;crypto -->
<g id="edge12" class="edge">
<title>Controls&#45;&gt;crypto</title>
<path fill="none" stroke="black" d="M456.59,-496.63C507.49,-470.52 590.13,-428.13 639.95,-402.57"/>
<polygon fill="black" stroke="black" points="641.55,-405.68 648.85,-398 638.36,-399.45 641.55,-405.68"/>
</g>
<!-- capacity -->
<g id="node21" class="node">
<title>capacity</title>
<path fill="none" stroke="black" d="M796,-398C796,-398 748,-398 748,-398 742,-398 736,-392 736,-386 736,-386 736,-374 736,-374 736,-368 742,-362 748,-362 748,-362 796,-362 796,-362 802,-362 808,-368 808,-374 808,-374 808,-386 808,-386 808,-392 802,-398 796,-398"/>
<text text-anchor="middle" x="772" y="-383.2" font-family="Roboto,BlinkMacSystemFont,Helvetica,Arial,sans-serif" font-size="11.00">Capacity</text>
<text text-anchor="middle" x="772" y="-371.2" font-family="Roboto,BlinkMacSystemFont,Helvetica,Arial,sans-serif" font-size="11.00">management</text>
</g>
<!-- Controls&#45;&gt;capacity -->
<g id="edge13" class="edge">
<title>Controls&#45;&gt;capacity</title>
<path fill="none" stroke="black" d="M459.06,-501.39C528.46,-474.7 657.41,-425.09 726.12,-398.65"/>
<polygon fill="black" stroke="black" points="727.73,-401.78 735.8,-394.93 725.21,-395.25 727.73,-401.78"/>
</g>
<!-- dex -->
<g id="node23" class="node">
<title>dex</title>
<g id="a_node23"><a xlink:href="https://dexidp.io/" xlink:title="Dex" target="_blank">
<image xlink:href="logos/project-icons/dex.svg" width="72px" height="71.301px" preserveAspectRatio="xMinYMin meet" x="16" y="-290"/>
<text text-anchor="middle" x="52" y="-194.2" font-family="Roboto,BlinkMacSystemFont,Helvetica,Arial,sans-serif" font-size="16.00">Dex</text>
</a>
</g>
</g>
<!-- access&#45;&gt;dex -->
<g id="edge14" class="edge">
<title>access&#45;&gt;dex</title>
<path fill="none" stroke="black" d="M47.36,-361.74C45.72,-346.27 45.04,-322.64 45.31,-300.34"/>
<polygon fill="black" stroke="black" points="48.81,-300.29 45.49,-290.23 41.81,-300.16 48.81,-300.29"/>
</g>
<!-- access&#45;&gt;dex -->
<!-- elasticsearch -->
<g id="node25" class="node">
<title>elasticsearch</title>
<g id="a_node25"><a xlink:href="https://opendistro.github.io/for-elasticsearch/" xlink:title="Elasticsearch" target="_blank">
<image xlink:href="logos/project-icons/opendistro.svg" width="72px" height="71.7131px" preserveAspectRatio="xMinYMin meet" x="106" y="-290"/>
<text text-anchor="middle" x="142" y="-192.8" font-family="Roboto,BlinkMacSystemFont,Helvetica,Arial,sans-serif" font-size="14.00">Elasticsearch</text>
</a>
</g>
</g>
<!-- logging&#45;&gt;elasticsearch -->
<g id="edge16" class="edge">
<title>logging&#45;&gt;elasticsearch</title>
<path fill="none" stroke="black" d="M142,-361.74C142,-346.27 142,-322.64 142,-300.34"/>
<polygon fill="black" stroke="black" points="145.5,-300.22 142,-290.23 138.5,-300.23 145.5,-300.22"/>
</g>
<!-- velero -->
<g id="node24" class="node">
<title>velero</title>
<g id="a_node24"><a xlink:href="https://velero.io" xlink:title="Velero" target="_blank">
<image xlink:href="logos/project-icons/velero.svg" width="72px" height="72px" preserveAspectRatio="xMinYMin meet" x="196" y="-290"/>
<text text-anchor="middle" x="232" y="-194.2" font-family="Roboto,BlinkMacSystemFont,Helvetica,Arial,sans-serif" font-size="16.00">Velero</text>
</a>
</g>
</g>
<!-- backups&#45;&gt;velero -->
<g id="edge15" class="edge">
<title>backups&#45;&gt;velero</title>
<path fill="none" stroke="black" d="M232,-361.74C232,-346.27 232,-322.64 232,-300.34"/>
<polygon fill="black" stroke="black" points="235.5,-300.22 232,-290.23 228.5,-300.23 235.5,-300.22"/>
</g>
<!-- opa -->
<g id="node26" class="node">
<title>opa</title>
<g id="a_node26"><a xlink:href="https://open-policy-agent.github.io/gatekeeper/website/docs/" xlink:title="OPA" target="_blank">
<image xlink:href="logos/project-icons/opa.svg" width="72px" height="83.5041px" preserveAspectRatio="xMinYMin meet" x="286" y="-290"/>
<text text-anchor="middle" x="322" y="-194.2" font-family="Roboto,BlinkMacSystemFont,Helvetica,Arial,sans-serif" font-size="16.00">OPA</text>
</a>
</g>
</g>
<!-- continuous&#45;&gt;opa -->
<g id="edge17" class="edge">
<title>continuous&#45;&gt;opa</title>
<path fill="none" stroke="black" d="M322,-361.74C322,-346.27 322,-322.64 322,-300.34"/>
<polygon fill="black" stroke="black" points="325.5,-300.22 322,-290.23 318.5,-300.23 325.5,-300.22"/>
</g>
<!-- trivy -->
<g id="node27" class="node">
<title>trivy</title>
<g id="a_node27"><a xlink:href="https://github.com/aquasecurity/trivy" xlink:title="Trivy" target="_blank">
<image xlink:href="logos/project-icons/trivy.svg" width="72px" height="83.4545px" preserveAspectRatio="xMinYMin meet" x="376" y="-290"/>
<text text-anchor="middle" x="412" y="-194.2" font-family="Roboto,BlinkMacSystemFont,Helvetica,Arial,sans-serif" font-size="16.00">Trivy</text>
</a>
</g>
</g>
<!-- vulnerability&#45;&gt;trivy -->
<g id="edge18" class="edge">
<title>vulnerability&#45;&gt;trivy</title>
<path fill="none" stroke="black" d="M412,-361.74C412,-346.27 412,-322.64 412,-300.34"/>
<polygon fill="black" stroke="black" points="415.5,-300.22 412,-290.23 408.5,-300.23 415.5,-300.22"/>
</g>
<!-- falco -->
<g id="node28" class="node">
<title>falco</title>
<g id="a_node28"><a xlink:href="https://falco.org/" xlink:title="Falco" target="_blank">
<image xlink:href="logos/project-icons/falco.svg" width="72px" height="81.8507px" preserveAspectRatio="xMinYMin meet" x="466" y="-290"/>
<text text-anchor="middle" x="502" y="-194.2" font-family="Roboto,BlinkMacSystemFont,Helvetica,Arial,sans-serif" font-size="16.00">Falco</text>
</a>
</g>
</g>
<!-- intrusion&#45;&gt;falco -->
<g id="edge19" class="edge">
<title>intrusion&#45;&gt;falco</title>
<path fill="none" stroke="black" d="M502,-361.74C502,-346.27 502,-322.64 502,-300.34"/>
<polygon fill="black" stroke="black" points="505.5,-300.22 502,-290.23 498.5,-300.23 505.5,-300.22"/>
</g>
<!-- calico -->
<g id="node29" class="node">
<title>calico</title>
<g id="a_node29"><a xlink:href="https://www.projectcalico.org/" xlink:title="Calico" target="_blank">
<image xlink:href="logos/project-icons/calico.svg" width="72px" height="69.6667px" preserveAspectRatio="xMinYMin meet" x="556" y="-290"/>
<text text-anchor="middle" x="592" y="-194.2" font-family="Roboto,BlinkMacSystemFont,Helvetica,Arial,sans-serif" font-size="16.00">Calico</text>
</a>
</g>
</g>
<!-- network&#45;&gt;calico -->
<g id="edge20" class="edge">
<title>network&#45;&gt;calico</title>
<path fill="none" stroke="black" d="M592,-361.74C592,-346.27 592,-322.64 592,-300.34"/>
<polygon fill="black" stroke="black" points="595.5,-300.22 592,-290.23 588.5,-300.23 595.5,-300.22"/>
</g>
<!-- certmanager -->
<g id="node30" class="node">
<title>certmanager</title>
<g id="a_node30"><a xlink:href="https://cert-manager.io/" xlink:title="Cert Manager" target="_blank">
<image xlink:href="logos/project-icons/cert-manager.svg" width="72px" height="69.5303px" preserveAspectRatio="xMinYMin meet" x="646" y="-290"/>
<text text-anchor="middle" x="682" y="-192.8" font-family="Roboto,BlinkMacSystemFont,Helvetica,Arial,sans-serif" font-size="14.00">Cert Manager</text>
</a>
</g>
</g>
<!-- crypto&#45;&gt;certmanager -->
<g id="edge21" class="edge">
<title>crypto&#45;&gt;certmanager</title>
<path fill="none" stroke="black" d="M682,-361.74C682,-346.27 682,-322.64 682,-300.34"/>
<polygon fill="black" stroke="black" points="685.5,-300.22 682,-290.23 678.5,-300.23 685.5,-300.22"/>
</g>
<!-- kubernetes -->
<g id="node31" class="node">
<title>kubernetes</title>
<g id="a_node31"><a xlink:href="https://kubernetes.io/" xlink:title="Kubernetes" target="_blank">
<image xlink:href="logos/project-icons/kubernetes.svg" width="72px" height="69.8182px" preserveAspectRatio="xMinYMin meet" x="736" y="-290"/>
<text text-anchor="middle" x="772" y="-192.8" font-family="Roboto,BlinkMacSystemFont,Helvetica,Arial,sans-serif" font-size="14.00">Kubernetes</text>
</a>
</g>
</g>
<!-- capacity&#45;&gt;kubernetes -->
<g id="edge22" class="edge">
<title>capacity&#45;&gt;kubernetes</title>
<path fill="none" stroke="black" d="M772,-361.74C772,-346.27 772,-322.64 772,-300.34"/>
<polygon fill="black" stroke="black" points="775.5,-300.22 772,-290.23 768.5,-300.23 775.5,-300.22"/>
</g>
<!-- controls2&#45;&gt;access -->
<!-- prometheus -->
<g id="node32" class="node">
<title>prometheus</title>
<g id="a_node32"><a xlink:href="https://prometheus.io/" xlink:title="Prometheus" target="_blank">
<image xlink:href="logos/project-icons/prometheus.svg" width="72px" height="70.6479px" preserveAspectRatio="xMinYMin meet" x="16" y="-117"/>
<text text-anchor="middle" x="52" y="-19.4" font-family="Roboto,BlinkMacSystemFont,Helvetica,Arial,sans-serif" font-size="12.00">Prometheus</text>
</a>
</g>
</g>
<!-- dex&#45;&gt;prometheus -->
<g id="edge23" class="edge">
<title>dex&#45;&gt;prometheus</title>
<path fill="none" stroke="black" d="M45.8,-188.58C45.56,-181.14 45.39,-173.25 45.31,-165.22"/>
<polygon fill="black" stroke="black" points="48.81,-164.98 45.25,-155 41.81,-165.02 48.81,-164.98"/>
</g>
<!-- dex&#45;&gt;prometheus -->
<!-- alerts -->
<g id="node34" class="node">
<title>alerts</title>
<image xlink:href="alerts.svg" width="72px" height="72px" preserveAspectRatio="xMinYMin meet" x="196" y="-117"/>
<text text-anchor="middle" x="232" y="-21.2" font-family="Roboto,BlinkMacSystemFont,Helvetica,Arial,sans-serif" font-size="16.00">Alerts</text>
</g>
<!-- velero&#45;&gt;alerts -->
<g id="edge25" class="edge">
<title>velero&#45;&gt;alerts</title>
<path fill="none" stroke="black" d="M232,-188.58C232,-181.14 232,-173.25 232,-165.22"/>
<polygon fill="black" stroke="black" points="235.5,-165 232,-155 228.5,-165 235.5,-165"/>
</g>
<!-- grafana -->
<g id="node33" class="node">
<title>grafana</title>
<g id="a_node33"><a xlink:href="https://github.com/grafana/grafana" xlink:title="Grafana" target="_blank">
<image xlink:href="logos/project-icons/grafana.svg" width="72px" height="75.0114px" preserveAspectRatio="xMinYMin meet" x="106" y="-117"/>
<text text-anchor="middle" x="142" y="-21.2" font-family="Roboto,BlinkMacSystemFont,Helvetica,Arial,sans-serif" font-size="16.00">Grafana</text>
</a>
</g>
</g>
<!-- elasticsearch&#45;&gt;grafana -->
<g id="edge24" class="edge">
<title>elasticsearch&#45;&gt;grafana</title>
<path fill="none" stroke="black" d="M142,-188.58C142,-181.14 142,-173.25 142,-165.22"/>
<polygon fill="black" stroke="black" points="145.5,-165 142,-155 138.5,-165 145.5,-165"/>
</g>
<!-- auditNA2 -->
<g id="node35" class="node">
<title>auditNA2</title>
</g>
<!-- opa&#45;&gt;auditNA2 -->
<g id="edge26" class="edge">
<title>opa&#45;&gt;auditNA2</title>
<path fill="none" stroke="black" d="M322,-188.58C322,-181.14 322,-173.25 322,-165.22"/>
<polygon fill="black" stroke="black" points="325.5,-165 322,-155 318.5,-165 325.5,-165"/>
</g>
<!-- auditNA3 -->
<g id="node36" class="node">
<title>auditNA3</title>
</g>
<!-- trivy&#45;&gt;auditNA3 -->
<g id="edge27" class="edge">
<title>trivy&#45;&gt;auditNA3</title>
<path fill="none" stroke="black" d="M412,-188.58C412,-181.14 412,-173.25 412,-165.22"/>
<polygon fill="black" stroke="black" points="415.5,-165 412,-155 408.5,-165 415.5,-165"/>
</g>
<!-- auditNA4 -->
<g id="node37" class="node">
<title>auditNA4</title>
</g>
<!-- falco&#45;&gt;auditNA4 -->
<g id="edge28" class="edge">
<title>falco&#45;&gt;auditNA4</title>
<path fill="none" stroke="black" d="M502,-188.58C502,-181.14 502,-173.25 502,-165.22"/>
<polygon fill="black" stroke="black" points="505.5,-165 502,-155 498.5,-165 505.5,-165"/>
</g>
<!-- auditNA5 -->
<g id="node38" class="node">
<title>auditNA5</title>
</g>
<!-- calico&#45;&gt;auditNA5 -->
<g id="edge29" class="edge">
<title>calico&#45;&gt;auditNA5</title>
<path fill="none" stroke="black" d="M592,-188.58C592,-181.14 592,-173.25 592,-165.22"/>
<polygon fill="black" stroke="black" points="595.5,-165 592,-155 588.5,-165 595.5,-165"/>
</g>
<!-- auditNA6 -->
<g id="node39" class="node">
<title>auditNA6</title>
</g>
<!-- certmanager&#45;&gt;auditNA6 -->
<g id="edge30" class="edge">
<title>certmanager&#45;&gt;auditNA6</title>
<path fill="none" stroke="black" d="M682,-188.58C682,-181.14 682,-173.25 682,-165.22"/>
<polygon fill="black" stroke="black" points="685.5,-165 682,-155 678.5,-165 685.5,-165"/>
</g>
<!-- auditNA7 -->
<g id="node40" class="node">
<title>auditNA7</title>
</g>
<!-- kubernetes&#45;&gt;auditNA7 -->
<g id="edge31" class="edge">
<title>kubernetes&#45;&gt;auditNA7</title>
<path fill="none" stroke="black" d="M772,-188.58C772,-181.14 772,-173.25 772,-165.22"/>
<polygon fill="black" stroke="black" points="775.5,-165 772,-155 768.5,-165 775.5,-165"/>
</g>
</g>
</svg>
