<?xml version="1.0" encoding="UTF-8" standalone="no"?>
<!DOCTYPE svg PUBLIC "-//W3C//DTD SVG 1.1//EN"
 "http://www.w3.org/Graphics/SVG/1.1/DTD/svg11.dtd">
<!-- Generated by graphviz version 2.43.0 (0)
 -->
<!-- Title: compliance_basics Pages: 1 -->
<svg width="832pt" height="701pt"
 viewBox="0.00 0.00 832.00 701.00" xmlns="http://www.w3.org/2000/svg" xmlns:xlink="http://www.w3.org/1999/xlink">
<g id="graph0" class="graph" transform="scale(1 1) rotate(0) translate(4 697)">
<title>compliance_basics</title>
<polygon fill="white" stroke="transparent" points="-4,4 -4,-697 828,-697 828,4 -4,4"/>
<g id="clust1" class="cluster">
<title>cluster_regulations</title>
<polygon fill="none" stroke="black" points="8,-603 8,-685 456,-685 456,-603 8,-603"/>
<text text-anchor="middle" x="69" y="-665" font-family="Helvetica,sans-Serif" font-size="20.00">Regulations</text>
</g>
<g id="clust2" class="cluster">
<title>cluster_isms</title>
<polygon fill="none" stroke="black" points="464,-603 464,-685 754,-685 754,-603 464,-603"/>
<text text-anchor="middle" x="609" y="-665" font-family="Helvetica,sans-Serif" font-size="20.00">Information Security Standards</text>
</g>
<g id="clust3" class="cluster">
<title>cluster_policies</title>
<polygon fill="none" stroke="black" points="8,-405 8,-595 816,-595 816,-405 8,-405"/>
<text text-anchor="middle" x="51" y="-575" font-family="Helvetica,sans-Serif" font-size="20.00">Policies</text>
</g>
<g id="clust7" class="cluster">
<title>cluster_implementation</title>
<polygon fill="none" stroke="black" points="8,-171 8,-397 726,-397 726,-171 8,-171"/>
<text text-anchor="middle" x="115.5" y="-377" font-family="Helvetica,sans-Serif" font-size="20.00">Compliant Kubernetes</text>
</g>
<g id="clust20" class="cluster">
<title>cluster_provider</title>
<polygon fill="none" stroke="black" points="98,-8 98,-163 816,-163 816,-8 98,-8"/>
<text text-anchor="middle" x="220.5" y="-143" font-family="Helvetica,sans-Serif" font-size="20.00">Compliant Cloud Provider</text>
</g>
<!-- HIPAA -->
<g id="node1" class="node">
<title>HIPAA</title>
<path fill="none" stroke="black" d="M436,-647C436,-647 388,-647 388,-647 382,-647 376,-641 376,-635 376,-635 376,-623 376,-623 376,-617 382,-611 388,-611 388,-611 436,-611 436,-611 442,-611 448,-617 448,-623 448,-623 448,-635 448,-635 448,-641 442,-647 436,-647"/>
<text text-anchor="middle" x="412" y="-625.3" font-family="Helvetica,sans-Serif" font-size="14.00">HIPAA</text>
</g>
<!-- Controls -->
<g id="node9" class="node">
<title>Controls</title>
<ellipse fill="none" stroke="black" cx="412" cy="-521" rx="36" ry="36"/>
<text text-anchor="middle" x="412" y="-517.3" font-family="Helvetica,sans-Serif" font-size="14.00">Controls</text>
</g>
<!-- HIPAA&#45;&gt;Controls -->
<g id="edge1" class="edge">
<title>HIPAA&#45;&gt;Controls</title>
<path fill="none" stroke="black" d="M412,-610.97C412,-599.27 412,-583.15 412,-567.84"/>
<polygon fill="black" stroke="black" points="415.5,-567.43 412,-557.43 408.5,-567.43 415.5,-567.43"/>
</g>
<!-- PDL -->
<g id="node2" class="node">
<title>PDL</title>
<path fill="none" stroke="black" d="M346,-647C346,-647 298,-647 298,-647 292,-647 286,-641 286,-635 286,-635 286,-623 286,-623 286,-617 292,-611 298,-611 298,-611 346,-611 346,-611 352,-611 358,-617 358,-623 358,-623 358,-635 358,-635 358,-641 352,-647 346,-647"/>
<text text-anchor="middle" x="322" y="-625.3" font-family="Helvetica,sans-Serif" font-size="14.00">PDL</text>
</g>
<!-- PDL&#45;&gt;Controls -->
<g id="edge2" class="edge">
<title>PDL&#45;&gt;Controls</title>
<path fill="none" stroke="black" d="M336.46,-610.97C348.78,-596.45 366.89,-575.13 382.29,-556.99"/>
<polygon fill="black" stroke="black" points="385.34,-558.81 389.15,-548.92 380.01,-554.28 385.34,-558.81"/>
</g>
<!-- GDPR -->
<g id="node3" class="node">
<title>GDPR</title>
<path fill="none" stroke="black" d="M256,-647C256,-647 208,-647 208,-647 202,-647 196,-641 196,-635 196,-635 196,-623 196,-623 196,-617 202,-611 208,-611 208,-611 256,-611 256,-611 262,-611 268,-617 268,-623 268,-623 268,-635 268,-635 268,-641 262,-647 256,-647"/>
<text text-anchor="middle" x="232" y="-625.3" font-family="Helvetica,sans-Serif" font-size="14.00">GDPR</text>
</g>
<!-- GDPR&#45;&gt;Controls -->
<g id="edge3" class="edge">
<title>GDPR&#45;&gt;Controls</title>
<path fill="none" stroke="black" d="M260.92,-610.97C291.21,-593.13 338.97,-565.01 372.67,-545.16"/>
<polygon fill="black" stroke="black" points="374.5,-548.14 381.34,-540.05 370.95,-542.11 374.5,-548.14"/>
</g>
<!-- CCPA -->
<g id="node4" class="node">
<title>CCPA</title>
<path fill="none" stroke="black" d="M166,-647C166,-647 118,-647 118,-647 112,-647 106,-641 106,-635 106,-635 106,-623 106,-623 106,-617 112,-611 118,-611 118,-611 166,-611 166,-611 172,-611 178,-617 178,-623 178,-623 178,-635 178,-635 178,-641 172,-647 166,-647"/>
<text text-anchor="middle" x="142" y="-625.3" font-family="Helvetica,sans-Serif" font-size="14.00">CCPA</text>
</g>
<!-- CCPA&#45;&gt;Controls -->
<g id="edge4" class="edge">
<title>CCPA&#45;&gt;Controls</title>
<path fill="none" stroke="black" d="M171.18,-610.9C176.38,-608.11 181.79,-605.37 187,-603 248.28,-575.17 322.17,-550.11 368.13,-535.46"/>
<polygon fill="black" stroke="black" points="369.3,-538.77 377.78,-532.41 367.19,-532.09 369.3,-538.77"/>
</g>
<!-- FFFS -->
<g id="node5" class="node">
<title>FFFS</title>
<path fill="none" stroke="black" d="M76,-647C76,-647 28,-647 28,-647 22,-647 16,-641 16,-635 16,-635 16,-623 16,-623 16,-617 22,-611 28,-611 28,-611 76,-611 76,-611 82,-611 88,-617 88,-623 88,-623 88,-635 88,-635 88,-641 82,-647 76,-647"/>
<text text-anchor="middle" x="52" y="-625.3" font-family="Helvetica,sans-Serif" font-size="14.00">FFFS</text>
</g>
<!-- FFFS&#45;&gt;Controls -->
<g id="edge5" class="edge">
<title>FFFS&#45;&gt;Controls</title>
<path fill="none" stroke="black" d="M80.03,-611C85.53,-608.07 91.35,-605.25 97,-603 189.66,-566.05 304.45,-541.53 366.69,-529.87"/>
<polygon fill="black" stroke="black" points="367.39,-533.3 376.59,-528.04 366.12,-526.42 367.39,-533.3"/>
</g>
<!-- controls2 -->
<!-- FFFS&#45;&gt;controls2 -->
<!-- iso27k -->
<g id="node6" class="node">
<title>iso27k</title>
<path fill="none" stroke="black" d="M722,-647C722,-647 664,-647 664,-647 658,-647 652,-641 652,-635 652,-635 652,-623 652,-623 652,-617 658,-611 664,-611 664,-611 722,-611 722,-611 728,-611 734,-617 734,-623 734,-623 734,-635 734,-635 734,-641 728,-647 722,-647"/>
<text text-anchor="middle" x="693" y="-625.3" font-family="Helvetica,sans-Serif" font-size="14.00">ISO 27001</text>
</g>
<!-- iso27k&#45;&gt;Controls -->
<g id="edge6" class="edge">
<title>iso27k&#45;&gt;Controls</title>
<path fill="none" stroke="black" d="M660.46,-610.99C654.7,-608.19 648.72,-605.42 643,-603 579.06,-575.93 502.65,-550.42 455.72,-535.51"/>
<polygon fill="black" stroke="black" points="456.76,-532.17 446.17,-532.49 454.65,-538.84 456.76,-532.17"/>
</g>
<!-- soc2 -->
<g id="node7" class="node">
<title>soc2</title>
<path fill="none" stroke="black" d="M622,-647C622,-647 574,-647 574,-647 568,-647 562,-641 562,-635 562,-635 562,-623 562,-623 562,-617 568,-611 574,-611 574,-611 622,-611 622,-611 628,-611 634,-617 634,-623 634,-623 634,-635 634,-635 634,-641 628,-647 622,-647"/>
<text text-anchor="middle" x="598" y="-625.3" font-family="Helvetica,sans-Serif" font-size="14.00">SOC 2</text>
</g>
<!-- soc2&#45;&gt;Controls -->
<g id="edge7" class="edge">
<title>soc2&#45;&gt;Controls</title>
<path fill="none" stroke="black" d="M568.12,-610.97C536.63,-593.03 486.87,-564.67 452.01,-544.8"/>
<polygon fill="black" stroke="black" points="453.47,-541.61 443.05,-539.7 450.01,-547.69 453.47,-541.61"/>
</g>
<!-- pcidss -->
<g id="node8" class="node">
<title>pcidss</title>
<path fill="none" stroke="black" d="M532,-647C532,-647 484,-647 484,-647 478,-647 472,-641 472,-635 472,-635 472,-623 472,-623 472,-617 478,-611 484,-611 484,-611 532,-611 532,-611 538,-611 544,-617 544,-623 544,-623 544,-635 544,-635 544,-641 538,-647 532,-647"/>
<text text-anchor="middle" x="508" y="-625.3" font-family="Helvetica,sans-Serif" font-size="14.00">PCI DSS</text>
</g>
<!-- pcidss&#45;&gt;Controls -->
<g id="edge8" class="edge">
<title>pcidss&#45;&gt;Controls</title>
<path fill="none" stroke="black" d="M492.58,-610.97C479.22,-596.22 459.49,-574.44 442.9,-556.12"/>
<polygon fill="black" stroke="black" points="445.32,-553.57 436.01,-548.51 440.13,-558.27 445.32,-553.57"/>
</g>
<!-- supplier -->
<g id="node11" class="node">
<title>supplier</title>
<path fill="none" stroke="black" d="M796,-449C796,-449 748,-449 748,-449 742,-449 736,-443 736,-437 736,-437 736,-425 736,-425 736,-419 742,-413 748,-413 748,-413 796,-413 796,-413 802,-413 808,-419 808,-425 808,-425 808,-437 808,-437 808,-443 802,-449 796,-449"/>
<text text-anchor="middle" x="772" y="-434.4" font-family="Helvetica,sans-Serif" font-size="12.00">Supplier</text>
<text text-anchor="middle" x="772" y="-421.4" font-family="Helvetica,sans-Serif" font-size="12.00">management</text>
</g>
<!-- Controls&#45;&gt;supplier -->
<g id="edge9" class="edge">
<title>Controls&#45;&gt;supplier</title>
<path fill="none" stroke="black" d="M447.37,-513.7C504.32,-503.19 619.86,-480.4 725.9,-449.13"/>
<polygon fill="black" stroke="black" points="727.22,-452.38 735.8,-446.17 725.22,-445.68 727.22,-452.38"/>
</g>
<!-- access -->
<g id="node12" class="node">
<title>access</title>
<path fill="none" stroke="black" d="M76,-449C76,-449 28,-449 28,-449 22,-449 16,-443 16,-437 16,-437 16,-425 16,-425 16,-419 22,-413 28,-413 28,-413 76,-413 76,-413 82,-413 88,-419 88,-425 88,-425 88,-437 88,-437 88,-443 82,-449 76,-449"/>
<text text-anchor="middle" x="52" y="-434.8" font-family="Helvetica,sans-Serif" font-size="14.00">Access</text>
<text text-anchor="middle" x="52" y="-419.8" font-family="Helvetica,sans-Serif" font-size="14.00">control</text>
</g>
<!-- Controls&#45;&gt;access -->
<g id="edge10" class="edge">
<title>Controls&#45;&gt;access</title>
<path fill="none" stroke="black" d="M376.63,-513.7C319.68,-503.19 204.14,-480.4 98.1,-449.13"/>
<polygon fill="black" stroke="black" points="98.78,-445.68 88.2,-446.17 96.78,-452.38 98.78,-445.68"/>
</g>
<!-- Logging -->
<g id="node13" class="node">
<title>Logging</title>
<path fill="none" stroke="black" d="M166,-449C166,-449 118,-449 118,-449 112,-449 106,-443 106,-437 106,-437 106,-425 106,-425 106,-419 112,-413 118,-413 118,-413 166,-413 166,-413 172,-413 178,-419 178,-425 178,-425 178,-437 178,-437 178,-443 172,-449 166,-449"/>
<text text-anchor="middle" x="142" y="-427.3" font-family="Helvetica,sans-Serif" font-size="14.00">Logging</text>
</g>
<!-- Controls&#45;&gt;Logging -->
<g id="edge11" class="edge">
<title>Controls&#45;&gt;Logging</title>
<path fill="none" stroke="black" d="M377.5,-509.76C335.08,-497.03 260.7,-474.26 188.06,-449.28"/>
<polygon fill="black" stroke="black" points="188.88,-445.86 178.29,-445.91 186.59,-452.48 188.88,-445.86"/>
</g>
<!-- Backups -->
<g id="node14" class="node">
<title>Backups</title>
<path fill="none" stroke="black" d="M256,-449C256,-449 208,-449 208,-449 202,-449 196,-443 196,-437 196,-437 196,-425 196,-425 196,-419 202,-413 208,-413 208,-413 256,-413 256,-413 262,-413 268,-419 268,-425 268,-425 268,-437 268,-437 268,-443 262,-449 256,-449"/>
<text text-anchor="middle" x="232" y="-427.3" font-family="Helvetica,sans-Serif" font-size="14.00">Backups</text>
</g>
<!-- Controls&#45;&gt;Backups -->
<g id="edge12" class="edge">
<title>Controls&#45;&gt;Backups</title>
<path fill="none" stroke="black" d="M379.82,-504.27C350.92,-490.14 308.23,-469.27 276.14,-453.58"/>
<polygon fill="black" stroke="black" points="277.5,-450.35 266.98,-449.1 274.42,-456.64 277.5,-450.35"/>
</g>
<!-- incident -->
<g id="node15" class="node">
<title>incident</title>
<path fill="none" stroke="black" d="M346,-449C346,-449 298,-449 298,-449 292,-449 286,-443 286,-437 286,-437 286,-425 286,-425 286,-419 292,-413 298,-413 298,-413 346,-413 346,-413 352,-413 358,-419 358,-425 358,-425 358,-437 358,-437 358,-443 352,-449 346,-449"/>
<text text-anchor="middle" x="322" y="-434.4" font-family="Helvetica,sans-Serif" font-size="12.00">Incident</text>
<text text-anchor="middle" x="322" y="-421.4" font-family="Helvetica,sans-Serif" font-size="12.00">management</text>
</g>
<!-- Controls&#45;&gt;incident -->
<g id="edge13" class="edge">
<title>Controls&#45;&gt;incident</title>
<path fill="none" stroke="black" d="M386.45,-495.02C374.06,-482.9 359.22,-468.4 346.91,-456.36"/>
<polygon fill="black" stroke="black" points="349.22,-453.72 339.62,-449.23 344.32,-458.72 349.22,-453.72"/>
</g>
<!-- vulnerability -->
<g id="node16" class="node">
<title>vulnerability</title>
<path fill="none" stroke="black" d="M436,-449C436,-449 388,-449 388,-449 382,-449 376,-443 376,-437 376,-437 376,-425 376,-425 376,-419 382,-413 388,-413 388,-413 436,-413 436,-413 442,-413 448,-419 448,-425 448,-425 448,-437 448,-437 448,-443 442,-449 436,-449"/>
<text text-anchor="middle" x="412" y="-434.4" font-family="Helvetica,sans-Serif" font-size="12.00">Vulnerability</text>
<text text-anchor="middle" x="412" y="-421.4" font-family="Helvetica,sans-Serif" font-size="12.00">management</text>
</g>
<!-- Controls&#45;&gt;vulnerability -->
<g id="edge14" class="edge">
<title>Controls&#45;&gt;vulnerability</title>
<path fill="none" stroke="black" d="M412,-484.97C412,-476.44 412,-467.43 412,-459.32"/>
<polygon fill="black" stroke="black" points="415.5,-459.28 412,-449.28 408.5,-459.28 415.5,-459.28"/>
</g>
<!-- intrusion -->
<g id="node17" class="node">
<title>intrusion</title>
<path fill="none" stroke="black" d="M526,-449C526,-449 478,-449 478,-449 472,-449 466,-443 466,-437 466,-437 466,-425 466,-425 466,-419 472,-413 478,-413 478,-413 526,-413 526,-413 532,-413 538,-419 538,-425 538,-425 538,-437 538,-437 538,-443 532,-449 526,-449"/>
<text text-anchor="middle" x="502" y="-434.8" font-family="Helvetica,sans-Serif" font-size="14.00">Intrusion</text>
<text text-anchor="middle" x="502" y="-419.8" font-family="Helvetica,sans-Serif" font-size="14.00">detection</text>
</g>
<!-- Controls&#45;&gt;intrusion -->
<g id="edge15" class="edge">
<title>Controls&#45;&gt;intrusion</title>
<path fill="none" stroke="black" d="M437.55,-495.02C449.94,-482.9 464.78,-468.4 477.09,-456.36"/>
<polygon fill="black" stroke="black" points="479.68,-458.72 484.38,-449.23 474.78,-453.72 479.68,-458.72"/>
</g>
<!-- network -->
<g id="node18" class="node">
<title>network</title>
<path fill="none" stroke="black" d="M616,-449C616,-449 568,-449 568,-449 562,-449 556,-443 556,-437 556,-437 556,-425 556,-425 556,-419 562,-413 568,-413 568,-413 616,-413 616,-413 622,-413 628,-419 628,-425 628,-425 628,-437 628,-437 628,-443 622,-449 616,-449"/>
<text text-anchor="middle" x="592" y="-434.8" font-family="Helvetica,sans-Serif" font-size="14.00">Network</text>
<text text-anchor="middle" x="592" y="-419.8" font-family="Helvetica,sans-Serif" font-size="14.00">security</text>
</g>
<!-- Controls&#45;&gt;network -->
<g id="edge16" class="edge">
<title>Controls&#45;&gt;network</title>
<path fill="none" stroke="black" d="M444.18,-504.27C473.08,-490.14 515.77,-469.27 547.86,-453.58"/>
<polygon fill="black" stroke="black" points="549.58,-456.64 557.02,-449.1 546.5,-450.35 549.58,-456.64"/>
</g>
<!-- crypto -->
<g id="node19" class="node">
<title>crypto</title>
<path fill="none" stroke="black" d="M706,-449C706,-449 658,-449 658,-449 652,-449 646,-443 646,-437 646,-437 646,-425 646,-425 646,-419 652,-413 658,-413 658,-413 706,-413 706,-413 712,-413 718,-419 718,-425 718,-425 718,-437 718,-437 718,-443 712,-449 706,-449"/>
<text text-anchor="middle" x="682" y="-434.4" font-family="Helvetica,sans-Serif" font-size="12.00">Use of</text>
<text text-anchor="middle" x="682" y="-421.4" font-family="Helvetica,sans-Serif" font-size="12.00">cryptography</text>
</g>
<!-- Controls&#45;&gt;crypto -->
<g id="edge17" class="edge">
<title>Controls&#45;&gt;crypto</title>
<path fill="none" stroke="black" d="M446.5,-509.76C488.92,-497.03 563.3,-474.26 635.94,-449.28"/>
<polygon fill="black" stroke="black" points="637.41,-452.48 645.71,-445.91 635.12,-445.86 637.41,-452.48"/>
</g>
<!-- controls2&#45;&gt;access -->
<!-- supplier2 -->
<!-- supplier&#45;&gt;supplier2 -->
<g id="edge38" class="edge">
<title>supplier&#45;&gt;supplier2</title>
<path fill="none" stroke="black" d="M772,-412.97C772,-383.94 772,-327.66 772,-324.17"/>
</g>
<!-- dex -->
<g id="node20" class="node">
<title>dex</title>
<image xlink:href="logos/dex.png" width="59.5041px" height="72px" preserveAspectRatio="xMinYMin meet" x="22.2479" y="-359"/>
</g>
<!-- access&#45;&gt;dex -->
<g id="edge18" class="edge">
<title>access&#45;&gt;dex</title>
<path fill="none" stroke="black" d="M52,-412.97C52,-401.27 52,-385.15 52,-369.84"/>
<polygon fill="black" stroke="black" points="55.5,-369.43 52,-359.43 48.5,-369.43 55.5,-369.43"/>
</g>
<!-- elasticsearch -->
<g id="node22" class="node">
<title>elasticsearch</title>
<image xlink:href="logos/elasticsearch.png" width="72px" height="39.5725px" preserveAspectRatio="xMinYMin meet" x="106" y="-342.786"/>
</g>
<!-- Logging&#45;&gt;elasticsearch -->
<g id="edge20" class="edge">
<title>Logging&#45;&gt;elasticsearch</title>
<path fill="none" stroke="black" d="M142,-412.97C142,-401.27 142,-385.15 142,-369.84"/>
<polygon fill="black" stroke="black" points="145.5,-369.43 142,-359.43 138.5,-369.43 145.5,-369.43"/>
</g>
<!-- velero -->
<g id="node21" class="node">
<title>velero</title>
<image xlink:href="logos/velero.png" width="72px" height="23.76px" preserveAspectRatio="xMinYMin meet" x="196" y="-334.88"/>
</g>
<!-- Backups&#45;&gt;velero -->
<g id="edge19" class="edge">
<title>Backups&#45;&gt;velero</title>
<path fill="none" stroke="black" d="M232,-412.97C232,-401.27 232,-385.15 232,-369.84"/>
<polygon fill="black" stroke="black" points="235.5,-369.43 232,-359.43 228.5,-369.43 235.5,-369.43"/>
</g>
<!-- prometheus -->
<g id="node24" class="node">
<title>prometheus</title>
<image xlink:href="logos/prometheus.png" width="72px" height="62.64px" preserveAspectRatio="xMinYMin meet" x="286" y="-354.32"/>
</g>
<!-- incident&#45;&gt;prometheus -->
<g id="edge22" class="edge">
<title>incident&#45;&gt;prometheus</title>
<path fill="none" stroke="black" d="M322,-412.97C322,-401.27 322,-385.15 322,-369.84"/>
<polygon fill="black" stroke="black" points="325.5,-369.43 322,-359.43 318.5,-369.43 325.5,-369.43"/>
</g>
<!-- harbor -->
<g id="node26" class="node">
<title>harbor</title>
<image xlink:href="logos/harbor.png" width="58.5366px" height="72px" preserveAspectRatio="xMinYMin meet" x="382.732" y="-359"/>
</g>
<!-- vulnerability&#45;&gt;harbor -->
<g id="edge24" class="edge">
<title>vulnerability&#45;&gt;harbor</title>
<path fill="none" stroke="black" d="M412,-412.97C412,-401.27 412,-385.15 412,-369.84"/>
<polygon fill="black" stroke="black" points="415.5,-369.43 412,-359.43 408.5,-369.43 415.5,-369.43"/>
</g>
<!-- falco -->
<g id="node28" class="node">
<title>falco</title>
<image xlink:href="logos/falco.png" width="69.9029px" height="72px" preserveAspectRatio="xMinYMin meet" x="467.049" y="-359"/>
</g>
<!-- intrusion&#45;&gt;falco -->
<g id="edge26" class="edge">
<title>intrusion&#45;&gt;falco</title>
<path fill="none" stroke="black" d="M502,-412.97C502,-401.27 502,-385.15 502,-369.84"/>
<polygon fill="black" stroke="black" points="505.5,-369.43 502,-359.43 498.5,-369.43 505.5,-369.43"/>
</g>
<!-- calico -->
<g id="node29" class="node">
<title>calico</title>
<image xlink:href="logos/project-calico.png" width="72px" height="25.2px" preserveAspectRatio="xMinYMin meet" x="556" y="-335.6"/>
</g>
<!-- network&#45;&gt;calico -->
<g id="edge27" class="edge">
<title>network&#45;&gt;calico</title>
<path fill="none" stroke="black" d="M592,-412.97C592,-401.27 592,-385.15 592,-369.84"/>
<polygon fill="black" stroke="black" points="595.5,-369.43 592,-359.43 588.5,-369.43 595.5,-369.43"/>
</g>
<!-- certmanager -->
<g id="node30" class="node">
<title>certmanager</title>
<image xlink:href="logos/cert-manager.png" width="72px" height="69.12px" preserveAspectRatio="xMinYMin meet" x="646" y="-357.56"/>
</g>
<!-- crypto&#45;&gt;certmanager -->
<g id="edge28" class="edge">
<title>crypto&#45;&gt;certmanager</title>
<path fill="none" stroke="black" d="M682,-412.97C682,-401.27 682,-385.15 682,-369.84"/>
<polygon fill="black" stroke="black" points="685.5,-369.43 682,-359.43 678.5,-369.43 685.5,-369.43"/>
</g>
<!-- kibana -->
<g id="node23" class="node">
<title>kibana</title>
<image xlink:href="logos/kibana.png" width="71.2871px" height="72px" preserveAspectRatio="xMinYMin meet" x="106.356" y="-251"/>
</g>
<!-- elasticsearch&#45;&gt;kibana -->
<g id="edge21" class="edge">
<title>elasticsearch&#45;&gt;kibana</title>
<path fill="none" stroke="black" d="M142,-287C142,-278.85 142,-270.06 142,-261.54"/>
<polygon fill="black" stroke="black" points="145.5,-261.33 142,-251.33 138.5,-261.33 145.5,-261.33"/>
</g>
<!-- grafana -->
<g id="node25" class="node">
<title>grafana</title>
<image xlink:href="logos/grafana.png" width="70.56px" height="72px" preserveAspectRatio="xMinYMin meet" x="286.72" y="-251"/>
</g>
<!-- prometheus&#45;&gt;grafana -->
<g id="edge23" class="edge">
<title>prometheus&#45;&gt;grafana</title>
<path fill="none" stroke="black" d="M322,-287C322,-278.85 322,-270.06 322,-261.54"/>
<polygon fill="black" stroke="black" points="325.5,-261.33 322,-251.33 318.5,-261.33 325.5,-261.33"/>
</g>
<!-- trivy -->
<g id="node27" class="node">
<title>trivy</title>
<image xlink:href="logos/trivy.png" width="44.7205px" height="72px" preserveAspectRatio="xMinYMin meet" x="389.64" y="-251"/>
</g>
<!-- harbor&#45;&gt;trivy -->
<g id="edge25" class="edge">
<title>harbor&#45;&gt;trivy</title>
<path fill="none" stroke="black" d="M412,-287C412,-278.85 412,-270.06 412,-261.54"/>
<polygon fill="black" stroke="black" points="415.5,-261.33 412,-251.33 408.5,-261.33 415.5,-261.33"/>
</g>
<!-- letsencrypt -->
<g id="node31" class="node">
<title>letsencrypt</title>
<image xlink:href="logos/letsencrypt.png" width="72px" height="59.76px" preserveAspectRatio="xMinYMin meet" x="646" y="-244.88"/>
</g>
<!-- certmanager&#45;&gt;letsencrypt -->
<g id="edge29" class="edge">
<title>certmanager&#45;&gt;letsencrypt</title>
<path fill="none" stroke="black" d="M682,-287C682,-278.85 682,-270.06 682,-261.54"/>
<polygon fill="black" stroke="black" points="685.5,-261.33 682,-251.33 678.5,-261.33 685.5,-261.33"/>
</g>
<!-- cloud_provider -->
<g id="node32" class="node">
<title>cloud_provider</title>
</g>
<!-- aws -->
<g id="node33" class="node">
<title>aws</title>
<image xlink:href="logos/cloud-providers/aws.png" width="72px" height="43.2px" preserveAspectRatio="xMinYMin meet" x="106" y="-73.6"/>
</g>
<!-- cloud_provider&#45;&gt;aws -->
<!-- azure -->
<g id="node34" class="node">
<title>azure</title>
<image xlink:href="logos/cloud-providers/azure.png" width="72px" height="72px" preserveAspectRatio="xMinYMin meet" x="196" y="-88"/>
</g>
<!-- cloud_provider&#45;&gt;azure -->
<!-- citycloud -->
<g id="node35" class="node">
<title>citycloud</title>
<image xlink:href="logos/cloud-providers/citycloud.png" width="67.2897px" height="72px" preserveAspectRatio="xMinYMin meet" x="288.355" y="-88"/>
</g>
<!-- cloud_provider&#45;&gt;citycloud -->
<!-- exoscale -->
<g id="node36" class="node">
<title>exoscale</title>
<image xlink:href="logos/cloud-providers/exoscale.png" width="69.9231px" height="72px" preserveAspectRatio="xMinYMin meet" x="377.038" y="-88"/>
</g>
<!-- cloud_provider&#45;&gt;exoscale -->
<!-- safespring -->
<g id="node37" class="node">
<title>safespring</title>
<image xlink:href="logos/cloud-providers/safespring.png" width="68.6307px" height="72px" preserveAspectRatio="xMinYMin meet" x="467.685" y="-88"/>
</g>
<!-- cloud_provider&#45;&gt;safespring -->
<!-- openstack -->
<g id="node38" class="node">
<title>openstack</title>
<image xlink:href="logos/cloud-providers/openstack.png" width="72px" height="65.52px" preserveAspectRatio="xMinYMin meet" x="556" y="-84.76"/>
</g>
<!-- cloud_provider&#45;&gt;openstack -->
<!-- byovm -->
<g id="node39" class="node">
<title>byovm</title>
<polygon fill="none" stroke="black" points="718,-88 646,-88 646,-16 718,-16 718,-88"/>
<text text-anchor="middle" x="682" y="-63.3" font-family="Helvetica,sans-Serif" font-size="14.00">Bring</text>
<text text-anchor="middle" x="682" y="-48.3" font-family="Helvetica,sans-Serif" font-size="14.00">Your Own</text>
<text text-anchor="middle" x="682" y="-33.3" font-family="Helvetica,sans-Serif" font-size="14.00">VMs</text>
</g>
<!-- cloud_provider&#45;&gt;byovm -->
<!-- byom -->
<g id="node40" class="node">
<title>byom</title>
<polygon fill="none" stroke="black" points="808,-88 736,-88 736,-16 808,-16 808,-88"/>
<text text-anchor="middle" x="772" y="-63.3" font-family="Helvetica,sans-Serif" font-size="14.00">Bring</text>
<text text-anchor="middle" x="772" y="-48.3" font-family="Helvetica,sans-Serif" font-size="14.00">Your Own</text>
<text text-anchor="middle" x="772" y="-33.3" font-family="Helvetica,sans-Serif" font-size="14.00">Metal</text>
</g>
<!-- cloud_provider&#45;&gt;byom -->
<!-- cloud_provider&#45;&gt;byom -->
<!-- supplier3 -->
<!-- supplier2&#45;&gt;supplier3 -->
<g id="edge39" class="edge">
<title>supplier2&#45;&gt;supplier3</title>
<path fill="none" stroke="black" d="M772,-321.92C772,-318.76 772,-219.19 772,-216.07"/>
</g>
<!-- supplier3&#45;&gt;cloud_provider -->
<g id="edge40" class="edge">
<title>supplier3&#45;&gt;cloud_provider</title>
<path fill="none" stroke="black" d="M772,-213.94C772,-212.69 772,-193.45 772,-173.24"/>
<polygon fill="black" stroke="black" points="775.5,-173 772,-163 768.5,-173 775.5,-173"/>
</g>
</g>
</svg>
