<?xml version="1.0" encoding="UTF-8" standalone="no"?>
<!DOCTYPE svg PUBLIC "-//W3C//DTD SVG 1.1//EN"
 "http://www.w3.org/Graphics/SVG/1.1/DTD/svg11.dtd">
<!-- Generated by graphviz version 2.43.0 (0)
 -->
<!-- Title: compliance_basics Pages: 1 -->
<svg width="837pt" height="843pt"
 viewBox="0.00 0.00 837.00 843.00" xmlns="http://www.w3.org/2000/svg" xmlns:xlink="http://www.w3.org/1999/xlink">
<g id="graph0" class="graph" transform="scale(1 1) rotate(0) translate(4 839)">
<title>compliance_basics</title>
<polygon fill="white" stroke="transparent" points="-4,4 -4,-839 833,-839 833,4 -4,4"/>
<g id="clust1" class="cluster">
<title>cluster_regulations</title>
<path fill="none" stroke="black" d="M20,-743C20,-743 536,-743 536,-743 542,-743 548,-749 548,-755 548,-755 548,-815 548,-815 548,-821 542,-827 536,-827 536,-827 20,-827 20,-827 14,-827 8,-821 8,-815 8,-815 8,-755 8,-755 8,-749 14,-743 20,-743"/>
<text text-anchor="middle" x="141" y="-807" font-family="Roboto,BlinkMacSystemFont,Helvetica,Arial,sans-serif" font-size="20.00">Data Protection Regulations</text>
</g>
<g id="clust2" class="cluster">
<title>cluster_best_practices</title>
<path fill="none" stroke="black" d="M568,-744C568,-744 794,-744 794,-744 800,-744 806,-750 806,-756 806,-756 806,-814 806,-814 806,-820 800,-826 794,-826 794,-826 568,-826 568,-826 562,-826 556,-820 556,-814 556,-814 556,-756 556,-756 556,-750 562,-744 568,-744"/>
<text text-anchor="middle" x="668" y="-806" font-family="Roboto,BlinkMacSystemFont,Helvetica,Arial,sans-serif" font-size="20.00">Security Best Practices</text>
</g>
<g id="clust3" class="cluster">
<title>cluster_policies</title>
<path fill="none" stroke="black" d="M21,-462C21,-462 805,-462 805,-462 811,-462 817,-468 817,-474 817,-474 817,-705 817,-705 817,-711 811,-717 805,-717 805,-717 21,-717 21,-717 15,-717 9,-711 9,-705 9,-705 9,-474 9,-474 9,-468 15,-462 21,-462"/>
<text text-anchor="middle" x="52" y="-697" font-family="Roboto,BlinkMacSystemFont,Helvetica,Arial,sans-serif" font-size="20.00">Policies</text>
</g>
<g id="clust6" class="cluster">
<title>cluster_implementation</title>
<path fill="none" stroke="black" d="M21,-289C21,-289 805,-289 805,-289 811,-289 817,-295 817,-301 817,-301 817,-424 817,-424 817,-430 811,-436 805,-436 805,-436 21,-436 21,-436 15,-436 9,-430 9,-424 9,-424 9,-301 9,-301 9,-295 15,-289 21,-289"/>
<text text-anchor="middle" x="116" y="-416" font-family="Roboto,BlinkMacSystemFont,Helvetica,Arial,sans-serif" font-size="20.00">Compliant Kubernetes</text>
</g>
<g id="clust16" class="cluster">
<title>cluster_audit</title>
<path fill="none" stroke="black" d="M21,-116C21,-116 805,-116 805,-116 811,-116 817,-122 817,-128 817,-128 817,-251 817,-251 817,-257 811,-263 805,-263 805,-263 21,-263 21,-263 15,-263 9,-257 9,-251 9,-251 9,-128 9,-128 9,-122 15,-116 21,-116"/>
<text text-anchor="middle" x="257.5" y="-243" font-family="Roboto,BlinkMacSystemFont,Helvetica,Arial,sans-serif" font-size="20.00">Compliant Kubernetes Visibility and Audit Dashboards</text>
</g>
<g id="clust17" class="cluster">
<title>cluster_footer</title>
</g>
<!-- HIPAA -->
<g id="node1" class="node">
<title>HIPAA</title>
<g id="a_node1"><a xlink:href="https://elastisys.io/compliantkubernetes/ciso-guide/controls/hipaa/" xlink:title="US Healthcare\n(HIPAA)" target="_blank">
<path fill="none" stroke="black" d="M527.5,-789C527.5,-789 446.5,-789 446.5,-789 440.5,-789 434.5,-783 434.5,-777 434.5,-777 434.5,-763 434.5,-763 434.5,-757 440.5,-751 446.5,-751 446.5,-751 527.5,-751 527.5,-751 533.5,-751 539.5,-757 539.5,-763 539.5,-763 539.5,-777 539.5,-777 539.5,-783 533.5,-789 527.5,-789"/>
<text text-anchor="middle" x="487" y="-773.8" font-family="Roboto,BlinkMacSystemFont,Helvetica,Arial,sans-serif" font-size="14.00" fill="#4651b4">US Healthcare</text>
<text text-anchor="middle" x="487" y="-758.8" font-family="Roboto,BlinkMacSystemFont,Helvetica,Arial,sans-serif" font-size="14.00" fill="#4651b4">(HIPAA)</text>
</a>
</g>
</g>
<!-- Controls -->
<g id="node7" class="node">
<title>Controls</title>
<g id="a_node7"><a xlink:href="https://elastisys.io/compliantkubernetes/ciso-guide/controls/iso-27001/" xlink:title="ISO 27001\nControls" target="_top">
<ellipse fill="none" stroke="black" cx="413" cy="-628.5" rx="50.5" ry="50.5"/>
<text text-anchor="middle" x="413" y="-632.3" font-family="Roboto,BlinkMacSystemFont,Helvetica,Arial,sans-serif" font-size="14.00" fill="#4651b4">ISO 27001</text>
<text text-anchor="middle" x="413" y="-617.3" font-family="Roboto,BlinkMacSystemFont,Helvetica,Arial,sans-serif" font-size="14.00" fill="#4651b4">Controls</text>
</a>
</g>
</g>
<!-- HIPAA&#45;&gt;Controls -->
<g id="edge1" class="edge">
<title>HIPAA&#45;&gt;Controls</title>
<path fill="none" stroke="black" d="M477.33,-750.76C468.15,-733.47 453.92,-706.65 441.18,-682.61"/>
<polygon fill="black" stroke="black" points="444.15,-680.76 436.38,-673.57 437.97,-684.04 444.15,-680.76"/>
</g>
<!-- MSBFS -->
<g id="node2" class="node">
<title>MSBFS</title>
<g id="a_node2"><a xlink:href="https://elastisys.io/compliantkubernetes/ciso-guide/controls/msbfs-20207/" xlink:title="Swedish Government\n(MSBFS 2020:7)" target="_blank">
<path fill="none" stroke="black" d="M404.5,-789C404.5,-789 279.5,-789 279.5,-789 273.5,-789 267.5,-783 267.5,-777 267.5,-777 267.5,-763 267.5,-763 267.5,-757 273.5,-751 279.5,-751 279.5,-751 404.5,-751 404.5,-751 410.5,-751 416.5,-757 416.5,-763 416.5,-763 416.5,-777 416.5,-777 416.5,-783 410.5,-789 404.5,-789"/>
<text text-anchor="middle" x="342" y="-773.8" font-family="Roboto,BlinkMacSystemFont,Helvetica,Arial,sans-serif" font-size="14.00" fill="#4651b4">Swedish Government</text>
<text text-anchor="middle" x="342" y="-758.8" font-family="Roboto,BlinkMacSystemFont,Helvetica,Arial,sans-serif" font-size="14.00" fill="#4651b4">(MSBFS 2020:7)</text>
</a>
</g>
</g>
<!-- MSBFS&#45;&gt;Controls -->
<g id="edge2" class="edge">
<title>MSBFS&#45;&gt;Controls</title>
<path fill="none" stroke="black" d="M351.28,-750.76C360.05,-733.54 373.63,-706.85 385.83,-682.89"/>
<polygon fill="black" stroke="black" points="389,-684.36 390.42,-673.86 382.77,-681.19 389,-684.36"/>
</g>
<!-- PDL -->
<g id="node3" class="node">
<title>PDL</title>
<g id="a_node3"><a xlink:href="https://elastisys.io/compliantkubernetes/ciso-guide/controls/hslf-fs-201640/" xlink:title="Swedish Healthcare\n(HSLF&#45;FS 2016:40)" target="_blank">
<path fill="none" stroke="black" d="M237.5,-789C237.5,-789 120.5,-789 120.5,-789 114.5,-789 108.5,-783 108.5,-777 108.5,-777 108.5,-763 108.5,-763 108.5,-757 114.5,-751 120.5,-751 120.5,-751 237.5,-751 237.5,-751 243.5,-751 249.5,-757 249.5,-763 249.5,-763 249.5,-777 249.5,-777 249.5,-783 243.5,-789 237.5,-789"/>
<text text-anchor="middle" x="179" y="-773.8" font-family="Roboto,BlinkMacSystemFont,Helvetica,Arial,sans-serif" font-size="14.00" fill="#4651b4">Swedish Healthcare</text>
<text text-anchor="middle" x="179" y="-758.8" font-family="Roboto,BlinkMacSystemFont,Helvetica,Arial,sans-serif" font-size="14.00" fill="#4651b4">(HSLF&#45;FS 2016:40)</text>
</a>
</g>
</g>
<!-- PDL&#45;&gt;Controls -->
<g id="edge3" class="edge">
<title>PDL&#45;&gt;Controls</title>
<path fill="none" stroke="black" d="M209.59,-750.76C248,-727.87 314.47,-688.24 360.94,-660.54"/>
<polygon fill="black" stroke="black" points="362.87,-663.46 369.66,-655.34 359.28,-657.45 362.87,-663.46"/>
</g>
<!-- GDPR -->
<g id="node4" class="node">
<title>GDPR</title>
<g id="a_node4"><a xlink:href="https://gdpr.eu/" xlink:title="EU GDPR" target="_blank">
<path fill="none" stroke="black" d="M78,-788C78,-788 28,-788 28,-788 22,-788 16,-782 16,-776 16,-776 16,-764 16,-764 16,-758 22,-752 28,-752 28,-752 78,-752 78,-752 84,-752 90,-758 90,-764 90,-764 90,-776 90,-776 90,-782 84,-788 78,-788"/>
<text text-anchor="middle" x="53" y="-766.3" font-family="Roboto,BlinkMacSystemFont,Helvetica,Arial,sans-serif" font-size="14.00">EU GDPR</text>
</a>
</g>
</g>
<!-- GDPR&#45;&gt;Controls -->
<g id="edge4" class="edge">
<title>GDPR&#45;&gt;Controls</title>
<path fill="none" stroke="black" d="M90.17,-754.6C153.35,-730.11 282.07,-680.24 356.47,-651.41"/>
<polygon fill="black" stroke="black" points="358.09,-654.53 366.15,-647.66 355.56,-648 358.09,-654.53"/>
</g>
<!-- controls2 -->
<!-- GDPR&#45;&gt;controls2 -->
<!-- NSA -->
<g id="node5" class="node">
<title>NSA</title>
<g id="a_node5"><a xlink:href="https://media.defense.gov/2021/Aug/03/2002820425/-1/-1/1/CTR_KUBERNETES%20HARDENING%20GUIDANCE.PDF" xlink:title="NSA" target="_blank">
<path fill="none" stroke="black" d="M786,-788C786,-788 702,-788 702,-788 696,-788 690,-782 690,-776 690,-776 690,-764 690,-764 690,-758 696,-752 702,-752 702,-752 786,-752 786,-752 792,-752 798,-758 798,-764 798,-764 798,-776 798,-776 798,-782 792,-788 786,-788"/>
<text text-anchor="middle" x="744" y="-766.3" font-family="Roboto,BlinkMacSystemFont,Helvetica,Arial,sans-serif" font-size="14.00">NSA</text>
</a>
</g>
</g>
<!-- NSA&#45;&gt;Controls -->
<g id="edge5" class="edge">
<title>NSA&#45;&gt;Controls</title>
<path fill="none" stroke="black" d="M703.41,-751.89C644.51,-727.07 535.13,-680.97 468.72,-652.98"/>
<polygon fill="black" stroke="black" points="469.82,-649.65 459.24,-648.99 467.1,-656.1 469.82,-649.65"/>
</g>
<!-- EDPB -->
<g id="node6" class="node">
<title>EDPB</title>
<g id="a_node6"><a xlink:href="https://edpb.europa.eu/system/files/2021-06/edpb_recommendations_202001vo.2.0_supplementarymeasurestransferstools_en.pdf" xlink:title="EDPB" target="_blank">
<path fill="none" stroke="black" d="M660,-788C660,-788 576,-788 576,-788 570,-788 564,-782 564,-776 564,-776 564,-764 564,-764 564,-758 570,-752 576,-752 576,-752 660,-752 660,-752 666,-752 672,-758 672,-764 672,-764 672,-776 672,-776 672,-782 666,-788 660,-788"/>
<text text-anchor="middle" x="618" y="-766.3" font-family="Roboto,BlinkMacSystemFont,Helvetica,Arial,sans-serif" font-size="14.00">EDPB</text>
</a>
</g>
</g>
<!-- EDPB&#45;&gt;Controls -->
<g id="edge6" class="edge">
<title>EDPB&#45;&gt;Controls</title>
<path fill="none" stroke="black" d="M592.86,-751.89C560.55,-729.91 503.73,-691.24 462.58,-663.24"/>
<polygon fill="black" stroke="black" points="464.55,-660.35 454.32,-657.61 460.61,-666.13 464.55,-660.35"/>
</g>
<!-- access -->
<g id="node8" class="node">
<title>access</title>
<g id="a_node8"><a xlink:href="https://elastisys.io/compliantkubernetes/operator-manual/access-control/" xlink:title="Access\ncontrol" target="_top">
<path fill="none" stroke="black" d="M77,-506C77,-506 29,-506 29,-506 23,-506 17,-500 17,-494 17,-494 17,-482 17,-482 17,-476 23,-470 29,-470 29,-470 77,-470 77,-470 83,-470 89,-476 89,-482 89,-482 89,-494 89,-494 89,-500 83,-506 77,-506"/>
<text text-anchor="middle" x="53" y="-491.8" font-family="Roboto,BlinkMacSystemFont,Helvetica,Arial,sans-serif" font-size="14.00" fill="#4651b4">Access</text>
<text text-anchor="middle" x="53" y="-476.8" font-family="Roboto,BlinkMacSystemFont,Helvetica,Arial,sans-serif" font-size="14.00" fill="#4651b4">control</text>
</a>
</g>
</g>
<!-- Controls&#45;&gt;access -->
<g id="edge7" class="edge">
<title>Controls&#45;&gt;access</title>
<path fill="none" stroke="black" d="M365.94,-609.39C296.54,-582.7 167.59,-533.09 98.88,-506.65"/>
<polygon fill="black" stroke="black" points="99.79,-503.25 89.2,-502.93 97.27,-509.78 99.79,-503.25"/>
</g>
<!-- logging -->
<g id="node9" class="node">
<title>logging</title>
<g id="a_node9"><a xlink:href="https://elastisys.io/compliantkubernetes/ciso-guide/log-review/" xlink:title="Logging" target="_top">
<path fill="none" stroke="black" d="M167,-506C167,-506 119,-506 119,-506 113,-506 107,-500 107,-494 107,-494 107,-482 107,-482 107,-476 113,-470 119,-470 119,-470 167,-470 167,-470 173,-470 179,-476 179,-482 179,-482 179,-494 179,-494 179,-500 173,-506 167,-506"/>
<text text-anchor="middle" x="143" y="-484.3" font-family="Roboto,BlinkMacSystemFont,Helvetica,Arial,sans-serif" font-size="14.00" fill="#4651b4">Logging</text>
</a>
</g>
</g>
<!-- Controls&#45;&gt;logging -->
<g id="edge8" class="edge">
<title>Controls&#45;&gt;logging</title>
<path fill="none" stroke="black" d="M368.41,-604.63C317.51,-578.52 234.87,-536.13 185.05,-510.57"/>
<polygon fill="black" stroke="black" points="186.64,-507.45 176.15,-506 183.45,-513.68 186.64,-507.45"/>
</g>
<!-- backups -->
<g id="node10" class="node">
<title>backups</title>
<g id="a_node10"><a xlink:href="https://elastisys.io/compliantkubernetes/ciso-guide/backup/" xlink:title="Backup" target="_top">
<path fill="none" stroke="black" d="M257,-506C257,-506 209,-506 209,-506 203,-506 197,-500 197,-494 197,-494 197,-482 197,-482 197,-476 203,-470 209,-470 209,-470 257,-470 257,-470 263,-470 269,-476 269,-482 269,-482 269,-494 269,-494 269,-500 263,-506 257,-506"/>
<text text-anchor="middle" x="233" y="-484.3" font-family="Roboto,BlinkMacSystemFont,Helvetica,Arial,sans-serif" font-size="14.00" fill="#4651b4">Backup</text>
</a>
</g>
</g>
<!-- Controls&#45;&gt;backups -->
<g id="edge9" class="edge">
<title>Controls&#45;&gt;backups</title>
<path fill="none" stroke="black" d="M373.05,-596.76C339.92,-571.27 293.51,-535.56 263.35,-512.36"/>
<polygon fill="black" stroke="black" points="265.36,-509.49 255.3,-506.16 261.09,-515.03 265.36,-509.49"/>
</g>
<!-- continuous -->
<g id="node11" class="node">
<title>continuous</title>
<g id="a_node11"><a xlink:href="https://elastisys.io/compliantkubernetes/ciso-guide/policy-as-code/" xlink:title="Continuous\ncompliance" target="_top">
<path fill="none" stroke="black" d="M347,-506C347,-506 299,-506 299,-506 293,-506 287,-500 287,-494 287,-494 287,-482 287,-482 287,-476 293,-470 299,-470 299,-470 347,-470 347,-470 353,-470 359,-476 359,-482 359,-482 359,-494 359,-494 359,-500 353,-506 347,-506"/>
<text text-anchor="middle" x="323" y="-491.4" font-family="Roboto,BlinkMacSystemFont,Helvetica,Arial,sans-serif" font-size="12.00" fill="#4651b4">Continuous</text>
<text text-anchor="middle" x="323" y="-478.4" font-family="Roboto,BlinkMacSystemFont,Helvetica,Arial,sans-serif" font-size="12.00" fill="#4651b4">compliance</text>
</a>
</g>
</g>
<!-- Controls&#45;&gt;continuous -->
<g id="edge10" class="edge">
<title>Controls&#45;&gt;continuous</title>
<path fill="none" stroke="black" d="M385.75,-585.57C370.77,-562.51 352.65,-534.64 339.75,-514.77"/>
<polygon fill="black" stroke="black" points="342.6,-512.74 334.21,-506.26 336.73,-516.55 342.6,-512.74"/>
</g>
<!-- vulnerability -->
<g id="node12" class="node">
<title>vulnerability</title>
<g id="a_node12"><a xlink:href="https://elastisys.io/compliantkubernetes/ciso-guide/vulnerability/" xlink:title="Vulnerability\nmanagement" target="_top">
<path fill="none" stroke="black" d="M437,-506C437,-506 389,-506 389,-506 383,-506 377,-500 377,-494 377,-494 377,-482 377,-482 377,-476 383,-470 389,-470 389,-470 437,-470 437,-470 443,-470 449,-476 449,-482 449,-482 449,-494 449,-494 449,-500 443,-506 437,-506"/>
<text text-anchor="middle" x="413" y="-491.4" font-family="Roboto,BlinkMacSystemFont,Helvetica,Arial,sans-serif" font-size="12.00" fill="#4651b4">Vulnerability</text>
<text text-anchor="middle" x="413" y="-478.4" font-family="Roboto,BlinkMacSystemFont,Helvetica,Arial,sans-serif" font-size="12.00" fill="#4651b4">management</text>
</a>
</g>
</g>
<!-- Controls&#45;&gt;vulnerability -->
<g id="edge11" class="edge">
<title>Controls&#45;&gt;vulnerability</title>
<path fill="none" stroke="black" d="M413,-577.89C413,-557.19 413,-533.94 413,-516.41"/>
<polygon fill="black" stroke="black" points="416.5,-516.31 413,-506.31 409.5,-516.31 416.5,-516.31"/>
</g>
<!-- intrusion -->
<g id="node13" class="node">
<title>intrusion</title>
<g id="a_node13"><a xlink:href="https://elastisys.io/compliantkubernetes/ciso-guide/intrusion-detection/" xlink:title="Intrusion\ndetection" target="_top">
<path fill="none" stroke="black" d="M527,-506C527,-506 479,-506 479,-506 473,-506 467,-500 467,-494 467,-494 467,-482 467,-482 467,-476 473,-470 479,-470 479,-470 527,-470 527,-470 533,-470 539,-476 539,-482 539,-482 539,-494 539,-494 539,-500 533,-506 527,-506"/>
<text text-anchor="middle" x="503" y="-491.8" font-family="Roboto,BlinkMacSystemFont,Helvetica,Arial,sans-serif" font-size="14.00" fill="#4651b4">Intrusion</text>
<text text-anchor="middle" x="503" y="-476.8" font-family="Roboto,BlinkMacSystemFont,Helvetica,Arial,sans-serif" font-size="14.00" fill="#4651b4">detection</text>
</a>
</g>
</g>
<!-- Controls&#45;&gt;intrusion -->
<g id="edge12" class="edge">
<title>Controls&#45;&gt;intrusion</title>
<path fill="none" stroke="black" d="M440.25,-585.57C455.23,-562.51 473.35,-534.64 486.25,-514.77"/>
<polygon fill="black" stroke="black" points="489.27,-516.55 491.79,-506.26 483.4,-512.74 489.27,-516.55"/>
</g>
<!-- network -->
<g id="node14" class="node">
<title>network</title>
<g id="a_node14"><a xlink:href="https://elastisys.io/compliantkubernetes/ciso-guide/network-security/" xlink:title="Network\nsecurity" target="_top">
<path fill="none" stroke="black" d="M617,-506C617,-506 569,-506 569,-506 563,-506 557,-500 557,-494 557,-494 557,-482 557,-482 557,-476 563,-470 569,-470 569,-470 617,-470 617,-470 623,-470 629,-476 629,-482 629,-482 629,-494 629,-494 629,-500 623,-506 617,-506"/>
<text text-anchor="middle" x="593" y="-491.8" font-family="Roboto,BlinkMacSystemFont,Helvetica,Arial,sans-serif" font-size="14.00" fill="#4651b4">Network</text>
<text text-anchor="middle" x="593" y="-476.8" font-family="Roboto,BlinkMacSystemFont,Helvetica,Arial,sans-serif" font-size="14.00" fill="#4651b4">security</text>
</a>
</g>
</g>
<!-- Controls&#45;&gt;network -->
<g id="edge13" class="edge">
<title>Controls&#45;&gt;network</title>
<path fill="none" stroke="black" d="M452.95,-596.76C486.08,-571.27 532.49,-535.56 562.65,-512.36"/>
<polygon fill="black" stroke="black" points="564.91,-515.03 570.7,-506.16 560.64,-509.49 564.91,-515.03"/>
</g>
<!-- crypto -->
<g id="node15" class="node">
<title>crypto</title>
<g id="a_node15"><a xlink:href="https://elastisys.io/compliantkubernetes/ciso-guide/cryptography/" xlink:title="Use of\ncryptography" target="_top">
<path fill="none" stroke="black" d="M707,-506C707,-506 659,-506 659,-506 653,-506 647,-500 647,-494 647,-494 647,-482 647,-482 647,-476 653,-470 659,-470 659,-470 707,-470 707,-470 713,-470 719,-476 719,-482 719,-482 719,-494 719,-494 719,-500 713,-506 707,-506"/>
<text text-anchor="middle" x="683" y="-491.4" font-family="Roboto,BlinkMacSystemFont,Helvetica,Arial,sans-serif" font-size="12.00" fill="#4651b4">Use of</text>
<text text-anchor="middle" x="683" y="-478.4" font-family="Roboto,BlinkMacSystemFont,Helvetica,Arial,sans-serif" font-size="12.00" fill="#4651b4">cryptography</text>
</a>
</g>
</g>
<!-- Controls&#45;&gt;crypto -->
<g id="edge14" class="edge">
<title>Controls&#45;&gt;crypto</title>
<path fill="none" stroke="black" d="M457.59,-604.63C508.49,-578.52 591.13,-536.13 640.95,-510.57"/>
<polygon fill="black" stroke="black" points="642.55,-513.68 649.85,-506 639.36,-507.45 642.55,-513.68"/>
</g>
<!-- capacity -->
<g id="node16" class="node">
<title>capacity</title>
<g id="a_node16"><a xlink:href="https://elastisys.io/compliantkubernetes/ciso-guide/capacity-management/" xlink:title="Capacity\nmanagement" target="_top">
<path fill="none" stroke="black" d="M797,-506C797,-506 749,-506 749,-506 743,-506 737,-500 737,-494 737,-494 737,-482 737,-482 737,-476 743,-470 749,-470 749,-470 797,-470 797,-470 803,-470 809,-476 809,-482 809,-482 809,-494 809,-494 809,-500 803,-506 797,-506"/>
<text text-anchor="middle" x="773" y="-491.2" font-family="Roboto,BlinkMacSystemFont,Helvetica,Arial,sans-serif" font-size="11.00" fill="#4651b4">Capacity</text>
<text text-anchor="middle" x="773" y="-479.2" font-family="Roboto,BlinkMacSystemFont,Helvetica,Arial,sans-serif" font-size="11.00" fill="#4651b4">management</text>
</a>
</g>
</g>
<!-- Controls&#45;&gt;capacity -->
<g id="edge15" class="edge">
<title>Controls&#45;&gt;capacity</title>
<path fill="none" stroke="black" d="M460.06,-609.39C529.46,-582.7 658.41,-533.09 727.12,-506.65"/>
<polygon fill="black" stroke="black" points="728.73,-509.78 736.8,-502.93 726.21,-503.25 728.73,-509.78"/>
</g>
<!-- dex -->
<g id="node18" class="node">
<title>dex</title>
<g id="a_node18"><a xlink:href="https://dexidp.io/" xlink:title="Dex" target="_blank">
<image xlink:href="logos/project-icons/dex.svg" width="72px" height="71.301px" preserveAspectRatio="xMinYMin meet" x="17" y="-398"/>
<text text-anchor="middle" x="53" y="-302.2" font-family="Roboto,BlinkMacSystemFont,Helvetica,Arial,sans-serif" font-size="16.00">Dex</text>
</a>
</g>
</g>
<!-- access&#45;&gt;dex -->
<g id="edge16" class="edge">
<title>access&#45;&gt;dex</title>
<path fill="none" stroke="black" d="M48.36,-469.74C46.72,-454.27 46.04,-430.64 46.31,-408.34"/>
<polygon fill="black" stroke="black" points="49.81,-408.29 46.49,-398.23 42.81,-408.16 49.81,-408.29"/>
</g>
<!-- access&#45;&gt;dex -->
<!-- opensearch -->
<g id="node20" class="node">
<title>opensearch</title>
<g id="a_node20"><a xlink:href="https://opensearch.org/" xlink:title="OpenSearch" target="_blank">
<image xlink:href="logos/project-icons/opensearch.svg" width="72px" height="72px" preserveAspectRatio="xMinYMin meet" x="107" y="-398"/>
<text text-anchor="middle" x="143" y="-300.8" font-family="Roboto,BlinkMacSystemFont,Helvetica,Arial,sans-serif" font-size="14.00">OpenSearch</text>
</a>
</g>
</g>
<!-- logging&#45;&gt;opensearch -->
<g id="edge18" class="edge">
<title>logging&#45;&gt;opensearch</title>
<path fill="none" stroke="black" d="M143,-469.74C143,-454.27 143,-430.64 143,-408.34"/>
<polygon fill="black" stroke="black" points="146.5,-408.22 143,-398.23 139.5,-408.23 146.5,-408.22"/>
</g>
<!-- velero -->
<g id="node19" class="node">
<title>velero</title>
<g id="a_node19"><a xlink:href="https://velero.io" xlink:title="Velero" target="_blank">
<image xlink:href="logos/project-icons/velero.svg" width="72px" height="72px" preserveAspectRatio="xMinYMin meet" x="197" y="-398"/>
<text text-anchor="middle" x="233" y="-302.2" font-family="Roboto,BlinkMacSystemFont,Helvetica,Arial,sans-serif" font-size="16.00">Velero</text>
</a>
</g>
</g>
<!-- backups&#45;&gt;velero -->
<g id="edge17" class="edge">
<title>backups&#45;&gt;velero</title>
<path fill="none" stroke="black" d="M233,-469.74C233,-454.27 233,-430.64 233,-408.34"/>
<polygon fill="black" stroke="black" points="236.5,-408.22 233,-398.23 229.5,-408.23 236.5,-408.22"/>
</g>
<!-- opa -->
<g id="node21" class="node">
<title>opa</title>
<g id="a_node21"><a xlink:href="https://open-policy-agent.github.io/gatekeeper/website/docs/" xlink:title="OPA" target="_blank">
<image xlink:href="logos/project-icons/opa.svg" width="72px" height="83.5041px" preserveAspectRatio="xMinYMin meet" x="287" y="-398"/>
<text text-anchor="middle" x="323" y="-302.2" font-family="Roboto,BlinkMacSystemFont,Helvetica,Arial,sans-serif" font-size="16.00">OPA</text>
</a>
</g>
</g>
<!-- continuous&#45;&gt;opa -->
<g id="edge19" class="edge">
<title>continuous&#45;&gt;opa</title>
<path fill="none" stroke="black" d="M323,-469.74C323,-454.27 323,-430.64 323,-408.34"/>
<polygon fill="black" stroke="black" points="326.5,-408.22 323,-398.23 319.5,-408.23 326.5,-408.22"/>
</g>
<!-- trivy -->
<g id="node22" class="node">
<title>trivy</title>
<g id="a_node22"><a xlink:href="https://github.com/aquasecurity/trivy" xlink:title="Trivy" target="_blank">
<image xlink:href="logos/project-icons/trivy.svg" width="72px" height="83.4545px" preserveAspectRatio="xMinYMin meet" x="377" y="-398"/>
<text text-anchor="middle" x="413" y="-302.2" font-family="Roboto,BlinkMacSystemFont,Helvetica,Arial,sans-serif" font-size="16.00">Trivy</text>
</a>
</g>
</g>
<!-- vulnerability&#45;&gt;trivy -->
<g id="edge20" class="edge">
<title>vulnerability&#45;&gt;trivy</title>
<path fill="none" stroke="black" d="M413,-469.74C413,-454.27 413,-430.64 413,-408.34"/>
<polygon fill="black" stroke="black" points="416.5,-408.22 413,-398.23 409.5,-408.23 416.5,-408.22"/>
</g>
<!-- falco -->
<g id="node23" class="node">
<title>falco</title>
<g id="a_node23"><a xlink:href="https://falco.org/" xlink:title="Falco" target="_blank">
<image xlink:href="logos/project-icons/falco.svg" width="72px" height="81.8507px" preserveAspectRatio="xMinYMin meet" x="467" y="-398"/>
<text text-anchor="middle" x="503" y="-302.2" font-family="Roboto,BlinkMacSystemFont,Helvetica,Arial,sans-serif" font-size="16.00">Falco</text>
</a>
</g>
</g>
<!-- intrusion&#45;&gt;falco -->
<g id="edge21" class="edge">
<title>intrusion&#45;&gt;falco</title>
<path fill="none" stroke="black" d="M503,-469.74C503,-454.27 503,-430.64 503,-408.34"/>
<polygon fill="black" stroke="black" points="506.5,-408.22 503,-398.23 499.5,-408.23 506.5,-408.22"/>
</g>
<!-- calico -->
<g id="node24" class="node">
<title>calico</title>
<g id="a_node24"><a xlink:href="https://www.projectcalico.org/" xlink:title="Calico" target="_blank">
<image xlink:href="logos/project-icons/calico.svg" width="72px" height="69.6667px" preserveAspectRatio="xMinYMin meet" x="557" y="-398"/>
<text text-anchor="middle" x="593" y="-302.2" font-family="Roboto,BlinkMacSystemFont,Helvetica,Arial,sans-serif" font-size="16.00">Calico</text>
</a>
</g>
</g>
<!-- network&#45;&gt;calico -->
<g id="edge22" class="edge">
<title>network&#45;&gt;calico</title>
<path fill="none" stroke="black" d="M593,-469.74C593,-454.27 593,-430.64 593,-408.34"/>
<polygon fill="black" stroke="black" points="596.5,-408.22 593,-398.23 589.5,-408.23 596.5,-408.22"/>
</g>
<!-- certmanager -->
<g id="node25" class="node">
<title>certmanager</title>
<g id="a_node25"><a xlink:href="https://cert-manager.io/" xlink:title="Cert Manager" target="_blank">
<image xlink:href="logos/project-icons/cert-manager.svg" width="72px" height="69.5303px" preserveAspectRatio="xMinYMin meet" x="647" y="-398"/>
<text text-anchor="middle" x="683" y="-300.8" font-family="Roboto,BlinkMacSystemFont,Helvetica,Arial,sans-serif" font-size="14.00">Cert Manager</text>
</a>
</g>
</g>
<!-- crypto&#45;&gt;certmanager -->
<g id="edge23" class="edge">
<title>crypto&#45;&gt;certmanager</title>
<path fill="none" stroke="black" d="M683,-469.74C683,-454.27 683,-430.64 683,-408.34"/>
<polygon fill="black" stroke="black" points="686.5,-408.22 683,-398.23 679.5,-408.23 686.5,-408.22"/>
</g>
<!-- kubernetes -->
<g id="node26" class="node">
<title>kubernetes</title>
<g id="a_node26"><a xlink:href="https://kubernetes.io/" xlink:title="Kubernetes" target="_blank">
<image xlink:href="logos/project-icons/kubernetes.svg" width="72px" height="69.8182px" preserveAspectRatio="xMinYMin meet" x="737" y="-398"/>
<text text-anchor="middle" x="773" y="-300.8" font-family="Roboto,BlinkMacSystemFont,Helvetica,Arial,sans-serif" font-size="14.00">Kubernetes</text>
</a>
</g>
</g>
<!-- capacity&#45;&gt;kubernetes -->
<g id="edge24" class="edge">
<title>capacity&#45;&gt;kubernetes</title>
<path fill="none" stroke="black" d="M773,-469.74C773,-454.27 773,-430.64 773,-408.34"/>
<polygon fill="black" stroke="black" points="776.5,-408.22 773,-398.23 769.5,-408.23 776.5,-408.22"/>
</g>
<!-- controls2&#45;&gt;access -->
<!-- prometheus -->
<g id="node27" class="node">
<title>prometheus</title>
<g id="a_node27"><a xlink:href="https://prometheus.io/" xlink:title="Prometheus" target="_blank">
<image xlink:href="logos/project-icons/prometheus.svg" width="72px" height="70.6479px" preserveAspectRatio="xMinYMin meet" x="17" y="-225"/>
<text text-anchor="middle" x="53" y="-127.4" font-family="Roboto,BlinkMacSystemFont,Helvetica,Arial,sans-serif" font-size="12.00">Prometheus</text>
</a>
</g>
</g>
<!-- dex&#45;&gt;prometheus -->
<g id="edge25" class="edge">
<title>dex&#45;&gt;prometheus</title>
<path fill="none" stroke="black" d="M46.8,-296.58C46.56,-289.14 46.39,-281.25 46.31,-273.22"/>
<polygon fill="black" stroke="black" points="49.81,-272.98 46.25,-263 42.81,-273.02 49.81,-272.98"/>
</g>
<!-- dex&#45;&gt;prometheus -->
<!-- alerts -->
<g id="node29" class="node">
<title>alerts</title>
<image xlink:href="alerts.svg" width="72px" height="72px" preserveAspectRatio="xMinYMin meet" x="197" y="-225"/>
<text text-anchor="middle" x="233" y="-129.2" font-family="Roboto,BlinkMacSystemFont,Helvetica,Arial,sans-serif" font-size="16.00">Alerts</text>
</g>
<!-- velero&#45;&gt;alerts -->
<g id="edge27" class="edge">
<title>velero&#45;&gt;alerts</title>
<path fill="none" stroke="black" d="M233,-296.58C233,-289.14 233,-281.25 233,-273.22"/>
<polygon fill="black" stroke="black" points="236.5,-273 233,-263 229.5,-273 236.5,-273"/>
</g>
<!-- grafana -->
<g id="node28" class="node">
<title>grafana</title>
<g id="a_node28"><a xlink:href="https://github.com/grafana/grafana" xlink:title="Grafana" target="_blank">
<image xlink:href="logos/project-icons/grafana.svg" width="72px" height="75.0114px" preserveAspectRatio="xMinYMin meet" x="107" y="-225"/>
<text text-anchor="middle" x="143" y="-129.2" font-family="Roboto,BlinkMacSystemFont,Helvetica,Arial,sans-serif" font-size="16.00">Grafana</text>
</a>
</g>
</g>
<!-- opensearch&#45;&gt;grafana -->
<g id="edge26" class="edge">
<title>opensearch&#45;&gt;grafana</title>
<path fill="none" stroke="black" d="M143,-296.58C143,-289.14 143,-281.25 143,-273.22"/>
<polygon fill="black" stroke="black" points="146.5,-273 143,-263 139.5,-273 146.5,-273"/>
</g>
<!-- auditNA2 -->
<g id="node30" class="node">
<title>auditNA2</title>
</g>
<!-- opa&#45;&gt;auditNA2 -->
<g id="edge28" class="edge">
<title>opa&#45;&gt;auditNA2</title>
<path fill="none" stroke="black" d="M323,-296.58C323,-289.14 323,-281.25 323,-273.22"/>
<polygon fill="black" stroke="black" points="326.5,-273 323,-263 319.5,-273 326.5,-273"/>
</g>
<!-- auditNA3 -->
<g id="node31" class="node">
<title>auditNA3</title>
</g>
<!-- trivy&#45;&gt;auditNA3 -->
<g id="edge29" class="edge">
<title>trivy&#45;&gt;auditNA3</title>
<path fill="none" stroke="black" d="M413,-296.58C413,-289.14 413,-281.25 413,-273.22"/>
<polygon fill="black" stroke="black" points="416.5,-273 413,-263 409.5,-273 416.5,-273"/>
</g>
<!-- auditNA4 -->
<g id="node32" class="node">
<title>auditNA4</title>
</g>
<!-- falco&#45;&gt;auditNA4 -->
<g id="edge30" class="edge">
<title>falco&#45;&gt;auditNA4</title>
<path fill="none" stroke="black" d="M503,-296.58C503,-289.14 503,-281.25 503,-273.22"/>
<polygon fill="black" stroke="black" points="506.5,-273 503,-263 499.5,-273 506.5,-273"/>
</g>
<!-- auditNA5 -->
<g id="node33" class="node">
<title>auditNA5</title>
</g>
<!-- calico&#45;&gt;auditNA5 -->
<g id="edge31" class="edge">
<title>calico&#45;&gt;auditNA5</title>
<path fill="none" stroke="black" d="M593,-296.58C593,-289.14 593,-281.25 593,-273.22"/>
<polygon fill="black" stroke="black" points="596.5,-273 593,-263 589.5,-273 596.5,-273"/>
</g>
<!-- auditNA6 -->
<g id="node34" class="node">
<title>auditNA6</title>
</g>
<!-- certmanager&#45;&gt;auditNA6 -->
<g id="edge32" class="edge">
<title>certmanager&#45;&gt;auditNA6</title>
<path fill="none" stroke="black" d="M683,-296.58C683,-289.14 683,-281.25 683,-273.22"/>
<polygon fill="black" stroke="black" points="686.5,-273 683,-263 679.5,-273 686.5,-273"/>
</g>
<!-- auditNA7 -->
<g id="node35" class="node">
<title>auditNA7</title>
</g>
<!-- kubernetes&#45;&gt;auditNA7 -->
<g id="edge33" class="edge">
<title>kubernetes&#45;&gt;auditNA7</title>
<path fill="none" stroke="black" d="M773,-296.58C773,-289.14 773,-281.25 773,-273.22"/>
<polygon fill="black" stroke="black" points="776.5,-273 773,-263 769.5,-273 776.5,-273"/>
</g>
<!-- alignment_node_0 -->
<g id="node39" class="node">
<title>alignment_node_0</title>
</g>
<!-- prometheus&#45;&gt;alignment_node_0 -->
<!-- createdBy -->
<g id="node36" class="node">
<title>createdBy</title>
<g id="a_node36"><a xlink:href="https://elastisys.com" target="_blank">
<image xlink:href="logos/created-by.svg" width="201px" height="36px" preserveAspectRatio="xMinYMin meet" x="604.5" y="-52"/>
</a>
</g>
</g>
<!-- title -->
<g id="node37" class="node">
<title>title</title>
<g id="a_node37"><a xlink:href="https://elastisys.io/compliantkubernetes/" xlink:title="https://elastisys.io/compliantkubernetes/" target="_blank">
<text text-anchor="middle" x="424" y="-30.3" font-family="Roboto,BlinkMacSystemFont,Helvetica,Arial,sans-serif" font-size="14.00" fill="#4651b4">https://elastisys.io/compliantkubernetes/</text>
</a>
</g>
</g>
<!-- spacing_node_0 -->
<g id="node38" class="node">
<title>spacing_node_0</title>
</g>
</g>
</svg>
