<?xml version="1.0" encoding="UTF-8" standalone="no"?><!DOCTYPE svg PUBLIC "-//W3C//DTD SVG 1.1//EN" "http://www.w3.org/Graphics/SVG/1.1/DTD/svg11.dtd"><!-- Generated by graphviz version 2.40.1 (20161225.0304)
 --><!-- Title: JaegerOAuth2ProxyArchitecture Pages: 1 --><svg xmlns="http://www.w3.org/2000/svg" xmlns:xlink="http://www.w3.org/1999/xlink" width="319pt" height="329pt" viewBox="0.00 0.00 319.06 329.33">
<g id="graph0" class="graph" transform="scale(1 1) rotate(0) translate(4 325.3276)">
<title>JaegerOAuth2ProxyArchitecture</title>
<polygon fill="#ffffff" stroke="transparent" points="-4,4 -4,-325.3276 315.0638,-325.3276 315.0638,4 -4,4"/>
<g id="clust3" class="cluster">
<title>cluster_oauth2_proxy</title>
<polygon fill="none" stroke="#000000" points="157.0638,-119.6 157.0638,-196.4 267.0638,-196.4 267.0638,-119.6 157.0638,-119.6"/>
<text text-anchor="middle" x="212.0638" y="-179.8" font-family="Times,serif" font-size="14.00" fill="#000000">oauth2-proxy</text>
</g>
<g id="clust4" class="cluster">
<title>cluster_jaeger_ui</title>
<polygon fill="none" stroke="#000000" points="73.0638,-8 73.0638,-84.8 155.0638,-84.8 155.0638,-8 73.0638,-8"/>
<text text-anchor="middle" x="114.0638" y="-68.2" font-family="Times,serif" font-size="14.00" fill="#000000">Jaeger UI</text>
</g>
<g id="clust5" class="cluster">
<title>cluster_logging</title>
<polygon fill="none" stroke="#000000" points="191.0638,-8 191.0638,-84.8 303.0638,-84.8 303.0638,-8 191.0638,-8"/>
<text text-anchor="middle" x="247.0638" y="-68.2" font-family="Times,serif" font-size="14.00" fill="#000000">Request Logging</text>
</g>
<!-- Internet -->
<g id="node1" class="node">
<title>Internet</title>
<ellipse fill="none" stroke="#000000" cx="41.0638" cy="-280.2638" rx="41.1277" ry="41.1277"/>
<text text-anchor="middle" x="41.0638" y="-276.0638" font-family="Times,serif" font-size="14.00" fill="#000000">Internet</text>
</g>
<!-- Ingress -->
<g id="node2" class="node">
<title>Ingress</title>
<polygon fill="none" stroke="#000000" points="240.4904,-298.2638 183.6372,-298.2638 183.6372,-262.2638 240.4904,-262.2638 240.4904,-298.2638"/>
<text text-anchor="middle" x="212.0638" y="-276.0638" font-family="Times,serif" font-size="14.00" fill="#000000">Ingress</text>
</g>
<!-- Internet&#45;&gt;Ingress -->
<g id="edge1" class="edge">
<title>Internet-&gt;Ingress</title>
<path fill="none" stroke="#000000" d="M82.4581,-280.2638C110.1197,-280.2638 146.2628,-280.2638 173.3517,-280.2638"/>
<polygon fill="#000000" stroke="#000000" points="173.6197,-283.7639 183.6197,-280.2638 173.6196,-276.7639 173.6197,-283.7639"/>
<text text-anchor="middle" x="132.9895" y="-287.4638" font-family="Times,serif" font-size="14.00" fill="#000000">HTTP Request</text>
</g>
<!-- Internet&#45;&gt;Ingress -->
<!-- OAuth2Proxy -->
<g id="node3" class="node">
<title>OAuth2Proxy</title>
<polygon fill="none" stroke="#000000" points="259.1119,-163.6 165.0157,-163.6 165.0157,-127.6 259.1119,-127.6 259.1119,-163.6"/>
<text text-anchor="middle" x="212.0638" y="-141.4" font-family="Times,serif" font-size="14.00" fill="#000000">OAuth2Proxy</text>
</g>
<!-- Ingress&#45;&gt;OAuth2Proxy -->
<g id="edge2" class="edge">
<title>Ingress-&gt;OAuth2Proxy</title>
<path fill="none" stroke="#000000" d="M183.8052,-264.8243C168.3359,-254.6703 150.5965,-239.8181 141.9354,-221.2 132.6609,-201.2631 148.4288,-183.0545 167.3442,-169.5051"/>
<polygon fill="#000000" stroke="#000000" points="169.5058,-172.2703 175.8775,-163.8055 165.6178,-166.4493 169.5058,-172.2703"/>
<text text-anchor="middle" x="205.628" y="-208.6" font-family="Times,serif" font-size="14.00" fill="#000000">Authenticated Request</text>
</g>
<!-- Ingress&#45;&gt;OAuth2Proxy -->
<!-- JaegerUI -->
<g id="node4" class="node">
<title>JaegerUI</title>
<polygon fill="none" stroke="#000000" points="147.0818,-52 81.0459,-52 81.0459,-16 147.0818,-16 147.0818,-52"/>
<text text-anchor="middle" x="114.0638" y="-29.8" font-family="Times,serif" font-size="14.00" fill="#000000">JaegerUI</text>
</g>
<!-- OAuth2Proxy&#45;&gt;JaegerUI -->
<g id="edge3" class="edge">
<title>OAuth2Proxy-&gt;JaegerUI</title>
<path fill="none" stroke="#000000" d="M164.7784,-136.0454C138.3168,-129.6342 109.1011,-120.4004 101.2538,-109.6 91.3047,-95.9067 94.3985,-77.1662 100.0334,-61.7701"/>
<polygon fill="#000000" stroke="#000000" points="103.3951,-62.8003 103.9918,-52.2223 96.9288,-60.1195 103.3951,-62.8003"/>
<text text-anchor="middle" x="150.4688" y="-97" font-family="Times,serif" font-size="14.00" fill="#000000">Allowed Request</text>
</g>
<!-- OAuth2Proxy&#45;&gt;JaegerUI -->
<!-- Logging -->
<g id="node5" class="node">
<title>Logging</title>
<polygon fill="none" stroke="#000000" points="277.0086,-52 213.1191,-52 213.1191,-16 277.0086,-16 277.0086,-52"/>
<text text-anchor="middle" x="245.0638" y="-29.8" font-family="Times,serif" font-size="14.00" fill="#000000">Logging</text>
</g>
<!-- OAuth2Proxy&#45;&gt;Logging -->
<g id="edge4" class="edge">
<title>OAuth2Proxy-&gt;Logging</title>
<path fill="none" stroke="#000000" d="M217.7071,-127.3002C219.4413,-121.6315 221.3453,-115.3616 223.0638,-109.6 227.7797,-93.7889 232.9394,-76.081 237.0759,-61.7799"/>
<polygon fill="#000000" stroke="#000000" points="240.4754,-62.6229 239.8862,-52.0444 233.75,-60.6814 240.4754,-62.6229"/>
<text text-anchor="middle" x="268.4793" y="-97" font-family="Times,serif" font-size="14.00" fill="#000000">Audit Logging</text>
</g>
</g>
</svg>