<?xml version="1.0" encoding="UTF-8" standalone="no"?><!DOCTYPE svg PUBLIC "-//W3C//DTD SVG 1.1//EN" "http://www.w3.org/Graphics/SVG/1.1/DTD/svg11.dtd"><!-- Generated by graphviz version 2.40.1 (20161225.0304)
 --><!-- Title: JaegerPortForwardArchitecture Pages: 1 --><svg xmlns="http://www.w3.org/2000/svg" xmlns:xlink="http://www.w3.org/1999/xlink" width="908pt" height="323pt" viewBox="0.00 0.00 908.33 323.00">
<g id="graph0" class="graph" transform="scale(1 1) rotate(0) translate(4 319)">
<title>JaegerPortForwardArchitecture</title>
<polygon fill="#ffffff" stroke="transparent" points="-4,4 -4,-319 904.3326,-319 904.3326,4 -4,4"/>
<g id="clust1" class="cluster">
<title>cluster_k8s</title>
<polygon fill="none" stroke="#000000" points="8,-189 8,-307 892.3326,-307 892.3326,-189 8,-189"/>
<text text-anchor="middle" x="450.1663" y="-290.4" font-family="Times,serif" font-size="14.00" fill="#000000">WC cluster</text>
</g>
<g id="clust2" class="cluster">
<title>cluster_pods</title>
<polygon fill="none" stroke="#000000" points="16,-197 16,-274 884.3326,-274 884.3326,-197 16,-197"/>
<text text-anchor="middle" x="450.1663" y="-257.4" font-family="Times,serif" font-size="14.00" fill="#000000">K8s Pods</text>
</g>
<g id="clust3" class="cluster">
<title>cluster_port_forward</title>
<polygon fill="none" stroke="#000000" points="522.2958,-72 522.2958,-171 662.0604,-171 662.0604,-72 522.2958,-72"/>
<text text-anchor="middle" x="592.1781" y="-154.4" font-family="Times,serif" font-size="14.00" fill="#000000">Port Forwarding</text>
</g>
<g id="clust4" class="cluster">
<title>cluster_local</title>
<polygon fill="none" stroke="#000000" points="198.3808,-8 198.3808,-181 346.4016,-181 346.4016,-8 198.3808,-8"/>
<text text-anchor="middle" x="272.3912" y="-164.4" font-family="Times,serif" font-size="14.00" fill="#000000">Local Machine</text>
</g>
<!-- JaegerPod -->
<g id="node1" class="node">
<title>JaegerPod</title>
<polygon fill="none" stroke="#000000" points="876.3484,-241 799.2852,-241 799.2852,-205 876.3484,-205 876.3484,-241"/>
<text text-anchor="middle" x="837.8168" y="-218.8" font-family="Times,serif" font-size="14.00" fill="#000000">Jaeger Pod</text>
</g>
<!-- ApplicationPod -->
<g id="node2" class="node">
<title>ApplicationPod</title>
<polygon fill="none" stroke="#000000" points="131.5719,-241 23.8089,-241 23.8089,-205 131.5719,-205 131.5719,-241"/>
<text text-anchor="middle" x="77.6904" y="-218.8" font-family="Times,serif" font-size="14.00" fill="#000000">Application Pod</text>
</g>
<!-- ApplicationPod&#45;&gt;JaegerPod -->
<g id="edge3" class="edge">
<title>ApplicationPod-&gt;JaegerPod</title>
<path fill="none" stroke="#000000" d="M131.6963,-223C143.9237,-223 156.8487,-223 168.8808,-223 168.8808,-223 168.8808,-223 592.1781,-223 660.4586,-223 739.4153,-223 788.9844,-223"/>
<polygon fill="#000000" stroke="#000000" points="789.1015,-226.5001 799.1015,-223 789.1014,-219.5001 789.1015,-226.5001"/>
<text text-anchor="middle" x="272.3912" y="-227.2" font-family="Times,serif" font-size="14.00" fill="#000000">Tracing Data</text>
</g>
<!-- Kubectl -->
<g id="node3" class="node">
<title>Kubectl</title>
<ellipse fill="none" stroke="#000000" cx="592.1781" cy="-109" rx="61.7648" ry="29.3315"/>
<text text-anchor="middle" x="592.1781" y="-113.2" font-family="Times,serif" font-size="14.00" fill="#000000">kubectl</text>
<text text-anchor="middle" x="592.1781" y="-96.4" font-family="Times,serif" font-size="14.00" fill="#000000">port-forward</text>
</g>
<!-- Kubectl&#45;&gt;JaegerPod -->
<g id="edge2" class="edge">
<title>Kubectl-&gt;JaegerPod</title>
<path fill="none" stroke="#000000" d="M636.6614,-129.6445C679.9011,-149.7119 745.3731,-180.0972 789.7821,-200.7073"/>
<polygon fill="#000000" stroke="#000000" points="788.3791,-203.9146 798.9232,-204.9496 791.3259,-197.5651 788.3791,-203.9146"/>
<text text-anchor="middle" x="726.6807" y="-199.2" font-family="Times,serif" font-size="14.00" fill="#000000">Forwarded Request</text>
</g>
<!-- User -->
<g id="node4" class="node">
<title>User</title>
<ellipse fill="none" stroke="#000000" cx="272.3912" cy="-82" rx="66.0208" ry="66.0208"/>
<text text-anchor="middle" x="272.3912" y="-86.2" font-family="Times,serif" font-size="14.00" fill="#000000">User's</text>
<text text-anchor="middle" x="272.3912" y="-69.4" font-family="Times,serif" font-size="14.00" fill="#000000">Web Browser</text>
</g>
<!-- User&#45;&gt;Kubectl -->
<g id="edge1" class="edge">
<title>User-&gt;Kubectl</title>
<path fill="none" stroke="#000000" d="M338.2635,-87.5617C391.4258,-92.0502 466.095,-98.3547 520.699,-102.9649"/>
<polygon fill="#000000" stroke="#000000" points="520.7364,-106.4805 530.9954,-103.8343 521.3253,-99.5053 520.7364,-106.4805"/>
<text text-anchor="middle" x="434.3487" y="-105.2" font-family="Times,serif" font-size="14.00" fill="#000000">Access via Port Forwarding</text>
</g>
</g>
</svg>