<?xml version="1.0" encoding="UTF-8" standalone="no"?><!DOCTYPE svg PUBLIC "-//W3C//DTD SVG 1.1//EN" "http://www.w3.org/Graphics/SVG/1.1/DTD/svg11.dtd"><!-- Generated by graphviz version 2.40.1 (20161225.0304)
 --><!-- Title: JaegerArchitecture Pages: 1 --><svg xmlns="http://www.w3.org/2000/svg" xmlns:xlink="http://www.w3.org/1999/xlink" width="512pt" height="195pt" viewBox="0.00 0.00 512.26 194.93">
<g id="graph0" class="graph" transform="scale(1 1) rotate(0) translate(4 190.9276)">
<title>JaegerArchitecture</title>
<polygon fill="#ffffff" stroke="transparent" points="-4,4 -4,-190.9276 508.2581,-190.9276 508.2581,4 -4,4"/>
<g id="clust1" class="cluster">
<title>cluster_internet</title>
</g>
<!-- Internet -->
<g id="node1" class="node">
<title>Internet</title>
<ellipse fill="none" stroke="#000000" cx="57" cy="-129.8638" rx="41.1277" ry="41.1277"/>
<text text-anchor="middle" x="57" y="-125.6638" font-family="Times,serif" font-size="14.00" fill="#000000">Internet</text>
</g>
<!-- Ingress -->
<g id="node2" class="node">
<title>Ingress</title>
<polygon fill="none" stroke="#000000" points="84.4266,-36 27.5734,-36 27.5734,0 84.4266,0 84.4266,-36"/>
<text text-anchor="middle" x="56" y="-13.8" font-family="Times,serif" font-size="14.00" fill="#000000">Ingress</text>
</g>
<!-- Internet&#45;&gt;Ingress -->
<g id="edge1" class="edge">
<title>Internet-&gt;Ingress</title>
<path fill="none" stroke="#000000" d="M27.0328,-101.4551C19.4816,-92.4531 12.3929,-81.9248 8.4046,-70.8 5.8848,-63.7714 5.079,-60.6852 8.4046,-54 11.1243,-48.5329 15.1144,-43.6749 19.6458,-39.4355"/>
<polygon fill="#000000" stroke="#000000" points="22.1288,-41.9263 27.6543,-32.8864 17.6975,-36.5075 22.1288,-41.9263"/>
<text text-anchor="middle" x="49.7977" y="-58.2" font-family="Times,serif" font-size="14.00" fill="#000000">HTTP Request</text>
</g>
<!-- Internet&#45;&gt;Ingress -->
<!-- OAuth2Proxy -->
<g id="node3" class="node">
<title>OAuth2Proxy</title>
<polygon fill="none" stroke="#000000" points="323.0481,-36 228.9519,-36 228.9519,0 323.0481,0 323.0481,-36"/>
<text text-anchor="middle" x="276" y="-13.8" font-family="Times,serif" font-size="14.00" fill="#000000">OAuth2Proxy</text>
</g>
<!-- Ingress&#45;&gt;OAuth2Proxy -->
<g id="edge2" class="edge">
<title>Ingress-&gt;OAuth2Proxy</title>
<path fill="none" stroke="#000000" d="M84.3108,-18C118.1539,-18 175.6312,-18 218.8409,-18"/>
<polygon fill="#000000" stroke="#000000" points="218.9384,-21.5001 228.9384,-18 218.9384,-14.5001 218.9384,-21.5001"/>
<text text-anchor="middle" x="156.4695" y="-25.2" font-family="Times,serif" font-size="14.00" fill="#000000">Authenticated Request</text>
</g>
<!-- Ingress&#45;&gt;OAuth2Proxy -->
<!-- JaegerUI -->
<g id="node4" class="node">
<title>JaegerUI</title>
<polygon fill="none" stroke="#000000" points="504.0179,-36 437.9821,-36 437.9821,0 504.0179,0 504.0179,-36"/>
<text text-anchor="middle" x="471" y="-13.8" font-family="Times,serif" font-size="14.00" fill="#000000">JaegerUI</text>
</g>
<!-- OAuth2Proxy&#45;&gt;JaegerUI -->
<g id="edge3" class="edge">
<title>OAuth2Proxy-&gt;JaegerUI</title>
<path fill="none" stroke="#000000" d="M323.2041,-18C355.1037,-18 396.8947,-18 427.8958,-18"/>
<polygon fill="#000000" stroke="#000000" points="427.9658,-21.5001 437.9657,-18 427.9657,-14.5001 427.9658,-21.5001"/>
<text text-anchor="middle" x="380.5077" y="-25.2" font-family="Times,serif" font-size="14.00" fill="#000000">Allowed Request</text>
</g>
<!-- OAuth2Proxy&#45;&gt;JaegerUI -->
</g>
</svg>