<?xml version="1.0" encoding="UTF-8" standalone="no"?><!DOCTYPE svg PUBLIC "-//W3C//DTD SVG 1.1//EN" "http://www.w3.org/Graphics/SVG/1.1/DTD/svg11.dtd"><!-- Generated by graphviz version 2.40.1 (20161225.0304)
 --><!-- Title: JaegerOAuth2ProxyArchitecture Pages: 1 --><svg xmlns="http://www.w3.org/2000/svg" xmlns:xlink="http://www.w3.org/1999/xlink" width="448pt" height="325pt" viewBox="0.00 0.00 448.32 324.93">
<g id="graph0" class="graph" transform="scale(1 1) rotate(0) translate(4 320.9276)">
<title>JaegerOAuth2ProxyArchitecture</title>
<polygon fill="#ffffff" stroke="transparent" points="-4,4 -4,-320.9276 444.3219,-320.9276 444.3219,4 -4,4"/>
<!-- Internet -->
<g id="node1" class="node">
<title>Internet</title>
<ellipse fill="none" stroke="#000000" cx="41.0638" cy="-275.8638" rx="41.1277" ry="41.1277"/>
<text text-anchor="middle" x="41.0638" y="-271.6638" font-family="Times,serif" font-size="14.00" fill="#000000">Internet</text>
</g>
<!-- Ingress -->
<g id="node2" class="node">
<title>Ingress</title>
<polygon fill="none" stroke="#000000" points="240.4904,-293.8638 183.6372,-293.8638 183.6372,-257.8638 240.4904,-257.8638 240.4904,-293.8638"/>
<text text-anchor="middle" x="212.0638" y="-271.6638" font-family="Times,serif" font-size="14.00" fill="#000000">Ingress</text>
</g>
<!-- Internet&#45;&gt;Ingress -->
<g id="edge1" class="edge">
<title>Internet-&gt;Ingress</title>
<path fill="none" stroke="#000000" d="M82.4581,-275.8638C110.1197,-275.8638 146.2628,-275.8638 173.3517,-275.8638"/>
<polygon fill="#000000" stroke="#000000" points="173.6197,-279.3639 183.6197,-275.8638 173.6196,-272.3639 173.6197,-279.3639"/>
<text text-anchor="middle" x="132.9895" y="-283.0638" font-family="Times,serif" font-size="14.00" fill="#000000">HTTP Request</text>
</g>
<!-- Internet&#45;&gt;Ingress -->
<!-- OAuth2Proxy -->
<g id="node3" class="node">
<title>OAuth2Proxy</title>
<polygon fill="none" stroke="#000000" points="259.1119,-182 165.0157,-182 165.0157,-146 259.1119,-146 259.1119,-182"/>
<text text-anchor="middle" x="212.0638" y="-159.8" font-family="Times,serif" font-size="14.00" fill="#000000">OAuth2Proxy</text>
</g>
<!-- Ingress&#45;&gt;OAuth2Proxy -->
<g id="edge2" class="edge">
<title>Ingress-&gt;OAuth2Proxy</title>
<path fill="none" stroke="#000000" d="M183.5646,-262.1924C158.1112,-248.0029 126.978,-224.4915 141.9354,-200 145.5777,-194.0361 150.5571,-189.019 156.1952,-184.8084"/>
<polygon fill="#000000" stroke="#000000" points="158.3603,-187.5761 164.8482,-179.2 154.553,-181.702 158.3603,-187.5761"/>
<text text-anchor="middle" x="205.628" y="-204.2" font-family="Times,serif" font-size="14.00" fill="#000000">Authenticated Request</text>
</g>
<!-- Ingress&#45;&gt;OAuth2Proxy -->
<!-- JaegerUI -->
<g id="node4" class="node">
<title>JaegerUI</title>
<polygon fill="none" stroke="#000000" points="440.0818,-182 374.0459,-182 374.0459,-146 440.0818,-146 440.0818,-182"/>
<text text-anchor="middle" x="407.0638" y="-159.8" font-family="Times,serif" font-size="14.00" fill="#000000">JaegerUI</text>
</g>
<!-- OAuth2Proxy&#45;&gt;JaegerUI -->
<g id="edge3" class="edge">
<title>OAuth2Proxy-&gt;JaegerUI</title>
<path fill="none" stroke="#000000" d="M259.2679,-164C291.1675,-164 332.9585,-164 363.9596,-164"/>
<polygon fill="#000000" stroke="#000000" points="364.0296,-167.5001 374.0296,-164 364.0295,-160.5001 364.0296,-167.5001"/>
<text text-anchor="middle" x="316.5715" y="-171.2" font-family="Times,serif" font-size="14.00" fill="#000000">Allowed Request</text>
</g>
<!-- OAuth2Proxy&#45;&gt;JaegerUI -->
<!-- OAuth2ProxyAdditionalProtection -->
<g id="node5" class="node">
<title>OAuth2ProxyAdditionalProtection</title>
<ellipse fill="none" stroke="#000000" cx="212.0638" cy="-91" rx="146.433" ry="18"/>
<text text-anchor="middle" x="212.0638" y="-86.8" font-family="Times,serif" font-size="14.00" fill="#000000">OAuth2ProxyAdditionalProtection</text>
</g>
<!-- OAuth2Proxy&#45;&gt;OAuth2ProxyAdditionalProtection -->
<g id="edge4" class="edge">
<title>OAuth2Proxy-&gt;OAuth2ProxyAdditionalProtection</title>
<path fill="none" stroke="#000000" d="M212.0638,-145.9551C212.0638,-137.8828 212.0638,-128.1764 212.0638,-119.1817"/>
<polygon fill="#000000" stroke="#000000" points="215.5639,-119.0903 212.0638,-109.0904 208.5639,-119.0904 215.5639,-119.0903"/>
</g>
<!-- comment -->
<g id="node6" class="node">
<title>comment</title>
<polygon fill="none" stroke="#000000" points="358.867,-36 59.2607,-36 59.2607,0 364.867,0 364.867,-30 358.867,-36"/>
<polyline fill="none" stroke="#000000" points="358.867,-36 358.867,-30 "/>
<polyline fill="none" stroke="#000000" points="364.867,-30 358.867,-30 "/>
<text text-anchor="middle" x="212.0638" y="-13.8" font-family="Times,serif" font-size="14.00" fill="#000000">Domain, Groups, IP Allowlisting, Request Logging</text>
</g>
<!-- OAuth2ProxyAdditionalProtection&#45;&gt;comment -->
<g id="edge5" class="edge">
<title>OAuth2ProxyAdditionalProtection-&gt;comment</title>
<path fill="none" stroke="#000000" d="M212.0638,-72.9551C212.0638,-64.8828 212.0638,-55.1764 212.0638,-46.1817"/>
<polygon fill="#000000" stroke="#000000" points="215.5639,-46.0903 212.0638,-36.0904 208.5639,-46.0904 215.5639,-46.0903"/>
</g>
</g>
</svg>