<svg xmlns="http://www.w3.org/2000/svg" version="1.1" xmlns:xlink="http://www.w3.org/1999/xlink" xmlns:svgjs="http://svgjs.dev/svgjs" width="188.41548" height="185.86853"><svg viewBox="0 0 188.41549 185.86853" version="1.1" id="SvgjsSvg1099" sodipodi:docname="Welkin-logo_icon_green.svg" width="188.41548" height="185.86853" inkscape:version="1.3.1 (9b9bdc1480, 2023-11-25, custom)" xmlns:inkscape="http://www.inkscape.org/namespaces/inkscape" xmlns:sodipodi="http://sodipodi.sourceforge.net/DTD/sodipodi-0.dtd" xmlns="http://www.w3.org/2000/svg" xmlns:svg="http://www.w3.org/2000/svg">
  <sodipodi:namedview id="SvgjsSodipodi:namedview1098" pagecolor="#ffffff" bordercolor="#000000" borderopacity="0.25" inkscape:showpageshadow="2" inkscape:pageopacity="0.0" inkscape:pagecheckerboard="0" inkscape:deskcolor="#d1d1d1" inkscape:zoom="1.9859152" inkscape:cx="324.53552" inkscape:cy="93.156044" inkscape:window-width="1854" inkscape:window-height="1011" inkscape:window-x="0" inkscape:window-y="0" inkscape:window-maximized="1" inkscape:current-layer="svg34"></sodipodi:namedview>
  <defs id="SvgjsDefs1097">
    <style id="SvgjsStyle1096">.cls-1,.cls-2{fill:#22a472;}.cls-3,.cls-4{fill:#f7f1ed;}.cls-4,.cls-2{mix-blend-mode:multiply;}.cls-5{isolation:isolate;}.cls-6{fill:#fffbf9;}.cls-7{fill:#fff;}.cls-8{fill:#cbff8b;}.cls-9{fill:#303b54;}.cls-2{opacity:.5;}</style>
  </defs>
  <g id="SvgjsG1095" transform="translate(0.00774103,-0.00147498)">
    <path class="cls-1" d="m 147.42,166.96 c -11.38,-1.52 -16.78,1.36 -22.47,4.39 -2.27,1.21 -4.62,2.46 -7.46,3.48 -1.24,-2.16 -2.71,-4.2 -4.81,-5.73 10.99,-1.53 20.76,-4.35 29.29,-7.8 2.47,1.52 4.29,3.83 5.45,5.66 z" id="SvgjsPath1094" style="isolation:isolate"></path>
    <path class="cls-1" d="m 117.59,182.21 c -1.04,-0.11 -2.18,-0.14 -3.46,-0.09 -0.59,0.02 -1.17,0.06 -1.76,0.09 -2.26,0.14 -4.4,0.28 -6.35,-0.28 -2.38,-0.67 -4.71,-2.74 -5.84,-5.07 1.81,-1.45 2.98,-3.68 2.98,-6.17 0,-0.16 0,-0.31 -0.02,-0.47 2.65,-0.34 5.47,0.19 7.33,1.46 1.99,1.35 3.32,3.41 4.57,5.71 0.07,0.2 0.17,0.38 0.29,0.54 0.24,0.45 0.47,0.9 0.71,1.36 0.5,0.96 1.01,1.95 1.56,2.91 z" id="SvgjsPath1093" style="isolation:isolate"></path>
    <path class="cls-1" d="m 90.66,177.14 c -1.08,2.3 -3.13,4.16 -5.4,4.8 -1.96,0.55 -4.09,0.42 -6.35,0.28 -0.59,-0.03 -1.18,-0.07 -1.76,-0.09 -1.28,-0.06 -2.42,-0.03 -3.46,0.09 0.55,-0.96 1.06,-1.95 1.56,-2.91 1.57,-3.04 3.05,-5.9 5.58,-7.61 1.65,-1.12 3.75,-1.59 6.52,-1.43 -0.01,0.14 -0.02,0.29 -0.02,0.44 0,2.66 1.32,5.01 3.34,6.44 z" id="SvgjsPath1092" style="isolation:isolate"></path>
    <path class="cls-1" d="m 78.17,169.41 c -1.88,1.49 -3.23,3.4 -4.4,5.42 -2.86,-1.03 -5.22,-2.28 -7.49,-3.49 -5.77,-3.07 -11.25,-5.99 -22.98,-4.32 0.81,-1.63 2.21,-3.71 4.54,-5.17 8.83,3.44 18.94,6.19 30.33,7.56 z" id="SvgjsPath1091" style="isolation:isolate"></path>
    <path class="cls-2" d="m 84.71,178.32 c -2.01,0.8 -4.21,0.99 -6.31,1.52 -2.1,0.53 -4.24,1.51 -5.36,3.36 2.39,-0.29 4.82,0 7.22,0.19 2.4,0.19 4.88,0.26 7.18,-0.46 2.3,-0.72 4.43,-2.38 5.14,-4.68 0.2,-0.64 0.28,-1.35 0,-1.96 -0.5,-1.1 -2.76,-2.67 -3.81,-1.62 -0.62,0.62 -0.91,1.5 -1.59,2.12 -0.72,0.66 -1.57,1.16 -2.47,1.52 z" id="SvgjsPath1090" style="isolation:isolate"></path>
    <path class="cls-2" d="m 106.74,178.32 c 2.01,0.8 4.21,0.99 6.31,1.52 2.1,0.53 4.24,1.51 5.36,3.36 -2.39,-0.29 -4.82,0 -7.22,0.19 -2.4,0.19 -4.88,0.26 -7.18,-0.46 -2.3,-0.72 -4.43,-2.38 -5.14,-4.68 -0.2,-0.64 -0.28,-1.35 0,-1.96 0.5,-1.1 2.76,-2.67 3.81,-1.62 0.62,0.62 0.91,1.5 1.59,2.12 0.72,0.66 1.57,1.16 2.47,1.52 z" id="SvgjsPath1089" style="isolation:isolate"></path>
    <path class="cls-2" d="m 54.69,168.47 c -1.45,0.07 -3.01,-0.04 -4.2,-0.87 -1.19,-0.84 -1.83,-2.6 -1.02,-3.81 0.58,-0.86 1.79,-1.38 1.86,-2.41 0.06,-0.87 -0.84,-1.57 -1.7,-1.6 -0.86,-0.03 -1.68,0.42 -2.39,0.91 -1.77,1.23 -3.29,2.82 -4.43,4.64 -0.3,0.49 -0.59,1.03 -0.53,1.6 0.11,1.12 1.42,1.67 2.54,1.76 2.6,0.2 5.21,-0.86 7.78,-0.42 z" id="SvgjsPath1088" style="isolation:isolate"></path>
    <path class="cls-2" d="m 135.78,168.47 c 1.45,0.07 3.01,-0.04 4.2,-0.87 1.19,-0.83 1.83,-2.6 1.02,-3.81 -0.58,-0.86 -1.79,-1.38 -1.86,-2.41 -0.06,-0.87 0.84,-1.57 1.7,-1.6 0.86,-0.03 1.68,0.42 2.39,0.91 1.77,1.23 3.29,2.82 4.43,4.64 0.3,0.49 0.59,1.03 0.53,1.6 -0.11,1.12 -1.42,1.67 -2.54,1.76 -2.6,0.2 -5.21,-0.86 -7.78,-0.42 z" id="SvgjsPath1087" style="isolation:isolate"></path>
    <path class="cls-8" d="m 99.75,170.7 c 0,2.49 -2.02,4.51 -4.51,4.51 -2.49,0 -4.51,-2.03 -4.51,-4.51 0,-0.16 0.01,-0.32 0.03,-0.48 l 8.97,-0.05 c 0.02,0.17 0.03,0.35 0.03,0.54 z" id="SvgjsPath1086" style="isolation:isolate"></path>
    <path class="cls-3" d="m 163.59,84.27 c -3.85,-5.45 -7.08,-10.9 -9.62,-15.21 -1.29,-2.18 -2.4,-4.06 -3.35,-5.52 -4.5,-6.95 -9.41,-12.87 -13.35,-17.2 21.74,-15.94 29.52,-33.13 31.95,-40.21 4.76,10.41 14.78,40.46 -5.62,78.14 z" id="SvgjsPath1085" style="isolation:isolate"></path>
    <path class="cls-3" d="m 51.15,46.34 c -3.94,4.33 -8.85,10.24 -13.35,17.2 -0.94,1.45 -2.05,3.32 -3.33,5.49 -2.55,4.32 -5.79,9.79 -9.65,15.24 C 4.42,46.6 14.44,16.55 19.2,6.13 21.62,13.2 29.4,30.39 51.15,46.34 Z" id="SvgjsPath1084" style="isolation:isolate"></path>
    <path class="cls-6" d="m 176.41,125.88 c -0.4,0.37 -0.59,0.91 -0.51,1.45 0.07,0.54 0.39,1.01 0.86,1.27 0.08,0.04 1.93,1.06 4.81,1.57 -7.55,8.42 -34.08,33.96 -79.71,36.58 h -0.83 c 0,0 0,0 0,0 l -11.61,0.07 h -1.33 c -15.29,-0.69 -28.48,-3.96 -39.56,-8.34 -0.11,-0.06 -0.23,-0.11 -0.35,-0.14 -22.44,-8.96 -36.2,-22.44 -41.33,-28.16 2.88,-0.51 4.73,-1.53 4.81,-1.57 0.48,-0.26 0.79,-0.74 0.86,-1.27 0.07,-0.54 -0.12,-1.08 -0.51,-1.45 -7.09,-6.75 -8.43,-13 -8.6,-16.14 -0.03,-0.62 0.27,-1.19 0.79,-1.43 1.92,-0.92 3.78,-2.02 5.57,-3.27 6.07,-4.22 11.37,-10.08 15.89,-16.12 0.31,-0.22 0.53,-0.52 0.64,-0.86 4.52,-6.16 8.23,-12.43 11.1,-17.29 1.26,-2.13 2.35,-3.98 3.25,-5.37 9.12,-14.09 20.31,-24.13 20.42,-24.23 0.7,-0.62 0.76,-1.7 0.14,-2.4 -0.62,-0.7 -1.7,-0.77 -2.4,-0.14 -0.2,0.18 -2.28,2.05 -5.32,5.22 C 39.67,33.79 31.77,23.17 27.55,15.94 24.37,10.49 22.75,6.13 22.04,3.86 c 5.51,1.57 19.87,6.97 46.79,25.01 2.22,1.48 4.82,2.21 7.34,2.05 3.83,-0.25 6.22,-2.48 6.56,-6.13 0.2,-2.21 0.11,-4.23 -0.28,-6.03 1.74,1.5 3.84,4.08 5.82,8.49 0.32,0.72 1.09,1.12 1.87,0.97 0.77,-0.14 1.34,-0.8 1.38,-1.59 0,-0.04 0.24,-4.48 2.27,-9.14 2.62,-6.02 6.89,-9.62 12.67,-10.69 -1.38,4.63 -2.66,13.54 4.33,21.06 9.36,10.1 9.66,17.05 6.78,28.8 -0.22,0.91 0.34,1.83 1.25,2.05 0.91,0.23 1.83,-0.34 2.05,-1.25 2.57,-10.5 2.73,-18.08 -3.44,-26.85 6.5,-4.43 33.62,-22.51 48.92,-26.78 -0.71,2.27 -2.33,6.64 -5.51,12.09 -4.22,7.23 -12.12,17.85 -25.94,27.91 -3.04,-3.18 -5.12,-5.04 -5.32,-5.22 -0.7,-0.62 -1.78,-0.56 -2.4,0.14 -0.62,0.7 -0.57,1.77 0.14,2.4 0.11,0.1 11.3,10.15 20.42,24.23 0.91,1.4 2,3.26 3.27,5.4 2.87,4.85 6.57,11.12 11.08,17.26 0.11,0.34 0.32,0.64 0.63,0.85 4.74,6.33 10.33,12.46 16.77,16.72 1.52,1 3.09,1.9 4.7,2.68 0.52,0.25 0.83,0.81 0.79,1.43 -0.11,2.04 -0.72,5.41 -3.09,9.36 -0.7,1.17 -1.55,2.39 -2.58,3.64 -0.85,1.02 -1.82,2.07 -2.93,3.13 z" id="SvgjsPath1083" style="isolation:isolate"></path>
    <path class="cls-4" d="m 176.41,125.88 c -0.4,0.37 -0.59,0.91 -0.51,1.45 0.07,0.54 0.39,1.01 0.86,1.27 0.08,0.04 1.93,1.06 4.81,1.57 -7.55,8.42 -34.08,33.96 -79.71,36.58 h -0.83 c 0,0 0,0 0,0 l -11.61,0.07 H 88.09 C 41.54,164.7 14.53,138.74 6.85,130.17 c 2.88,-0.51 4.73,-1.53 4.81,-1.57 0.48,-0.26 0.79,-0.74 0.86,-1.27 0.07,-0.54 -0.12,-1.08 -0.51,-1.45 -7.09,-6.75 -8.43,-13 -8.6,-16.14 -0.03,-0.62 0.27,-1.19 0.79,-1.43 1.92,-0.92 3.78,-2.02 5.57,-3.27 2.32,1.39 4.28,4.4 5.64,5.99 6.22,7.26 12.6,14.41 19.51,21.03 3.89,3.72 7.95,7.27 12.22,10.55 14.4,11.05 31.78,19.08 49.93,19.26 16.61,0.16 32.86,-6.32 46.25,-16.14 13.4,-9.83 24.16,-22.86 33.33,-36.72 0.8,-1.22 1.73,-2.51 2.87,-3.37 1.52,1 3.09,1.9 4.7,2.68 0.52,0.25 0.83,0.81 0.79,1.43 -0.11,2.04 -0.72,5.41 -3.09,9.36 -0.95,1.15 -1.88,2.35 -2.58,3.64 -0.85,1.02 -1.82,2.07 -2.93,3.13 z" id="SvgjsPath1082" style="isolation:isolate"></path>
    <path class="cls-4" d="m 38.71,41.73 c 0.31,5.16 -1.42,10.68 -5.49,13.87 -2.87,2.24 -6.68,3.13 -10.3,2.76 -3.62,-0.37 -7.06,-1.93 -9.98,-4.12 2.44,11.1 6.4,21.87 11.75,31.9 3.99,-2.5 5.54,-7.41 7.4,-11.73 C 36.88,63.27 45.27,54.14 53.51,45.24 52.79,46.02 41.38,35.22 40.28,34.23 c -0.95,-0.86 -6,-5.14 -5.07,-3.75 0.67,1 2.62,5.97 2.79,6.66 0.37,1.51 0.63,3.05 0.72,4.61 z" id="SvgjsPath1081" style="isolation:isolate"></path>
    <path class="cls-4" d="m 149.59,41.73 c -0.31,5.16 1.42,10.68 5.49,13.87 2.87,2.24 6.68,3.13 10.3,2.76 3.62,-0.37 7.06,-1.93 9.98,-4.12 -2.44,11.1 -6.4,21.87 -11.75,31.9 -3.99,-2.5 -5.54,-7.41 -7.4,-11.73 -4.79,-11.14 -13.18,-20.27 -21.42,-29.17 0.72,0.78 12.13,-10.02 13.23,-11.01 0.95,-0.86 6,-5.14 5.07,-3.75 -0.67,1 -2.62,5.97 -2.79,6.66 -0.37,1.51 -0.63,3.05 -0.72,4.61 z" id="SvgjsPath1080" style="isolation:isolate"></path>
    <path class="cls-9" d="m 79.62,81.94 c -0.34,0 -0.69,-0.1 -0.99,-0.32 C 78.58,81.59 73.84,78.18 67.4,75 c -3.81,-1.88 -10.69,0.54 -13.02,1.63 -0.85,0.4 -1.86,0.03 -2.26,-0.82 -0.4,-0.85 -0.03,-1.86 0.82,-2.26 0.4,-0.19 9.93,-4.58 15.97,-1.6 6.71,3.31 11.52,6.76 11.72,6.91 0.76,0.55 0.93,1.61 0.38,2.37 -0.33,0.46 -0.85,0.71 -1.38,0.71 z" id="SvgjsPath1079" style="isolation:isolate"></path>
    <path class="cls-9" d="m 110.91,81.94 c -0.53,0 -1.05,-0.24 -1.38,-0.71 -0.55,-0.76 -0.38,-1.82 0.38,-2.37 0.2,-0.15 5.01,-3.6 11.72,-6.91 6.04,-2.98 15.56,1.41 15.97,1.6 0.85,0.4 1.22,1.41 0.82,2.26 -0.4,0.85 -1.41,1.22 -2.26,0.82 -2.34,-1.09 -9.23,-3.5 -13.02,-1.63 -6.44,3.18 -11.19,6.58 -11.23,6.62 -0.3,0.22 -0.65,0.32 -0.99,0.32 z" id="SvgjsPath1078" style="isolation:isolate"></path>
    <circle class="cls-9" cx="61.150002" cy="104.27" r="12.84" id="SvgjsCircle1077" style="isolation:isolate"></circle>
    <circle class="cls-7" cx="65.050003" cy="98.970001" r="2.6800001" id="SvgjsCircle1076" style="isolation:isolate"></circle>
    <circle class="cls-7" cx="68.480003" cy="104.91" r="1.6799999" id="SvgjsCircle1075" style="isolation:isolate"></circle>
    <circle class="cls-9" cx="129.31" cy="104.27" r="12.84" id="SvgjsCircle1074" style="isolation:isolate"></circle>
    <circle class="cls-7" cx="133.10001" cy="98.970001" r="2.6800001" id="SvgjsCircle1073" style="isolation:isolate"></circle>
    <circle class="cls-7" cx="136.53" cy="104.91" r="1.6799999" id="SvgjsCircle1072" style="isolation:isolate"></circle>
    <path class="cls-9" d="m 96.65,143.67 c -1.01,0.62 -2.27,0.62 -3.28,0 -3.18,-1.96 -9.17,-7.25 -8.03,-10.32 1.4,-3.79 6.3,-3.68 9.67,-3.68 3.37,0 8.27,-0.11 9.67,3.68 1.13,3.07 -4.86,8.36 -8.03,10.32 z" id="SvgjsPath1071" style="isolation:isolate"></path>
    <path class="cls-9" d="m 102.56,115.35 c -0.21,0 -0.42,-0.04 -0.62,-0.12 -7.8,-3.05 -13.04,-0.22 -13.26,-0.1 -0.82,0.45 -1.85,0.17 -2.31,-0.65 -0.46,-0.81 -0.18,-1.84 0.63,-2.31 0.27,-0.16 6.79,-3.78 16.17,-0.11 0.87,0.34 1.31,1.33 0.96,2.2 -0.26,0.67 -0.9,1.08 -1.58,1.08 z" id="SvgjsPath1070" style="isolation:isolate"></path>
    <path class="cls-9" d="m 92.92,154.34 c -4.62,0 -7.91,-0.96 -8.21,-1.05 -0.9,-0.27 -1.41,-1.22 -1.14,-2.12 0.27,-0.9 1.22,-1.41 2.12,-1.14 0.61,0.18 15.13,4.34 25.84,-6.79 0.65,-0.68 1.73,-0.7 2.4,-0.05 0.68,0.65 0.7,1.73 0.05,2.4 -6.87,7.13 -15.08,8.73 -21.06,8.73 z" id="SvgjsPath1069" style="isolation:isolate"></path>
    <path class="cls-9" d="m 115.59,147.6 c -0.57,0 -1.13,-0.29 -1.45,-0.81 -1.52,-2.48 -4.13,-1.88 -4.42,-1.8 -0.9,0.24 -1.83,-0.3 -2.08,-1.2 -0.24,-0.9 0.28,-1.83 1.17,-2.08 1.83,-0.51 5.89,-0.48 8.22,3.3 0.49,0.8 0.24,1.85 -0.56,2.34 -0.28,0.17 -0.59,0.25 -0.89,0.25 z" id="SvgjsPath1068" style="isolation:isolate"></path>
    <path class="cls-7" d="m 100.63,134.48 c -0.06,0 -0.12,0 -0.17,-0.02 -5.67,-1.55 -10.54,-0.02 -10.59,0 -0.35,0.11 -0.72,-0.08 -0.83,-0.42 -0.11,-0.34 0.08,-0.71 0.42,-0.83 0.21,-0.07 5.28,-1.66 11.34,0 0.35,0.1 0.56,0.46 0.46,0.81 -0.08,0.29 -0.34,0.48 -0.63,0.48 z" id="SvgjsPath1067" style="isolation:isolate"></path>
    <path class="cls-9" d="m 188.4,109.92 c 0.11,-2 -0.96,-3.84 -2.72,-4.68 -7.69,-3.69 -14.36,-10.61 -19.89,-17.93 24.79,-44.39 8.53,-79.11 4.98,-85.66 -0.66,-1.22 -2.05,-1.87 -3.39,-1.58 -15.81,3.47 -45.38,23.29 -52.02,27.84 -0.64,-0.78 -1.33,-1.57 -2.08,-2.37 -5.84,-6.29 -4.74,-13.84 -3.56,-17.78 0.34,-1.14 0.06,-2.34 -0.73,-3.23 -0.79,-0.88 -1.96,-1.28 -3.12,-1.07 -6.92,1.26 -12.2,5.68 -15.24,12.77 -0.77,1.79 -1.31,3.54 -1.68,5.06 -2.33,-3.68 -4.68,-5.64 -6.43,-6.67 -0.98,-0.58 -2.23,-0.48 -3.1,0.27 -0.88,0.74 -1.18,1.92 -0.76,2.99 0.48,1.23 0.99,3.38 0.69,6.59 -0.13,1.41 -0.64,2.87 -3.4,3.05 -1.78,0.11 -3.63,-0.41 -5.22,-1.48 C 62.9,20.78 36.21,3.42 21.05,0.08 c -1.36,-0.3 -2.76,0.34 -3.43,1.56 -3.54,6.55 -19.81,41.27 4.99,85.66 -5.53,7.32 -12.2,14.24 -19.89,17.93 -1.76,0.84 -2.83,2.68 -2.72,4.69 0.18,3.33 1.48,9.68 7.8,16.53 -0.58,0.17 -1.26,0.33 -2.02,0.44 -1.11,0.17 -2.04,0.94 -2.43,2 -0.39,1.08 -0.17,2.28 0.59,3.13 4.8,5.44 18.19,18.9 40.22,28.32 -4.05,3.52 -5.1,8.24 -5.15,8.48 -0.11,0.56 0.05,1.14 0.45,1.54 0.4,0.41 0.97,0.59 1.53,0.48 12.61,-2.4 17.74,0.33 23.68,3.49 2.26,1.2 4.6,2.44 7.47,3.52 -0.72,1.39 -1.41,2.71 -2.21,3.94 -0.59,0.91 -0.57,2.07 0.06,2.96 0.5,0.71 1.3,1.12 2.14,1.12 0.2,0 0.4,-0.02 0.6,-0.07 1.16,-0.27 2.55,-0.37 4.25,-0.29 0.56,0.02 1.13,0.06 1.7,0.09 2.44,0.15 4.97,0.31 7.48,-0.4 3.28,-0.93 6.12,-3.49 7.61,-6.74 0.47,0.09 0.95,0.14 1.45,0.14 0.65,0 1.29,-0.09 1.9,-0.24 1.56,3.17 4.68,5.91 7.96,6.84 2.51,0.71 5.04,0.55 7.48,0.4 0.57,-0.03 1.13,-0.07 1.7,-0.09 1.7,-0.07 3.09,0.03 4.25,0.29 0.2,0.05 0.4,0.07 0.6,0.07 0.85,0 1.65,-0.41 2.15,-1.12 0.62,-0.89 0.64,-2.05 0.05,-2.96 -0.8,-1.23 -1.49,-2.55 -2.21,-3.95 2.85,-1.07 5.18,-2.3 7.43,-3.5 5.94,-3.16 11.07,-5.89 23.68,-3.49 0.61,0.12 1.24,-0.11 1.63,-0.59 0.4,-0.48 0.49,-1.14 0.26,-1.72 -0.1,-0.25 -2.17,-5.25 -6.49,-8.8 21.22,-9.4 34.16,-22.42 38.83,-27.7 0.76,-0.86 0.99,-2.07 0.6,-3.15 -0.39,-1.06 -1.32,-1.83 -2.43,-2 -0.21,-0.03 -0.42,-0.07 -0.62,-0.11 -0.51,-0.1 -0.98,-0.21 -1.4,-0.33 0.15,-0.17 0.3,-0.33 0.45,-0.5 5.93,-6.66 7.17,-12.79 7.35,-16.04 z M 169.21,6.13 c 4.76,10.41 14.78,40.46 -5.62,78.14 -3.85,-5.45 -7.08,-10.9 -9.62,-15.21 -1.29,-2.18 -2.4,-4.06 -3.35,-5.52 -4.5,-6.95 -9.41,-12.87 -13.35,-17.2 21.74,-15.94 29.52,-33.13 31.95,-40.21 z m -150.01,0 c 2.42,7.07 10.2,24.26 31.95,40.21 -3.94,4.33 -8.85,10.24 -13.35,17.2 -0.94,1.45 -2.05,3.32 -3.33,5.49 -2.55,4.32 -5.79,9.79 -9.65,15.24 C 4.42,46.6 14.44,16.55 19.2,6.13 Z m 47.08,165.21 c -5.77,-3.07 -11.25,-5.99 -22.98,-4.32 0.81,-1.63 2.21,-3.71 4.54,-5.17 8.83,3.44 18.94,6.19 30.33,7.56 -1.88,1.49 -3.23,3.4 -4.4,5.42 -2.86,-1.03 -5.22,-2.28 -7.49,-3.49 z m 18.98,10.6 c -1.96,0.55 -4.09,0.42 -6.35,0.28 -0.59,-0.03 -1.18,-0.07 -1.76,-0.09 -1.28,-0.06 -2.42,-0.03 -3.46,0.09 0.55,-0.96 1.06,-1.95 1.56,-2.91 1.57,-3.04 3.05,-5.9 5.58,-7.61 1.65,-1.12 3.75,-1.59 6.52,-1.43 -0.01,0.14 -0.02,0.29 -0.02,0.44 0,2.66 1.32,5.01 3.34,6.44 -1.08,2.3 -3.13,4.16 -5.4,4.8 z m 9.97,-6.73 c -2.49,0 -4.51,-2.03 -4.51,-4.51 0,-0.16 0.01,-0.32 0.03,-0.48 l 8.97,-0.05 c 0.02,0.17 0.03,0.35 0.03,0.54 0,2.49 -2.02,4.51 -4.51,4.51 z m 18.9,6.91 c -0.59,0.02 -1.17,0.06 -1.76,0.09 -2.26,0.14 -4.4,0.28 -6.35,-0.28 -2.38,-0.67 -4.71,-2.74 -5.84,-5.07 1.81,-1.45 2.98,-3.68 2.98,-6.17 0,-0.16 0,-0.31 -0.02,-0.47 2.65,-0.34 5.47,0.19 7.33,1.46 1.99,1.35 3.32,3.41 4.57,5.71 0.07,0.2 0.17,0.38 0.29,0.54 0.24,0.45 0.47,0.9 0.71,1.36 0.5,0.96 1.01,1.95 1.56,2.91 -1.04,-0.11 -2.18,-0.14 -3.46,-0.09 z m 33.29,-15.16 c -11.38,-1.52 -16.78,1.36 -22.47,4.39 -2.27,1.21 -4.62,2.46 -7.46,3.48 -1.24,-2.16 -2.71,-4.2 -4.81,-5.73 10.99,-1.53 20.76,-4.35 29.29,-7.8 2.47,1.52 4.29,3.83 5.45,5.66 z m 28.48,-39.64 c 0.07,0.54 0.39,1.01 0.86,1.27 0.08,0.04 1.93,1.06 4.81,1.57 -7.55,8.42 -34.08,33.96 -79.71,36.58 h -0.83 c 0,0 0,0 0,0 l -11.61,0.07 h -1.33 c -15.29,-0.69 -28.48,-3.96 -39.56,-8.34 -0.11,-0.06 -0.23,-0.11 -0.35,-0.14 -22.44,-8.96 -36.2,-22.44 -41.33,-28.16 2.88,-0.51 4.73,-1.53 4.81,-1.57 0.48,-0.26 0.79,-0.74 0.86,-1.27 0.07,-0.54 -0.12,-1.08 -0.51,-1.45 -7.09,-6.75 -8.43,-13 -8.6,-16.14 -0.03,-0.62 0.27,-1.19 0.79,-1.43 1.92,-0.92 3.78,-2.02 5.57,-3.27 6.07,-4.22 11.37,-10.08 15.89,-16.12 0.31,-0.22 0.53,-0.52 0.64,-0.86 4.52,-6.16 8.23,-12.43 11.1,-17.29 1.26,-2.13 2.35,-3.98 3.25,-5.37 9.12,-14.09 20.31,-24.13 20.42,-24.23 0.7,-0.62 0.76,-1.7 0.14,-2.4 -0.62,-0.7 -1.7,-0.77 -2.4,-0.14 -0.2,0.18 -2.28,2.05 -5.32,5.22 C 39.67,33.78 31.77,23.16 27.55,15.93 24.37,10.48 22.75,6.12 22.04,3.85 c 5.51,1.57 19.87,6.97 46.79,25.01 2.22,1.48 4.82,2.21 7.34,2.05 3.83,-0.25 6.22,-2.48 6.56,-6.13 0.2,-2.21 0.11,-4.23 -0.28,-6.03 1.74,1.5 3.84,4.08 5.82,8.49 0.32,0.72 1.09,1.12 1.87,0.97 0.77,-0.14 1.34,-0.8 1.38,-1.59 0,-0.04 0.24,-4.48 2.27,-9.14 2.62,-6.02 6.89,-9.62 12.67,-10.69 -1.38,4.63 -2.66,13.54 4.33,21.06 9.36,10.1 9.66,17.05 6.78,28.8 -0.22,0.91 0.34,1.83 1.25,2.05 0.91,0.23 1.83,-0.34 2.05,-1.25 2.57,-10.5 2.73,-18.08 -3.44,-26.85 6.5,-4.43 33.62,-22.51 48.92,-26.78 -0.71,2.27 -2.33,6.64 -5.51,12.09 -4.22,7.23 -12.12,17.85 -25.94,27.91 -3.04,-3.18 -5.12,-5.04 -5.32,-5.22 -0.7,-0.62 -1.78,-0.56 -2.4,0.14 -0.62,0.7 -0.57,1.77 0.14,2.4 0.11,0.1 11.3,10.15 20.42,24.23 0.91,1.4 2,3.26 3.27,5.4 2.87,4.85 6.57,11.12 11.08,17.26 0.11,0.34 0.32,0.64 0.63,0.85 4.74,6.33 10.33,12.46 16.77,16.72 1.52,1 3.09,1.9 4.7,2.68 0.52,0.25 0.83,0.81 0.79,1.43 -0.11,2.04 -0.72,5.41 -3.09,9.36 -0.7,1.17 -1.55,2.39 -2.58,3.64 -0.85,1.02 -1.82,2.07 -2.93,3.13 -0.4,0.37 -0.59,0.91 -0.51,1.45 z" id="SvgjsPath1066" style="isolation:isolate"></path>
  </g>
</svg><style>@media (prefers-color-scheme: light) { :root { filter: none; } }
@media (prefers-color-scheme: dark) { :root { filter: none; } }
</style></svg>