<?xml version="1.0" standalone="no"?>
<!DOCTYPE svg PUBLIC "-//W3C//DTD SVG 20010904//EN"
 "http://www.w3.org/TR/2001/REC-SVG-20010904/DTD/svg10.dtd">
<svg version="1.0" xmlns="http://www.w3.org/2000/svg"
 width="900.000000pt" height="900.000000pt" viewBox="0 0 900.000000 900.000000"
 preserveAspectRatio="xMidYMid meet">
<metadata>
Created by potrace 1.14, written by Peter Selinger 2001-2017
</metadata>
<g transform="translate(0.000000,900.000000) scale(0.100000,-0.100000)"
fill="#000000" stroke="none">
<path d="M4437 8994 c-1 -1 -56 -5 -122 -8 -66 -3 -140 -8 -165 -10 -25 -3
-83 -7 -130 -11 -92 -6 -393 -38 -470 -50 -14 -2 -50 -7 -80 -10 -49 -5 -368
-54 -460 -70 -19 -3 -48 -8 -65 -11 -26 -4 -172 -31 -215 -39 -443 -86 -783
-165 -1355 -315 -225 -59 -945 -268 -1035 -300 -14 -4 -72 -23 -130 -41 -122
-38 -165 -67 -191 -127 -17 -39 -18 -64 -14 -247 3 -112 7 -234 10 -272 2 -37
7 -108 10 -157 3 -49 7 -107 10 -130 2 -22 7 -66 10 -96 9 -91 17 -159 30
-255 11 -86 15 -109 19 -130 2 -11 7 -45 11 -75 3 -30 10 -71 15 -90 5 -19 11
-51 14 -70 10 -74 49 -254 87 -405 32 -126 33 -130 48 -185 5 -19 14 -51 19
-70 5 -19 22 -73 37 -119 14 -46 28 -91 30 -100 10 -42 148 -414 184 -496 193
-436 264 -578 448 -895 127 -218 345 -562 396 -625 4 -5 46 -64 93 -130 46
-66 90 -127 97 -135 6 -8 37 -49 67 -90 30 -41 57 -77 60 -80 4 -3 35 -43 70
-90 36 -47 143 -181 240 -298 241 -293 251 -304 385 -456 132 -150 162 -183
170 -192 5 -6 48 -53 95 -104 47 -52 116 -127 153 -166 38 -40 77 -83 88 -96
81 -93 406 -426 889 -910 636 -638 566 -582 733 -580 60 1 87 6 116 23 40 22
1024 1005 1297 1294 242 257 268 285 413 444 42 47 83 92 91 100 45 48 385
441 455 525 22 27 45 54 50 60 12 12 318 396 352 442 232 307 496 690 604 874
24 41 46 77 49 80 5 5 89 149 135 235 12 22 37 67 55 100 56 103 207 407 235
474 14 35 35 80 46 100 10 19 19 43 19 51 0 9 4 20 9 26 14 15 124 304 181
473 97 293 199 688 235 916 3 17 10 50 15 75 5 25 12 63 15 85 3 22 12 83 20
135 7 52 16 120 20 150 3 30 8 66 10 80 2 14 7 57 10 95 3 39 8 86 10 105 2
19 7 78 10 130 3 52 8 120 11 150 3 30 7 155 9 276 l4 221 -29 46 c-29 46 -72
75 -140 95 -19 5 -147 45 -285 87 -137 42 -263 81 -280 85 -16 4 -100 28 -185
52 -85 25 -164 48 -175 51 -11 3 -103 28 -205 56 -181 51 -787 203 -872 220
-47 9 -194 41 -218 47 -88 21 -447 90 -564 109 -55 9 -102 18 -105 20 -3 2
-31 6 -61 9 -30 4 -62 8 -70 10 -8 3 -35 7 -60 10 -25 4 -56 8 -70 10 -37 7
-87 14 -155 22 -33 3 -68 8 -79 10 -10 2 -44 6 -75 9 -31 3 -69 8 -86 10 -16
2 -55 6 -85 10 -30 3 -71 7 -90 10 -19 2 -78 7 -130 10 -52 4 -111 9 -130 11
-82 7 -409 22 -413 18z"/>
</g>
</svg>
