<?xml version="1.0" encoding="UTF-8" standalone="no"?>
<!-- Created with Inkscape (http://www.inkscape.org/) -->

<svg
   version="1.1"
   id="svg69"
   xml:space="preserve"
   width="281.6524"
   height="260.84427"
   viewBox="0 0 281.6524 260.84426"
   sodipodi:docname="openid.svg"
   inkscape:version="1.1.1 (26b7af14f2, 2022-01-19)"
   xmlns:inkscape="http://www.inkscape.org/namespaces/inkscape"
   xmlns:sodipodi="http://sodipodi.sourceforge.net/DTD/sodipodi-0.dtd"
   xmlns="http://www.w3.org/2000/svg"
   xmlns:svg="http://www.w3.org/2000/svg"><defs
     id="defs73" /><sodipodi:namedview
     id="namedview71"
     pagecolor="#ffffff"
     bordercolor="#666666"
     borderopacity="1.0"
     inkscape:pageshadow="2"
     inkscape:pageopacity="0.0"
     inkscape:pagecheckerboard="0"
     showgrid="false"
     fit-margin-top="0"
     fit-margin-left="0"
     fit-margin-right="0"
     fit-margin-bottom="0"
     inkscape:zoom="0.71891814"
     inkscape:cx="436.0719"
     inkscape:cy="216.29723"
     inkscape:window-width="1848"
     inkscape:window-height="1016"
     inkscape:window-x="1032"
     inkscape:window-y="27"
     inkscape:window-maximized="1"
     inkscape:current-layer="g75" /><g
     id="g75"
     inkscape:groupmode="layer"
     inkscape:label="openid-wordmark"
     transform="matrix(1.3333333,0,0,-1.3333333,-357.36132,777.90651)"><g
       id="g77" /><path
       d="M 364.021,567.7969 V 407.8578 387.7969 l 32,15.0609 v 180.5721 z"
       style="fill:#f8941c;fill-opacity:1;fill-rule:nonzero;stroke:none"
       id="path81" /><path
       d="m 474.8433,514.9971 4.417,-45.864 -61.883,13.464"
       style="fill:#bcbec0;fill-opacity:1;fill-rule:nonzero;stroke:none"
       id="path83" /><path
       d="m 300.021,456.3047 c 0,22.674 24.707,41.769 58.383,47.598 v 20.325 c -51.51,-6.226 -90.383,-34.267 -90.383,-67.923 0,-34.869 41.725,-63.709 96,-68.508 v 20.061 c -36.516,4.578 -64,24.528 -64,48.447 m 101.617,67.915 v -20.317 c 13.399,-2.319 25.385,-6.727 34.9511,-12.64 l 22.6269,13.984 c -15.42,9.531 -35.322,16.283 -57.578,18.973"
       style="fill:#bcbec0;fill-opacity:1;fill-rule:nonzero;stroke:none"
       id="path85" /><path
       d="M 364.021,567.7969 V 407.8578 387.7969 l 32,15.0609 v 180.5721 z"
       style="fill:#f8941c;fill-opacity:1;fill-rule:nonzero;stroke:none"
       id="path99" /><path
       d="m 474.8433,514.9971 4.417,-45.864 -61.883,13.464"
       style="fill:#bcbec0;fill-opacity:1;fill-rule:nonzero;stroke:none"
       id="path101" /><path
       d="m 300.021,456.3047 c 0,22.674 24.707,41.769 58.383,47.598 v 20.325 c -51.51,-6.226 -90.383,-34.267 -90.383,-67.923 0,-34.869 41.725,-63.709 96,-68.508 v 20.061 c -36.516,4.578 -64,24.528 -64,48.447 m 101.617,67.915 v -20.317 c 13.399,-2.319 25.385,-6.727 34.9511,-12.64 l 22.6269,13.984 c -15.42,9.531 -35.322,16.283 -57.578,18.973"
       style="fill:#bcbec0;fill-opacity:1;fill-rule:nonzero;stroke:none"
       id="path103" /></g></svg>
