<?xml version="1.0" encoding="UTF-8" standalone="no"?>
<!-- Generator: Adobe Illustrator 22.1.0, SVG Export Plug-In . SVG Version: 6.00 Build 0)  -->

<svg
   xmlns:dc="http://purl.org/dc/elements/1.1/"
   xmlns:cc="http://creativecommons.org/ns#"
   xmlns:rdf="http://www.w3.org/1999/02/22-rdf-syntax-ns#"
   xmlns:svg="http://www.w3.org/2000/svg"
   xmlns="http://www.w3.org/2000/svg"
   xmlns:sodipodi="http://sodipodi.sourceforge.net/DTD/sodipodi-0.dtd"
   xmlns:inkscape="http://www.inkscape.org/namespaces/inkscape"
   version="1.1"
   id="Layer_1"
   x="0px"
   y="0px"
   viewBox="0 0 110.8 44"
   xml:space="preserve"
   sodipodi:docname="upcloud_logo.svg"
   width="110.8"
   height="44"
   inkscape:version="0.92.5 (2060ec1f9f, 2020-04-08)"><metadata
   id="metadata41"><rdf:RDF><cc:Work
       rdf:about=""><dc:format>image/svg+xml</dc:format><dc:type
         rdf:resource="http://purl.org/dc/dcmitype/StillImage" /><dc:title></dc:title></cc:Work></rdf:RDF></metadata><defs
   id="defs39" /><sodipodi:namedview
   pagecolor="#ffffff"
   bordercolor="#666666"
   borderopacity="1"
   objecttolerance="10"
   gridtolerance="10"
   guidetolerance="10"
   inkscape:pageopacity="0"
   inkscape:pageshadow="2"
   inkscape:window-width="3696"
   inkscape:window-height="2032"
   id="namedview37"
   showgrid="false"
   fit-margin-top="0"
   fit-margin-left="0"
   fit-margin-right="0"
   fit-margin-bottom="0"
   inkscape:zoom="5.1868132"
   inkscape:cx="70.442906"
   inkscape:cy="28.823868"
   inkscape:window-x="2064"
   inkscape:window-y="54"
   inkscape:window-maximized="1"
   inkscape:current-layer="Layer_1" />
<style
   type="text/css"
   id="style2">
	.st0{fill:#7B00FF;}
</style>
<g
   id="g8"
   transform="translate(-35.6,-50)">
	<path
   class="st0"
   d="m 137.7,76.6 c 4.8,0 8.7,4 8.7,8.7 0,4.7 -4,8.7 -8.7,8.7 H 75.6 V 71.3 h 4.1 v 18.5 h 58.1 c 2.5,0 4.6,-2.1 4.6,-4.6 0,-2.5 -2.2,-4.6 -4.8,-4.6 h -54 v -4.1 h 54.1 z"
   id="path4"
   inkscape:connector-curvature="0"
   style="fill:#7b00ff" />
	<path
   class="st0"
   d="m 97.6,50 h -22 v 9.2 h 4.1 V 54 h 18 c 2.5,0 4.6,2.1 4.6,4.6 0,2.5 -2.2,4.7 -4.7,4.7 H 44.3 c -4.8,0 -8.7,4 -8.7,8.7 0,4.7 4,8.7 8.7,8.7 H 71.5 V 76.6 H 44.3 c -2.5,0 -4.6,-2.1 -4.6,-4.6 0,-2.5 2,-4.6 4.6,-4.6 h 53.4 c 4.8,0 8.7,-4 8.7,-8.7 0,-4.7 -4,-8.7 -8.8,-8.7 z"
   id="path6"
   inkscape:connector-curvature="0"
   style="fill:#7b00ff" />
</g>

<path
   class="st0"
   d="M 0,22"
   id="path32"
   inkscape:connector-curvature="0"
   style="fill:#7b00ff" />
<path
   class="st0"
   d="M 110.8,35.2"
   id="path34"
   inkscape:connector-curvature="0"
   style="fill:#7b00ff" />
</svg>
