<svg width="796" height="257" viewBox="0 0 796 257" fill="none" xmlns="http://www.w3.org/2000/svg">
<path d="M0 256.949C4.17303 229.566 23.6422 132.609 90.7468 132.609C94.6283 132.609 98.705 132.928 102.831 133.59C124.003 138.15 137.372 152.809 136.875 170.926C136.087 200.126 99.5945 239.693 0 256.949Z" fill="#A7B1BF"/>
<path d="M99.2573 235.575C133.131 215.89 147.288 192.061 147.856 171.223C148.499 147.566 131.673 128.592 104.965 122.88L104.668 122.831C99.9491 122.095 95.2548 121.703 90.7334 121.703C54.8832 121.703 31.2879 144.355 15.8706 171.518C35.5622 124.988 69.0652 80.003 124.928 80.003C130.734 80.003 136.788 80.4933 142.89 81.4494C174.886 88.3381 195.047 110.549 194.281 138.079C193.441 168.649 166.486 206.868 99.2573 235.575Z" fill="#334768"/>
<path d="M278.975 85.7777C277.715 131.621 236.405 189.231 132.709 231.274C139.599 227.402 146.278 223.171 152.719 218.6C185.829 195.041 204.505 166.555 205.274 138.362C206.188 105.294 182.543 78.7444 145.062 70.7256L144.766 70.6765C138.021 69.6224 131.35 69.0831 124.923 69.0831C72.8677 69.0831 30.9889 104.458 3.85791 171.384C7.31939 160.597 11.2701 149.517 15.7445 138.485C53.003 46.6028 107.26 -0.000126975 177.033 -0.000126975C185.533 -0.000126975 194.353 0.713259 203.27 2.10816C250.389 12.2328 280.112 45.0608 278.975 85.7777Z" fill="#253349"/>
<path d="M335.128 142.792C335.996 136.457 340.623 133.719 347.711 133.719C352.337 133.719 356.246 135.446 356.246 139.334C356.246 143.078 354.941 145.242 350.168 146.825L333.826 152.447L335.128 142.795V142.792ZM331.512 170.452V168.725L351.472 161.955C364.92 157.344 372.298 151.868 372.298 138.037C372.298 126.798 363.474 119.175 349.157 119.175C331.801 119.175 320.228 128.671 318.348 141.637L314.881 166.419C314.613 168.379 314.467 170.354 314.444 172.332C314.444 183.994 322.109 191.199 338.742 191.199H361.623L363.763 176.479C363.763 176.479 350.025 176.506 340.912 176.506C334.552 176.506 331.509 174.489 331.509 170.452H331.512ZM410.126 92.3235H382.616L380.446 107.016H390.894L381.247 176.506H369.213L367.043 191.202H408.121L410.291 176.509H398.311L410.126 92.3235ZM619.853 90.3533H602.786L600.185 108.793H617.25L619.853 90.3533V90.3533ZM615.803 119.168H588.176L586.006 133.861H596.566L590.635 176.509H578.628L576.463 191.202H617.681L619.851 176.509H607.705L615.805 119.168H615.803ZM658.876 119.168H658.846C642.505 119.168 629.341 126.514 629.341 140.775C629.341 161.669 658.121 159.073 658.121 169.734C658.121 175.783 652.055 176.501 646.85 176.506C635.576 176.501 625.108 176.471 625.108 176.471L623.013 191.199C623.013 191.199 632.99 191.224 645.426 191.224C664.52 191.224 675.796 181.689 675.796 167.572C675.796 146.107 646.872 147.98 646.872 138.755C646.872 135.592 650.199 133.719 657.425 133.719C665.526 133.719 676.782 133.657 676.782 133.657L678.904 119.168H658.876V119.168ZM508.823 119.138H508.793C492.452 119.138 479.288 126.517 479.288 140.785C479.288 161.674 508.067 159.083 508.067 169.744C508.067 175.791 502.002 176.501 496.796 176.509C485.523 176.504 475.055 176.484 475.055 176.484L472.925 191.207C472.925 191.207 482.937 191.226 495.372 191.226C514.467 191.226 525.746 181.701 525.746 167.58C525.746 146.112 496.819 147.985 496.819 138.765C496.819 135.597 500.146 133.719 507.371 133.719C515.472 133.719 526.728 133.667 526.728 133.667L528.853 119.173C528.853 119.173 519.947 119.143 508.825 119.138H508.823V119.138ZM775.97 119.168H775.94C759.599 119.168 746.435 126.514 746.435 140.775C746.435 161.669 775.217 159.073 775.217 169.734C775.217 175.783 769.151 176.501 763.943 176.506C752.67 176.501 742.202 176.471 742.202 176.471L740.04 191.199C740.04 191.199 750.083 191.219 762.519 191.219C781.617 191.219 792.892 181.689 792.892 167.572C792.892 146.107 763.966 147.98 763.966 138.755C763.966 135.592 767.293 133.719 774.518 133.719C782.619 133.719 793.878 133.657 793.878 133.657L796 119.168H775.97V119.168ZM731.41 119.168L709.569 164.693L700.6 119.168H682.523L697.854 187.025L682.67 217.134H699.879L749.49 119.165H731.408L731.41 119.168ZM455.461 144.233L451.995 168.437C451.271 173.334 445.919 176.506 440.133 176.506C434.783 176.506 431.022 173.91 431.022 169.445C431.022 167.714 431.308 165.701 431.6 163.681L434.927 141.928C435.795 136.455 440.858 133.719 446.642 133.719C451.85 133.719 455.753 136.455 455.753 140.775C455.753 141.928 455.609 142.939 455.461 144.233V144.233ZM460.674 119.165L459.228 124.78C459.228 124.78 454.307 119.136 444.617 119.136C430.588 119.136 419.885 128.964 418.005 142.502L414.388 167.86C414.244 169.155 414.099 170.596 414.099 171.751C414.099 183.709 422.345 191.199 434.636 191.199C445.051 191.199 450.693 185.294 450.693 185.294L450.403 191.199H465.735L476.003 119.165H460.674ZM556.224 172.616C556.224 171.607 556.513 169.301 556.658 168.293L561.571 133.719H575.102L577.271 119.165H563.746L565.913 103.459H548.991L546.821 119.165H533.659L531.489 133.719H544.653L539.59 169.878C539.301 172.039 539.014 174.489 539.014 175.93C539.014 186.305 545.085 191.224 559.838 191.224C570.832 191.224 571.443 191.199 571.443 191.199L573.433 176.506H564.611C557.817 176.506 556.224 175.353 556.224 172.616Z" fill="black"/>
</svg>
