<?xml version="1.0" encoding="UTF-8" standalone="no"?>
<svg
   id="Lager_2"
   viewBox="0 0 528.17 528.16997"
   version="1.1"
   sodipodi:docname="elastisys-logo-icon.svg"
   width="528.16998"
   height="528.16998"
   inkscape:version="1.1.2 (0a00cf5339, 2022-02-04)"
   xmlns:inkscape="http://www.inkscape.org/namespaces/inkscape"
   xmlns:sodipodi="http://sodipodi.sourceforge.net/DTD/sodipodi-0.dtd"
   xmlns="http://www.w3.org/2000/svg"
   xmlns:svg="http://www.w3.org/2000/svg">
  <sodipodi:namedview
     id="namedview14"
     pagecolor="#ffffff"
     bordercolor="#666666"
     borderopacity="1.0"
     inkscape:pageshadow="2"
     inkscape:pageopacity="0.0"
     inkscape:pagecheckerboard="0"
     showgrid="false"
     fit-margin-top="0"
     lock-margins="true"
     inkscape:snap-bbox="true"
     inkscape:snap-bbox-edge-midpoints="true"
     inkscape:bbox-nodes="false"
     inkscape:snap-page="true"
     inkscape:bbox-paths="true"
     inkscape:snap-bbox-midpoints="true"
     inkscape:zoom="0.90148697"
     inkscape:cx="133.66804"
     inkscape:cy="353.30516"
     inkscape:window-width="1850"
     inkscape:window-height="1016"
     inkscape:window-x="0"
     inkscape:window-y="0"
     inkscape:window-maximized="1"
     inkscape:current-layer="Lager_2" />
  <defs
     id="defs4">
    <style
       id="style2">.cls-1{fill:#3d516e;stroke-width:0px;}</style>
  </defs>
  <g
     id="Lager_1-2"
     transform="translate(0.00255337,21.518761)">
    <path
       class="cls-1"
       d="M 365.73,3.21 C 353.82,1.09 341.63,0 329.32,0 223.97,0 107.73,79 44.37,258.95 c 8.42,-14.78 17.58,-28.47 27.48,-40.97 22.24,-28.1 47.69,-49.82 75.64,-64.55 26.75,-14.1 54.6,-21.25 82.76,-21.25 8.91,0 17.84,0.75 26.54,2.21 57.84,9.77 100.67,39.92 117.52,82.72 17.18,43.63 5.58,95.17 -32.66,145.13 -15.58,20.35 -38.69,39.23 -69.15,56.55 82.56,-29.34 162.24,-69.8 203.4,-123.86 C 583.11,154.14 515.03,29.82 365.73,3.21 Z"
       id="path6" />
    <path
       class="cls-1"
       d="m 327.39,351.33 c 74.4,-97.21 28.56,-181.96 -73.59,-199.22 -7.71,-1.3 -15.58,-1.96 -23.55,-1.96 -69.31,0 -146.26,50.02 -192.14,163.04 4.68,-7.07 9.6,-13.77 14.78,-20.06 16.75,-20.33 35.65,-36.08 56.17,-46.82 19.86,-10.39 40.31,-15.66 60.77,-15.66 5.09,0 10.2,0.34 15.17,1.01 40.66,5.5 70.98,25.82 83.19,55.76 13.08,32.09 4.03,70.62 -25.5,108.51 -9.99,12.82 -23.93,24.97 -41.72,36.41 51.72,-20.12 100.16,-46.74 126.4,-81.02 z"
       id="path8" />
    <path
       class="cls-1"
       d="m 228.54,384.9 c 53.54,-68.7 23.99,-125.96 -45.93,-135.42 -4.18,-0.57 -8.45,-0.85 -12.76,-0.85 -67.91,0 -150.36,70.64 -169.84,235.58 0,0 175,-30.61 228.54,-99.31 z"
       id="path10" />
  </g>
</svg>
