<?xml version="1.0" encoding="UTF-8" standalone="no"?>
<!DOCTYPE svg PUBLIC "-//W3C//DTD SVG 1.1//EN"
 "http://www.w3.org/Graphics/SVG/1.1/DTD/svg11.dtd">
<!-- Generated by graphviz version 2.43.0 (0)
 -->
<!-- Title: compliance_basics Pages: 1 -->
<svg width="1621pt" height="591pt"
 viewBox="0.00 0.00 1621.00 591.00" xmlns="http://www.w3.org/2000/svg" xmlns:xlink="http://www.w3.org/1999/xlink">
<g id="graph0" class="graph" transform="scale(1 1) rotate(0) translate(4 587)">
<title>compliance_basics</title>
<polygon fill="white" stroke="transparent" points="-4,4 -4,-587 1617,-587 1617,4 -4,4"/>
<g id="clust1" class="cluster">
<title>cluster_regulations</title>
<polygon fill="none" stroke="black" points="796,-500 796,-575 1154,-575 1154,-500 796,-500"/>
<text text-anchor="middle" x="836.5" y="-559.8" font-family="Times,serif" font-size="14.00">Regulations</text>
</g>
<g id="clust2" class="cluster">
<title>cluster_isms</title>
<polygon fill="none" stroke="black" points="1162,-500 1162,-575 1434,-575 1434,-500 1162,-500"/>
<text text-anchor="middle" x="1256" y="-559.8" font-family="Times,serif" font-size="14.00">Information Security Standards</text>
</g>
<g id="clust3" class="cluster">
<title>cluster_policies</title>
<polygon fill="none" stroke="black" points="682,-307 682,-492 1589,-492 1589,-307 682,-307"/>
<text text-anchor="middle" x="711.5" y="-476.8" font-family="Times,serif" font-size="14.00">Policies</text>
</g>
<g id="clust7" class="cluster">
<title>cluster_implementation</title>
<polygon fill="none" stroke="black" points="770,-8 770,-299 1605,-299 1605,-8 770,-8"/>
<text text-anchor="middle" x="840" y="-283.8" font-family="Times,serif" font-size="14.00">Compliant Kubernetes</text>
</g>
<g id="clust18" class="cluster">
<title>cluster_provider</title>
<polygon fill="none" stroke="black" points="8,-177 8,-288 762,-288 762,-177 8,-177"/>
<text text-anchor="middle" x="88.5" y="-272.8" font-family="Times,serif" font-size="14.00">Compliant Cloud Provider</text>
</g>
<!-- HIPAA -->
<g id="node1" class="node">
<title>HIPAA</title>
<path fill="none" stroke="black" d="M1134,-544C1134,-544 1086,-544 1086,-544 1080,-544 1074,-538 1074,-532 1074,-532 1074,-520 1074,-520 1074,-514 1080,-508 1086,-508 1086,-508 1134,-508 1134,-508 1140,-508 1146,-514 1146,-520 1146,-520 1146,-532 1146,-532 1146,-538 1140,-544 1134,-544"/>
<text text-anchor="middle" x="1110" y="-522.3" font-family="Times,serif" font-size="14.00">HIPAA</text>
</g>
<!-- Controls -->
<g id="node8" class="node">
<title>Controls</title>
<ellipse fill="none" stroke="black" cx="1110" cy="-425" rx="36" ry="36"/>
<text text-anchor="middle" x="1110" y="-421.3" font-family="Times,serif" font-size="14.00">Controls</text>
</g>
<!-- HIPAA&#45;&gt;Controls -->
<g id="edge1" class="edge">
<title>HIPAA&#45;&gt;Controls</title>
<path fill="none" stroke="black" d="M1110,-507.76C1110,-497.61 1110,-484.27 1110,-471.32"/>
<polygon fill="black" stroke="black" points="1113.5,-471.08 1110,-461.08 1106.5,-471.08 1113.5,-471.08"/>
</g>
<!-- PDL -->
<g id="node2" class="node">
<title>PDL</title>
<path fill="none" stroke="black" d="M1044,-544C1044,-544 996,-544 996,-544 990,-544 984,-538 984,-532 984,-532 984,-520 984,-520 984,-514 990,-508 996,-508 996,-508 1044,-508 1044,-508 1050,-508 1056,-514 1056,-520 1056,-520 1056,-532 1056,-532 1056,-538 1050,-544 1044,-544"/>
<text text-anchor="middle" x="1020" y="-522.3" font-family="Times,serif" font-size="14.00">PDL</text>
</g>
<!-- PDL&#45;&gt;Controls -->
<g id="edge2" class="edge">
<title>PDL&#45;&gt;Controls</title>
<path fill="none" stroke="black" d="M1035.68,-507.76C1047.62,-494.62 1064.45,-476.1 1079.07,-460.02"/>
<polygon fill="black" stroke="black" points="1081.91,-462.11 1086.04,-452.35 1076.73,-457.4 1081.91,-462.11"/>
</g>
<!-- GDPR -->
<g id="node3" class="node">
<title>GDPR</title>
<path fill="none" stroke="black" d="M954,-544C954,-544 906,-544 906,-544 900,-544 894,-538 894,-532 894,-532 894,-520 894,-520 894,-514 900,-508 906,-508 906,-508 954,-508 954,-508 960,-508 966,-514 966,-520 966,-520 966,-532 966,-532 966,-538 960,-544 954,-544"/>
<text text-anchor="middle" x="930" y="-522.3" font-family="Times,serif" font-size="14.00">GDPR</text>
</g>
<!-- GDPR&#45;&gt;Controls -->
<g id="edge3" class="edge">
<title>GDPR&#45;&gt;Controls</title>
<path fill="none" stroke="black" d="M960.97,-507.76C965.67,-505.16 970.46,-502.5 975,-500 1006.71,-482.5 1042.68,-462.79 1069.51,-448.11"/>
<polygon fill="black" stroke="black" points="1071.51,-451.01 1078.6,-443.15 1068.15,-444.87 1071.51,-451.01"/>
</g>
<!-- CCPA -->
<g id="node4" class="node">
<title>CCPA</title>
<path fill="none" stroke="black" d="M864,-544C864,-544 816,-544 816,-544 810,-544 804,-538 804,-532 804,-532 804,-520 804,-520 804,-514 810,-508 816,-508 816,-508 864,-508 864,-508 870,-508 876,-514 876,-520 876,-520 876,-532 876,-532 876,-538 870,-544 864,-544"/>
<text text-anchor="middle" x="840" y="-522.3" font-family="Times,serif" font-size="14.00">CCPA</text>
</g>
<!-- CCPA&#45;&gt;Controls -->
<g id="edge4" class="edge">
<title>CCPA&#45;&gt;Controls</title>
<path fill="none" stroke="black" d="M869.13,-507.78C874.33,-505 879.76,-502.29 885,-500 945.89,-473.36 1019.59,-450.86 1065.65,-437.89"/>
<polygon fill="black" stroke="black" points="1066.63,-441.25 1075.32,-435.19 1064.75,-434.51 1066.63,-441.25"/>
</g>
<!-- ISO 27001 -->
<g id="node5" class="node">
<title>ISO 27001</title>
<path fill="none" stroke="black" d="M1414,-544C1414,-544 1362,-544 1362,-544 1356,-544 1350,-538 1350,-532 1350,-532 1350,-520 1350,-520 1350,-514 1356,-508 1362,-508 1362,-508 1414,-508 1414,-508 1420,-508 1426,-514 1426,-520 1426,-520 1426,-532 1426,-532 1426,-538 1420,-544 1414,-544"/>
<text text-anchor="middle" x="1388" y="-522.3" font-family="Times,serif" font-size="14.00">ISO 27001</text>
</g>
<!-- ISO 27001&#45;&gt;Controls -->
<g id="edge5" class="edge">
<title>ISO 27001&#45;&gt;Controls</title>
<path fill="none" stroke="black" d="M1357.79,-507.92C1352.29,-505.1 1346.53,-502.34 1341,-500 1277.93,-473.38 1201.8,-450.72 1154.64,-437.74"/>
<polygon fill="black" stroke="black" points="1155.31,-434.29 1144.75,-435.04 1153.47,-441.04 1155.31,-434.29"/>
</g>
<!-- SOC&#45;2 -->
<g id="node6" class="node">
<title>SOC&#45;2</title>
<path fill="none" stroke="black" d="M1320,-544C1320,-544 1272,-544 1272,-544 1266,-544 1260,-538 1260,-532 1260,-532 1260,-520 1260,-520 1260,-514 1266,-508 1272,-508 1272,-508 1320,-508 1320,-508 1326,-508 1332,-514 1332,-520 1332,-520 1332,-532 1332,-532 1332,-538 1326,-544 1320,-544"/>
<text text-anchor="middle" x="1296" y="-522.3" font-family="Times,serif" font-size="14.00">SOC&#45;2</text>
</g>
<!-- SOC&#45;2&#45;&gt;Controls -->
<g id="edge6" class="edge">
<title>SOC&#45;2&#45;&gt;Controls</title>
<path fill="none" stroke="black" d="M1265.55,-507.96C1260.7,-505.28 1255.72,-502.55 1251,-500 1217.45,-481.88 1179.13,-461.81 1150.91,-447.15"/>
<polygon fill="black" stroke="black" points="1152.24,-443.89 1141.75,-442.39 1149.02,-450.1 1152.24,-443.89"/>
</g>
<!-- PCI&#45;DSS -->
<g id="node7" class="node">
<title>PCI&#45;DSS</title>
<path fill="none" stroke="black" d="M1230,-544C1230,-544 1182,-544 1182,-544 1176,-544 1170,-538 1170,-532 1170,-532 1170,-520 1170,-520 1170,-514 1176,-508 1182,-508 1182,-508 1230,-508 1230,-508 1236,-508 1242,-514 1242,-520 1242,-520 1242,-532 1242,-532 1242,-538 1236,-544 1230,-544"/>
<text text-anchor="middle" x="1206" y="-522.3" font-family="Times,serif" font-size="14.00">PCI&#45;DSS</text>
</g>
<!-- PCI&#45;DSS&#45;&gt;Controls -->
<g id="edge7" class="edge">
<title>PCI&#45;DSS&#45;&gt;Controls</title>
<path fill="none" stroke="black" d="M1189.28,-507.76C1176.23,-494.3 1157.73,-475.22 1141.88,-458.88"/>
<polygon fill="black" stroke="black" points="1144.29,-456.33 1134.82,-451.59 1139.26,-461.21 1144.29,-456.33"/>
</g>
<!-- supplier -->
<g id="node9" class="node">
<title>supplier</title>
<path fill="none" stroke="black" d="M765.5,-353C765.5,-353 702.5,-353 702.5,-353 696.5,-353 690.5,-347 690.5,-341 690.5,-341 690.5,-327 690.5,-327 690.5,-321 696.5,-315 702.5,-315 702.5,-315 765.5,-315 765.5,-315 771.5,-315 777.5,-321 777.5,-327 777.5,-327 777.5,-341 777.5,-341 777.5,-347 771.5,-353 765.5,-353"/>
<text text-anchor="middle" x="734" y="-337.8" font-family="Times,serif" font-size="14.00">Supplier</text>
<text text-anchor="middle" x="734" y="-322.8" font-family="Times,serif" font-size="14.00">management</text>
</g>
<!-- Controls&#45;&gt;supplier -->
<g id="edge8" class="edge">
<title>Controls&#45;&gt;supplier</title>
<path fill="none" stroke="black" d="M1074.31,-417.5C1016.19,-406.62 897.37,-383.18 787.48,-352.97"/>
<polygon fill="black" stroke="black" points="788.12,-349.52 777.55,-350.22 786.25,-356.27 788.12,-349.52"/>
</g>
<!-- access -->
<g id="node10" class="node">
<title>access</title>
<path fill="none" stroke="black" d="M856,-353C856,-353 808,-353 808,-353 802,-353 796,-347 796,-341 796,-341 796,-327 796,-327 796,-321 802,-315 808,-315 808,-315 856,-315 856,-315 862,-315 868,-321 868,-327 868,-327 868,-341 868,-341 868,-347 862,-353 856,-353"/>
<text text-anchor="middle" x="832" y="-337.8" font-family="Times,serif" font-size="14.00">Access</text>
<text text-anchor="middle" x="832" y="-322.8" font-family="Times,serif" font-size="14.00">control</text>
</g>
<!-- Controls&#45;&gt;access -->
<g id="edge9" class="edge">
<title>Controls&#45;&gt;access</title>
<path fill="none" stroke="black" d="M1075.36,-414.44C1031.46,-402.1 953.36,-379.44 877.91,-353.19"/>
<polygon fill="black" stroke="black" points="878.84,-349.81 868.25,-349.81 876.53,-356.42 878.84,-349.81"/>
</g>
<!-- Logging -->
<g id="node11" class="node">
<title>Logging</title>
<path fill="none" stroke="black" d="M946,-352C946,-352 898,-352 898,-352 892,-352 886,-346 886,-340 886,-340 886,-328 886,-328 886,-322 892,-316 898,-316 898,-316 946,-316 946,-316 952,-316 958,-322 958,-328 958,-328 958,-340 958,-340 958,-346 952,-352 946,-352"/>
<text text-anchor="middle" x="922" y="-330.3" font-family="Times,serif" font-size="14.00">Logging</text>
</g>
<!-- Controls&#45;&gt;Logging -->
<g id="edge10" class="edge">
<title>Controls&#45;&gt;Logging</title>
<path fill="none" stroke="black" d="M1077.68,-408.7C1047.26,-394.3 1001.41,-372.59 967.34,-356.46"/>
<polygon fill="black" stroke="black" points="968.6,-353.19 958.06,-352.07 965.6,-359.51 968.6,-353.19"/>
</g>
<!-- Backups -->
<g id="node12" class="node">
<title>Backups</title>
<path fill="none" stroke="black" d="M1036,-352C1036,-352 988,-352 988,-352 982,-352 976,-346 976,-340 976,-340 976,-328 976,-328 976,-322 982,-316 988,-316 988,-316 1036,-316 1036,-316 1042,-316 1048,-322 1048,-328 1048,-328 1048,-340 1048,-340 1048,-346 1042,-352 1036,-352"/>
<text text-anchor="middle" x="1012" y="-330.3" font-family="Times,serif" font-size="14.00">Backups</text>
</g>
<!-- Controls&#45;&gt;Backups -->
<g id="edge11" class="edge">
<title>Controls&#45;&gt;Backups</title>
<path fill="none" stroke="black" d="M1083.74,-400.15C1069.67,-387.38 1052.4,-371.69 1038.32,-358.91"/>
<polygon fill="black" stroke="black" points="1040.63,-356.27 1030.88,-352.14 1035.93,-361.46 1040.63,-356.27"/>
</g>
<!-- incident -->
<g id="node13" class="node">
<title>incident</title>
<path fill="none" stroke="black" d="M1141.5,-353C1141.5,-353 1078.5,-353 1078.5,-353 1072.5,-353 1066.5,-347 1066.5,-341 1066.5,-341 1066.5,-327 1066.5,-327 1066.5,-321 1072.5,-315 1078.5,-315 1078.5,-315 1141.5,-315 1141.5,-315 1147.5,-315 1153.5,-321 1153.5,-327 1153.5,-327 1153.5,-341 1153.5,-341 1153.5,-347 1147.5,-353 1141.5,-353"/>
<text text-anchor="middle" x="1110" y="-337.8" font-family="Times,serif" font-size="14.00">Incident</text>
<text text-anchor="middle" x="1110" y="-322.8" font-family="Times,serif" font-size="14.00">management</text>
</g>
<!-- Controls&#45;&gt;incident -->
<g id="edge12" class="edge">
<title>Controls&#45;&gt;incident</title>
<path fill="none" stroke="black" d="M1110,-388.82C1110,-380.31 1110,-371.32 1110,-363.18"/>
<polygon fill="black" stroke="black" points="1113.5,-363.07 1110,-353.07 1106.5,-363.07 1113.5,-363.07"/>
</g>
<!-- vulnerability -->
<g id="node14" class="node">
<title>vulnerability</title>
<path fill="none" stroke="black" d="M1248.5,-353C1248.5,-353 1183.5,-353 1183.5,-353 1177.5,-353 1171.5,-347 1171.5,-341 1171.5,-341 1171.5,-327 1171.5,-327 1171.5,-321 1177.5,-315 1183.5,-315 1183.5,-315 1248.5,-315 1248.5,-315 1254.5,-315 1260.5,-321 1260.5,-327 1260.5,-327 1260.5,-341 1260.5,-341 1260.5,-347 1254.5,-353 1248.5,-353"/>
<text text-anchor="middle" x="1216" y="-337.8" font-family="Times,serif" font-size="14.00">Vulnerability</text>
<text text-anchor="middle" x="1216" y="-322.8" font-family="Times,serif" font-size="14.00">management</text>
</g>
<!-- Controls&#45;&gt;vulnerability -->
<g id="edge13" class="edge">
<title>Controls&#45;&gt;vulnerability</title>
<path fill="none" stroke="black" d="M1137.3,-401.08C1152.45,-388.36 1171.29,-372.54 1186.74,-359.57"/>
<polygon fill="black" stroke="black" points="1189.07,-362.18 1194.48,-353.07 1184.57,-356.82 1189.07,-362.18"/>
</g>
<!-- intrusion -->
<g id="node15" class="node">
<title>intrusion</title>
<path fill="none" stroke="black" d="M1339,-353C1339,-353 1291,-353 1291,-353 1285,-353 1279,-347 1279,-341 1279,-341 1279,-327 1279,-327 1279,-321 1285,-315 1291,-315 1291,-315 1339,-315 1339,-315 1345,-315 1351,-321 1351,-327 1351,-327 1351,-341 1351,-341 1351,-347 1345,-353 1339,-353"/>
<text text-anchor="middle" x="1315" y="-337.8" font-family="Times,serif" font-size="14.00">Intrusion</text>
<text text-anchor="middle" x="1315" y="-322.8" font-family="Times,serif" font-size="14.00">detection</text>
</g>
<!-- Controls&#45;&gt;intrusion -->
<g id="edge14" class="edge">
<title>Controls&#45;&gt;intrusion</title>
<path fill="none" stroke="black" d="M1142.94,-409.7C1177.16,-394.84 1230.97,-371.48 1269.3,-354.84"/>
<polygon fill="black" stroke="black" points="1270.91,-357.96 1278.69,-350.76 1268.12,-351.54 1270.91,-357.96"/>
</g>
<!-- network -->
<g id="node16" class="node">
<title>network</title>
<path fill="none" stroke="black" d="M1462.5,-353C1462.5,-353 1381.5,-353 1381.5,-353 1375.5,-353 1369.5,-347 1369.5,-341 1369.5,-341 1369.5,-327 1369.5,-327 1369.5,-321 1375.5,-315 1381.5,-315 1381.5,-315 1462.5,-315 1462.5,-315 1468.5,-315 1474.5,-321 1474.5,-327 1474.5,-327 1474.5,-341 1474.5,-341 1474.5,-347 1468.5,-353 1462.5,-353"/>
<text text-anchor="middle" x="1422" y="-337.8" font-family="Times,serif" font-size="14.00">Communication</text>
<text text-anchor="middle" x="1422" y="-322.8" font-family="Times,serif" font-size="14.00">security</text>
</g>
<!-- Controls&#45;&gt;network -->
<g id="edge15" class="edge">
<title>Controls&#45;&gt;network</title>
<path fill="none" stroke="black" d="M1144.39,-414.3C1190.82,-401.19 1276.37,-376.99 1359.63,-353.1"/>
<polygon fill="black" stroke="black" points="1360.59,-356.46 1369.24,-350.34 1358.66,-349.74 1360.59,-356.46"/>
</g>
<!-- crypto -->
<g id="node17" class="node">
<title>crypto</title>
<path fill="none" stroke="black" d="M1569.5,-353C1569.5,-353 1504.5,-353 1504.5,-353 1498.5,-353 1492.5,-347 1492.5,-341 1492.5,-341 1492.5,-327 1492.5,-327 1492.5,-321 1498.5,-315 1504.5,-315 1504.5,-315 1569.5,-315 1569.5,-315 1575.5,-315 1581.5,-321 1581.5,-327 1581.5,-327 1581.5,-341 1581.5,-341 1581.5,-347 1575.5,-353 1569.5,-353"/>
<text text-anchor="middle" x="1537" y="-337.8" font-family="Times,serif" font-size="14.00">Use of</text>
<text text-anchor="middle" x="1537" y="-322.8" font-family="Times,serif" font-size="14.00">cryptography</text>
</g>
<!-- Controls&#45;&gt;crypto -->
<g id="edge16" class="edge">
<title>Controls&#45;&gt;crypto</title>
<path fill="none" stroke="black" d="M1145.69,-418.93C1210.96,-409.28 1353.95,-386.47 1482.31,-353.28"/>
<polygon fill="black" stroke="black" points="1483.53,-356.58 1492.31,-350.67 1481.75,-349.81 1483.53,-356.58"/>
</g>
<!-- aws -->
<g id="node28" class="node">
<title>aws</title>
<image xlink:href="aws.svg" width="108px" height="72px" preserveAspectRatio="xMinYMin meet" x="646" y="-257"/>
</g>
<!-- supplier&#45;&gt;aws -->
<g id="edge27" class="edge">
<title>supplier&#45;&gt;aws</title>
<path fill="none" stroke="black" d="M728.39,-314.67C724.41,-301.7 718.9,-283.71 713.8,-267.04"/>
<polygon fill="black" stroke="black" points="717.12,-265.95 710.85,-257.42 710.43,-268 717.12,-265.95"/>
</g>
<!-- citycloud -->
<g id="node29" class="node">
<title>citycloud</title>
<image xlink:href="citycloud.png" width="108px" height="72px" preserveAspectRatio="xMinYMin meet" x="520" y="-257"/>
</g>
<!-- supplier&#45;&gt;citycloud -->
<g id="edge28" class="edge">
<title>supplier&#45;&gt;citycloud</title>
<path fill="none" stroke="black" d="M690.05,-323.14C672.51,-317.84 652.78,-310.06 637,-299 624,-289.89 612.22,-277.41 602.45,-265.14"/>
<polygon fill="black" stroke="black" points="605.19,-262.96 596.34,-257.15 599.64,-267.21 605.19,-262.96"/>
</g>
<!-- exoscale -->
<g id="node30" class="node">
<title>exoscale</title>
<image xlink:href="exoscale.svg" width="108px" height="72px" preserveAspectRatio="xMinYMin meet" x="394" y="-257"/>
</g>
<!-- supplier&#45;&gt;exoscale -->
<g id="edge29" class="edge">
<title>supplier&#45;&gt;exoscale</title>
<path fill="none" stroke="black" d="M690.09,-330.04C634.05,-325.63 540.77,-315.97 511,-299 496.85,-290.93 484.57,-278.35 474.71,-265.68"/>
<polygon fill="black" stroke="black" points="477.34,-263.35 468.58,-257.39 471.71,-267.51 477.34,-263.35"/>
</g>
<!-- safespring -->
<g id="node31" class="node">
<title>safespring</title>
<image xlink:href="safespring.png" width="108px" height="72px" preserveAspectRatio="xMinYMin meet" x="268" y="-257"/>
</g>
<!-- supplier&#45;&gt;safespring -->
<g id="edge30" class="edge">
<title>supplier&#45;&gt;safespring</title>
<path fill="none" stroke="black" d="M690.41,-332.87C608.86,-331.96 436.8,-326.7 385,-299 370.38,-291.18 357.87,-278.4 347.94,-265.48"/>
<polygon fill="black" stroke="black" points="350.5,-263.05 341.79,-257.02 344.84,-267.17 350.5,-263.05"/>
</g>
<!-- vmware -->
<g id="node32" class="node">
<title>vmware</title>
<image xlink:href="v-mware-v-sphere.svg" width="108px" height="72px" preserveAspectRatio="xMinYMin meet" x="142" y="-257"/>
</g>
<!-- supplier&#45;&gt;vmware -->
<g id="edge31" class="edge">
<title>supplier&#45;&gt;vmware</title>
<path fill="none" stroke="black" d="M690.24,-331.83C579.96,-328.62 296.71,-318.55 259,-299 244.14,-291.3 231.51,-278.4 221.54,-265.33"/>
<polygon fill="black" stroke="black" points="224.38,-263.28 215.68,-257.22 218.7,-267.38 224.38,-263.28"/>
</g>
<!-- byom -->
<g id="node33" class="node">
<title>byom</title>
<polygon fill="none" stroke="black" points="124,-257 16,-257 16,-185 124,-185 124,-257"/>
<text text-anchor="middle" x="70" y="-232.3" font-family="Times,serif" font-size="14.00">Bring</text>
<text text-anchor="middle" x="70" y="-217.3" font-family="Times,serif" font-size="14.00">Your Own</text>
<text text-anchor="middle" x="70" y="-202.3" font-family="Times,serif" font-size="14.00">Metal</text>
</g>
<!-- supplier&#45;&gt;byom -->
<g id="edge32" class="edge">
<title>supplier&#45;&gt;byom</title>
<path fill="none" stroke="black" d="M690.3,-332.55C560.34,-330.92 182.25,-324.06 133,-299 118.09,-291.41 105.44,-278.53 95.47,-265.46"/>
<polygon fill="black" stroke="black" points="98.31,-263.41 89.62,-257.34 92.63,-267.5 98.31,-263.41"/>
</g>
<!-- dex -->
<g id="node18" class="node">
<title>dex</title>
<image xlink:href="logos/dex.png" width="77px" height="92px" preserveAspectRatio="xMinYMin meet" x="778.5" y="-267"/>
</g>
<!-- access&#45;&gt;dex -->
<g id="edge17" class="edge">
<title>access&#45;&gt;dex</title>
<path fill="none" stroke="black" d="M829.52,-314.67C828.13,-304.37 826.31,-290.9 824.49,-277.43"/>
<polygon fill="black" stroke="black" points="827.91,-276.63 823.11,-267.19 820.98,-277.57 827.91,-276.63"/>
</g>
<!-- elasticsearch -->
<g id="node20" class="node">
<title>elasticsearch</title>
<image xlink:href="logos/elasticsearch.png" width="152px" height="90px" preserveAspectRatio="xMinYMin meet" x="874" y="-266"/>
</g>
<!-- Logging&#45;&gt;elasticsearch -->
<g id="edge19" class="edge">
<title>Logging&#45;&gt;elasticsearch</title>
<path fill="none" stroke="black" d="M926.38,-315.66C929.1,-304.86 932.77,-290.32 936.4,-275.93"/>
<polygon fill="black" stroke="black" points="939.84,-276.58 938.89,-266.03 933.05,-274.87 939.84,-276.58"/>
</g>
<!-- velero -->
<g id="node19" class="node">
<title>velero</title>
<image xlink:href="logos/velero.png" width="77px" height="33px" preserveAspectRatio="xMinYMin meet" x="1044.5" y="-237.5"/>
</g>
<!-- Backups&#45;&gt;velero -->
<g id="edge18" class="edge">
<title>Backups&#45;&gt;velero</title>
<path fill="none" stroke="black" d="M1023.83,-315.79C1027.45,-310.44 1031.43,-304.5 1035,-299 1045.94,-282.15 1057.9,-262.98 1067.14,-247.98"/>
<polygon fill="black" stroke="black" points="1070.25,-249.59 1072.51,-239.24 1064.29,-245.93 1070.25,-249.59"/>
</g>
<!-- prometheus -->
<g id="node21" class="node">
<title>prometheus</title>
<image xlink:href="logos/prometheus.png" width="77px" height="67px" preserveAspectRatio="xMinYMin meet" x="1139.5" y="-254.5"/>
</g>
<!-- incident&#45;&gt;prometheus -->
<g id="edge20" class="edge">
<title>incident&#45;&gt;prometheus</title>
<path fill="none" stroke="black" d="M1121.35,-314.66C1124.48,-309.59 1127.88,-304.08 1131,-299 1138.12,-287.41 1145.82,-274.82 1152.88,-263.24"/>
<polygon fill="black" stroke="black" points="1155.92,-264.98 1158.14,-254.62 1149.95,-261.33 1155.92,-264.98"/>
</g>
<!-- harbor -->
<g id="node22" class="node">
<title>harbor</title>
<image xlink:href="logos/harbor.png" width="77px" height="94px" preserveAspectRatio="xMinYMin meet" x="1234.5" y="-268"/>
</g>
<!-- vulnerability&#45;&gt;harbor -->
<g id="edge21" class="edge">
<title>vulnerability&#45;&gt;harbor</title>
<path fill="none" stroke="black" d="M1225.41,-314.67C1230.7,-304.36 1237.62,-290.89 1244.54,-277.43"/>
<polygon fill="black" stroke="black" points="1247.85,-278.64 1249.3,-268.14 1241.62,-275.44 1247.85,-278.64"/>
</g>
<!-- falco -->
<g id="node24" class="node">
<title>falco</title>
<image xlink:href="logos/falco.png" width="77px" height="79px" preserveAspectRatio="xMinYMin meet" x="1329.5" y="-260.5"/>
</g>
<!-- intrusion&#45;&gt;falco -->
<g id="edge23" class="edge">
<title>intrusion&#45;&gt;falco</title>
<path fill="none" stroke="black" d="M1323.75,-314.67C1329.6,-302.42 1337.59,-285.7 1345.16,-269.83"/>
<polygon fill="black" stroke="black" points="1348.41,-271.15 1349.56,-260.62 1342.09,-268.14 1348.41,-271.15"/>
</g>
<!-- calico -->
<g id="node25" class="node">
<title>calico</title>
<image xlink:href="logos/project-calico.png" width="77px" height="35px" preserveAspectRatio="xMinYMin meet" x="1424.5" y="-238.5"/>
</g>
<!-- network&#45;&gt;calico -->
<g id="edge24" class="edge">
<title>network&#45;&gt;calico</title>
<path fill="none" stroke="black" d="M1428.77,-314.67C1435.39,-296.76 1445.53,-269.29 1453.06,-248.91"/>
<polygon fill="black" stroke="black" points="1456.44,-249.85 1456.62,-239.26 1449.88,-247.43 1456.44,-249.85"/>
</g>
<!-- certmanager -->
<g id="node26" class="node">
<title>certmanager</title>
<image xlink:href="logos/cert-manager.png" width="77px" height="74px" preserveAspectRatio="xMinYMin meet" x="1519.5" y="-258"/>
</g>
<!-- crypto&#45;&gt;certmanager -->
<g id="edge25" class="edge">
<title>crypto&#45;&gt;certmanager</title>
<path fill="none" stroke="black" d="M1540.47,-314.67C1542.86,-302.02 1546.15,-284.61 1549.24,-268.29"/>
<polygon fill="black" stroke="black" points="1552.71,-268.8 1551.13,-258.33 1545.83,-267.5 1552.71,-268.8"/>
</g>
<!-- trivy -->
<g id="node23" class="node">
<title>trivy</title>
<image xlink:href="logos/trivy.png" width="77px" height="122px" preserveAspectRatio="xMinYMin meet" x="1234.5" y="-138"/>
</g>
<!-- harbor&#45;&gt;trivy -->
<g id="edge22" class="edge">
<title>harbor&#45;&gt;trivy</title>
<path fill="none" stroke="black" d="M1273,-173.9C1273,-165.69 1273,-156.97 1273,-148.27"/>
<polygon fill="black" stroke="black" points="1276.5,-148.1 1273,-138.1 1269.5,-148.1 1276.5,-148.1"/>
</g>
<!-- letsencrypt -->
<g id="node27" class="node">
<title>letsencrypt</title>
<image xlink:href="logos/letsencrypt.png" width="77px" height="64px" preserveAspectRatio="xMinYMin meet" x="1519.5" y="-109"/>
</g>
<!-- certmanager&#45;&gt;letsencrypt -->
<g id="edge26" class="edge">
<title>certmanager&#45;&gt;letsencrypt</title>
<path fill="none" stroke="black" d="M1558,-183.8C1558,-164.21 1558,-139.92 1558,-119.56"/>
<polygon fill="black" stroke="black" points="1561.5,-119.31 1558,-109.31 1554.5,-119.31 1561.5,-119.31"/>
</g>
</g>
</svg>
