<?xml version="1.0" encoding="UTF-8" standalone="no"?>
<!DOCTYPE svg PUBLIC "-//W3C//DTD SVG 1.1//EN"
 "http://www.w3.org/Graphics/SVG/1.1/DTD/svg11.dtd">
<!-- Generated by graphviz version 2.43.0 (0)
 -->
<!-- Title: compliance_basics Pages: 1 -->
<svg width="1860pt" height="555pt"
 viewBox="0.00 0.00 1860.00 555.00" xmlns="http://www.w3.org/2000/svg" xmlns:xlink="http://www.w3.org/1999/xlink">
<g id="graph0" class="graph" transform="scale(1 1) rotate(0) translate(4 551)">
<title>compliance_basics</title>
<polygon fill="white" stroke="transparent" points="-4,4 -4,-551 1856,-551 1856,4 -4,4"/>
<g id="clust1" class="cluster">
<title>cluster_regulations</title>
<polygon fill="none" stroke="black" points="260,-464 260,-539 618,-539 618,-464 260,-464"/>
<text text-anchor="middle" x="300.5" y="-523.8" font-family="Times,serif" font-size="14.00">Regulations</text>
</g>
<g id="clust2" class="cluster">
<title>cluster_isms</title>
<polygon fill="none" stroke="black" points="626,-464 626,-539 898,-539 898,-464 626,-464"/>
<text text-anchor="middle" x="720" y="-523.8" font-family="Times,serif" font-size="14.00">Information Security Standards</text>
</g>
<g id="clust3" class="cluster">
<title>cluster_policies</title>
<polygon fill="none" stroke="black" points="146,-271 146,-456 1053,-456 1053,-271 146,-271"/>
<text text-anchor="middle" x="175.5" y="-440.8" font-family="Times,serif" font-size="14.00">Policies</text>
</g>
<g id="clust7" class="cluster">
<title>cluster_implementation</title>
<polygon fill="none" stroke="black" points="8,-8 8,-263 1082,-263 1082,-8 8,-8"/>
<text text-anchor="middle" x="78" y="-247.8" font-family="Times,serif" font-size="14.00">Compliant Kubernetes</text>
</g>
<g id="clust19" class="cluster">
<title>cluster_provider</title>
<polygon fill="none" stroke="black" points="1090,-26 1090,-137 1844,-137 1844,-26 1090,-26"/>
<text text-anchor="middle" x="1170.5" y="-121.8" font-family="Times,serif" font-size="14.00">Compliant Cloud Provider</text>
</g>
<!-- HIPAA -->
<g id="node1" class="node">
<title>HIPAA</title>
<path fill="none" stroke="black" d="M598,-508C598,-508 550,-508 550,-508 544,-508 538,-502 538,-496 538,-496 538,-484 538,-484 538,-478 544,-472 550,-472 550,-472 598,-472 598,-472 604,-472 610,-478 610,-484 610,-484 610,-496 610,-496 610,-502 604,-508 598,-508"/>
<text text-anchor="middle" x="574" y="-486.3" font-family="Times,serif" font-size="14.00">HIPAA</text>
</g>
<!-- Controls -->
<g id="node8" class="node">
<title>Controls</title>
<ellipse fill="none" stroke="black" cx="574" cy="-389" rx="36" ry="36"/>
<text text-anchor="middle" x="574" y="-385.3" font-family="Times,serif" font-size="14.00">Controls</text>
</g>
<!-- HIPAA&#45;&gt;Controls -->
<g id="edge1" class="edge">
<title>HIPAA&#45;&gt;Controls</title>
<path fill="none" stroke="black" d="M574,-471.76C574,-461.61 574,-448.27 574,-435.32"/>
<polygon fill="black" stroke="black" points="577.5,-435.08 574,-425.08 570.5,-435.08 577.5,-435.08"/>
</g>
<!-- PDL -->
<g id="node2" class="node">
<title>PDL</title>
<path fill="none" stroke="black" d="M508,-508C508,-508 460,-508 460,-508 454,-508 448,-502 448,-496 448,-496 448,-484 448,-484 448,-478 454,-472 460,-472 460,-472 508,-472 508,-472 514,-472 520,-478 520,-484 520,-484 520,-496 520,-496 520,-502 514,-508 508,-508"/>
<text text-anchor="middle" x="484" y="-486.3" font-family="Times,serif" font-size="14.00">PDL</text>
</g>
<!-- PDL&#45;&gt;Controls -->
<g id="edge2" class="edge">
<title>PDL&#45;&gt;Controls</title>
<path fill="none" stroke="black" d="M499.68,-471.76C511.62,-458.62 528.45,-440.1 543.07,-424.02"/>
<polygon fill="black" stroke="black" points="545.91,-426.11 550.04,-416.35 540.73,-421.4 545.91,-426.11"/>
</g>
<!-- GDPR -->
<g id="node3" class="node">
<title>GDPR</title>
<path fill="none" stroke="black" d="M418,-508C418,-508 370,-508 370,-508 364,-508 358,-502 358,-496 358,-496 358,-484 358,-484 358,-478 364,-472 370,-472 370,-472 418,-472 418,-472 424,-472 430,-478 430,-484 430,-484 430,-496 430,-496 430,-502 424,-508 418,-508"/>
<text text-anchor="middle" x="394" y="-486.3" font-family="Times,serif" font-size="14.00">GDPR</text>
</g>
<!-- GDPR&#45;&gt;Controls -->
<g id="edge3" class="edge">
<title>GDPR&#45;&gt;Controls</title>
<path fill="none" stroke="black" d="M424.97,-471.76C429.67,-469.16 434.46,-466.5 439,-464 470.71,-446.5 506.68,-426.79 533.51,-412.11"/>
<polygon fill="black" stroke="black" points="535.51,-415.01 542.6,-407.15 532.15,-408.87 535.51,-415.01"/>
</g>
<!-- CCPA -->
<g id="node4" class="node">
<title>CCPA</title>
<path fill="none" stroke="black" d="M328,-508C328,-508 280,-508 280,-508 274,-508 268,-502 268,-496 268,-496 268,-484 268,-484 268,-478 274,-472 280,-472 280,-472 328,-472 328,-472 334,-472 340,-478 340,-484 340,-484 340,-496 340,-496 340,-502 334,-508 328,-508"/>
<text text-anchor="middle" x="304" y="-486.3" font-family="Times,serif" font-size="14.00">CCPA</text>
</g>
<!-- CCPA&#45;&gt;Controls -->
<g id="edge4" class="edge">
<title>CCPA&#45;&gt;Controls</title>
<path fill="none" stroke="black" d="M333.13,-471.78C338.33,-469 343.76,-466.29 349,-464 409.89,-437.36 483.59,-414.86 529.65,-401.89"/>
<polygon fill="black" stroke="black" points="530.63,-405.25 539.32,-399.19 528.75,-398.51 530.63,-405.25"/>
</g>
<!-- ISO 27001 -->
<g id="node5" class="node">
<title>ISO 27001</title>
<polygon fill="none" stroke="black" points="890,-508 814,-508 814,-472 890,-472 890,-508"/>
<text text-anchor="middle" x="852" y="-486.3" font-family="Times,serif" font-size="14.00">ISO 27001</text>
</g>
<!-- ISO 27001&#45;&gt;Controls -->
<g id="edge5" class="edge">
<title>ISO 27001&#45;&gt;Controls</title>
<path fill="none" stroke="black" d="M821.79,-471.92C816.29,-469.1 810.53,-466.34 805,-464 741.93,-437.38 665.8,-414.72 618.64,-401.74"/>
<polygon fill="black" stroke="black" points="619.31,-398.29 608.75,-399.04 617.47,-405.04 619.31,-398.29"/>
</g>
<!-- SOC&#45;2 -->
<g id="node6" class="node">
<title>SOC&#45;2</title>
<polygon fill="none" stroke="black" points="796,-508 724,-508 724,-472 796,-472 796,-508"/>
<text text-anchor="middle" x="760" y="-486.3" font-family="Times,serif" font-size="14.00">SOC&#45;2</text>
</g>
<!-- SOC&#45;2&#45;&gt;Controls -->
<g id="edge6" class="edge">
<title>SOC&#45;2&#45;&gt;Controls</title>
<path fill="none" stroke="black" d="M729.55,-471.96C724.7,-469.28 719.72,-466.55 715,-464 681.45,-445.88 643.13,-425.81 614.91,-411.15"/>
<polygon fill="black" stroke="black" points="616.24,-407.89 605.75,-406.39 613.02,-414.1 616.24,-407.89"/>
</g>
<!-- PCI&#45;DSS -->
<g id="node7" class="node">
<title>PCI&#45;DSS</title>
<polygon fill="none" stroke="black" points="706,-508 634,-508 634,-472 706,-472 706,-508"/>
<text text-anchor="middle" x="670" y="-486.3" font-family="Times,serif" font-size="14.00">PCI&#45;DSS</text>
</g>
<!-- PCI&#45;DSS&#45;&gt;Controls -->
<g id="edge7" class="edge">
<title>PCI&#45;DSS&#45;&gt;Controls</title>
<path fill="none" stroke="black" d="M653.28,-471.76C640.23,-458.3 621.73,-439.22 605.88,-422.88"/>
<polygon fill="black" stroke="black" points="608.29,-420.33 598.82,-415.59 603.26,-425.21 608.29,-420.33"/>
</g>
<!-- supplier -->
<g id="node9" class="node">
<title>supplier</title>
<path fill="none" stroke="black" d="M1032.5,-317C1032.5,-317 969.5,-317 969.5,-317 963.5,-317 957.5,-311 957.5,-305 957.5,-305 957.5,-291 957.5,-291 957.5,-285 963.5,-279 969.5,-279 969.5,-279 1032.5,-279 1032.5,-279 1038.5,-279 1044.5,-285 1044.5,-291 1044.5,-291 1044.5,-305 1044.5,-305 1044.5,-311 1038.5,-317 1032.5,-317"/>
<text text-anchor="middle" x="1001" y="-301.8" font-family="Times,serif" font-size="14.00">Supplier</text>
<text text-anchor="middle" x="1001" y="-286.8" font-family="Times,serif" font-size="14.00">management</text>
</g>
<!-- Controls&#45;&gt;supplier -->
<g id="edge8" class="edge">
<title>Controls&#45;&gt;supplier</title>
<path fill="none" stroke="black" d="M609.54,-383.04C674.89,-373.55 818.52,-350.92 947.41,-317.25"/>
<polygon fill="black" stroke="black" points="948.68,-320.53 957.45,-314.59 946.89,-313.76 948.68,-320.53"/>
</g>
<!-- access -->
<g id="node10" class="node">
<title>access</title>
<path fill="none" stroke="black" d="M214,-317C214,-317 166,-317 166,-317 160,-317 154,-311 154,-305 154,-305 154,-291 154,-291 154,-285 160,-279 166,-279 166,-279 214,-279 214,-279 220,-279 226,-285 226,-291 226,-291 226,-305 226,-305 226,-311 220,-317 214,-317"/>
<text text-anchor="middle" x="190" y="-301.8" font-family="Times,serif" font-size="14.00">Access</text>
<text text-anchor="middle" x="190" y="-286.8" font-family="Times,serif" font-size="14.00">control</text>
</g>
<!-- Controls&#45;&gt;access -->
<g id="edge9" class="edge">
<title>Controls&#45;&gt;access</title>
<path fill="none" stroke="black" d="M538.35,-382.63C477.72,-373.06 350.7,-351.04 235.81,-316.99"/>
<polygon fill="black" stroke="black" points="236.74,-313.61 226.16,-314.09 234.73,-320.32 236.74,-313.61"/>
</g>
<!-- Logging -->
<g id="node11" class="node">
<title>Logging</title>
<path fill="none" stroke="black" d="M304,-316C304,-316 256,-316 256,-316 250,-316 244,-310 244,-304 244,-304 244,-292 244,-292 244,-286 250,-280 256,-280 256,-280 304,-280 304,-280 310,-280 316,-286 316,-292 316,-292 316,-304 316,-304 316,-310 310,-316 304,-316"/>
<text text-anchor="middle" x="280" y="-294.3" font-family="Times,serif" font-size="14.00">Logging</text>
</g>
<!-- Controls&#45;&gt;Logging -->
<g id="edge10" class="edge">
<title>Controls&#45;&gt;Logging</title>
<path fill="none" stroke="black" d="M539.01,-379.24C492.4,-367.3 407.28,-344.58 326.11,-317.22"/>
<polygon fill="black" stroke="black" points="326.82,-313.77 316.23,-313.86 324.57,-320.4 326.82,-313.77"/>
</g>
<!-- Backups -->
<g id="node12" class="node">
<title>Backups</title>
<path fill="none" stroke="black" d="M394,-316C394,-316 346,-316 346,-316 340,-316 334,-310 334,-304 334,-304 334,-292 334,-292 334,-286 340,-280 346,-280 346,-280 394,-280 394,-280 400,-280 406,-286 406,-292 406,-292 406,-304 406,-304 406,-310 400,-316 394,-316"/>
<text text-anchor="middle" x="370" y="-294.3" font-family="Times,serif" font-size="14.00">Backups</text>
</g>
<!-- Controls&#45;&gt;Backups -->
<g id="edge11" class="edge">
<title>Controls&#45;&gt;Backups</title>
<path fill="none" stroke="black" d="M541.22,-373.7C507.17,-358.84 453.62,-335.48 415.48,-318.84"/>
<polygon fill="black" stroke="black" points="416.7,-315.55 406.13,-314.76 413.9,-321.97 416.7,-315.55"/>
</g>
<!-- incident -->
<g id="node13" class="node">
<title>incident</title>
<path fill="none" stroke="black" d="M499.5,-317C499.5,-317 436.5,-317 436.5,-317 430.5,-317 424.5,-311 424.5,-305 424.5,-305 424.5,-291 424.5,-291 424.5,-285 430.5,-279 436.5,-279 436.5,-279 499.5,-279 499.5,-279 505.5,-279 511.5,-285 511.5,-291 511.5,-291 511.5,-305 511.5,-305 511.5,-311 505.5,-317 499.5,-317"/>
<text text-anchor="middle" x="468" y="-301.8" font-family="Times,serif" font-size="14.00">Incident</text>
<text text-anchor="middle" x="468" y="-286.8" font-family="Times,serif" font-size="14.00">management</text>
</g>
<!-- Controls&#45;&gt;incident -->
<g id="edge12" class="edge">
<title>Controls&#45;&gt;incident</title>
<path fill="none" stroke="black" d="M546.7,-365.08C531.55,-352.36 512.71,-336.54 497.26,-323.57"/>
<polygon fill="black" stroke="black" points="499.43,-320.82 489.52,-317.07 494.93,-326.18 499.43,-320.82"/>
</g>
<!-- vulnerability -->
<g id="node14" class="node">
<title>vulnerability</title>
<path fill="none" stroke="black" d="M606.5,-317C606.5,-317 541.5,-317 541.5,-317 535.5,-317 529.5,-311 529.5,-305 529.5,-305 529.5,-291 529.5,-291 529.5,-285 535.5,-279 541.5,-279 541.5,-279 606.5,-279 606.5,-279 612.5,-279 618.5,-285 618.5,-291 618.5,-291 618.5,-305 618.5,-305 618.5,-311 612.5,-317 606.5,-317"/>
<text text-anchor="middle" x="574" y="-301.8" font-family="Times,serif" font-size="14.00">Vulnerability</text>
<text text-anchor="middle" x="574" y="-286.8" font-family="Times,serif" font-size="14.00">management</text>
</g>
<!-- Controls&#45;&gt;vulnerability -->
<g id="edge13" class="edge">
<title>Controls&#45;&gt;vulnerability</title>
<path fill="none" stroke="black" d="M574,-352.82C574,-344.31 574,-335.32 574,-327.18"/>
<polygon fill="black" stroke="black" points="577.5,-327.07 574,-317.07 570.5,-327.07 577.5,-327.07"/>
</g>
<!-- intrusion -->
<g id="node15" class="node">
<title>intrusion</title>
<path fill="none" stroke="black" d="M697,-317C697,-317 649,-317 649,-317 643,-317 637,-311 637,-305 637,-305 637,-291 637,-291 637,-285 643,-279 649,-279 649,-279 697,-279 697,-279 703,-279 709,-285 709,-291 709,-291 709,-305 709,-305 709,-311 703,-317 697,-317"/>
<text text-anchor="middle" x="673" y="-301.8" font-family="Times,serif" font-size="14.00">Intrusion</text>
<text text-anchor="middle" x="673" y="-286.8" font-family="Times,serif" font-size="14.00">detection</text>
</g>
<!-- Controls&#45;&gt;intrusion -->
<g id="edge14" class="edge">
<title>Controls&#45;&gt;intrusion</title>
<path fill="none" stroke="black" d="M600.27,-364.38C614.19,-351.87 631.28,-336.51 645.39,-323.82"/>
<polygon fill="black" stroke="black" points="647.79,-326.37 652.89,-317.08 643.11,-321.16 647.79,-326.37"/>
</g>
<!-- network -->
<g id="node16" class="node">
<title>network</title>
<path fill="none" stroke="black" d="M820.5,-317C820.5,-317 739.5,-317 739.5,-317 733.5,-317 727.5,-311 727.5,-305 727.5,-305 727.5,-291 727.5,-291 727.5,-285 733.5,-279 739.5,-279 739.5,-279 820.5,-279 820.5,-279 826.5,-279 832.5,-285 832.5,-291 832.5,-291 832.5,-305 832.5,-305 832.5,-311 826.5,-317 820.5,-317"/>
<text text-anchor="middle" x="780" y="-301.8" font-family="Times,serif" font-size="14.00">Communication</text>
<text text-anchor="middle" x="780" y="-286.8" font-family="Times,serif" font-size="14.00">security</text>
</g>
<!-- Controls&#45;&gt;network -->
<g id="edge15" class="edge">
<title>Controls&#45;&gt;network</title>
<path fill="none" stroke="black" d="M607.1,-373.7C639.91,-359.52 690.66,-337.6 728.7,-321.16"/>
<polygon fill="black" stroke="black" points="730.29,-324.29 738.08,-317.11 727.51,-317.87 730.29,-324.29"/>
</g>
<!-- crypto -->
<g id="node17" class="node">
<title>crypto</title>
<path fill="none" stroke="black" d="M927.5,-317C927.5,-317 862.5,-317 862.5,-317 856.5,-317 850.5,-311 850.5,-305 850.5,-305 850.5,-291 850.5,-291 850.5,-285 856.5,-279 862.5,-279 862.5,-279 927.5,-279 927.5,-279 933.5,-279 939.5,-285 939.5,-291 939.5,-291 939.5,-305 939.5,-305 939.5,-311 933.5,-317 927.5,-317"/>
<text text-anchor="middle" x="895" y="-301.8" font-family="Times,serif" font-size="14.00">Use of</text>
<text text-anchor="middle" x="895" y="-286.8" font-family="Times,serif" font-size="14.00">cryptography</text>
</g>
<!-- Controls&#45;&gt;crypto -->
<g id="edge16" class="edge">
<title>Controls&#45;&gt;crypto</title>
<path fill="none" stroke="black" d="M608.91,-379.56C658.45,-367.41 752.17,-343.78 840.61,-317.34"/>
<polygon fill="black" stroke="black" points="841.68,-320.67 850.25,-314.44 839.67,-313.97 841.68,-320.67"/>
</g>
<!-- kubernetes -->
<g id="node18" class="node">
<title>kubernetes</title>
<image xlink:href="kubernetes.png" width="108px" height="36px" preserveAspectRatio="xMinYMin meet" x="966" y="-214"/>
</g>
<!-- supplier&#45;&gt;kubernetes -->
<g id="edge17" class="edge">
<title>supplier&#45;&gt;kubernetes</title>
<path fill="none" stroke="black" d="M1004.48,-278.66C1007.38,-263.44 1011.53,-241.56 1014.82,-224.29"/>
<polygon fill="black" stroke="black" points="1018.3,-224.7 1016.73,-214.22 1011.42,-223.39 1018.3,-224.7"/>
</g>
<!-- dex -->
<g id="node19" class="node">
<title>dex</title>
<image xlink:href="dex.svg" width="108px" height="72px" preserveAspectRatio="xMinYMin meet" x="16" y="-232"/>
</g>
<!-- access&#45;&gt;dex -->
<g id="edge18" class="edge">
<title>access&#45;&gt;dex</title>
<path fill="none" stroke="black" d="M156.14,-278.86C148.27,-274.09 140.12,-268.68 133,-263 124.09,-255.9 115.22,-247.57 107.06,-239.28"/>
<polygon fill="black" stroke="black" points="109.54,-236.81 100.09,-232.03 104.49,-241.66 109.54,-236.81"/>
</g>
<!-- elasticsearch -->
<g id="node21" class="node">
<title>elasticsearch</title>
<image xlink:href="elasticsearch.svg" width="108px" height="72px" preserveAspectRatio="xMinYMin meet" x="142" y="-232"/>
</g>
<!-- Logging&#45;&gt;elasticsearch -->
<g id="edge20" class="edge">
<title>Logging&#45;&gt;elasticsearch</title>
<path fill="none" stroke="black" d="M265.37,-279.58C256.09,-268.53 243.65,-253.73 231.87,-239.7"/>
<polygon fill="black" stroke="black" points="234.53,-237.42 225.42,-232.02 229.17,-241.93 234.53,-237.42"/>
</g>
<!-- velero -->
<g id="node20" class="node">
<title>velero</title>
<image xlink:href="velero.svg" width="108px" height="72px" preserveAspectRatio="xMinYMin meet" x="268" y="-232"/>
</g>
<!-- Backups&#45;&gt;velero -->
<g id="edge19" class="edge">
<title>Backups&#45;&gt;velero</title>
<path fill="none" stroke="black" d="M361.64,-279.58C356.53,-268.94 349.75,-254.82 343.25,-241.26"/>
<polygon fill="black" stroke="black" points="346.29,-239.52 338.81,-232.02 339.98,-242.55 346.29,-239.52"/>
</g>
<!-- prometheus -->
<g id="node22" class="node">
<title>prometheus</title>
<image xlink:href="prometheus.svg" width="108px" height="72px" preserveAspectRatio="xMinYMin meet" x="394" y="-232"/>
</g>
<!-- incident&#45;&gt;prometheus -->
<g id="edge21" class="edge">
<title>incident&#45;&gt;prometheus</title>
<path fill="none" stroke="black" d="M464.33,-278.66C462.29,-268.43 459.64,-255.19 457.07,-242.36"/>
<polygon fill="black" stroke="black" points="460.44,-241.34 455.05,-232.23 453.57,-242.72 460.44,-241.34"/>
</g>
<!-- harbor -->
<g id="node23" class="node">
<title>harbor</title>
<image xlink:href="harbor.svg" width="108px" height="72px" preserveAspectRatio="xMinYMin meet" x="520" y="-232"/>
</g>
<!-- vulnerability&#45;&gt;harbor -->
<g id="edge22" class="edge">
<title>vulnerability&#45;&gt;harbor</title>
<path fill="none" stroke="black" d="M574,-278.66C574,-268.43 574,-255.19 574,-242.36"/>
<polygon fill="black" stroke="black" points="577.5,-242.23 574,-232.23 570.5,-242.23 577.5,-242.23"/>
</g>
<!-- falco -->
<g id="node25" class="node">
<title>falco</title>
<image xlink:href="falco.svg" width="108px" height="72px" preserveAspectRatio="xMinYMin meet" x="646" y="-232"/>
</g>
<!-- intrusion&#45;&gt;falco -->
<g id="edge24" class="edge">
<title>intrusion&#45;&gt;falco</title>
<path fill="none" stroke="black" d="M677.95,-278.66C680.74,-268.32 684.36,-254.92 687.86,-241.98"/>
<polygon fill="black" stroke="black" points="691.26,-242.79 690.49,-232.23 684.5,-240.97 691.26,-242.79"/>
</g>
<!-- calico -->
<g id="node26" class="node">
<title>calico</title>
<image xlink:href="project-calico.svg" width="108px" height="72px" preserveAspectRatio="xMinYMin meet" x="772" y="-232"/>
</g>
<!-- network&#45;&gt;calico -->
<g id="edge25" class="edge">
<title>network&#45;&gt;calico</title>
<path fill="none" stroke="black" d="M788.44,-278.66C793.24,-268.22 799.48,-254.66 805.48,-241.6"/>
<polygon fill="black" stroke="black" points="808.8,-242.77 809.8,-232.23 802.44,-239.85 808.8,-242.77"/>
</g>
<!-- certmanager -->
<g id="node27" class="node">
<title>certmanager</title>
<image xlink:href="cert-manager.png" width="50px" height="50px" preserveAspectRatio="xMinYMin meet" x="898" y="-221"/>
</g>
<!-- crypto&#45;&gt;certmanager -->
<g id="edge26" class="edge">
<title>crypto&#45;&gt;certmanager</title>
<path fill="none" stroke="black" d="M900.14,-278.66C903.84,-265.43 908.95,-247.18 913.4,-231.29"/>
<polygon fill="black" stroke="black" points="916.88,-231.83 916.21,-221.26 910.14,-229.94 916.88,-231.83"/>
</g>
<!-- aws -->
<g id="node29" class="node">
<title>aws</title>
<image xlink:href="aws.svg" width="108px" height="72px" preserveAspectRatio="xMinYMin meet" x="1728" y="-106"/>
</g>
<!-- kubernetes&#45;&gt;aws -->
<g id="edge28" class="edge">
<title>kubernetes&#45;&gt;aws</title>
<path fill="none" stroke="black" d="M1074,-195.41C1217.51,-195.73 1605.14,-191.4 1719,-137 1730.62,-131.45 1741.21,-122.77 1750.25,-113.51"/>
<polygon fill="black" stroke="black" points="1752.96,-115.73 1757.16,-106.01 1747.81,-110.99 1752.96,-115.73"/>
</g>
<!-- citycloud -->
<g id="node30" class="node">
<title>citycloud</title>
<image xlink:href="citycloud.png" width="108px" height="72px" preserveAspectRatio="xMinYMin meet" x="1602" y="-106"/>
</g>
<!-- kubernetes&#45;&gt;citycloud -->
<g id="edge29" class="edge">
<title>kubernetes&#45;&gt;citycloud</title>
<path fill="none" stroke="black" d="M1074.08,-194.26C1198.72,-191.8 1502.39,-181.3 1593,-137 1604.45,-131.4 1614.93,-122.8 1623.92,-113.63"/>
<polygon fill="black" stroke="black" points="1626.56,-115.93 1630.79,-106.21 1621.43,-111.17 1626.56,-115.93"/>
</g>
<!-- exoscale -->
<g id="node31" class="node">
<title>exoscale</title>
<image xlink:href="exoscale.svg" width="108px" height="72px" preserveAspectRatio="xMinYMin meet" x="1476" y="-106"/>
</g>
<!-- kubernetes&#45;&gt;exoscale -->
<g id="edge30" class="edge">
<title>kubernetes&#45;&gt;exoscale</title>
<path fill="none" stroke="black" d="M1074.04,-192.48C1177.5,-186.92 1399.28,-171.3 1467,-137 1478.26,-131.3 1488.62,-122.75 1497.54,-113.68"/>
<polygon fill="black" stroke="black" points="1500.12,-116.04 1504.38,-106.34 1495,-111.27 1500.12,-116.04"/>
</g>
<!-- safespring -->
<g id="node32" class="node">
<title>safespring</title>
<image xlink:href="safespring.png" width="108px" height="72px" preserveAspectRatio="xMinYMin meet" x="1350" y="-106"/>
</g>
<!-- kubernetes&#45;&gt;safespring -->
<g id="edge31" class="edge">
<title>kubernetes&#45;&gt;safespring</title>
<path fill="none" stroke="black" d="M1074.17,-195.25C1140.81,-193.38 1255.6,-182.96 1341,-137 1351.9,-131.14 1362.01,-122.7 1370.8,-113.82"/>
<polygon fill="black" stroke="black" points="1373.58,-115.98 1377.87,-106.29 1368.47,-111.19 1373.58,-115.98"/>
</g>
<!-- vmware -->
<g id="node33" class="node">
<title>vmware</title>
<image xlink:href="v-mware-v-sphere.svg" width="108px" height="72px" preserveAspectRatio="xMinYMin meet" x="1224" y="-106"/>
</g>
<!-- kubernetes&#45;&gt;vmware -->
<g id="edge32" class="edge">
<title>kubernetes&#45;&gt;vmware</title>
<path fill="none" stroke="black" d="M1074.4,-186.65C1115.33,-178.57 1171.61,-163.54 1215,-137 1225.35,-130.67 1235.14,-122.23 1243.78,-113.5"/>
<polygon fill="black" stroke="black" points="1246.42,-115.8 1250.76,-106.13 1241.34,-110.98 1246.42,-115.8"/>
</g>
<!-- byom -->
<g id="node34" class="node">
<title>byom</title>
<polygon fill="none" stroke="black" points="1206,-106 1098,-106 1098,-34 1206,-34 1206,-106"/>
<text text-anchor="middle" x="1152" y="-81.3" font-family="Times,serif" font-size="14.00">Bring</text>
<text text-anchor="middle" x="1152" y="-66.3" font-family="Times,serif" font-size="14.00">Your Own</text>
<text text-anchor="middle" x="1152" y="-51.3" font-family="Times,serif" font-size="14.00">Metal</text>
</g>
<!-- kubernetes&#45;&gt;byom -->
<g id="edge33" class="edge">
<title>kubernetes&#45;&gt;byom</title>
<path fill="none" stroke="black" d="M1040.23,-177.82C1053.44,-166.44 1070.98,-151.08 1086,-137 1094.06,-129.45 1102.5,-121.24 1110.55,-113.26"/>
<polygon fill="black" stroke="black" points="1113.2,-115.56 1117.82,-106.02 1108.26,-110.6 1113.2,-115.56"/>
</g>
<!-- trivy -->
<g id="node24" class="node">
<title>trivy</title>
<image xlink:href="trivy.svg" width="72px" height="108px" preserveAspectRatio="xMinYMin meet" x="538" y="-124"/>
</g>
<!-- harbor&#45;&gt;trivy -->
<g id="edge23" class="edge">
<title>harbor&#45;&gt;trivy</title>
<path fill="none" stroke="black" d="M574,-159.8C574,-151.87 574,-143.22 574,-134.54"/>
<polygon fill="black" stroke="black" points="577.5,-134.36 574,-124.36 570.5,-134.36 577.5,-134.36"/>
</g>
<!-- letsencrypt -->
<g id="node28" class="node">
<title>letsencrypt</title>
<image xlink:href="letsencrypt.png" width="108px" height="72px" preserveAspectRatio="xMinYMin meet" x="869" y="-106"/>
</g>
<!-- certmanager&#45;&gt;letsencrypt -->
<g id="edge27" class="edge">
<title>certmanager&#45;&gt;letsencrypt</title>
<path fill="none" stroke="black" d="M923,-170.8C923,-155.41 923,-134.99 923,-116.64"/>
<polygon fill="black" stroke="black" points="926.5,-116.41 923,-106.41 919.5,-116.41 926.5,-116.41"/>
</g>
</g>
</svg>
