<?xml version="1.0" encoding="utf-8"?>
<!-- Generator: Adobe Illustrator 21.1.0, SVG Export Plug-In . SVG Version: 6.00 Build 0)  -->
<svg version="1.1" id="Layer_1" xmlns="http://www.w3.org/2000/svg" xmlns:xlink="http://www.w3.org/1999/xlink" x="0px" y="0px"
	 viewBox="77 83 410 90" style="enable-background:new 0 0 550 250;" xml:space="preserve">
<style type="text/css">
	.st0{fill:none;}
	.st1{enable-background:new    ;}
	.st2{fill:#00A9E5;}
	.st3{fill:#353535;}
	.st4{fill:#00BFB3;}
	.st5{fill:#019B8F;}
	.st6{fill:#F9B110;}
	.st7{fill:#FED10A;}
</style>
<rect x="178" y="102.5" class="st0" width="313" height="41"/>
<g class="st1">
	<path d="M193.3,139.4c-4,0-7.2-1.2-9.5-3.5s-3.4-5.6-3.4-9.7c0-4.2,1.1-7.6,3.2-10s5-3.6,8.7-3.6c3.4,0,6.1,1,8.1,3.1s3,4.9,3,8.6
		v3h-17.3c0.1,2.5,0.8,4.4,2,5.8s3.1,2,5.4,2c1.5,0,3-0.1,4.3-0.4s2.7-0.8,4.3-1.4v4.5c-1.3,0.6-2.7,1.1-4.1,1.4
		S195,139.4,193.3,139.4z M192.2,116.8c-1.8,0-3.2,0.6-4.2,1.7s-1.7,2.7-1.9,4.9h11.8c0-2.1-0.5-3.8-1.5-4.9S194,116.8,192.2,116.8z
		"/>
	<path d="M215.1,139h-5.5v-36.5h5.5V139z"/>
	<path d="M239.2,139l-1.1-3.6h-0.2c-1.2,1.6-2.5,2.7-3.8,3.2s-2.9,0.9-4.9,0.9c-2.5,0-4.5-0.7-6-2.1s-2.1-3.3-2.1-5.8
		c0-2.7,1-4.7,3-6s5-2.1,9.1-2.2l4.5-0.1v-1.4c0-1.7-0.4-2.9-1.2-3.7s-2-1.2-3.6-1.2c-1.3,0-2.6,0.2-3.8,0.6s-2.4,0.9-3.5,1.4
		l-1.8-3.9c1.4-0.7,2.9-1.3,4.6-1.7s3.2-0.6,4.7-0.6c3.3,0,5.8,0.7,7.5,2.2s2.5,3.7,2.5,6.8V139H239.2z M231,135.2
		c2,0,3.6-0.6,4.8-1.7s1.8-2.7,1.8-4.7v-2.2l-3.3,0.1c-2.6,0.1-4.5,0.5-5.7,1.3c-1.2,0.8-1.8,2-1.8,3.6c0,1.2,0.3,2.1,1,2.7
		S229.6,135.2,231,135.2z"/>
	<path d="M268.2,131.6c0,2.5-0.9,4.5-2.8,5.8s-4.5,2-7.9,2c-3.5,0-6.2-0.5-8.3-1.6v-4.8c3,1.4,5.9,2.1,8.5,2.1c3.4,0,5.1-1,5.1-3.1
		c0-0.7-0.2-1.2-0.6-1.6s-1-0.9-1.9-1.4s-2.1-1-3.6-1.6c-3-1.2-5-2.3-6.1-3.5s-1.6-2.7-1.6-4.5c0-2.2,0.9-3.9,2.7-5.2
		s4.2-1.8,7.3-1.8c3,0,5.9,0.6,8.6,1.9l-1.8,4.1c-2.8-1.2-5.1-1.7-7.1-1.7c-2.9,0-4.4,0.8-4.4,2.5c0,0.8,0.4,1.5,1.1,2.1
		s2.4,1.3,5,2.3c2.1,0.8,3.7,1.6,4.7,2.3s1.7,1.5,2.2,2.4C268,129.3,268.2,130.3,268.2,131.6z"/>
	<path d="M283.8,135c1.3,0,2.7-0.2,4-0.6v4.1c-0.6,0.3-1.4,0.5-2.4,0.7s-2,0.3-3,0.3c-5.2,0-7.8-2.8-7.8-8.2v-14h-3.5v-2.4l3.8-2
		l1.9-5.5h3.4v5.8h7.4v4.2h-7.4v13.9c0,1.3,0.3,2.3,1,2.9S282.8,135,283.8,135z"/>
	<path d="M292.7,106.2c0-1,0.3-1.7,0.8-2.3s1.3-0.8,2.3-0.8c1,0,1.7,0.3,2.3,0.8s0.8,1.3,0.8,2.3c0,0.9-0.3,1.7-0.8,2.2
		s-1.3,0.8-2.3,0.8c-1,0-1.8-0.3-2.3-0.8S292.7,107.1,292.7,106.2z M298.6,139h-5.5v-25.9h5.5V139z"/>
	<path d="M316.9,139.4c-3.9,0-6.9-1.1-8.9-3.4s-3.1-5.6-3.1-9.9c0-4.4,1.1-7.7,3.2-10.1s5.2-3.5,9.2-3.5c2.7,0,5.2,0.5,7.4,1.5
		l-1.7,4.4c-2.3-0.9-4.2-1.4-5.8-1.4c-4.5,0-6.7,3-6.7,8.9c0,2.9,0.6,5.1,1.7,6.6s2.8,2.2,4.9,2.2c2.5,0,4.8-0.6,7-1.8v4.8
		c-1,0.6-2,1-3.2,1.2S318.5,139.4,316.9,139.4z"/>
	<path d="M347.6,131.6c0,2.5-0.9,4.5-2.8,5.8s-4.5,2-7.9,2c-3.5,0-6.2-0.5-8.3-1.6v-4.8c3,1.4,5.9,2.1,8.5,2.1c3.4,0,5.1-1,5.1-3.1
		c0-0.7-0.2-1.2-0.6-1.6s-1-0.9-1.9-1.4s-2.1-1-3.6-1.6c-3-1.2-5-2.3-6.1-3.5s-1.6-2.7-1.6-4.5c0-2.2,0.9-3.9,2.7-5.2
		s4.2-1.8,7.3-1.8c3,0,5.9,0.6,8.6,1.9l-1.8,4.1c-2.8-1.2-5.1-1.7-7.1-1.7c-2.9,0-4.4,0.8-4.4,2.5c0,0.8,0.4,1.5,1.1,2.1
		s2.4,1.3,5,2.3c2.1,0.8,3.7,1.6,4.7,2.3s1.7,1.5,2.2,2.4C347.4,129.3,347.6,130.3,347.6,131.6z"/>
	<path d="M364.9,139.4c-4,0-7.2-1.2-9.5-3.5s-3.4-5.6-3.4-9.7c0-4.2,1.1-7.6,3.2-10s5-3.6,8.7-3.6c3.4,0,6.1,1,8.1,3.1s3,4.9,3,8.6
		v3h-17.3c0.1,2.5,0.8,4.4,2,5.8s3.1,2,5.4,2c1.5,0,3-0.1,4.3-0.4s2.7-0.8,4.3-1.4v4.5c-1.3,0.6-2.7,1.1-4.1,1.4
		S366.7,139.4,364.9,139.4z M363.9,116.8c-1.8,0-3.2,0.6-4.2,1.7s-1.7,2.7-1.9,4.9h11.8c0-2.1-0.5-3.8-1.5-4.9
		S365.6,116.8,363.9,116.8z"/>
	<path d="M397.4,139l-1.1-3.6h-0.2c-1.2,1.6-2.5,2.7-3.8,3.2s-2.9,0.9-4.9,0.9c-2.5,0-4.5-0.7-6-2.1s-2.1-3.3-2.1-5.8
		c0-2.7,1-4.7,3-6s5-2.1,9.1-2.2l4.5-0.1v-1.4c0-1.7-0.4-2.9-1.2-3.7s-2-1.2-3.6-1.2c-1.3,0-2.6,0.2-3.8,0.6s-2.4,0.9-3.5,1.4
		l-1.8-3.9c1.4-0.7,2.9-1.3,4.6-1.7s3.2-0.6,4.7-0.6c3.3,0,5.8,0.7,7.5,2.2s2.5,3.7,2.5,6.8V139H397.4z M389.2,135.2
		c2,0,3.6-0.6,4.8-1.7s1.8-2.7,1.8-4.7v-2.2l-3.3,0.1c-2.6,0.1-4.5,0.5-5.7,1.3c-1.2,0.8-1.8,2-1.8,3.6c0,1.2,0.3,2.1,1,2.7
		S387.9,135.2,389.2,135.2z"/>
	<path d="M422.2,112.6c1.1,0,2,0.1,2.7,0.2l-0.5,5.1c-0.8-0.2-1.6-0.3-2.4-0.3c-2.2,0-4,0.7-5.4,2.2s-2.1,3.3-2.1,5.6V139h-5.5
		v-25.9h4.3l0.7,4.6h0.3c0.9-1.5,2-2.8,3.4-3.7S420.6,112.6,422.2,112.6z"/>
	<path d="M440.2,139.4c-3.9,0-6.9-1.1-8.9-3.4s-3.1-5.6-3.1-9.9c0-4.4,1.1-7.7,3.2-10.1s5.2-3.5,9.2-3.5c2.7,0,5.2,0.5,7.4,1.5
		l-1.7,4.4c-2.3-0.9-4.2-1.4-5.8-1.4c-4.5,0-6.7,3-6.7,8.9c0,2.9,0.6,5.1,1.7,6.6s2.8,2.2,4.9,2.2c2.5,0,4.8-0.6,7-1.8v4.8
		c-1,0.6-2,1-3.2,1.2S441.8,139.4,440.2,139.4z"/>
	<path d="M476.3,139h-5.5V123c0-2-0.4-3.5-1.2-4.5s-2.1-1.5-3.8-1.5c-2.3,0-4,0.7-5.1,2.1s-1.6,3.7-1.6,6.9V139h-5.5v-36.5h5.5v9.3
		c0,1.5-0.1,3.1-0.3,4.8h0.4c0.8-1.2,1.8-2.2,3.1-2.9s2.9-1,4.7-1c6.3,0,9.4,3.2,9.4,9.5V139z"/>
</g>
<g id="Elasticsearch_1_">
	<g>
		<path class="st2" d="M141.8,115.5h-20.9c0.1,0.5,0.3,1,0.4,1.4c0.7,2.4,1.1,4.9,1.3,7.5c0.1,1,0.1,2.1,0.1,3.1c0,1,0,2.1-0.1,3.1
			c-0.2,2.6-0.6,5.1-1.3,7.5c-0.1,0.5-0.3,1-0.4,1.4h20.9c6.6,0,11.9-5.4,11.9-12S148.4,115.5,141.8,115.5z"/>
		<path class="st3" d="M122.6,130.6c0.1-1,0.1-2.1,0.1-3.1c0-1,0-2.1-0.1-3.1c-0.2-2.6-0.6-5.1-1.3-7.5c-0.1-0.5-0.3-1-0.4-1.4H88.6
			c-1.2,3.8-1.8,7.8-1.8,12s0.6,8.2,1.8,12h32.3c0.1-0.5,0.3-1,0.4-1.4C122,135.7,122.4,133.2,122.6,130.6z"/>
	</g>
	<g>
		<path class="st4" d="M145.4,143.5h-26c-0.8,1.8-1.7,3.5-2.7,5.1c-1.5,2.5-3.3,4.7-5.3,6.8c-0.7,0.7-1.4,1.3-2.1,2
			c-1.4,1.3-3,2.4-4.6,3.5c6.3,4.2,13.9,6.6,22,6.6c13.9,0,26.1-7.1,33.3-17.8C156.3,145.9,151.1,143.5,145.4,143.5z"/>
		<path class="st5" d="M116.7,148.6c1-1.6,1.9-3.3,2.7-5.1H90.1c3.1,7.1,8.2,13.2,14.7,17.4c1.6-1.1,3.1-2.2,4.6-3.5
			c0.7-0.6,1.4-1.3,2.1-2C113.4,153.4,115.2,151.1,116.7,148.6z"/>
	</g>
	<g>
		<path class="st6" d="M111.4,99.6c-0.7-0.7-1.4-1.3-2.1-2c-1.4-1.3-3-2.4-4.6-3.5c-6.4,4.2-11.5,10.3-14.7,17.4h29.3
			c-0.8-1.8-1.7-3.5-2.7-5.1C115.2,103.9,113.4,101.6,111.4,99.6z"/>
		<path class="st7" d="M126.7,87.5c-8.1,0-15.7,2.4-22,6.6c1.6,1.1,3.1,2.2,4.6,3.5c0.7,0.6,1.4,1.3,2.1,2c2,2.1,3.8,4.3,5.3,6.8
			c1,1.6,1.9,3.3,2.7,5.1h26c5.7,0,10.9-2.4,14.6-6.2C152.8,94.6,140.6,87.5,126.7,87.5z"/>
	</g>
</g>
</svg>
