<svg id="Layer_1" data-name="Layer 1" xmlns="http://www.w3.org/2000/svg" viewBox="0 0 560 120"><defs><style>.cls-1{fill:#417da5;}</style></defs><title>1A_Safespring_Logotyp_Bla_RGB</title><path class="cls-1" d="M780.74,511.15a35,35,0,0,0-69.59,0A35,35,0,0,0,715,581h30.93a19.54,19.54,0,0,0,0-39.08A11.4,11.4,0,1,1,754,522.43a4.07,4.07,0,1,0,5.77-5.74A19.54,19.54,0,1,0,745.94,550a11.4,11.4,0,1,1,0,22.8H715a26.87,26.87,0,0,1,0-53.74,4.06,4.06,0,0,0,4.06-4.06,26.87,26.87,0,1,1,53.74,0,4.07,4.07,0,0,0,4.07,4.06,26.87,26.87,0,1,1,0,53.74,4.07,4.07,0,0,0,0,8.14,35,35,0,0,0,3.86-69.8Z" transform="translate(-680 -480)"/><path class="cls-1" d="M859.59,554.88c-2-.8-3.8-1.4-6.4-2.29-4.69-1.5-9.28-3.2-9.28-7.1s3-5.89,7.59-5.89a17.39,17.39,0,0,1,12,5.1l4-5.9c-3-3.19-7.79-6.19-16.18-6.19s-16,4.8-16,13.58c0,6.79,4.49,9.89,7.49,11.39,2.19,1.2,3.29,1.4,6.49,2.5S860,562.77,860,568s-4.7,6.79-9.09,6.79a19.5,19.5,0,0,1-14-6.79l-4.59,5.59c4,5.19,10.49,8.49,18.48,8.49,5.49,0,9.88-1.5,13.18-4.2a13.47,13.47,0,0,0,4.89-10.78,11.71,11.71,0,0,0-3.79-8.79A18.24,18.24,0,0,0,859.59,554.88Z" transform="translate(-680 -480)"/><path class="cls-1" d="M894.32,532.61a36.53,36.53,0,0,0-17.78,4.8l2.9,6.39a29.11,29.11,0,0,1,14.28-4.1c6.89,0,11.79,3.6,11.79,10.79v1.9l-12.69.5c-11,.49-18.57,5.19-18.57,14.48s7.59,14.68,16.37,14.68S903.81,577,905.71,575l.1,6h9.28V553.38c0-8.09-1.89-12.08-5.09-15.38S902.21,532.61,894.32,532.61Zm11.29,35.76c-1.8,2.69-5.9,6.89-12.09,6.89s-9.79-3.7-9.79-8.19,3.1-7.79,10.79-8.19l11.09-.7Z" transform="translate(-680 -480)"/><path class="cls-1" d="M970.73,532.61c-13.18,0-24.07,9.59-24.07,24.57s9.69,24.87,23.77,24.87,20.27-7,20.87-7.49l-4-5.5a26.23,26.23,0,0,1-15.68,5.5c-8.79,0-14.78-5.69-15.28-15.08H992.9a41.4,41.4,0,0,0,.3-4.2C993.2,542,983.91,532.61,970.73,532.61Zm-14.28,20.48c.3-5.7,4.49-13.59,14-13.59s13.58,8.29,13.68,13.59Z" transform="translate(-680 -480)"/><path class="cls-1" d="M1023.9,554.88c-2-.8-3.8-1.4-6.39-2.29-4.7-1.5-9.29-3.2-9.29-7.1s3-5.89,7.59-5.89a17.41,17.41,0,0,1,12,5.1l4-5.9c-3-3.19-7.79-6.19-16.18-6.19s-16,4.8-16,13.58c0,6.79,4.49,9.89,7.49,11.39,2.2,1.2,3.3,1.4,6.49,2.5s10.69,2.69,10.69,7.89-4.69,6.79-9.09,6.79a19.48,19.48,0,0,1-14-6.79l-4.6,5.59c4,5.19,10.49,8.49,18.48,8.49,5.49,0,9.89-1.5,13.18-4.2a13.48,13.48,0,0,0,4.9-10.78,11.71,11.71,0,0,0-3.8-8.79A18.12,18.12,0,0,0,1023.9,554.88Z" transform="translate(-680 -480)"/><path class="cls-1" d="M1064.83,532.61A20.12,20.12,0,0,0,1048,541h-.2v-7.49h-9.19V599h9.59V573.46l.1.1c3.39,5.29,8.89,8.49,16.38,8.49,14.08,0,23.07-10.79,23.07-24.87S1078.81,532.61,1064.83,532.61Zm-2,41.25c-9.49,0-15.08-7.29-15.08-16.78s5.59-16.68,15.08-16.68,15.08,7.19,15.08,16.68S1072.32,573.86,1062.83,573.86Z" transform="translate(-680 -480)"/><rect class="cls-1" x="446.6" y="53.51" width="9.59" height="47.44"/><path class="cls-1" d="M1168.51,532.61A16,16,0,0,0,1154,541h-.3l.1-7.49h-9.59V581h9.59V557.08c0-9.09,3.3-16.58,12.19-16.58,8.48,0,9.88,6,9.88,14V581h9.59V552.89C1185.49,541.5,1182,532.61,1168.51,532.61Z" transform="translate(-680 -480)"/><path class="cls-1" d="M1230.51,533.51l.1,7.49h-.3c-2.79-4.39-8.29-8.39-16.58-8.39-12.18,0-22.87,8.79-22.87,23.87s10.69,23.87,22.87,23.87c8,0,13.39-3.69,16.58-8.49h.2v1.87c0,6.5-1.7,11-3.59,13.29s-5.9,5.19-13,5.19-14.48-3.8-17-6l-4.49,6.69a36.44,36.44,0,0,0,21.17,7.09c11.79,0,17.68-4.79,21.18-9.09s5.19-10,5.19-20.47V533.51Zm-14.78,39c-9.69,0-15.08-7.09-15.08-16.08s5.39-16.18,15.08-16.18,15.08,7.19,15.08,16.18S1225.52,572.56,1215.73,572.56Z" transform="translate(-680 -480)"/><path class="cls-1" d="M926.35,516.13c-2,2.5-3.2,6.49-3.2,12.69V581h9.49V541.3h11.28v-7.69H932.64v-5.29c0-5.4,1-10.09,7.29-10.09a18.22,18.22,0,0,1,4,.51V511.5a30.84,30.84,0,0,0-6.19-.56A14.37,14.37,0,0,0,926.35,516.13Z" transform="translate(-680 -480)"/><path class="cls-1" d="M1102.86,540.8h-.3l.1-7.29h-9.59V581h9.59V557.28c0-7,2-10.69,2.89-12a10,10,0,0,1,7.79-4,12.57,12.57,0,0,1,5.2,1v-9.21a15.77,15.77,0,0,0-4-.48C1109.45,532.61,1105.16,535.41,1102.86,540.8Z" transform="translate(-680 -480)"/><circle class="cls-1" cx="451.34" cy="37.18" r="6.24"/></svg>